ISO-10303-21;
HEADER;
FILE_DESCRIPTION(('FreeCAD Model'),'2;1');
FILE_NAME('Open CASCADE Shape Model','2025-09-13T00:14:54',(''),(''),
  'Open CASCADE STEP processor 7.8','FreeCAD','Unknown');
FILE_SCHEMA(('AUTOMOTIVE_DESIGN { 1 0 10303 214 1 1 1 1 }'));
ENDSEC;
DATA;
#1 = APPLICATION_PROTOCOL_DEFINITION('international standard',
  'automotive_design',2000,#2);
#2 = APPLICATION_CONTEXT(
  'core data for automotive mechanical design processes');
#3 = SHAPE_DEFINITION_REPRESENTATION(#4,#10);
#4 = PRODUCT_DEFINITION_SHAPE('','',#5);
#5 = PRODUCT_DEFINITION('design','',#6,#9);
#6 = PRODUCT_DEFINITION_FORMATION('','',#7);
#7 = PRODUCT('BGA_Test','BGA_Test','',(#8));
#8 = PRODUCT_CONTEXT('',#2,'mechanical');
#9 = PRODUCT_DEFINITION_CONTEXT('part definition',#2,'design');
#10 = SHAPE_REPRESENTATION('',(#11,#15,#19,#23,#27,#31,#35,#39,#43,#47,
    #51,#55,#59,#63,#67,#71,#75,#79,#83),#87);
#11 = AXIS2_PLACEMENT_3D('',#12,#13,#14);
#12 = CARTESIAN_POINT('',(0.,0.,0.));
#13 = DIRECTION('',(0.,0.,1.));
#14 = DIRECTION('',(1.,0.,-0.));
#15 = AXIS2_PLACEMENT_3D('',#16,#17,#18);
#16 = CARTESIAN_POINT('',(0.,0.,0.));
#17 = DIRECTION('',(0.,0.,1.));
#18 = DIRECTION('',(1.,0.,0.));
#19 = AXIS2_PLACEMENT_3D('',#20,#21,#22);
#20 = CARTESIAN_POINT('',(0.,0.,0.));
#21 = DIRECTION('',(0.,0.,1.));
#22 = DIRECTION('',(1.,0.,0.));
#23 = AXIS2_PLACEMENT_3D('',#24,#25,#26);
#24 = CARTESIAN_POINT('',(0.,0.,0.));
#25 = DIRECTION('',(0.,0.,1.));
#26 = DIRECTION('',(1.,0.,0.));
#27 = AXIS2_PLACEMENT_3D('',#28,#29,#30);
#28 = CARTESIAN_POINT('',(0.4,0.,1.110223024625E-16));
#29 = DIRECTION('',(0.,0.,1.));
#30 = DIRECTION('',(1.,0.,0.));
#31 = AXIS2_PLACEMENT_3D('',#32,#33,#34);
#32 = CARTESIAN_POINT('',(0.8,0.,1.110223024625E-16));
#33 = DIRECTION('',(0.,0.,1.));
#34 = DIRECTION('',(1.,0.,0.));
#35 = AXIS2_PLACEMENT_3D('',#36,#37,#38);
#36 = CARTESIAN_POINT('',(1.2,0.,1.110223024625E-16));
#37 = DIRECTION('',(0.,0.,1.));
#38 = DIRECTION('',(1.,0.,0.));
#39 = AXIS2_PLACEMENT_3D('',#40,#41,#42);
#40 = CARTESIAN_POINT('',(1.110223024625E-16,0.,0.4));
#41 = DIRECTION('',(0.,0.,1.));
#42 = DIRECTION('',(1.,0.,0.));
#43 = AXIS2_PLACEMENT_3D('',#44,#45,#46);
#44 = CARTESIAN_POINT('',(1.110223024625E-16,0.,0.8));
#45 = DIRECTION('',(0.,0.,1.));
#46 = DIRECTION('',(1.,0.,0.));
#47 = AXIS2_PLACEMENT_3D('',#48,#49,#50);
#48 = CARTESIAN_POINT('',(1.110223024625E-16,0.,1.2));
#49 = DIRECTION('',(0.,0.,1.));
#50 = DIRECTION('',(1.,0.,0.));
#51 = AXIS2_PLACEMENT_3D('',#52,#53,#54);
#52 = CARTESIAN_POINT('',(0.4,0.,0.4));
#53 = DIRECTION('',(0.,0.,1.));
#54 = DIRECTION('',(1.,0.,0.));
#55 = AXIS2_PLACEMENT_3D('',#56,#57,#58);
#56 = CARTESIAN_POINT('',(0.8,0.,0.4));
#57 = DIRECTION('',(0.,0.,1.));
#58 = DIRECTION('',(1.,0.,0.));
#59 = AXIS2_PLACEMENT_3D('',#60,#61,#62);
#60 = CARTESIAN_POINT('',(1.2,0.,0.4));
#61 = DIRECTION('',(0.,0.,1.));
#62 = DIRECTION('',(1.,0.,0.));
#63 = AXIS2_PLACEMENT_3D('',#64,#65,#66);
#64 = CARTESIAN_POINT('',(0.4,0.,0.8));
#65 = DIRECTION('',(0.,0.,1.));
#66 = DIRECTION('',(1.,0.,0.));
#67 = AXIS2_PLACEMENT_3D('',#68,#69,#70);
#68 = CARTESIAN_POINT('',(0.8,0.,0.8));
#69 = DIRECTION('',(0.,0.,1.));
#70 = DIRECTION('',(1.,0.,0.));
#71 = AXIS2_PLACEMENT_3D('',#72,#73,#74);
#72 = CARTESIAN_POINT('',(1.2,0.,0.8));
#73 = DIRECTION('',(0.,0.,1.));
#74 = DIRECTION('',(1.,0.,0.));
#75 = AXIS2_PLACEMENT_3D('',#76,#77,#78);
#76 = CARTESIAN_POINT('',(0.4,0.,1.2));
#77 = DIRECTION('',(0.,0.,1.));
#78 = DIRECTION('',(1.,0.,0.));
#79 = AXIS2_PLACEMENT_3D('',#80,#81,#82);
#80 = CARTESIAN_POINT('',(0.8,0.,1.2));
#81 = DIRECTION('',(0.,0.,1.));
#82 = DIRECTION('',(1.,0.,0.));
#83 = AXIS2_PLACEMENT_3D('',#84,#85,#86);
#84 = CARTESIAN_POINT('',(1.2,0.,1.2));
#85 = DIRECTION('',(0.,0.,1.));
#86 = DIRECTION('',(1.,0.,0.));
#87 = ( GEOMETRIC_REPRESENTATION_CONTEXT(3) 
GLOBAL_UNCERTAINTY_ASSIGNED_CONTEXT((#91)) GLOBAL_UNIT_ASSIGNED_CONTEXT(
(#88,#89,#90)) REPRESENTATION_CONTEXT('Context #1',
  '3D Context with UNIT and UNCERTAINTY') );
#88 = ( LENGTH_UNIT() NAMED_UNIT(*) SI_UNIT(.MILLI.,.METRE.) );
#89 = ( NAMED_UNIT(*) PLANE_ANGLE_UNIT() SI_UNIT($,.RADIAN.) );
#90 = ( NAMED_UNIT(*) SI_UNIT($,.STERADIAN.) SOLID_ANGLE_UNIT() );
#91 = UNCERTAINTY_MEASURE_WITH_UNIT(LENGTH_MEASURE(1.E-07),#88,
  'distance_accuracy_value','confusion accuracy');
#92 = PRODUCT_RELATED_PRODUCT_CATEGORY('part',$,(#7));
#93 = SHAPE_DEFINITION_REPRESENTATION(#94,#100);
#94 = PRODUCT_DEFINITION_SHAPE('','',#95);
#95 = PRODUCT_DEFINITION('design','',#96,#99);
#96 = PRODUCT_DEFINITION_FORMATION('','',#97);
#97 = PRODUCT('Body_Solid1','Body_Solid1','',(#98));
#98 = PRODUCT_CONTEXT('',#2,'mechanical');
#99 = PRODUCT_DEFINITION_CONTEXT('part definition',#2,'design');
#100 = ADVANCED_BREP_SHAPE_REPRESENTATION('',(#11,#101),#296);
#101 = MANIFOLD_SOLID_BREP('',#102);
#102 = CLOSED_SHELL('',(#103,#143,#174,#198,#233,#250,#262,#287));
#103 = ADVANCED_FACE('',(#104),#138,.T.);
#104 = FACE_BOUND('',#105,.T.);
#105 = EDGE_LOOP('',(#106,#116,#124,#132));
#106 = ORIENTED_EDGE('',*,*,#107,.F.);
#107 = EDGE_CURVE('',#108,#110,#112,.T.);
#108 = VERTEX_POINT('',#109);
#109 = CARTESIAN_POINT('',(-0.89,0.16,0.89));
#110 = VERTEX_POINT('',#111);
#111 = CARTESIAN_POINT('',(-0.89,0.16,-0.89));
#112 = LINE('',#113,#114);
#113 = CARTESIAN_POINT('',(-0.89,0.16,0.89));
#114 = VECTOR('',#115,1.);
#115 = DIRECTION('',(0.,-2.22044604925E-16,-1.));
#116 = ORIENTED_EDGE('',*,*,#117,.T.);
#117 = EDGE_CURVE('',#108,#118,#120,.T.);
#118 = VERTEX_POINT('',#119);
#119 = CARTESIAN_POINT('',(-0.89,0.62,0.89));
#120 = LINE('',#121,#122);
#121 = CARTESIAN_POINT('',(-0.89,1.976196983833E-16,0.89));
#122 = VECTOR('',#123,1.);
#123 = DIRECTION('',(0.,1.,-2.22044604925E-16));
#124 = ORIENTED_EDGE('',*,*,#125,.T.);
#125 = EDGE_CURVE('',#118,#126,#128,.T.);
#126 = VERTEX_POINT('',#127);
#127 = CARTESIAN_POINT('',(-0.89,0.62,-0.89));
#128 = LINE('',#129,#130);
#129 = CARTESIAN_POINT('',(-0.89,0.62,0.89));
#130 = VECTOR('',#131,1.);
#131 = DIRECTION('',(0.,-2.22044604925E-16,-1.));
#132 = ORIENTED_EDGE('',*,*,#133,.F.);
#133 = EDGE_CURVE('',#110,#126,#134,.T.);
#134 = LINE('',#135,#136);
#135 = CARTESIAN_POINT('',(-0.89,-1.976196983833E-16,-0.89));
#136 = VECTOR('',#137,1.);
#137 = DIRECTION('',(0.,1.,-2.22044604925E-16));
#138 = PLANE('',#139);
#139 = AXIS2_PLACEMENT_3D('',#140,#141,#142);
#140 = CARTESIAN_POINT('',(-0.89,1.976196983833E-16,0.89));
#141 = DIRECTION('',(-1.,0.,0.));
#142 = DIRECTION('',(0.,-2.22044604925E-16,-1.));
#143 = ADVANCED_FACE('',(#144),#169,.F.);
#144 = FACE_BOUND('',#145,.T.);
#145 = EDGE_LOOP('',(#146,#147,#155,#163));
#146 = ORIENTED_EDGE('',*,*,#107,.T.);
#147 = ORIENTED_EDGE('',*,*,#148,.T.);
#148 = EDGE_CURVE('',#110,#149,#151,.T.);
#149 = VERTEX_POINT('',#150);
#150 = CARTESIAN_POINT('',(0.89,0.16,-0.89));
#151 = LINE('',#152,#153);
#152 = CARTESIAN_POINT('',(-0.89,0.16,-0.89));
#153 = VECTOR('',#154,1.);
#154 = DIRECTION('',(1.,0.,0.));
#155 = ORIENTED_EDGE('',*,*,#156,.T.);
#156 = EDGE_CURVE('',#149,#157,#159,.T.);
#157 = VERTEX_POINT('',#158);
#158 = CARTESIAN_POINT('',(0.89,0.16,0.89));
#159 = LINE('',#160,#161);
#160 = CARTESIAN_POINT('',(0.89,0.16,-0.89));
#161 = VECTOR('',#162,1.);
#162 = DIRECTION('',(0.,2.22044604925E-16,1.));
#163 = ORIENTED_EDGE('',*,*,#164,.T.);
#164 = EDGE_CURVE('',#157,#108,#165,.T.);
#165 = LINE('',#166,#167);
#166 = CARTESIAN_POINT('',(0.89,0.16,0.89));
#167 = VECTOR('',#168,1.);
#168 = DIRECTION('',(-1.,0.,0.));
#169 = PLANE('',#170);
#170 = AXIS2_PLACEMENT_3D('',#171,#172,#173);
#171 = CARTESIAN_POINT('',(0.,0.16,-2.775557561563E-17));
#172 = DIRECTION('',(0.,1.,0.));
#173 = DIRECTION('',(0.,0.,1.));
#174 = ADVANCED_FACE('',(#175),#193,.T.);
#175 = FACE_BOUND('',#176,.T.);
#176 = EDGE_LOOP('',(#177,#178,#179,#187));
#177 = ORIENTED_EDGE('',*,*,#148,.F.);
#178 = ORIENTED_EDGE('',*,*,#133,.T.);
#179 = ORIENTED_EDGE('',*,*,#180,.T.);
#180 = EDGE_CURVE('',#126,#181,#183,.T.);
#181 = VERTEX_POINT('',#182);
#182 = CARTESIAN_POINT('',(0.89,0.62,-0.89));
#183 = LINE('',#184,#185);
#184 = CARTESIAN_POINT('',(-0.89,0.62,-0.89));
#185 = VECTOR('',#186,1.);
#186 = DIRECTION('',(1.,0.,0.));
#187 = ORIENTED_EDGE('',*,*,#188,.F.);
#188 = EDGE_CURVE('',#149,#181,#189,.T.);
#189 = LINE('',#190,#191);
#190 = CARTESIAN_POINT('',(0.89,-1.976196983833E-16,-0.89));
#191 = VECTOR('',#192,1.);
#192 = DIRECTION('',(0.,1.,-2.22044604925E-16));
#193 = PLANE('',#194);
#194 = AXIS2_PLACEMENT_3D('',#195,#196,#197);
#195 = CARTESIAN_POINT('',(-0.89,-1.976196983833E-16,-0.89));
#196 = DIRECTION('',(0.,-2.22044604925E-16,-1.));
#197 = DIRECTION('',(1.,0.,0.));
#198 = ADVANCED_FACE('',(#199,#217),#228,.T.);
#199 = FACE_BOUND('',#200,.T.);
#200 = EDGE_LOOP('',(#201,#202,#210,#216));
#201 = ORIENTED_EDGE('',*,*,#125,.F.);
#202 = ORIENTED_EDGE('',*,*,#203,.F.);
#203 = EDGE_CURVE('',#204,#118,#206,.T.);
#204 = VERTEX_POINT('',#205);
#205 = CARTESIAN_POINT('',(0.89,0.62,0.89));
#206 = LINE('',#207,#208);
#207 = CARTESIAN_POINT('',(0.89,0.62,0.89));
#208 = VECTOR('',#209,1.);
#209 = DIRECTION('',(-1.,0.,0.));
#210 = ORIENTED_EDGE('',*,*,#211,.F.);
#211 = EDGE_CURVE('',#181,#204,#212,.T.);
#212 = LINE('',#213,#214);
#213 = CARTESIAN_POINT('',(0.89,0.62,-0.89));
#214 = VECTOR('',#215,1.);
#215 = DIRECTION('',(0.,2.22044604925E-16,1.));
#216 = ORIENTED_EDGE('',*,*,#180,.F.);
#217 = FACE_BOUND('',#218,.T.);
#218 = EDGE_LOOP('',(#219));
#219 = ORIENTED_EDGE('',*,*,#220,.F.);
#220 = EDGE_CURVE('',#221,#221,#223,.T.);
#221 = VERTEX_POINT('',#222);
#222 = CARTESIAN_POINT('',(-0.531008403361,0.62,-0.635714285714));
#223 = CIRCLE('',#224,0.104705882353);
#224 = AXIS2_PLACEMENT_3D('',#225,#226,#227);
#225 = CARTESIAN_POINT('',(-0.635714285714,0.62,-0.635714285714));
#226 = DIRECTION('',(-0.,1.,2.22044604925E-16));
#227 = DIRECTION('',(1.,0.,0.));
#228 = PLANE('',#229);
#229 = AXIS2_PLACEMENT_3D('',#230,#231,#232);
#230 = CARTESIAN_POINT('',(0.,0.62,-1.110223024625E-16));
#231 = DIRECTION('',(0.,1.,0.));
#232 = DIRECTION('',(0.,0.,1.));
#233 = ADVANCED_FACE('',(#234),#245,.T.);
#234 = FACE_BOUND('',#235,.T.);
#235 = EDGE_LOOP('',(#236,#237,#243,#244));
#236 = ORIENTED_EDGE('',*,*,#164,.F.);
#237 = ORIENTED_EDGE('',*,*,#238,.T.);
#238 = EDGE_CURVE('',#157,#204,#239,.T.);
#239 = LINE('',#240,#241);
#240 = CARTESIAN_POINT('',(0.89,1.976196983833E-16,0.89));
#241 = VECTOR('',#242,1.);
#242 = DIRECTION('',(0.,1.,-2.22044604925E-16));
#243 = ORIENTED_EDGE('',*,*,#203,.T.);
#244 = ORIENTED_EDGE('',*,*,#117,.F.);
#245 = PLANE('',#246);
#246 = AXIS2_PLACEMENT_3D('',#247,#248,#249);
#247 = CARTESIAN_POINT('',(0.89,1.976196983833E-16,0.89));
#248 = DIRECTION('',(0.,2.22044604925E-16,1.));
#249 = DIRECTION('',(-1.,0.,0.));
#250 = ADVANCED_FACE('',(#251),#257,.T.);
#251 = FACE_BOUND('',#252,.T.);
#252 = EDGE_LOOP('',(#253,#254,#255,#256));
#253 = ORIENTED_EDGE('',*,*,#156,.F.);
#254 = ORIENTED_EDGE('',*,*,#188,.T.);
#255 = ORIENTED_EDGE('',*,*,#211,.T.);
#256 = ORIENTED_EDGE('',*,*,#238,.F.);
#257 = PLANE('',#258);
#258 = AXIS2_PLACEMENT_3D('',#259,#260,#261);
#259 = CARTESIAN_POINT('',(0.89,-1.976196983833E-16,-0.89));
#260 = DIRECTION('',(1.,0.,0.));
#261 = DIRECTION('',(0.,2.22044604925E-16,1.));
#262 = ADVANCED_FACE('',(#263),#282,.F.);
#263 = FACE_BOUND('',#264,.F.);
#264 = EDGE_LOOP('',(#265,#273,#280,#281));
#265 = ORIENTED_EDGE('',*,*,#266,.T.);
#266 = EDGE_CURVE('',#221,#267,#269,.T.);
#267 = VERTEX_POINT('',#268);
#268 = CARTESIAN_POINT('',(-0.531008403361,0.574,-0.635714285714));
#269 = LINE('',#270,#271);
#270 = CARTESIAN_POINT('',(-0.531008403361,0.62,-0.635714285714));
#271 = VECTOR('',#272,1.);
#272 = DIRECTION('',(0.,-1.,-2.22044604925E-16));
#273 = ORIENTED_EDGE('',*,*,#274,.T.);
#274 = EDGE_CURVE('',#267,#267,#275,.T.);
#275 = CIRCLE('',#276,0.104705882353);
#276 = AXIS2_PLACEMENT_3D('',#277,#278,#279);
#277 = CARTESIAN_POINT('',(-0.635714285714,0.574,-0.635714285714));
#278 = DIRECTION('',(-0.,1.,2.22044604925E-16));
#279 = DIRECTION('',(1.,0.,0.));
#280 = ORIENTED_EDGE('',*,*,#266,.F.);
#281 = ORIENTED_EDGE('',*,*,#220,.F.);
#282 = CYLINDRICAL_SURFACE('',#283,0.104705882353);
#283 = AXIS2_PLACEMENT_3D('',#284,#285,#286);
#284 = CARTESIAN_POINT('',(-0.635714285714,0.62,-0.635714285714));
#285 = DIRECTION('',(0.,1.,2.22044604925E-16));
#286 = DIRECTION('',(1.,0.,0.));
#287 = ADVANCED_FACE('',(#288),#291,.T.);
#288 = FACE_BOUND('',#289,.T.);
#289 = EDGE_LOOP('',(#290));
#290 = ORIENTED_EDGE('',*,*,#274,.T.);
#291 = PLANE('',#292);
#292 = AXIS2_PLACEMENT_3D('',#293,#294,#295);
#293 = CARTESIAN_POINT('',(-0.635714285714,0.574,-0.635714285714));
#294 = DIRECTION('',(0.,1.,0.));
#295 = DIRECTION('',(0.,0.,1.));
#296 = ( GEOMETRIC_REPRESENTATION_CONTEXT(3) 
GLOBAL_UNCERTAINTY_ASSIGNED_CONTEXT((#300)) GLOBAL_UNIT_ASSIGNED_CONTEXT
((#297,#298,#299)) REPRESENTATION_CONTEXT('Context #1',
  '3D Context with UNIT and UNCERTAINTY') );
#297 = ( LENGTH_UNIT() NAMED_UNIT(*) SI_UNIT(.MILLI.,.METRE.) );
#298 = ( NAMED_UNIT(*) PLANE_ANGLE_UNIT() SI_UNIT($,.RADIAN.) );
#299 = ( NAMED_UNIT(*) SI_UNIT($,.STERADIAN.) SOLID_ANGLE_UNIT() );
#300 = UNCERTAINTY_MEASURE_WITH_UNIT(LENGTH_MEASURE(1.E-07),#297,
  'distance_accuracy_value','confusion accuracy');
#301 = CONTEXT_DEPENDENT_SHAPE_REPRESENTATION(#302,#304);
#302 = ( REPRESENTATION_RELATIONSHIP('','',#100,#10) 
REPRESENTATION_RELATIONSHIP_WITH_TRANSFORMATION(#303) 
SHAPE_REPRESENTATION_RELATIONSHIP() );
#303 = ITEM_DEFINED_TRANSFORMATION('','',#11,#15);
#304 = PRODUCT_DEFINITION_SHAPE('Placement','Placement of an item',#305
  );
#305 = NEXT_ASSEMBLY_USAGE_OCCURRENCE('622','Body_Solid1','',#5,#95,$);
#306 = PRODUCT_RELATED_PRODUCT_CATEGORY('part',$,(#97));
#307 = SHAPE_DEFINITION_REPRESENTATION(#308,#314);
#308 = PRODUCT_DEFINITION_SHAPE('','',#309);
#309 = PRODUCT_DEFINITION('design','',#310,#313);
#310 = PRODUCT_DEFINITION_FORMATION('','',#311);
#311 = PRODUCT('Body002_Solid1','Body002_Solid1','',(#312));
#312 = PRODUCT_CONTEXT('',#2,'mechanical');
#313 = PRODUCT_DEFINITION_CONTEXT('part definition',#2,'design');
#314 = ADVANCED_BREP_SHAPE_REPRESENTATION('',(#11,#315),#368);
#315 = MANIFOLD_SOLID_BREP('',#316);
#316 = CLOSED_SHELL('',(#317,#350,#359));
#317 = ADVANCED_FACE('',(#318),#345,.T.);
#318 = FACE_BOUND('',#319,.F.);
#319 = EDGE_LOOP('',(#320,#330,#337,#338));
#320 = ORIENTED_EDGE('',*,*,#321,.T.);
#321 = EDGE_CURVE('',#322,#324,#326,.T.);
#322 = VERTEX_POINT('',#323);
#323 = CARTESIAN_POINT('',(-0.740420168067,0.574,-0.635714285714));
#324 = VERTEX_POINT('',#325);
#325 = CARTESIAN_POINT('',(-0.740420168067,0.62,-0.635714285714));
#326 = LINE('',#327,#328);
#327 = CARTESIAN_POINT('',(-0.740420168067,0.574,-0.635714285714));
#328 = VECTOR('',#329,1.);
#329 = DIRECTION('',(0.,1.,-2.22044604925E-16));
#330 = ORIENTED_EDGE('',*,*,#331,.T.);
#331 = EDGE_CURVE('',#324,#324,#332,.T.);
#332 = CIRCLE('',#333,0.104705882353);
#333 = AXIS2_PLACEMENT_3D('',#334,#335,#336);
#334 = CARTESIAN_POINT('',(-0.635714285714,0.62,-0.635714285714));
#335 = DIRECTION('',(0.,1.,-2.22044604925E-16));
#336 = DIRECTION('',(-1.,0.,0.));
#337 = ORIENTED_EDGE('',*,*,#321,.F.);
#338 = ORIENTED_EDGE('',*,*,#339,.F.);
#339 = EDGE_CURVE('',#322,#322,#340,.T.);
#340 = CIRCLE('',#341,0.104705882353);
#341 = AXIS2_PLACEMENT_3D('',#342,#343,#344);
#342 = CARTESIAN_POINT('',(-0.635714285714,0.574,-0.635714285714));
#343 = DIRECTION('',(0.,1.,-2.22044604925E-16));
#344 = DIRECTION('',(-1.,0.,0.));
#345 = CYLINDRICAL_SURFACE('',#346,0.104705882353);
#346 = AXIS2_PLACEMENT_3D('',#347,#348,#349);
#347 = CARTESIAN_POINT('',(-0.635714285714,0.574,-0.635714285714));
#348 = DIRECTION('',(0.,-1.,2.22044604925E-16));
#349 = DIRECTION('',(-1.,0.,0.));
#350 = ADVANCED_FACE('',(#351),#354,.F.);
#351 = FACE_BOUND('',#352,.F.);
#352 = EDGE_LOOP('',(#353));
#353 = ORIENTED_EDGE('',*,*,#339,.T.);
#354 = PLANE('',#355);
#355 = AXIS2_PLACEMENT_3D('',#356,#357,#358);
#356 = CARTESIAN_POINT('',(-0.635714285714,0.574,-0.635714285714));
#357 = DIRECTION('',(0.,1.,0.));
#358 = DIRECTION('',(0.,0.,1.));
#359 = ADVANCED_FACE('',(#360),#363,.T.);
#360 = FACE_BOUND('',#361,.T.);
#361 = EDGE_LOOP('',(#362));
#362 = ORIENTED_EDGE('',*,*,#331,.T.);
#363 = PLANE('',#364);
#364 = AXIS2_PLACEMENT_3D('',#365,#366,#367);
#365 = CARTESIAN_POINT('',(-0.635714285714,0.62,-0.635714285714));
#366 = DIRECTION('',(0.,1.,0.));
#367 = DIRECTION('',(0.,0.,1.));
#368 = ( GEOMETRIC_REPRESENTATION_CONTEXT(3) 
GLOBAL_UNCERTAINTY_ASSIGNED_CONTEXT((#372)) GLOBAL_UNIT_ASSIGNED_CONTEXT
((#369,#370,#371)) REPRESENTATION_CONTEXT('Context #1',
  '3D Context with UNIT and UNCERTAINTY') );
#369 = ( LENGTH_UNIT() NAMED_UNIT(*) SI_UNIT(.MILLI.,.METRE.) );
#370 = ( NAMED_UNIT(*) PLANE_ANGLE_UNIT() SI_UNIT($,.RADIAN.) );
#371 = ( NAMED_UNIT(*) SI_UNIT($,.STERADIAN.) SOLID_ANGLE_UNIT() );
#372 = UNCERTAINTY_MEASURE_WITH_UNIT(LENGTH_MEASURE(1.E-07),#369,
  'distance_accuracy_value','confusion accuracy');
#373 = CONTEXT_DEPENDENT_SHAPE_REPRESENTATION(#374,#376);
#374 = ( REPRESENTATION_RELATIONSHIP('','',#314,#10) 
REPRESENTATION_RELATIONSHIP_WITH_TRANSFORMATION(#375) 
SHAPE_REPRESENTATION_RELATIONSHIP() );
#375 = ITEM_DEFINED_TRANSFORMATION('','',#11,#19);
#376 = PRODUCT_DEFINITION_SHAPE('Placement','Placement of an item',#377
  );
#377 = NEXT_ASSEMBLY_USAGE_OCCURRENCE('623','Body002_Solid1','',#5,#309,
  $);
#378 = PRODUCT_RELATED_PRODUCT_CATEGORY('part',$,(#311));
#379 = SHAPE_DEFINITION_REPRESENTATION(#380,#386);
#380 = PRODUCT_DEFINITION_SHAPE('','',#381);
#381 = PRODUCT_DEFINITION('design','',#382,#385);
#382 = PRODUCT_DEFINITION_FORMATION('','',#383);
#383 = PRODUCT('BALL_0001','BALL_0001','',(#384));
#384 = PRODUCT_CONTEXT('',#2,'mechanical');
#385 = PRODUCT_DEFINITION_CONTEXT('part definition',#2,'design');
#386 = ADVANCED_BREP_SHAPE_REPRESENTATION('',(#11,#387),#425);
#387 = MANIFOLD_SOLID_BREP('',#388);
#388 = CLOSED_SHELL('',(#389,#416));
#389 = ADVANCED_FACE('',(#390),#411,.T.);
#390 = FACE_BOUND('',#391,.T.);
#391 = EDGE_LOOP('',(#392,#401,#410));
#392 = ORIENTED_EDGE('',*,*,#393,.T.);
#393 = EDGE_CURVE('',#394,#394,#396,.T.);
#394 = VERTEX_POINT('',#395);
#395 = CARTESIAN_POINT('',(-0.6,0.16,-0.519999999999));
#396 = CIRCLE('',#397,8.000000000055E-02);
#397 = AXIS2_PLACEMENT_3D('',#398,#399,#400);
#398 = CARTESIAN_POINT('',(-0.6,0.16,-0.6));
#399 = DIRECTION('',(-5.551115123126E-17,-1.,0.));
#400 = DIRECTION('',(-3.046243393016E-28,1.691004776769E-44,1.));
#401 = ORIENTED_EDGE('',*,*,#402,.T.);
#402 = EDGE_CURVE('',#394,#403,#405,.T.);
#403 = VERTEX_POINT('',#404);
#404 = CARTESIAN_POINT('',(-0.6,-4.390267754622E-13,-0.6));
#405 = CIRCLE('',#406,0.1);
#406 = AXIS2_PLACEMENT_3D('',#407,#408,#409);
#407 = CARTESIAN_POINT('',(-0.6,1.E-01,-0.6));
#408 = DIRECTION('',(1.,-1.110223024625E-16,-5.551115123126E-17));
#409 = DIRECTION('',(1.110223024625E-16,1.,5.551115123126E-17));
#410 = ORIENTED_EDGE('',*,*,#402,.F.);
#411 = SPHERICAL_SURFACE('',#412,0.1);
#412 = AXIS2_PLACEMENT_3D('',#413,#414,#415);
#413 = CARTESIAN_POINT('',(-0.6,1.E-01,-0.6));
#414 = DIRECTION('',(-5.551115123126E-17,-1.,-0.));
#415 = DIRECTION('',(-2.724608469056E-28,1.512461527718E-44,1.));
#416 = ADVANCED_FACE('',(#417),#420,.F.);
#417 = FACE_BOUND('',#418,.F.);
#418 = EDGE_LOOP('',(#419));
#419 = ORIENTED_EDGE('',*,*,#393,.T.);
#420 = PLANE('',#421);
#421 = AXIS2_PLACEMENT_3D('',#422,#423,#424);
#422 = CARTESIAN_POINT('',(-0.6,0.16,-0.6));
#423 = DIRECTION('',(-5.551115123126E-17,-1.,-0.));
#424 = DIRECTION('',(-3.046243393016E-28,1.691004776769E-44,1.));
#425 = ( GEOMETRIC_REPRESENTATION_CONTEXT(3) 
GLOBAL_UNCERTAINTY_ASSIGNED_CONTEXT((#429)) GLOBAL_UNIT_ASSIGNED_CONTEXT
((#426,#427,#428)) REPRESENTATION_CONTEXT('Context #1',
  '3D Context with UNIT and UNCERTAINTY') );
#426 = ( LENGTH_UNIT() NAMED_UNIT(*) SI_UNIT(.MILLI.,.METRE.) );
#427 = ( NAMED_UNIT(*) PLANE_ANGLE_UNIT() SI_UNIT($,.RADIAN.) );
#428 = ( NAMED_UNIT(*) SI_UNIT($,.STERADIAN.) SOLID_ANGLE_UNIT() );
#429 = UNCERTAINTY_MEASURE_WITH_UNIT(LENGTH_MEASURE(1.E-07),#426,
  'distance_accuracy_value','confusion accuracy');
#430 = CONTEXT_DEPENDENT_SHAPE_REPRESENTATION(#431,#433);
#431 = ( REPRESENTATION_RELATIONSHIP('','',#386,#10) 
REPRESENTATION_RELATIONSHIP_WITH_TRANSFORMATION(#432) 
SHAPE_REPRESENTATION_RELATIONSHIP() );
#432 = ITEM_DEFINED_TRANSFORMATION('','',#11,#23);
#433 = PRODUCT_DEFINITION_SHAPE('Placement','Placement of an item',#434
  );
#434 = NEXT_ASSEMBLY_USAGE_OCCURRENCE('624','BALL_0001','',#5,#381,$);
#435 = PRODUCT_RELATED_PRODUCT_CATEGORY('part',$,(#383));
#436 = SHAPE_DEFINITION_REPRESENTATION(#437,#443);
#437 = PRODUCT_DEFINITION_SHAPE('','',#438);
#438 = PRODUCT_DEFINITION('design','',#439,#442);
#439 = PRODUCT_DEFINITION_FORMATION('','',#440);
#440 = PRODUCT('BALL_0002','BALL_0002','',(#441));
#441 = PRODUCT_CONTEXT('',#2,'mechanical');
#442 = PRODUCT_DEFINITION_CONTEXT('part definition',#2,'design');
#443 = ADVANCED_BREP_SHAPE_REPRESENTATION('',(#11,#444),#482);
#444 = MANIFOLD_SOLID_BREP('',#445);
#445 = CLOSED_SHELL('',(#446,#473));
#446 = ADVANCED_FACE('',(#447),#468,.T.);
#447 = FACE_BOUND('',#448,.T.);
#448 = EDGE_LOOP('',(#449,#458,#467));
#449 = ORIENTED_EDGE('',*,*,#450,.T.);
#450 = EDGE_CURVE('',#451,#451,#453,.T.);
#451 = VERTEX_POINT('',#452);
#452 = CARTESIAN_POINT('',(-0.6,0.16,-0.519999999999));
#453 = CIRCLE('',#454,8.000000000055E-02);
#454 = AXIS2_PLACEMENT_3D('',#455,#456,#457);
#455 = CARTESIAN_POINT('',(-0.6,0.16,-0.6));
#456 = DIRECTION('',(-5.551115123126E-17,-1.,0.));
#457 = DIRECTION('',(-3.046243393016E-28,1.691004776769E-44,1.));
#458 = ORIENTED_EDGE('',*,*,#459,.T.);
#459 = EDGE_CURVE('',#451,#460,#462,.T.);
#460 = VERTEX_POINT('',#461);
#461 = CARTESIAN_POINT('',(-0.6,-4.390267754622E-13,-0.6));
#462 = CIRCLE('',#463,0.1);
#463 = AXIS2_PLACEMENT_3D('',#464,#465,#466);
#464 = CARTESIAN_POINT('',(-0.6,1.E-01,-0.6));
#465 = DIRECTION('',(1.,-1.110223024625E-16,-5.551115123126E-17));
#466 = DIRECTION('',(1.110223024625E-16,1.,5.551115123126E-17));
#467 = ORIENTED_EDGE('',*,*,#459,.F.);
#468 = SPHERICAL_SURFACE('',#469,0.1);
#469 = AXIS2_PLACEMENT_3D('',#470,#471,#472);
#470 = CARTESIAN_POINT('',(-0.6,1.E-01,-0.6));
#471 = DIRECTION('',(-5.551115123126E-17,-1.,-0.));
#472 = DIRECTION('',(-2.724608469056E-28,1.512461527718E-44,1.));
#473 = ADVANCED_FACE('',(#474),#477,.F.);
#474 = FACE_BOUND('',#475,.F.);
#475 = EDGE_LOOP('',(#476));
#476 = ORIENTED_EDGE('',*,*,#450,.T.);
#477 = PLANE('',#478);
#478 = AXIS2_PLACEMENT_3D('',#479,#480,#481);
#479 = CARTESIAN_POINT('',(-0.6,0.16,-0.6));
#480 = DIRECTION('',(-5.551115123126E-17,-1.,-0.));
#481 = DIRECTION('',(-3.046243393016E-28,1.691004776769E-44,1.));
#482 = ( GEOMETRIC_REPRESENTATION_CONTEXT(3) 
GLOBAL_UNCERTAINTY_ASSIGNED_CONTEXT((#486)) GLOBAL_UNIT_ASSIGNED_CONTEXT
((#483,#484,#485)) REPRESENTATION_CONTEXT('Context #1',
  '3D Context with UNIT and UNCERTAINTY') );
#483 = ( LENGTH_UNIT() NAMED_UNIT(*) SI_UNIT(.MILLI.,.METRE.) );
#484 = ( NAMED_UNIT(*) PLANE_ANGLE_UNIT() SI_UNIT($,.RADIAN.) );
#485 = ( NAMED_UNIT(*) SI_UNIT($,.STERADIAN.) SOLID_ANGLE_UNIT() );
#486 = UNCERTAINTY_MEASURE_WITH_UNIT(LENGTH_MEASURE(1.E-07),#483,
  'distance_accuracy_value','confusion accuracy');
#487 = CONTEXT_DEPENDENT_SHAPE_REPRESENTATION(#488,#490);
#488 = ( REPRESENTATION_RELATIONSHIP('','',#443,#10) 
REPRESENTATION_RELATIONSHIP_WITH_TRANSFORMATION(#489) 
SHAPE_REPRESENTATION_RELATIONSHIP() );
#489 = ITEM_DEFINED_TRANSFORMATION('','',#11,#27);
#490 = PRODUCT_DEFINITION_SHAPE('Placement','Placement of an item',#491
  );
#491 = NEXT_ASSEMBLY_USAGE_OCCURRENCE('625','BALL_0002','',#5,#438,$);
#492 = PRODUCT_RELATED_PRODUCT_CATEGORY('part',$,(#440));
#493 = SHAPE_DEFINITION_REPRESENTATION(#494,#500);
#494 = PRODUCT_DEFINITION_SHAPE('','',#495);
#495 = PRODUCT_DEFINITION('design','',#496,#499);
#496 = PRODUCT_DEFINITION_FORMATION('','',#497);
#497 = PRODUCT('BALL_0003','BALL_0003','',(#498));
#498 = PRODUCT_CONTEXT('',#2,'mechanical');
#499 = PRODUCT_DEFINITION_CONTEXT('part definition',#2,'design');
#500 = ADVANCED_BREP_SHAPE_REPRESENTATION('',(#11,#501),#539);
#501 = MANIFOLD_SOLID_BREP('',#502);
#502 = CLOSED_SHELL('',(#503,#530));
#503 = ADVANCED_FACE('',(#504),#525,.T.);
#504 = FACE_BOUND('',#505,.T.);
#505 = EDGE_LOOP('',(#506,#515,#524));
#506 = ORIENTED_EDGE('',*,*,#507,.T.);
#507 = EDGE_CURVE('',#508,#508,#510,.T.);
#508 = VERTEX_POINT('',#509);
#509 = CARTESIAN_POINT('',(-0.6,0.16,-0.519999999999));
#510 = CIRCLE('',#511,8.000000000055E-02);
#511 = AXIS2_PLACEMENT_3D('',#512,#513,#514);
#512 = CARTESIAN_POINT('',(-0.6,0.16,-0.6));
#513 = DIRECTION('',(-5.551115123126E-17,-1.,0.));
#514 = DIRECTION('',(-3.046243393016E-28,1.691004776769E-44,1.));
#515 = ORIENTED_EDGE('',*,*,#516,.T.);
#516 = EDGE_CURVE('',#508,#517,#519,.T.);
#517 = VERTEX_POINT('',#518);
#518 = CARTESIAN_POINT('',(-0.6,-4.390267754622E-13,-0.6));
#519 = CIRCLE('',#520,0.1);
#520 = AXIS2_PLACEMENT_3D('',#521,#522,#523);
#521 = CARTESIAN_POINT('',(-0.6,1.E-01,-0.6));
#522 = DIRECTION('',(1.,-1.110223024625E-16,-5.551115123126E-17));
#523 = DIRECTION('',(1.110223024625E-16,1.,5.551115123126E-17));
#524 = ORIENTED_EDGE('',*,*,#516,.F.);
#525 = SPHERICAL_SURFACE('',#526,0.1);
#526 = AXIS2_PLACEMENT_3D('',#527,#528,#529);
#527 = CARTESIAN_POINT('',(-0.6,1.E-01,-0.6));
#528 = DIRECTION('',(-5.551115123126E-17,-1.,-0.));
#529 = DIRECTION('',(-2.724608469056E-28,1.512461527718E-44,1.));
#530 = ADVANCED_FACE('',(#531),#534,.F.);
#531 = FACE_BOUND('',#532,.F.);
#532 = EDGE_LOOP('',(#533));
#533 = ORIENTED_EDGE('',*,*,#507,.T.);
#534 = PLANE('',#535);
#535 = AXIS2_PLACEMENT_3D('',#536,#537,#538);
#536 = CARTESIAN_POINT('',(-0.6,0.16,-0.6));
#537 = DIRECTION('',(-5.551115123126E-17,-1.,-0.));
#538 = DIRECTION('',(-3.046243393016E-28,1.691004776769E-44,1.));
#539 = ( GEOMETRIC_REPRESENTATION_CONTEXT(3) 
GLOBAL_UNCERTAINTY_ASSIGNED_CONTEXT((#543)) GLOBAL_UNIT_ASSIGNED_CONTEXT
((#540,#541,#542)) REPRESENTATION_CONTEXT('Context #1',
  '3D Context with UNIT and UNCERTAINTY') );
#540 = ( LENGTH_UNIT() NAMED_UNIT(*) SI_UNIT(.MILLI.,.METRE.) );
#541 = ( NAMED_UNIT(*) PLANE_ANGLE_UNIT() SI_UNIT($,.RADIAN.) );
#542 = ( NAMED_UNIT(*) SI_UNIT($,.STERADIAN.) SOLID_ANGLE_UNIT() );
#543 = UNCERTAINTY_MEASURE_WITH_UNIT(LENGTH_MEASURE(1.E-07),#540,
  'distance_accuracy_value','confusion accuracy');
#544 = CONTEXT_DEPENDENT_SHAPE_REPRESENTATION(#545,#547);
#545 = ( REPRESENTATION_RELATIONSHIP('','',#500,#10) 
REPRESENTATION_RELATIONSHIP_WITH_TRANSFORMATION(#546) 
SHAPE_REPRESENTATION_RELATIONSHIP() );
#546 = ITEM_DEFINED_TRANSFORMATION('','',#11,#31);
#547 = PRODUCT_DEFINITION_SHAPE('Placement','Placement of an item',#548
  );
#548 = NEXT_ASSEMBLY_USAGE_OCCURRENCE('626','BALL_0003','',#5,#495,$);
#549 = PRODUCT_RELATED_PRODUCT_CATEGORY('part',$,(#497));
#550 = SHAPE_DEFINITION_REPRESENTATION(#551,#557);
#551 = PRODUCT_DEFINITION_SHAPE('','',#552);
#552 = PRODUCT_DEFINITION('design','',#553,#556);
#553 = PRODUCT_DEFINITION_FORMATION('','',#554);
#554 = PRODUCT('BALL_0004','BALL_0004','',(#555));
#555 = PRODUCT_CONTEXT('',#2,'mechanical');
#556 = PRODUCT_DEFINITION_CONTEXT('part definition',#2,'design');
#557 = ADVANCED_BREP_SHAPE_REPRESENTATION('',(#11,#558),#596);
#558 = MANIFOLD_SOLID_BREP('',#559);
#559 = CLOSED_SHELL('',(#560,#587));
#560 = ADVANCED_FACE('',(#561),#582,.T.);
#561 = FACE_BOUND('',#562,.T.);
#562 = EDGE_LOOP('',(#563,#572,#581));
#563 = ORIENTED_EDGE('',*,*,#564,.T.);
#564 = EDGE_CURVE('',#565,#565,#567,.T.);
#565 = VERTEX_POINT('',#566);
#566 = CARTESIAN_POINT('',(-0.6,0.16,-0.519999999999));
#567 = CIRCLE('',#568,8.000000000055E-02);
#568 = AXIS2_PLACEMENT_3D('',#569,#570,#571);
#569 = CARTESIAN_POINT('',(-0.6,0.16,-0.6));
#570 = DIRECTION('',(-5.551115123126E-17,-1.,0.));
#571 = DIRECTION('',(-3.046243393016E-28,1.691004776769E-44,1.));
#572 = ORIENTED_EDGE('',*,*,#573,.T.);
#573 = EDGE_CURVE('',#565,#574,#576,.T.);
#574 = VERTEX_POINT('',#575);
#575 = CARTESIAN_POINT('',(-0.6,-4.390267754622E-13,-0.6));
#576 = CIRCLE('',#577,0.1);
#577 = AXIS2_PLACEMENT_3D('',#578,#579,#580);
#578 = CARTESIAN_POINT('',(-0.6,1.E-01,-0.6));
#579 = DIRECTION('',(1.,-1.110223024625E-16,-5.551115123126E-17));
#580 = DIRECTION('',(1.110223024625E-16,1.,5.551115123126E-17));
#581 = ORIENTED_EDGE('',*,*,#573,.F.);
#582 = SPHERICAL_SURFACE('',#583,0.1);
#583 = AXIS2_PLACEMENT_3D('',#584,#585,#586);
#584 = CARTESIAN_POINT('',(-0.6,1.E-01,-0.6));
#585 = DIRECTION('',(-5.551115123126E-17,-1.,-0.));
#586 = DIRECTION('',(-2.724608469056E-28,1.512461527718E-44,1.));
#587 = ADVANCED_FACE('',(#588),#591,.F.);
#588 = FACE_BOUND('',#589,.F.);
#589 = EDGE_LOOP('',(#590));
#590 = ORIENTED_EDGE('',*,*,#564,.T.);
#591 = PLANE('',#592);
#592 = AXIS2_PLACEMENT_3D('',#593,#594,#595);
#593 = CARTESIAN_POINT('',(-0.6,0.16,-0.6));
#594 = DIRECTION('',(-5.551115123126E-17,-1.,-0.));
#595 = DIRECTION('',(-3.046243393016E-28,1.691004776769E-44,1.));
#596 = ( GEOMETRIC_REPRESENTATION_CONTEXT(3) 
GLOBAL_UNCERTAINTY_ASSIGNED_CONTEXT((#600)) GLOBAL_UNIT_ASSIGNED_CONTEXT
((#597,#598,#599)) REPRESENTATION_CONTEXT('Context #1',
  '3D Context with UNIT and UNCERTAINTY') );
#597 = ( LENGTH_UNIT() NAMED_UNIT(*) SI_UNIT(.MILLI.,.METRE.) );
#598 = ( NAMED_UNIT(*) PLANE_ANGLE_UNIT() SI_UNIT($,.RADIAN.) );
#599 = ( NAMED_UNIT(*) SI_UNIT($,.STERADIAN.) SOLID_ANGLE_UNIT() );
#600 = UNCERTAINTY_MEASURE_WITH_UNIT(LENGTH_MEASURE(1.E-07),#597,
  'distance_accuracy_value','confusion accuracy');
#601 = CONTEXT_DEPENDENT_SHAPE_REPRESENTATION(#602,#604);
#602 = ( REPRESENTATION_RELATIONSHIP('','',#557,#10) 
REPRESENTATION_RELATIONSHIP_WITH_TRANSFORMATION(#603) 
SHAPE_REPRESENTATION_RELATIONSHIP() );
#603 = ITEM_DEFINED_TRANSFORMATION('','',#11,#35);
#604 = PRODUCT_DEFINITION_SHAPE('Placement','Placement of an item',#605
  );
#605 = NEXT_ASSEMBLY_USAGE_OCCURRENCE('627','BALL_0004','',#5,#552,$);
#606 = PRODUCT_RELATED_PRODUCT_CATEGORY('part',$,(#554));
#607 = SHAPE_DEFINITION_REPRESENTATION(#608,#614);
#608 = PRODUCT_DEFINITION_SHAPE('','',#609);
#609 = PRODUCT_DEFINITION('design','',#610,#613);
#610 = PRODUCT_DEFINITION_FORMATION('','',#611);
#611 = PRODUCT('BALL_0005','BALL_0005','',(#612));
#612 = PRODUCT_CONTEXT('',#2,'mechanical');
#613 = PRODUCT_DEFINITION_CONTEXT('part definition',#2,'design');
#614 = ADVANCED_BREP_SHAPE_REPRESENTATION('',(#11,#615),#653);
#615 = MANIFOLD_SOLID_BREP('',#616);
#616 = CLOSED_SHELL('',(#617,#644));
#617 = ADVANCED_FACE('',(#618),#639,.T.);
#618 = FACE_BOUND('',#619,.T.);
#619 = EDGE_LOOP('',(#620,#629,#638));
#620 = ORIENTED_EDGE('',*,*,#621,.T.);
#621 = EDGE_CURVE('',#622,#622,#624,.T.);
#622 = VERTEX_POINT('',#623);
#623 = CARTESIAN_POINT('',(-0.6,0.16,-0.519999999999));
#624 = CIRCLE('',#625,8.000000000055E-02);
#625 = AXIS2_PLACEMENT_3D('',#626,#627,#628);
#626 = CARTESIAN_POINT('',(-0.6,0.16,-0.6));
#627 = DIRECTION('',(-5.551115123126E-17,-1.,0.));
#628 = DIRECTION('',(-3.046243393016E-28,1.691004776769E-44,1.));
#629 = ORIENTED_EDGE('',*,*,#630,.T.);
#630 = EDGE_CURVE('',#622,#631,#633,.T.);
#631 = VERTEX_POINT('',#632);
#632 = CARTESIAN_POINT('',(-0.6,-4.390267754622E-13,-0.6));
#633 = CIRCLE('',#634,0.1);
#634 = AXIS2_PLACEMENT_3D('',#635,#636,#637);
#635 = CARTESIAN_POINT('',(-0.6,1.E-01,-0.6));
#636 = DIRECTION('',(1.,-1.110223024625E-16,-5.551115123126E-17));
#637 = DIRECTION('',(1.110223024625E-16,1.,5.551115123126E-17));
#638 = ORIENTED_EDGE('',*,*,#630,.F.);
#639 = SPHERICAL_SURFACE('',#640,0.1);
#640 = AXIS2_PLACEMENT_3D('',#641,#642,#643);
#641 = CARTESIAN_POINT('',(-0.6,1.E-01,-0.6));
#642 = DIRECTION('',(-5.551115123126E-17,-1.,-0.));
#643 = DIRECTION('',(-2.724608469056E-28,1.512461527718E-44,1.));
#644 = ADVANCED_FACE('',(#645),#648,.F.);
#645 = FACE_BOUND('',#646,.F.);
#646 = EDGE_LOOP('',(#647));
#647 = ORIENTED_EDGE('',*,*,#621,.T.);
#648 = PLANE('',#649);
#649 = AXIS2_PLACEMENT_3D('',#650,#651,#652);
#650 = CARTESIAN_POINT('',(-0.6,0.16,-0.6));
#651 = DIRECTION('',(-5.551115123126E-17,-1.,-0.));
#652 = DIRECTION('',(-3.046243393016E-28,1.691004776769E-44,1.));
#653 = ( GEOMETRIC_REPRESENTATION_CONTEXT(3) 
GLOBAL_UNCERTAINTY_ASSIGNED_CONTEXT((#657)) GLOBAL_UNIT_ASSIGNED_CONTEXT
((#654,#655,#656)) REPRESENTATION_CONTEXT('Context #1',
  '3D Context with UNIT and UNCERTAINTY') );
#654 = ( LENGTH_UNIT() NAMED_UNIT(*) SI_UNIT(.MILLI.,.METRE.) );
#655 = ( NAMED_UNIT(*) PLANE_ANGLE_UNIT() SI_UNIT($,.RADIAN.) );
#656 = ( NAMED_UNIT(*) SI_UNIT($,.STERADIAN.) SOLID_ANGLE_UNIT() );
#657 = UNCERTAINTY_MEASURE_WITH_UNIT(LENGTH_MEASURE(1.E-07),#654,
  'distance_accuracy_value','confusion accuracy');
#658 = CONTEXT_DEPENDENT_SHAPE_REPRESENTATION(#659,#661);
#659 = ( REPRESENTATION_RELATIONSHIP('','',#614,#10) 
REPRESENTATION_RELATIONSHIP_WITH_TRANSFORMATION(#660) 
SHAPE_REPRESENTATION_RELATIONSHIP() );
#660 = ITEM_DEFINED_TRANSFORMATION('','',#11,#39);
#661 = PRODUCT_DEFINITION_SHAPE('Placement','Placement of an item',#662
  );
#662 = NEXT_ASSEMBLY_USAGE_OCCURRENCE('628','BALL_0005','',#5,#609,$);
#663 = PRODUCT_RELATED_PRODUCT_CATEGORY('part',$,(#611));
#664 = SHAPE_DEFINITION_REPRESENTATION(#665,#671);
#665 = PRODUCT_DEFINITION_SHAPE('','',#666);
#666 = PRODUCT_DEFINITION('design','',#667,#670);
#667 = PRODUCT_DEFINITION_FORMATION('','',#668);
#668 = PRODUCT('BALL_0006','BALL_0006','',(#669));
#669 = PRODUCT_CONTEXT('',#2,'mechanical');
#670 = PRODUCT_DEFINITION_CONTEXT('part definition',#2,'design');
#671 = ADVANCED_BREP_SHAPE_REPRESENTATION('',(#11,#672),#710);
#672 = MANIFOLD_SOLID_BREP('',#673);
#673 = CLOSED_SHELL('',(#674,#701));
#674 = ADVANCED_FACE('',(#675),#696,.T.);
#675 = FACE_BOUND('',#676,.T.);
#676 = EDGE_LOOP('',(#677,#686,#695));
#677 = ORIENTED_EDGE('',*,*,#678,.T.);
#678 = EDGE_CURVE('',#679,#679,#681,.T.);
#679 = VERTEX_POINT('',#680);
#680 = CARTESIAN_POINT('',(-0.6,0.16,-0.519999999999));
#681 = CIRCLE('',#682,8.000000000055E-02);
#682 = AXIS2_PLACEMENT_3D('',#683,#684,#685);
#683 = CARTESIAN_POINT('',(-0.6,0.16,-0.6));
#684 = DIRECTION('',(-5.551115123126E-17,-1.,0.));
#685 = DIRECTION('',(-3.046243393016E-28,1.691004776769E-44,1.));
#686 = ORIENTED_EDGE('',*,*,#687,.T.);
#687 = EDGE_CURVE('',#679,#688,#690,.T.);
#688 = VERTEX_POINT('',#689);
#689 = CARTESIAN_POINT('',(-0.6,-4.390267754622E-13,-0.6));
#690 = CIRCLE('',#691,0.1);
#691 = AXIS2_PLACEMENT_3D('',#692,#693,#694);
#692 = CARTESIAN_POINT('',(-0.6,1.E-01,-0.6));
#693 = DIRECTION('',(1.,-1.110223024625E-16,-5.551115123126E-17));
#694 = DIRECTION('',(1.110223024625E-16,1.,5.551115123126E-17));
#695 = ORIENTED_EDGE('',*,*,#687,.F.);
#696 = SPHERICAL_SURFACE('',#697,0.1);
#697 = AXIS2_PLACEMENT_3D('',#698,#699,#700);
#698 = CARTESIAN_POINT('',(-0.6,1.E-01,-0.6));
#699 = DIRECTION('',(-5.551115123126E-17,-1.,-0.));
#700 = DIRECTION('',(-2.724608469056E-28,1.512461527718E-44,1.));
#701 = ADVANCED_FACE('',(#702),#705,.F.);
#702 = FACE_BOUND('',#703,.F.);
#703 = EDGE_LOOP('',(#704));
#704 = ORIENTED_EDGE('',*,*,#678,.T.);
#705 = PLANE('',#706);
#706 = AXIS2_PLACEMENT_3D('',#707,#708,#709);
#707 = CARTESIAN_POINT('',(-0.6,0.16,-0.6));
#708 = DIRECTION('',(-5.551115123126E-17,-1.,-0.));
#709 = DIRECTION('',(-3.046243393016E-28,1.691004776769E-44,1.));
#710 = ( GEOMETRIC_REPRESENTATION_CONTEXT(3) 
GLOBAL_UNCERTAINTY_ASSIGNED_CONTEXT((#714)) GLOBAL_UNIT_ASSIGNED_CONTEXT
((#711,#712,#713)) REPRESENTATION_CONTEXT('Context #1',
  '3D Context with UNIT and UNCERTAINTY') );
#711 = ( LENGTH_UNIT() NAMED_UNIT(*) SI_UNIT(.MILLI.,.METRE.) );
#712 = ( NAMED_UNIT(*) PLANE_ANGLE_UNIT() SI_UNIT($,.RADIAN.) );
#713 = ( NAMED_UNIT(*) SI_UNIT($,.STERADIAN.) SOLID_ANGLE_UNIT() );
#714 = UNCERTAINTY_MEASURE_WITH_UNIT(LENGTH_MEASURE(1.E-07),#711,
  'distance_accuracy_value','confusion accuracy');
#715 = CONTEXT_DEPENDENT_SHAPE_REPRESENTATION(#716,#718);
#716 = ( REPRESENTATION_RELATIONSHIP('','',#671,#10) 
REPRESENTATION_RELATIONSHIP_WITH_TRANSFORMATION(#717) 
SHAPE_REPRESENTATION_RELATIONSHIP() );
#717 = ITEM_DEFINED_TRANSFORMATION('','',#11,#43);
#718 = PRODUCT_DEFINITION_SHAPE('Placement','Placement of an item',#719
  );
#719 = NEXT_ASSEMBLY_USAGE_OCCURRENCE('629','BALL_0006','',#5,#666,$);
#720 = PRODUCT_RELATED_PRODUCT_CATEGORY('part',$,(#668));
#721 = SHAPE_DEFINITION_REPRESENTATION(#722,#728);
#722 = PRODUCT_DEFINITION_SHAPE('','',#723);
#723 = PRODUCT_DEFINITION('design','',#724,#727);
#724 = PRODUCT_DEFINITION_FORMATION('','',#725);
#725 = PRODUCT('BALL_0007','BALL_0007','',(#726));
#726 = PRODUCT_CONTEXT('',#2,'mechanical');
#727 = PRODUCT_DEFINITION_CONTEXT('part definition',#2,'design');
#728 = ADVANCED_BREP_SHAPE_REPRESENTATION('',(#11,#729),#767);
#729 = MANIFOLD_SOLID_BREP('',#730);
#730 = CLOSED_SHELL('',(#731,#758));
#731 = ADVANCED_FACE('',(#732),#753,.T.);
#732 = FACE_BOUND('',#733,.T.);
#733 = EDGE_LOOP('',(#734,#743,#752));
#734 = ORIENTED_EDGE('',*,*,#735,.T.);
#735 = EDGE_CURVE('',#736,#736,#738,.T.);
#736 = VERTEX_POINT('',#737);
#737 = CARTESIAN_POINT('',(-0.6,0.16,-0.519999999999));
#738 = CIRCLE('',#739,8.000000000055E-02);
#739 = AXIS2_PLACEMENT_3D('',#740,#741,#742);
#740 = CARTESIAN_POINT('',(-0.6,0.16,-0.6));
#741 = DIRECTION('',(-5.551115123126E-17,-1.,0.));
#742 = DIRECTION('',(-3.046243393016E-28,1.691004776769E-44,1.));
#743 = ORIENTED_EDGE('',*,*,#744,.T.);
#744 = EDGE_CURVE('',#736,#745,#747,.T.);
#745 = VERTEX_POINT('',#746);
#746 = CARTESIAN_POINT('',(-0.6,-4.390267754622E-13,-0.6));
#747 = CIRCLE('',#748,0.1);
#748 = AXIS2_PLACEMENT_3D('',#749,#750,#751);
#749 = CARTESIAN_POINT('',(-0.6,1.E-01,-0.6));
#750 = DIRECTION('',(1.,-1.110223024625E-16,-5.551115123126E-17));
#751 = DIRECTION('',(1.110223024625E-16,1.,5.551115123126E-17));
#752 = ORIENTED_EDGE('',*,*,#744,.F.);
#753 = SPHERICAL_SURFACE('',#754,0.1);
#754 = AXIS2_PLACEMENT_3D('',#755,#756,#757);
#755 = CARTESIAN_POINT('',(-0.6,1.E-01,-0.6));
#756 = DIRECTION('',(-5.551115123126E-17,-1.,-0.));
#757 = DIRECTION('',(-2.724608469056E-28,1.512461527718E-44,1.));
#758 = ADVANCED_FACE('',(#759),#762,.F.);
#759 = FACE_BOUND('',#760,.F.);
#760 = EDGE_LOOP('',(#761));
#761 = ORIENTED_EDGE('',*,*,#735,.T.);
#762 = PLANE('',#763);
#763 = AXIS2_PLACEMENT_3D('',#764,#765,#766);
#764 = CARTESIAN_POINT('',(-0.6,0.16,-0.6));
#765 = DIRECTION('',(-5.551115123126E-17,-1.,-0.));
#766 = DIRECTION('',(-3.046243393016E-28,1.691004776769E-44,1.));
#767 = ( GEOMETRIC_REPRESENTATION_CONTEXT(3) 
GLOBAL_UNCERTAINTY_ASSIGNED_CONTEXT((#771)) GLOBAL_UNIT_ASSIGNED_CONTEXT
((#768,#769,#770)) REPRESENTATION_CONTEXT('Context #1',
  '3D Context with UNIT and UNCERTAINTY') );
#768 = ( LENGTH_UNIT() NAMED_UNIT(*) SI_UNIT(.MILLI.,.METRE.) );
#769 = ( NAMED_UNIT(*) PLANE_ANGLE_UNIT() SI_UNIT($,.RADIAN.) );
#770 = ( NAMED_UNIT(*) SI_UNIT($,.STERADIAN.) SOLID_ANGLE_UNIT() );
#771 = UNCERTAINTY_MEASURE_WITH_UNIT(LENGTH_MEASURE(1.E-07),#768,
  'distance_accuracy_value','confusion accuracy');
#772 = CONTEXT_DEPENDENT_SHAPE_REPRESENTATION(#773,#775);
#773 = ( REPRESENTATION_RELATIONSHIP('','',#728,#10) 
REPRESENTATION_RELATIONSHIP_WITH_TRANSFORMATION(#774) 
SHAPE_REPRESENTATION_RELATIONSHIP() );
#774 = ITEM_DEFINED_TRANSFORMATION('','',#11,#47);
#775 = PRODUCT_DEFINITION_SHAPE('Placement','Placement of an item',#776
  );
#776 = NEXT_ASSEMBLY_USAGE_OCCURRENCE('630','BALL_0007','',#5,#723,$);
#777 = PRODUCT_RELATED_PRODUCT_CATEGORY('part',$,(#725));
#778 = SHAPE_DEFINITION_REPRESENTATION(#779,#785);
#779 = PRODUCT_DEFINITION_SHAPE('','',#780);
#780 = PRODUCT_DEFINITION('design','',#781,#784);
#781 = PRODUCT_DEFINITION_FORMATION('','',#782);
#782 = PRODUCT('BALL_0008','BALL_0008','',(#783));
#783 = PRODUCT_CONTEXT('',#2,'mechanical');
#784 = PRODUCT_DEFINITION_CONTEXT('part definition',#2,'design');
#785 = ADVANCED_BREP_SHAPE_REPRESENTATION('',(#11,#786),#824);
#786 = MANIFOLD_SOLID_BREP('',#787);
#787 = CLOSED_SHELL('',(#788,#815));
#788 = ADVANCED_FACE('',(#789),#810,.T.);
#789 = FACE_BOUND('',#790,.T.);
#790 = EDGE_LOOP('',(#791,#800,#809));
#791 = ORIENTED_EDGE('',*,*,#792,.T.);
#792 = EDGE_CURVE('',#793,#793,#795,.T.);
#793 = VERTEX_POINT('',#794);
#794 = CARTESIAN_POINT('',(-0.6,0.16,-0.519999999999));
#795 = CIRCLE('',#796,8.000000000055E-02);
#796 = AXIS2_PLACEMENT_3D('',#797,#798,#799);
#797 = CARTESIAN_POINT('',(-0.6,0.16,-0.6));
#798 = DIRECTION('',(-5.551115123126E-17,-1.,0.));
#799 = DIRECTION('',(-3.046243393016E-28,1.691004776769E-44,1.));
#800 = ORIENTED_EDGE('',*,*,#801,.T.);
#801 = EDGE_CURVE('',#793,#802,#804,.T.);
#802 = VERTEX_POINT('',#803);
#803 = CARTESIAN_POINT('',(-0.6,-4.390267754622E-13,-0.6));
#804 = CIRCLE('',#805,0.1);
#805 = AXIS2_PLACEMENT_3D('',#806,#807,#808);
#806 = CARTESIAN_POINT('',(-0.6,1.E-01,-0.6));
#807 = DIRECTION('',(1.,-1.110223024625E-16,-5.551115123126E-17));
#808 = DIRECTION('',(1.110223024625E-16,1.,5.551115123126E-17));
#809 = ORIENTED_EDGE('',*,*,#801,.F.);
#810 = SPHERICAL_SURFACE('',#811,0.1);
#811 = AXIS2_PLACEMENT_3D('',#812,#813,#814);
#812 = CARTESIAN_POINT('',(-0.6,1.E-01,-0.6));
#813 = DIRECTION('',(-5.551115123126E-17,-1.,-0.));
#814 = DIRECTION('',(-2.724608469056E-28,1.512461527718E-44,1.));
#815 = ADVANCED_FACE('',(#816),#819,.F.);
#816 = FACE_BOUND('',#817,.F.);
#817 = EDGE_LOOP('',(#818));
#818 = ORIENTED_EDGE('',*,*,#792,.T.);
#819 = PLANE('',#820);
#820 = AXIS2_PLACEMENT_3D('',#821,#822,#823);
#821 = CARTESIAN_POINT('',(-0.6,0.16,-0.6));
#822 = DIRECTION('',(-5.551115123126E-17,-1.,-0.));
#823 = DIRECTION('',(-3.046243393016E-28,1.691004776769E-44,1.));
#824 = ( GEOMETRIC_REPRESENTATION_CONTEXT(3) 
GLOBAL_UNCERTAINTY_ASSIGNED_CONTEXT((#828)) GLOBAL_UNIT_ASSIGNED_CONTEXT
((#825,#826,#827)) REPRESENTATION_CONTEXT('Context #1',
  '3D Context with UNIT and UNCERTAINTY') );
#825 = ( LENGTH_UNIT() NAMED_UNIT(*) SI_UNIT(.MILLI.,.METRE.) );
#826 = ( NAMED_UNIT(*) PLANE_ANGLE_UNIT() SI_UNIT($,.RADIAN.) );
#827 = ( NAMED_UNIT(*) SI_UNIT($,.STERADIAN.) SOLID_ANGLE_UNIT() );
#828 = UNCERTAINTY_MEASURE_WITH_UNIT(LENGTH_MEASURE(1.E-07),#825,
  'distance_accuracy_value','confusion accuracy');
#829 = CONTEXT_DEPENDENT_SHAPE_REPRESENTATION(#830,#832);
#830 = ( REPRESENTATION_RELATIONSHIP('','',#785,#10) 
REPRESENTATION_RELATIONSHIP_WITH_TRANSFORMATION(#831) 
SHAPE_REPRESENTATION_RELATIONSHIP() );
#831 = ITEM_DEFINED_TRANSFORMATION('','',#11,#51);
#832 = PRODUCT_DEFINITION_SHAPE('Placement','Placement of an item',#833
  );
#833 = NEXT_ASSEMBLY_USAGE_OCCURRENCE('631','BALL_0008','',#5,#780,$);
#834 = PRODUCT_RELATED_PRODUCT_CATEGORY('part',$,(#782));
#835 = SHAPE_DEFINITION_REPRESENTATION(#836,#842);
#836 = PRODUCT_DEFINITION_SHAPE('','',#837);
#837 = PRODUCT_DEFINITION('design','',#838,#841);
#838 = PRODUCT_DEFINITION_FORMATION('','',#839);
#839 = PRODUCT('BALL_0009','BALL_0009','',(#840));
#840 = PRODUCT_CONTEXT('',#2,'mechanical');
#841 = PRODUCT_DEFINITION_CONTEXT('part definition',#2,'design');
#842 = ADVANCED_BREP_SHAPE_REPRESENTATION('',(#11,#843),#881);
#843 = MANIFOLD_SOLID_BREP('',#844);
#844 = CLOSED_SHELL('',(#845,#872));
#845 = ADVANCED_FACE('',(#846),#867,.T.);
#846 = FACE_BOUND('',#847,.T.);
#847 = EDGE_LOOP('',(#848,#857,#866));
#848 = ORIENTED_EDGE('',*,*,#849,.T.);
#849 = EDGE_CURVE('',#850,#850,#852,.T.);
#850 = VERTEX_POINT('',#851);
#851 = CARTESIAN_POINT('',(-0.6,0.16,-0.519999999999));
#852 = CIRCLE('',#853,8.000000000055E-02);
#853 = AXIS2_PLACEMENT_3D('',#854,#855,#856);
#854 = CARTESIAN_POINT('',(-0.6,0.16,-0.6));
#855 = DIRECTION('',(-5.551115123126E-17,-1.,0.));
#856 = DIRECTION('',(-3.046243393016E-28,1.691004776769E-44,1.));
#857 = ORIENTED_EDGE('',*,*,#858,.T.);
#858 = EDGE_CURVE('',#850,#859,#861,.T.);
#859 = VERTEX_POINT('',#860);
#860 = CARTESIAN_POINT('',(-0.6,-4.390267754622E-13,-0.6));
#861 = CIRCLE('',#862,0.1);
#862 = AXIS2_PLACEMENT_3D('',#863,#864,#865);
#863 = CARTESIAN_POINT('',(-0.6,1.E-01,-0.6));
#864 = DIRECTION('',(1.,-1.110223024625E-16,-5.551115123126E-17));
#865 = DIRECTION('',(1.110223024625E-16,1.,5.551115123126E-17));
#866 = ORIENTED_EDGE('',*,*,#858,.F.);
#867 = SPHERICAL_SURFACE('',#868,0.1);
#868 = AXIS2_PLACEMENT_3D('',#869,#870,#871);
#869 = CARTESIAN_POINT('',(-0.6,1.E-01,-0.6));
#870 = DIRECTION('',(-5.551115123126E-17,-1.,-0.));
#871 = DIRECTION('',(-2.724608469056E-28,1.512461527718E-44,1.));
#872 = ADVANCED_FACE('',(#873),#876,.F.);
#873 = FACE_BOUND('',#874,.F.);
#874 = EDGE_LOOP('',(#875));
#875 = ORIENTED_EDGE('',*,*,#849,.T.);
#876 = PLANE('',#877);
#877 = AXIS2_PLACEMENT_3D('',#878,#879,#880);
#878 = CARTESIAN_POINT('',(-0.6,0.16,-0.6));
#879 = DIRECTION('',(-5.551115123126E-17,-1.,-0.));
#880 = DIRECTION('',(-3.046243393016E-28,1.691004776769E-44,1.));
#881 = ( GEOMETRIC_REPRESENTATION_CONTEXT(3) 
GLOBAL_UNCERTAINTY_ASSIGNED_CONTEXT((#885)) GLOBAL_UNIT_ASSIGNED_CONTEXT
((#882,#883,#884)) REPRESENTATION_CONTEXT('Context #1',
  '3D Context with UNIT and UNCERTAINTY') );
#882 = ( LENGTH_UNIT() NAMED_UNIT(*) SI_UNIT(.MILLI.,.METRE.) );
#883 = ( NAMED_UNIT(*) PLANE_ANGLE_UNIT() SI_UNIT($,.RADIAN.) );
#884 = ( NAMED_UNIT(*) SI_UNIT($,.STERADIAN.) SOLID_ANGLE_UNIT() );
#885 = UNCERTAINTY_MEASURE_WITH_UNIT(LENGTH_MEASURE(1.E-07),#882,
  'distance_accuracy_value','confusion accuracy');
#886 = CONTEXT_DEPENDENT_SHAPE_REPRESENTATION(#887,#889);
#887 = ( REPRESENTATION_RELATIONSHIP('','',#842,#10) 
REPRESENTATION_RELATIONSHIP_WITH_TRANSFORMATION(#888) 
SHAPE_REPRESENTATION_RELATIONSHIP() );
#888 = ITEM_DEFINED_TRANSFORMATION('','',#11,#55);
#889 = PRODUCT_DEFINITION_SHAPE('Placement','Placement of an item',#890
  );
#890 = NEXT_ASSEMBLY_USAGE_OCCURRENCE('632','BALL_0009','',#5,#837,$);
#891 = PRODUCT_RELATED_PRODUCT_CATEGORY('part',$,(#839));
#892 = SHAPE_DEFINITION_REPRESENTATION(#893,#899);
#893 = PRODUCT_DEFINITION_SHAPE('','',#894);
#894 = PRODUCT_DEFINITION('design','',#895,#898);
#895 = PRODUCT_DEFINITION_FORMATION('','',#896);
#896 = PRODUCT('BALL_0010','BALL_0010','',(#897));
#897 = PRODUCT_CONTEXT('',#2,'mechanical');
#898 = PRODUCT_DEFINITION_CONTEXT('part definition',#2,'design');
#899 = ADVANCED_BREP_SHAPE_REPRESENTATION('',(#11,#900),#938);
#900 = MANIFOLD_SOLID_BREP('',#901);
#901 = CLOSED_SHELL('',(#902,#929));
#902 = ADVANCED_FACE('',(#903),#924,.T.);
#903 = FACE_BOUND('',#904,.T.);
#904 = EDGE_LOOP('',(#905,#914,#923));
#905 = ORIENTED_EDGE('',*,*,#906,.T.);
#906 = EDGE_CURVE('',#907,#907,#909,.T.);
#907 = VERTEX_POINT('',#908);
#908 = CARTESIAN_POINT('',(-0.6,0.16,-0.519999999999));
#909 = CIRCLE('',#910,8.000000000055E-02);
#910 = AXIS2_PLACEMENT_3D('',#911,#912,#913);
#911 = CARTESIAN_POINT('',(-0.6,0.16,-0.6));
#912 = DIRECTION('',(-5.551115123126E-17,-1.,0.));
#913 = DIRECTION('',(-3.046243393016E-28,1.691004776769E-44,1.));
#914 = ORIENTED_EDGE('',*,*,#915,.T.);
#915 = EDGE_CURVE('',#907,#916,#918,.T.);
#916 = VERTEX_POINT('',#917);
#917 = CARTESIAN_POINT('',(-0.6,-4.390267754622E-13,-0.6));
#918 = CIRCLE('',#919,0.1);
#919 = AXIS2_PLACEMENT_3D('',#920,#921,#922);
#920 = CARTESIAN_POINT('',(-0.6,1.E-01,-0.6));
#921 = DIRECTION('',(1.,-1.110223024625E-16,-5.551115123126E-17));
#922 = DIRECTION('',(1.110223024625E-16,1.,5.551115123126E-17));
#923 = ORIENTED_EDGE('',*,*,#915,.F.);
#924 = SPHERICAL_SURFACE('',#925,0.1);
#925 = AXIS2_PLACEMENT_3D('',#926,#927,#928);
#926 = CARTESIAN_POINT('',(-0.6,1.E-01,-0.6));
#927 = DIRECTION('',(-5.551115123126E-17,-1.,-0.));
#928 = DIRECTION('',(-2.724608469056E-28,1.512461527718E-44,1.));
#929 = ADVANCED_FACE('',(#930),#933,.F.);
#930 = FACE_BOUND('',#931,.F.);
#931 = EDGE_LOOP('',(#932));
#932 = ORIENTED_EDGE('',*,*,#906,.T.);
#933 = PLANE('',#934);
#934 = AXIS2_PLACEMENT_3D('',#935,#936,#937);
#935 = CARTESIAN_POINT('',(-0.6,0.16,-0.6));
#936 = DIRECTION('',(-5.551115123126E-17,-1.,-0.));
#937 = DIRECTION('',(-3.046243393016E-28,1.691004776769E-44,1.));
#938 = ( GEOMETRIC_REPRESENTATION_CONTEXT(3) 
GLOBAL_UNCERTAINTY_ASSIGNED_CONTEXT((#942)) GLOBAL_UNIT_ASSIGNED_CONTEXT
((#939,#940,#941)) REPRESENTATION_CONTEXT('Context #1',
  '3D Context with UNIT and UNCERTAINTY') );
#939 = ( LENGTH_UNIT() NAMED_UNIT(*) SI_UNIT(.MILLI.,.METRE.) );
#940 = ( NAMED_UNIT(*) PLANE_ANGLE_UNIT() SI_UNIT($,.RADIAN.) );
#941 = ( NAMED_UNIT(*) SI_UNIT($,.STERADIAN.) SOLID_ANGLE_UNIT() );
#942 = UNCERTAINTY_MEASURE_WITH_UNIT(LENGTH_MEASURE(1.E-07),#939,
  'distance_accuracy_value','confusion accuracy');
#943 = CONTEXT_DEPENDENT_SHAPE_REPRESENTATION(#944,#946);
#944 = ( REPRESENTATION_RELATIONSHIP('','',#899,#10) 
REPRESENTATION_RELATIONSHIP_WITH_TRANSFORMATION(#945) 
SHAPE_REPRESENTATION_RELATIONSHIP() );
#945 = ITEM_DEFINED_TRANSFORMATION('','',#11,#59);
#946 = PRODUCT_DEFINITION_SHAPE('Placement','Placement of an item',#947
  );
#947 = NEXT_ASSEMBLY_USAGE_OCCURRENCE('633','BALL_0010','',#5,#894,$);
#948 = PRODUCT_RELATED_PRODUCT_CATEGORY('part',$,(#896));
#949 = SHAPE_DEFINITION_REPRESENTATION(#950,#956);
#950 = PRODUCT_DEFINITION_SHAPE('','',#951);
#951 = PRODUCT_DEFINITION('design','',#952,#955);
#952 = PRODUCT_DEFINITION_FORMATION('','',#953);
#953 = PRODUCT('BALL_0011','BALL_0011','',(#954));
#954 = PRODUCT_CONTEXT('',#2,'mechanical');
#955 = PRODUCT_DEFINITION_CONTEXT('part definition',#2,'design');
#956 = ADVANCED_BREP_SHAPE_REPRESENTATION('',(#11,#957),#995);
#957 = MANIFOLD_SOLID_BREP('',#958);
#958 = CLOSED_SHELL('',(#959,#986));
#959 = ADVANCED_FACE('',(#960),#981,.T.);
#960 = FACE_BOUND('',#961,.T.);
#961 = EDGE_LOOP('',(#962,#971,#980));
#962 = ORIENTED_EDGE('',*,*,#963,.T.);
#963 = EDGE_CURVE('',#964,#964,#966,.T.);
#964 = VERTEX_POINT('',#965);
#965 = CARTESIAN_POINT('',(-0.6,0.16,-0.519999999999));
#966 = CIRCLE('',#967,8.000000000055E-02);
#967 = AXIS2_PLACEMENT_3D('',#968,#969,#970);
#968 = CARTESIAN_POINT('',(-0.6,0.16,-0.6));
#969 = DIRECTION('',(-5.551115123126E-17,-1.,0.));
#970 = DIRECTION('',(-3.046243393016E-28,1.691004776769E-44,1.));
#971 = ORIENTED_EDGE('',*,*,#972,.T.);
#972 = EDGE_CURVE('',#964,#973,#975,.T.);
#973 = VERTEX_POINT('',#974);
#974 = CARTESIAN_POINT('',(-0.6,-4.390267754622E-13,-0.6));
#975 = CIRCLE('',#976,0.1);
#976 = AXIS2_PLACEMENT_3D('',#977,#978,#979);
#977 = CARTESIAN_POINT('',(-0.6,1.E-01,-0.6));
#978 = DIRECTION('',(1.,-1.110223024625E-16,-5.551115123126E-17));
#979 = DIRECTION('',(1.110223024625E-16,1.,5.551115123126E-17));
#980 = ORIENTED_EDGE('',*,*,#972,.F.);
#981 = SPHERICAL_SURFACE('',#982,0.1);
#982 = AXIS2_PLACEMENT_3D('',#983,#984,#985);
#983 = CARTESIAN_POINT('',(-0.6,1.E-01,-0.6));
#984 = DIRECTION('',(-5.551115123126E-17,-1.,-0.));
#985 = DIRECTION('',(-2.724608469056E-28,1.512461527718E-44,1.));
#986 = ADVANCED_FACE('',(#987),#990,.F.);
#987 = FACE_BOUND('',#988,.F.);
#988 = EDGE_LOOP('',(#989));
#989 = ORIENTED_EDGE('',*,*,#963,.T.);
#990 = PLANE('',#991);
#991 = AXIS2_PLACEMENT_3D('',#992,#993,#994);
#992 = CARTESIAN_POINT('',(-0.6,0.16,-0.6));
#993 = DIRECTION('',(-5.551115123126E-17,-1.,-0.));
#994 = DIRECTION('',(-3.046243393016E-28,1.691004776769E-44,1.));
#995 = ( GEOMETRIC_REPRESENTATION_CONTEXT(3) 
GLOBAL_UNCERTAINTY_ASSIGNED_CONTEXT((#999)) GLOBAL_UNIT_ASSIGNED_CONTEXT
((#996,#997,#998)) REPRESENTATION_CONTEXT('Context #1',
  '3D Context with UNIT and UNCERTAINTY') );
#996 = ( LENGTH_UNIT() NAMED_UNIT(*) SI_UNIT(.MILLI.,.METRE.) );
#997 = ( NAMED_UNIT(*) PLANE_ANGLE_UNIT() SI_UNIT($,.RADIAN.) );
#998 = ( NAMED_UNIT(*) SI_UNIT($,.STERADIAN.) SOLID_ANGLE_UNIT() );
#999 = UNCERTAINTY_MEASURE_WITH_UNIT(LENGTH_MEASURE(1.E-07),#996,
  'distance_accuracy_value','confusion accuracy');
#1000 = CONTEXT_DEPENDENT_SHAPE_REPRESENTATION(#1001,#1003);
#1001 = ( REPRESENTATION_RELATIONSHIP('','',#956,#10) 
REPRESENTATION_RELATIONSHIP_WITH_TRANSFORMATION(#1002) 
SHAPE_REPRESENTATION_RELATIONSHIP() );
#1002 = ITEM_DEFINED_TRANSFORMATION('','',#11,#63);
#1003 = PRODUCT_DEFINITION_SHAPE('Placement','Placement of an item',
  #1004);
#1004 = NEXT_ASSEMBLY_USAGE_OCCURRENCE('634','BALL_0011','',#5,#951,$);
#1005 = PRODUCT_RELATED_PRODUCT_CATEGORY('part',$,(#953));
#1006 = SHAPE_DEFINITION_REPRESENTATION(#1007,#1013);
#1007 = PRODUCT_DEFINITION_SHAPE('','',#1008);
#1008 = PRODUCT_DEFINITION('design','',#1009,#1012);
#1009 = PRODUCT_DEFINITION_FORMATION('','',#1010);
#1010 = PRODUCT('BALL_0012','BALL_0012','',(#1011));
#1011 = PRODUCT_CONTEXT('',#2,'mechanical');
#1012 = PRODUCT_DEFINITION_CONTEXT('part definition',#2,'design');
#1013 = ADVANCED_BREP_SHAPE_REPRESENTATION('',(#11,#1014),#1052);
#1014 = MANIFOLD_SOLID_BREP('',#1015);
#1015 = CLOSED_SHELL('',(#1016,#1043));
#1016 = ADVANCED_FACE('',(#1017),#1038,.T.);
#1017 = FACE_BOUND('',#1018,.T.);
#1018 = EDGE_LOOP('',(#1019,#1028,#1037));
#1019 = ORIENTED_EDGE('',*,*,#1020,.T.);
#1020 = EDGE_CURVE('',#1021,#1021,#1023,.T.);
#1021 = VERTEX_POINT('',#1022);
#1022 = CARTESIAN_POINT('',(-0.6,0.16,-0.519999999999));
#1023 = CIRCLE('',#1024,8.000000000055E-02);
#1024 = AXIS2_PLACEMENT_3D('',#1025,#1026,#1027);
#1025 = CARTESIAN_POINT('',(-0.6,0.16,-0.6));
#1026 = DIRECTION('',(-5.551115123126E-17,-1.,0.));
#1027 = DIRECTION('',(-3.046243393016E-28,1.691004776769E-44,1.));
#1028 = ORIENTED_EDGE('',*,*,#1029,.T.);
#1029 = EDGE_CURVE('',#1021,#1030,#1032,.T.);
#1030 = VERTEX_POINT('',#1031);
#1031 = CARTESIAN_POINT('',(-0.6,-4.390267754622E-13,-0.6));
#1032 = CIRCLE('',#1033,0.1);
#1033 = AXIS2_PLACEMENT_3D('',#1034,#1035,#1036);
#1034 = CARTESIAN_POINT('',(-0.6,1.E-01,-0.6));
#1035 = DIRECTION('',(1.,-1.110223024625E-16,-5.551115123126E-17));
#1036 = DIRECTION('',(1.110223024625E-16,1.,5.551115123126E-17));
#1037 = ORIENTED_EDGE('',*,*,#1029,.F.);
#1038 = SPHERICAL_SURFACE('',#1039,0.1);
#1039 = AXIS2_PLACEMENT_3D('',#1040,#1041,#1042);
#1040 = CARTESIAN_POINT('',(-0.6,1.E-01,-0.6));
#1041 = DIRECTION('',(-5.551115123126E-17,-1.,-0.));
#1042 = DIRECTION('',(-2.724608469056E-28,1.512461527718E-44,1.));
#1043 = ADVANCED_FACE('',(#1044),#1047,.F.);
#1044 = FACE_BOUND('',#1045,.F.);
#1045 = EDGE_LOOP('',(#1046));
#1046 = ORIENTED_EDGE('',*,*,#1020,.T.);
#1047 = PLANE('',#1048);
#1048 = AXIS2_PLACEMENT_3D('',#1049,#1050,#1051);
#1049 = CARTESIAN_POINT('',(-0.6,0.16,-0.6));
#1050 = DIRECTION('',(-5.551115123126E-17,-1.,-0.));
#1051 = DIRECTION('',(-3.046243393016E-28,1.691004776769E-44,1.));
#1052 = ( GEOMETRIC_REPRESENTATION_CONTEXT(3) 
GLOBAL_UNCERTAINTY_ASSIGNED_CONTEXT((#1056)) 
GLOBAL_UNIT_ASSIGNED_CONTEXT((#1053,#1054,#1055)) REPRESENTATION_CONTEXT
('Context #1','3D Context with UNIT and UNCERTAINTY') );
#1053 = ( LENGTH_UNIT() NAMED_UNIT(*) SI_UNIT(.MILLI.,.METRE.) );
#1054 = ( NAMED_UNIT(*) PLANE_ANGLE_UNIT() SI_UNIT($,.RADIAN.) );
#1055 = ( NAMED_UNIT(*) SI_UNIT($,.STERADIAN.) SOLID_ANGLE_UNIT() );
#1056 = UNCERTAINTY_MEASURE_WITH_UNIT(LENGTH_MEASURE(1.E-07),#1053,
  'distance_accuracy_value','confusion accuracy');
#1057 = CONTEXT_DEPENDENT_SHAPE_REPRESENTATION(#1058,#1060);
#1058 = ( REPRESENTATION_RELATIONSHIP('','',#1013,#10) 
REPRESENTATION_RELATIONSHIP_WITH_TRANSFORMATION(#1059) 
SHAPE_REPRESENTATION_RELATIONSHIP() );
#1059 = ITEM_DEFINED_TRANSFORMATION('','',#11,#67);
#1060 = PRODUCT_DEFINITION_SHAPE('Placement','Placement of an item',
  #1061);
#1061 = NEXT_ASSEMBLY_USAGE_OCCURRENCE('635','BALL_0012','',#5,#1008,$);
#1062 = PRODUCT_RELATED_PRODUCT_CATEGORY('part',$,(#1010));
#1063 = SHAPE_DEFINITION_REPRESENTATION(#1064,#1070);
#1064 = PRODUCT_DEFINITION_SHAPE('','',#1065);
#1065 = PRODUCT_DEFINITION('design','',#1066,#1069);
#1066 = PRODUCT_DEFINITION_FORMATION('','',#1067);
#1067 = PRODUCT('BALL_0013','BALL_0013','',(#1068));
#1068 = PRODUCT_CONTEXT('',#2,'mechanical');
#1069 = PRODUCT_DEFINITION_CONTEXT('part definition',#2,'design');
#1070 = ADVANCED_BREP_SHAPE_REPRESENTATION('',(#11,#1071),#1109);
#1071 = MANIFOLD_SOLID_BREP('',#1072);
#1072 = CLOSED_SHELL('',(#1073,#1100));
#1073 = ADVANCED_FACE('',(#1074),#1095,.T.);
#1074 = FACE_BOUND('',#1075,.T.);
#1075 = EDGE_LOOP('',(#1076,#1085,#1094));
#1076 = ORIENTED_EDGE('',*,*,#1077,.T.);
#1077 = EDGE_CURVE('',#1078,#1078,#1080,.T.);
#1078 = VERTEX_POINT('',#1079);
#1079 = CARTESIAN_POINT('',(-0.6,0.16,-0.519999999999));
#1080 = CIRCLE('',#1081,8.000000000055E-02);
#1081 = AXIS2_PLACEMENT_3D('',#1082,#1083,#1084);
#1082 = CARTESIAN_POINT('',(-0.6,0.16,-0.6));
#1083 = DIRECTION('',(-5.551115123126E-17,-1.,0.));
#1084 = DIRECTION('',(-3.046243393016E-28,1.691004776769E-44,1.));
#1085 = ORIENTED_EDGE('',*,*,#1086,.T.);
#1086 = EDGE_CURVE('',#1078,#1087,#1089,.T.);
#1087 = VERTEX_POINT('',#1088);
#1088 = CARTESIAN_POINT('',(-0.6,-4.390267754622E-13,-0.6));
#1089 = CIRCLE('',#1090,0.1);
#1090 = AXIS2_PLACEMENT_3D('',#1091,#1092,#1093);
#1091 = CARTESIAN_POINT('',(-0.6,1.E-01,-0.6));
#1092 = DIRECTION('',(1.,-1.110223024625E-16,-5.551115123126E-17));
#1093 = DIRECTION('',(1.110223024625E-16,1.,5.551115123126E-17));
#1094 = ORIENTED_EDGE('',*,*,#1086,.F.);
#1095 = SPHERICAL_SURFACE('',#1096,0.1);
#1096 = AXIS2_PLACEMENT_3D('',#1097,#1098,#1099);
#1097 = CARTESIAN_POINT('',(-0.6,1.E-01,-0.6));
#1098 = DIRECTION('',(-5.551115123126E-17,-1.,-0.));
#1099 = DIRECTION('',(-2.724608469056E-28,1.512461527718E-44,1.));
#1100 = ADVANCED_FACE('',(#1101),#1104,.F.);
#1101 = FACE_BOUND('',#1102,.F.);
#1102 = EDGE_LOOP('',(#1103));
#1103 = ORIENTED_EDGE('',*,*,#1077,.T.);
#1104 = PLANE('',#1105);
#1105 = AXIS2_PLACEMENT_3D('',#1106,#1107,#1108);
#1106 = CARTESIAN_POINT('',(-0.6,0.16,-0.6));
#1107 = DIRECTION('',(-5.551115123126E-17,-1.,-0.));
#1108 = DIRECTION('',(-3.046243393016E-28,1.691004776769E-44,1.));
#1109 = ( GEOMETRIC_REPRESENTATION_CONTEXT(3) 
GLOBAL_UNCERTAINTY_ASSIGNED_CONTEXT((#1113)) 
GLOBAL_UNIT_ASSIGNED_CONTEXT((#1110,#1111,#1112)) REPRESENTATION_CONTEXT
('Context #1','3D Context with UNIT and UNCERTAINTY') );
#1110 = ( LENGTH_UNIT() NAMED_UNIT(*) SI_UNIT(.MILLI.,.METRE.) );
#1111 = ( NAMED_UNIT(*) PLANE_ANGLE_UNIT() SI_UNIT($,.RADIAN.) );
#1112 = ( NAMED_UNIT(*) SI_UNIT($,.STERADIAN.) SOLID_ANGLE_UNIT() );
#1113 = UNCERTAINTY_MEASURE_WITH_UNIT(LENGTH_MEASURE(1.E-07),#1110,
  'distance_accuracy_value','confusion accuracy');
#1114 = CONTEXT_DEPENDENT_SHAPE_REPRESENTATION(#1115,#1117);
#1115 = ( REPRESENTATION_RELATIONSHIP('','',#1070,#10) 
REPRESENTATION_RELATIONSHIP_WITH_TRANSFORMATION(#1116) 
SHAPE_REPRESENTATION_RELATIONSHIP() );
#1116 = ITEM_DEFINED_TRANSFORMATION('','',#11,#71);
#1117 = PRODUCT_DEFINITION_SHAPE('Placement','Placement of an item',
  #1118);
#1118 = NEXT_ASSEMBLY_USAGE_OCCURRENCE('636','BALL_0013','',#5,#1065,$);
#1119 = PRODUCT_RELATED_PRODUCT_CATEGORY('part',$,(#1067));
#1120 = SHAPE_DEFINITION_REPRESENTATION(#1121,#1127);
#1121 = PRODUCT_DEFINITION_SHAPE('','',#1122);
#1122 = PRODUCT_DEFINITION('design','',#1123,#1126);
#1123 = PRODUCT_DEFINITION_FORMATION('','',#1124);
#1124 = PRODUCT('BALL_0014','BALL_0014','',(#1125));
#1125 = PRODUCT_CONTEXT('',#2,'mechanical');
#1126 = PRODUCT_DEFINITION_CONTEXT('part definition',#2,'design');
#1127 = ADVANCED_BREP_SHAPE_REPRESENTATION('',(#11,#1128),#1166);
#1128 = MANIFOLD_SOLID_BREP('',#1129);
#1129 = CLOSED_SHELL('',(#1130,#1157));
#1130 = ADVANCED_FACE('',(#1131),#1152,.T.);
#1131 = FACE_BOUND('',#1132,.T.);
#1132 = EDGE_LOOP('',(#1133,#1142,#1151));
#1133 = ORIENTED_EDGE('',*,*,#1134,.T.);
#1134 = EDGE_CURVE('',#1135,#1135,#1137,.T.);
#1135 = VERTEX_POINT('',#1136);
#1136 = CARTESIAN_POINT('',(-0.6,0.16,-0.519999999999));
#1137 = CIRCLE('',#1138,8.000000000055E-02);
#1138 = AXIS2_PLACEMENT_3D('',#1139,#1140,#1141);
#1139 = CARTESIAN_POINT('',(-0.6,0.16,-0.6));
#1140 = DIRECTION('',(-5.551115123126E-17,-1.,0.));
#1141 = DIRECTION('',(-3.046243393016E-28,1.691004776769E-44,1.));
#1142 = ORIENTED_EDGE('',*,*,#1143,.T.);
#1143 = EDGE_CURVE('',#1135,#1144,#1146,.T.);
#1144 = VERTEX_POINT('',#1145);
#1145 = CARTESIAN_POINT('',(-0.6,-4.390267754622E-13,-0.6));
#1146 = CIRCLE('',#1147,0.1);
#1147 = AXIS2_PLACEMENT_3D('',#1148,#1149,#1150);
#1148 = CARTESIAN_POINT('',(-0.6,1.E-01,-0.6));
#1149 = DIRECTION('',(1.,-1.110223024625E-16,-5.551115123126E-17));
#1150 = DIRECTION('',(1.110223024625E-16,1.,5.551115123126E-17));
#1151 = ORIENTED_EDGE('',*,*,#1143,.F.);
#1152 = SPHERICAL_SURFACE('',#1153,0.1);
#1153 = AXIS2_PLACEMENT_3D('',#1154,#1155,#1156);
#1154 = CARTESIAN_POINT('',(-0.6,1.E-01,-0.6));
#1155 = DIRECTION('',(-5.551115123126E-17,-1.,-0.));
#1156 = DIRECTION('',(-2.724608469056E-28,1.512461527718E-44,1.));
#1157 = ADVANCED_FACE('',(#1158),#1161,.F.);
#1158 = FACE_BOUND('',#1159,.F.);
#1159 = EDGE_LOOP('',(#1160));
#1160 = ORIENTED_EDGE('',*,*,#1134,.T.);
#1161 = PLANE('',#1162);
#1162 = AXIS2_PLACEMENT_3D('',#1163,#1164,#1165);
#1163 = CARTESIAN_POINT('',(-0.6,0.16,-0.6));
#1164 = DIRECTION('',(-5.551115123126E-17,-1.,-0.));
#1165 = DIRECTION('',(-3.046243393016E-28,1.691004776769E-44,1.));
#1166 = ( GEOMETRIC_REPRESENTATION_CONTEXT(3) 
GLOBAL_UNCERTAINTY_ASSIGNED_CONTEXT((#1170)) 
GLOBAL_UNIT_ASSIGNED_CONTEXT((#1167,#1168,#1169)) REPRESENTATION_CONTEXT
('Context #1','3D Context with UNIT and UNCERTAINTY') );
#1167 = ( LENGTH_UNIT() NAMED_UNIT(*) SI_UNIT(.MILLI.,.METRE.) );
#1168 = ( NAMED_UNIT(*) PLANE_ANGLE_UNIT() SI_UNIT($,.RADIAN.) );
#1169 = ( NAMED_UNIT(*) SI_UNIT($,.STERADIAN.) SOLID_ANGLE_UNIT() );
#1170 = UNCERTAINTY_MEASURE_WITH_UNIT(LENGTH_MEASURE(1.E-07),#1167,
  'distance_accuracy_value','confusion accuracy');
#1171 = CONTEXT_DEPENDENT_SHAPE_REPRESENTATION(#1172,#1174);
#1172 = ( REPRESENTATION_RELATIONSHIP('','',#1127,#10) 
REPRESENTATION_RELATIONSHIP_WITH_TRANSFORMATION(#1173) 
SHAPE_REPRESENTATION_RELATIONSHIP() );
#1173 = ITEM_DEFINED_TRANSFORMATION('','',#11,#75);
#1174 = PRODUCT_DEFINITION_SHAPE('Placement','Placement of an item',
  #1175);
#1175 = NEXT_ASSEMBLY_USAGE_OCCURRENCE('637','BALL_0014','',#5,#1122,$);
#1176 = PRODUCT_RELATED_PRODUCT_CATEGORY('part',$,(#1124));
#1177 = SHAPE_DEFINITION_REPRESENTATION(#1178,#1184);
#1178 = PRODUCT_DEFINITION_SHAPE('','',#1179);
#1179 = PRODUCT_DEFINITION('design','',#1180,#1183);
#1180 = PRODUCT_DEFINITION_FORMATION('','',#1181);
#1181 = PRODUCT('BALL_0015','BALL_0015','',(#1182));
#1182 = PRODUCT_CONTEXT('',#2,'mechanical');
#1183 = PRODUCT_DEFINITION_CONTEXT('part definition',#2,'design');
#1184 = ADVANCED_BREP_SHAPE_REPRESENTATION('',(#11,#1185),#1223);
#1185 = MANIFOLD_SOLID_BREP('',#1186);
#1186 = CLOSED_SHELL('',(#1187,#1214));
#1187 = ADVANCED_FACE('',(#1188),#1209,.T.);
#1188 = FACE_BOUND('',#1189,.T.);
#1189 = EDGE_LOOP('',(#1190,#1199,#1208));
#1190 = ORIENTED_EDGE('',*,*,#1191,.T.);
#1191 = EDGE_CURVE('',#1192,#1192,#1194,.T.);
#1192 = VERTEX_POINT('',#1193);
#1193 = CARTESIAN_POINT('',(-0.6,0.16,-0.519999999999));
#1194 = CIRCLE('',#1195,8.000000000055E-02);
#1195 = AXIS2_PLACEMENT_3D('',#1196,#1197,#1198);
#1196 = CARTESIAN_POINT('',(-0.6,0.16,-0.6));
#1197 = DIRECTION('',(-5.551115123126E-17,-1.,0.));
#1198 = DIRECTION('',(-3.046243393016E-28,1.691004776769E-44,1.));
#1199 = ORIENTED_EDGE('',*,*,#1200,.T.);
#1200 = EDGE_CURVE('',#1192,#1201,#1203,.T.);
#1201 = VERTEX_POINT('',#1202);
#1202 = CARTESIAN_POINT('',(-0.6,-4.390267754622E-13,-0.6));
#1203 = CIRCLE('',#1204,0.1);
#1204 = AXIS2_PLACEMENT_3D('',#1205,#1206,#1207);
#1205 = CARTESIAN_POINT('',(-0.6,1.E-01,-0.6));
#1206 = DIRECTION('',(1.,-1.110223024625E-16,-5.551115123126E-17));
#1207 = DIRECTION('',(1.110223024625E-16,1.,5.551115123126E-17));
#1208 = ORIENTED_EDGE('',*,*,#1200,.F.);
#1209 = SPHERICAL_SURFACE('',#1210,0.1);
#1210 = AXIS2_PLACEMENT_3D('',#1211,#1212,#1213);
#1211 = CARTESIAN_POINT('',(-0.6,1.E-01,-0.6));
#1212 = DIRECTION('',(-5.551115123126E-17,-1.,-0.));
#1213 = DIRECTION('',(-2.724608469056E-28,1.512461527718E-44,1.));
#1214 = ADVANCED_FACE('',(#1215),#1218,.F.);
#1215 = FACE_BOUND('',#1216,.F.);
#1216 = EDGE_LOOP('',(#1217));
#1217 = ORIENTED_EDGE('',*,*,#1191,.T.);
#1218 = PLANE('',#1219);
#1219 = AXIS2_PLACEMENT_3D('',#1220,#1221,#1222);
#1220 = CARTESIAN_POINT('',(-0.6,0.16,-0.6));
#1221 = DIRECTION('',(-5.551115123126E-17,-1.,-0.));
#1222 = DIRECTION('',(-3.046243393016E-28,1.691004776769E-44,1.));
#1223 = ( GEOMETRIC_REPRESENTATION_CONTEXT(3) 
GLOBAL_UNCERTAINTY_ASSIGNED_CONTEXT((#1227)) 
GLOBAL_UNIT_ASSIGNED_CONTEXT((#1224,#1225,#1226)) REPRESENTATION_CONTEXT
('Context #1','3D Context with UNIT and UNCERTAINTY') );
#1224 = ( LENGTH_UNIT() NAMED_UNIT(*) SI_UNIT(.MILLI.,.METRE.) );
#1225 = ( NAMED_UNIT(*) PLANE_ANGLE_UNIT() SI_UNIT($,.RADIAN.) );
#1226 = ( NAMED_UNIT(*) SI_UNIT($,.STERADIAN.) SOLID_ANGLE_UNIT() );
#1227 = UNCERTAINTY_MEASURE_WITH_UNIT(LENGTH_MEASURE(1.E-07),#1224,
  'distance_accuracy_value','confusion accuracy');
#1228 = CONTEXT_DEPENDENT_SHAPE_REPRESENTATION(#1229,#1231);
#1229 = ( REPRESENTATION_RELATIONSHIP('','',#1184,#10) 
REPRESENTATION_RELATIONSHIP_WITH_TRANSFORMATION(#1230) 
SHAPE_REPRESENTATION_RELATIONSHIP() );
#1230 = ITEM_DEFINED_TRANSFORMATION('','',#11,#79);
#1231 = PRODUCT_DEFINITION_SHAPE('Placement','Placement of an item',
  #1232);
#1232 = NEXT_ASSEMBLY_USAGE_OCCURRENCE('638','BALL_0015','',#5,#1179,$);
#1233 = PRODUCT_RELATED_PRODUCT_CATEGORY('part',$,(#1181));
#1234 = SHAPE_DEFINITION_REPRESENTATION(#1235,#1241);
#1235 = PRODUCT_DEFINITION_SHAPE('','',#1236);
#1236 = PRODUCT_DEFINITION('design','',#1237,#1240);
#1237 = PRODUCT_DEFINITION_FORMATION('','',#1238);
#1238 = PRODUCT('BALL_0016','BALL_0016','',(#1239));
#1239 = PRODUCT_CONTEXT('',#2,'mechanical');
#1240 = PRODUCT_DEFINITION_CONTEXT('part definition',#2,'design');
#1241 = ADVANCED_BREP_SHAPE_REPRESENTATION('',(#11,#1242),#1280);
#1242 = MANIFOLD_SOLID_BREP('',#1243);
#1243 = CLOSED_SHELL('',(#1244,#1271));
#1244 = ADVANCED_FACE('',(#1245),#1266,.T.);
#1245 = FACE_BOUND('',#1246,.T.);
#1246 = EDGE_LOOP('',(#1247,#1256,#1265));
#1247 = ORIENTED_EDGE('',*,*,#1248,.T.);
#1248 = EDGE_CURVE('',#1249,#1249,#1251,.T.);
#1249 = VERTEX_POINT('',#1250);
#1250 = CARTESIAN_POINT('',(-0.6,0.16,-0.519999999999));
#1251 = CIRCLE('',#1252,8.000000000055E-02);
#1252 = AXIS2_PLACEMENT_3D('',#1253,#1254,#1255);
#1253 = CARTESIAN_POINT('',(-0.6,0.16,-0.6));
#1254 = DIRECTION('',(-5.551115123126E-17,-1.,0.));
#1255 = DIRECTION('',(-3.046243393016E-28,1.691004776769E-44,1.));
#1256 = ORIENTED_EDGE('',*,*,#1257,.T.);
#1257 = EDGE_CURVE('',#1249,#1258,#1260,.T.);
#1258 = VERTEX_POINT('',#1259);
#1259 = CARTESIAN_POINT('',(-0.6,-4.390267754622E-13,-0.6));
#1260 = CIRCLE('',#1261,0.1);
#1261 = AXIS2_PLACEMENT_3D('',#1262,#1263,#1264);
#1262 = CARTESIAN_POINT('',(-0.6,1.E-01,-0.6));
#1263 = DIRECTION('',(1.,-1.110223024625E-16,-5.551115123126E-17));
#1264 = DIRECTION('',(1.110223024625E-16,1.,5.551115123126E-17));
#1265 = ORIENTED_EDGE('',*,*,#1257,.F.);
#1266 = SPHERICAL_SURFACE('',#1267,0.1);
#1267 = AXIS2_PLACEMENT_3D('',#1268,#1269,#1270);
#1268 = CARTESIAN_POINT('',(-0.6,1.E-01,-0.6));
#1269 = DIRECTION('',(-5.551115123126E-17,-1.,-0.));
#1270 = DIRECTION('',(-2.724608469056E-28,1.512461527718E-44,1.));
#1271 = ADVANCED_FACE('',(#1272),#1275,.F.);
#1272 = FACE_BOUND('',#1273,.F.);
#1273 = EDGE_LOOP('',(#1274));
#1274 = ORIENTED_EDGE('',*,*,#1248,.T.);
#1275 = PLANE('',#1276);
#1276 = AXIS2_PLACEMENT_3D('',#1277,#1278,#1279);
#1277 = CARTESIAN_POINT('',(-0.6,0.16,-0.6));
#1278 = DIRECTION('',(-5.551115123126E-17,-1.,-0.));
#1279 = DIRECTION('',(-3.046243393016E-28,1.691004776769E-44,1.));
#1280 = ( GEOMETRIC_REPRESENTATION_CONTEXT(3) 
GLOBAL_UNCERTAINTY_ASSIGNED_CONTEXT((#1284)) 
GLOBAL_UNIT_ASSIGNED_CONTEXT((#1281,#1282,#1283)) REPRESENTATION_CONTEXT
('Context #1','3D Context with UNIT and UNCERTAINTY') );
#1281 = ( LENGTH_UNIT() NAMED_UNIT(*) SI_UNIT(.MILLI.,.METRE.) );
#1282 = ( NAMED_UNIT(*) PLANE_ANGLE_UNIT() SI_UNIT($,.RADIAN.) );
#1283 = ( NAMED_UNIT(*) SI_UNIT($,.STERADIAN.) SOLID_ANGLE_UNIT() );
#1284 = UNCERTAINTY_MEASURE_WITH_UNIT(LENGTH_MEASURE(1.E-07),#1281,
  'distance_accuracy_value','confusion accuracy');
#1285 = CONTEXT_DEPENDENT_SHAPE_REPRESENTATION(#1286,#1288);
#1286 = ( REPRESENTATION_RELATIONSHIP('','',#1241,#10) 
REPRESENTATION_RELATIONSHIP_WITH_TRANSFORMATION(#1287) 
SHAPE_REPRESENTATION_RELATIONSHIP() );
#1287 = ITEM_DEFINED_TRANSFORMATION('','',#11,#83);
#1288 = PRODUCT_DEFINITION_SHAPE('Placement','Placement of an item',
  #1289);
#1289 = NEXT_ASSEMBLY_USAGE_OCCURRENCE('639','BALL_0016','',#5,#1236,$);
#1290 = PRODUCT_RELATED_PRODUCT_CATEGORY('part',$,(#1238));
#1291 = MECHANICAL_DESIGN_GEOMETRIC_PRESENTATION_REPRESENTATION('',(
    #1292),#1166);
#1292 = STYLED_ITEM('color',(#1293),#1128);
#1293 = PRESENTATION_STYLE_ASSIGNMENT((#1294,#1300));
#1294 = SURFACE_STYLE_USAGE(.BOTH.,#1295);
#1295 = SURFACE_SIDE_STYLE('',(#1296));
#1296 = SURFACE_STYLE_FILL_AREA(#1297);
#1297 = FILL_AREA_STYLE('',(#1298));
#1298 = FILL_AREA_STYLE_COLOUR('',#1299);
#1299 = COLOUR_RGB('',0.796078452645,0.823529417451,0.937254901616);
#1300 = CURVE_STYLE('',#1301,POSITIVE_LENGTH_MEASURE(0.1),#1302);
#1301 = DRAUGHTING_PRE_DEFINED_CURVE_FONT('continuous');
#1302 = COLOUR_RGB('',9.803921802644E-02,9.803921802644E-02,
  9.803921802644E-02);
#1303 = MECHANICAL_DESIGN_GEOMETRIC_PRESENTATION_REPRESENTATION('',(
    #1304),#653);
#1304 = STYLED_ITEM('color',(#1305),#615);
#1305 = PRESENTATION_STYLE_ASSIGNMENT((#1306,#1311));
#1306 = SURFACE_STYLE_USAGE(.BOTH.,#1307);
#1307 = SURFACE_SIDE_STYLE('',(#1308));
#1308 = SURFACE_STYLE_FILL_AREA(#1309);
#1309 = FILL_AREA_STYLE('',(#1310));
#1310 = FILL_AREA_STYLE_COLOUR('',#1299);
#1311 = CURVE_STYLE('',#1312,POSITIVE_LENGTH_MEASURE(0.1),#1302);
#1312 = DRAUGHTING_PRE_DEFINED_CURVE_FONT('continuous');
#1313 = MECHANICAL_DESIGN_GEOMETRIC_PRESENTATION_REPRESENTATION('',(
    #1314),#824);
#1314 = STYLED_ITEM('color',(#1315),#786);
#1315 = PRESENTATION_STYLE_ASSIGNMENT((#1316,#1321));
#1316 = SURFACE_STYLE_USAGE(.BOTH.,#1317);
#1317 = SURFACE_SIDE_STYLE('',(#1318));
#1318 = SURFACE_STYLE_FILL_AREA(#1319);
#1319 = FILL_AREA_STYLE('',(#1320));
#1320 = FILL_AREA_STYLE_COLOUR('',#1299);
#1321 = CURVE_STYLE('',#1322,POSITIVE_LENGTH_MEASURE(0.1),#1302);
#1322 = DRAUGHTING_PRE_DEFINED_CURVE_FONT('continuous');
#1323 = MECHANICAL_DESIGN_GEOMETRIC_PRESENTATION_REPRESENTATION('',(
    #1324),#539);
#1324 = STYLED_ITEM('color',(#1325),#501);
#1325 = PRESENTATION_STYLE_ASSIGNMENT((#1326,#1331));
#1326 = SURFACE_STYLE_USAGE(.BOTH.,#1327);
#1327 = SURFACE_SIDE_STYLE('',(#1328));
#1328 = SURFACE_STYLE_FILL_AREA(#1329);
#1329 = FILL_AREA_STYLE('',(#1330));
#1330 = FILL_AREA_STYLE_COLOUR('',#1299);
#1331 = CURVE_STYLE('',#1332,POSITIVE_LENGTH_MEASURE(0.1),#1302);
#1332 = DRAUGHTING_PRE_DEFINED_CURVE_FONT('continuous');
#1333 = MECHANICAL_DESIGN_GEOMETRIC_PRESENTATION_REPRESENTATION('',(
    #1334),#1052);
#1334 = STYLED_ITEM('color',(#1335),#1014);
#1335 = PRESENTATION_STYLE_ASSIGNMENT((#1336,#1341));
#1336 = SURFACE_STYLE_USAGE(.BOTH.,#1337);
#1337 = SURFACE_SIDE_STYLE('',(#1338));
#1338 = SURFACE_STYLE_FILL_AREA(#1339);
#1339 = FILL_AREA_STYLE('',(#1340));
#1340 = FILL_AREA_STYLE_COLOUR('',#1299);
#1341 = CURVE_STYLE('',#1342,POSITIVE_LENGTH_MEASURE(0.1),#1302);
#1342 = DRAUGHTING_PRE_DEFINED_CURVE_FONT('continuous');
#1343 = MECHANICAL_DESIGN_GEOMETRIC_PRESENTATION_REPRESENTATION('',(
    #1344),#368);
#1344 = STYLED_ITEM('color',(#1345),#315);
#1345 = PRESENTATION_STYLE_ASSIGNMENT((#1346,#1352));
#1346 = SURFACE_STYLE_USAGE(.BOTH.,#1347);
#1347 = SURFACE_SIDE_STYLE('',(#1348));
#1348 = SURFACE_STYLE_FILL_AREA(#1349);
#1349 = FILL_AREA_STYLE('',(#1350));
#1350 = FILL_AREA_STYLE_COLOUR('',#1351);
#1351 = DRAUGHTING_PRE_DEFINED_COLOUR('white');
#1352 = CURVE_STYLE('',#1353,POSITIVE_LENGTH_MEASURE(0.1),#1302);
#1353 = DRAUGHTING_PRE_DEFINED_CURVE_FONT('continuous');
#1354 = MECHANICAL_DESIGN_GEOMETRIC_PRESENTATION_REPRESENTATION('',(
    #1355),#881);
#1355 = STYLED_ITEM('color',(#1356),#843);
#1356 = PRESENTATION_STYLE_ASSIGNMENT((#1357,#1362));
#1357 = SURFACE_STYLE_USAGE(.BOTH.,#1358);
#1358 = SURFACE_SIDE_STYLE('',(#1359));
#1359 = SURFACE_STYLE_FILL_AREA(#1360);
#1360 = FILL_AREA_STYLE('',(#1361));
#1361 = FILL_AREA_STYLE_COLOUR('',#1299);
#1362 = CURVE_STYLE('',#1363,POSITIVE_LENGTH_MEASURE(0.1),#1302);
#1363 = DRAUGHTING_PRE_DEFINED_CURVE_FONT('continuous');
#1364 = MECHANICAL_DESIGN_GEOMETRIC_PRESENTATION_REPRESENTATION('',(
    #1365),#767);
#1365 = STYLED_ITEM('color',(#1366),#729);
#1366 = PRESENTATION_STYLE_ASSIGNMENT((#1367,#1372));
#1367 = SURFACE_STYLE_USAGE(.BOTH.,#1368);
#1368 = SURFACE_SIDE_STYLE('',(#1369));
#1369 = SURFACE_STYLE_FILL_AREA(#1370);
#1370 = FILL_AREA_STYLE('',(#1371));
#1371 = FILL_AREA_STYLE_COLOUR('',#1299);
#1372 = CURVE_STYLE('',#1373,POSITIVE_LENGTH_MEASURE(0.1),#1302);
#1373 = DRAUGHTING_PRE_DEFINED_CURVE_FONT('continuous');
#1374 = MECHANICAL_DESIGN_GEOMETRIC_PRESENTATION_REPRESENTATION('',(
    #1375),#1223);
#1375 = STYLED_ITEM('color',(#1376),#1185);
#1376 = PRESENTATION_STYLE_ASSIGNMENT((#1377,#1382));
#1377 = SURFACE_STYLE_USAGE(.BOTH.,#1378);
#1378 = SURFACE_SIDE_STYLE('',(#1379));
#1379 = SURFACE_STYLE_FILL_AREA(#1380);
#1380 = FILL_AREA_STYLE('',(#1381));
#1381 = FILL_AREA_STYLE_COLOUR('',#1299);
#1382 = CURVE_STYLE('',#1383,POSITIVE_LENGTH_MEASURE(0.1),#1302);
#1383 = DRAUGHTING_PRE_DEFINED_CURVE_FONT('continuous');
#1384 = MECHANICAL_DESIGN_GEOMETRIC_PRESENTATION_REPRESENTATION('',(
    #1385),#1280);
#1385 = STYLED_ITEM('color',(#1386),#1242);
#1386 = PRESENTATION_STYLE_ASSIGNMENT((#1387,#1392));
#1387 = SURFACE_STYLE_USAGE(.BOTH.,#1388);
#1388 = SURFACE_SIDE_STYLE('',(#1389));
#1389 = SURFACE_STYLE_FILL_AREA(#1390);
#1390 = FILL_AREA_STYLE('',(#1391));
#1391 = FILL_AREA_STYLE_COLOUR('',#1299);
#1392 = CURVE_STYLE('',#1393,POSITIVE_LENGTH_MEASURE(0.1),#1302);
#1393 = DRAUGHTING_PRE_DEFINED_CURVE_FONT('continuous');
#1394 = MECHANICAL_DESIGN_GEOMETRIC_PRESENTATION_REPRESENTATION('',(
    #1395),#995);
#1395 = STYLED_ITEM('color',(#1396),#957);
#1396 = PRESENTATION_STYLE_ASSIGNMENT((#1397,#1402));
#1397 = SURFACE_STYLE_USAGE(.BOTH.,#1398);
#1398 = SURFACE_SIDE_STYLE('',(#1399));
#1399 = SURFACE_STYLE_FILL_AREA(#1400);
#1400 = FILL_AREA_STYLE('',(#1401));
#1401 = FILL_AREA_STYLE_COLOUR('',#1299);
#1402 = CURVE_STYLE('',#1403,POSITIVE_LENGTH_MEASURE(0.1),#1302);
#1403 = DRAUGHTING_PRE_DEFINED_CURVE_FONT('continuous');
#1404 = MECHANICAL_DESIGN_GEOMETRIC_PRESENTATION_REPRESENTATION('',(
    #1405),#596);
#1405 = STYLED_ITEM('color',(#1406),#558);
#1406 = PRESENTATION_STYLE_ASSIGNMENT((#1407,#1412));
#1407 = SURFACE_STYLE_USAGE(.BOTH.,#1408);
#1408 = SURFACE_SIDE_STYLE('',(#1409));
#1409 = SURFACE_STYLE_FILL_AREA(#1410);
#1410 = FILL_AREA_STYLE('',(#1411));
#1411 = FILL_AREA_STYLE_COLOUR('',#1299);
#1412 = CURVE_STYLE('',#1413,POSITIVE_LENGTH_MEASURE(0.1),#1302);
#1413 = DRAUGHTING_PRE_DEFINED_CURVE_FONT('continuous');
#1414 = MECHANICAL_DESIGN_GEOMETRIC_PRESENTATION_REPRESENTATION('',(
    #1415),#296);
#1415 = STYLED_ITEM('color',(#1416),#101);
#1416 = PRESENTATION_STYLE_ASSIGNMENT((#1417,#1423));
#1417 = SURFACE_STYLE_USAGE(.BOTH.,#1418);
#1418 = SURFACE_SIDE_STYLE('',(#1419));
#1419 = SURFACE_STYLE_FILL_AREA(#1420);
#1420 = FILL_AREA_STYLE('',(#1421));
#1421 = FILL_AREA_STYLE_COLOUR('',#1422);
#1422 = COLOUR_RGB('',0.250980406631,0.250980406631,0.250980406631);
#1423 = CURVE_STYLE('',#1424,POSITIVE_LENGTH_MEASURE(0.1),#1302);
#1424 = DRAUGHTING_PRE_DEFINED_CURVE_FONT('continuous');
#1425 = MECHANICAL_DESIGN_GEOMETRIC_PRESENTATION_REPRESENTATION('',(
    #1426),#425);
#1426 = STYLED_ITEM('color',(#1427),#387);
#1427 = PRESENTATION_STYLE_ASSIGNMENT((#1428,#1433));
#1428 = SURFACE_STYLE_USAGE(.BOTH.,#1429);
#1429 = SURFACE_SIDE_STYLE('',(#1430));
#1430 = SURFACE_STYLE_FILL_AREA(#1431);
#1431 = FILL_AREA_STYLE('',(#1432));
#1432 = FILL_AREA_STYLE_COLOUR('',#1299);
#1433 = CURVE_STYLE('',#1434,POSITIVE_LENGTH_MEASURE(0.1),#1302);
#1434 = DRAUGHTING_PRE_DEFINED_CURVE_FONT('continuous');
#1435 = MECHANICAL_DESIGN_GEOMETRIC_PRESENTATION_REPRESENTATION('',(
    #1436),#710);
#1436 = STYLED_ITEM('color',(#1437),#672);
#1437 = PRESENTATION_STYLE_ASSIGNMENT((#1438,#1443));
#1438 = SURFACE_STYLE_USAGE(.BOTH.,#1439);
#1439 = SURFACE_SIDE_STYLE('',(#1440));
#1440 = SURFACE_STYLE_FILL_AREA(#1441);
#1441 = FILL_AREA_STYLE('',(#1442));
#1442 = FILL_AREA_STYLE_COLOUR('',#1299);
#1443 = CURVE_STYLE('',#1444,POSITIVE_LENGTH_MEASURE(0.1),#1302);
#1444 = DRAUGHTING_PRE_DEFINED_CURVE_FONT('continuous');
#1445 = MECHANICAL_DESIGN_GEOMETRIC_PRESENTATION_REPRESENTATION('',(
    #1446),#1109);
#1446 = STYLED_ITEM('color',(#1447),#1071);
#1447 = PRESENTATION_STYLE_ASSIGNMENT((#1448,#1453));
#1448 = SURFACE_STYLE_USAGE(.BOTH.,#1449);
#1449 = SURFACE_SIDE_STYLE('',(#1450));
#1450 = SURFACE_STYLE_FILL_AREA(#1451);
#1451 = FILL_AREA_STYLE('',(#1452));
#1452 = FILL_AREA_STYLE_COLOUR('',#1299);
#1453 = CURVE_STYLE('',#1454,POSITIVE_LENGTH_MEASURE(0.1),#1302);
#1454 = DRAUGHTING_PRE_DEFINED_CURVE_FONT('continuous');
#1455 = MECHANICAL_DESIGN_GEOMETRIC_PRESENTATION_REPRESENTATION('',(
    #1456),#938);
#1456 = STYLED_ITEM('color',(#1457),#900);
#1457 = PRESENTATION_STYLE_ASSIGNMENT((#1458,#1463));
#1458 = SURFACE_STYLE_USAGE(.BOTH.,#1459);
#1459 = SURFACE_SIDE_STYLE('',(#1460));
#1460 = SURFACE_STYLE_FILL_AREA(#1461);
#1461 = FILL_AREA_STYLE('',(#1462));
#1462 = FILL_AREA_STYLE_COLOUR('',#1299);
#1463 = CURVE_STYLE('',#1464,POSITIVE_LENGTH_MEASURE(0.1),#1302);
#1464 = DRAUGHTING_PRE_DEFINED_CURVE_FONT('continuous');
#1465 = MECHANICAL_DESIGN_GEOMETRIC_PRESENTATION_REPRESENTATION('',(
    #1466),#482);
#1466 = STYLED_ITEM('color',(#1467),#444);
#1467 = PRESENTATION_STYLE_ASSIGNMENT((#1468,#1473));
#1468 = SURFACE_STYLE_USAGE(.BOTH.,#1469);
#1469 = SURFACE_SIDE_STYLE('',(#1470));
#1470 = SURFACE_STYLE_FILL_AREA(#1471);
#1471 = FILL_AREA_STYLE('',(#1472));
#1472 = FILL_AREA_STYLE_COLOUR('',#1299);
#1473 = CURVE_STYLE('',#1474,POSITIVE_LENGTH_MEASURE(0.1),#1302);
#1474 = DRAUGHTING_PRE_DEFINED_CURVE_FONT('continuous');
ENDSEC;
END-ISO-10303-21;
