ISO-10303-21;
HEADER;
FILE_DESCRIPTION (( 'STEP AP214' ),
    '1' );
FILE_NAME ('TXS0104E.STEP',
    '2023-05-22T14:11:59',
    ( '' ),
    ( '' ),
    'SwSTEP 2.0',
    'SolidWorks 2017',
    '' );
FILE_SCHEMA (( 'AUTOMOTIVE_DESIGN' ));
ENDSEC;

DATA;
#1 = AXIS2_PLACEMENT_3D ( 'NONE', #1239, #906, #105 ) ;
#2 = ORIENTED_EDGE ( 'NONE', *, *, #423, .F. ) ;
#3 = DIRECTION ( 'NONE',  ( 0.0000000000000000000, 0.0000000000000000000, -1.000000000000000000 ) ) ;
#4 = DIRECTION ( 'NONE',  ( 0.0000000000000000000, 1.000000000000000000, 0.0000000000000000000 ) ) ;
#5 = PRODUCT_DEFINITION_CONTEXT ( 'detailed design', #412, 'design' ) ;
#6 = CARTESIAN_POINT ( 'NONE',  ( 0.0000000000000000000, 0.1900000000000000000, 0.2500000000000000000 ) ) ;
#7 = AXIS2_PLACEMENT_3D ( 'NONE', #547, #555, #142 ) ;
#8 =( LENGTH_UNIT ( ) NAMED_UNIT ( * ) SI_UNIT ( .MILLI., .METRE. ) );
#9 = AXIS2_PLACEMENT_3D ( 'NONE', #426, #1039, #1246 ) ;
#10 = DIRECTION ( 'NONE',  ( 0.0000000000000000000, -1.000000000000000000, -0.0000000000000000000 ) ) ;
#11 = FACE_OUTER_BOUND ( 'NONE', #361, .T. ) ;
#12 = ADVANCED_FACE ( 'NONE', ( #284 ), #862, .T. ) ;
#13 = ORIENTED_EDGE ( 'NONE', *, *, #92, .T. ) ;
#14 = LINE ( 'NONE', #1155, #452 ) ;
#15 = EDGE_LOOP ( 'NONE', ( #350, #222, #722 ) ) ;
#16 =( LENGTH_UNIT ( ) NAMED_UNIT ( * ) SI_UNIT ( .MILLI., .METRE. ) );
#17 = ADVANCED_FACE ( 'NONE', ( #251 ), #554, .T. ) ;
#18 = UNCERTAINTY_MEASURE_WITH_UNIT (LENGTH_MEASURE( 1.000000000000000100E-005 ), #16, 'distance_accuracy_value', 'NONE');
#19 = ORIENTED_EDGE ( 'NONE', *, *, #476, .F. ) ;
#20 = CARTESIAN_POINT ( 'NONE',  ( -0.5000000000000000000, 0.1150000000000000000, -0.7500000000000000000 ) ) ;
#21 = CIRCLE ( 'NONE', #128, 0.1149999999999999800 ) ;
#22 = AXIS2_PLACEMENT_3D ( 'NONE', #185, #886, #285 ) ;
#23 = EDGE_CURVE ( 'NONE', #503, #347, #406, .T. ) ;
#24 = SPHERICAL_SURFACE ( 'NONE', #116, 0.1149999999999999600 ) ;
#25 = CARTESIAN_POINT ( 'NONE',  ( -1.067622327802772600E-017, 0.1900000000000000000, -0.8371779788708134700 ) ) ;
#26 =( NAMED_UNIT ( * ) PLANE_ANGLE_UNIT ( ) SI_UNIT ( $, .RADIAN. ) );
#27 = DIRECTION ( 'NONE',  ( 0.0000000000000000000, 0.0000000000000000000, 1.000000000000000000 ) ) ;
#28 = CIRCLE ( 'NONE', #483, 0.06000000000000004600 ) ;
#29 = CARTESIAN_POINT ( 'NONE',  ( 0.0000000000000000000, 0.1150000000000000000, -0.2500000000000000000 ) ) ;
#30 =( NAMED_UNIT ( * ) PLANE_ANGLE_UNIT ( ) SI_UNIT ( $, .RADIAN. ) );
#31 = ORIENTED_EDGE ( 'NONE', *, *, #472, .F. ) ;
#32 = DIRECTION ( 'NONE',  ( 0.0000000000000000000, 0.0000000000000000000, 1.000000000000000000 ) ) ;
#33 = ORIENTED_EDGE ( 'NONE', *, *, #824, .F. ) ;
#34 = CARTESIAN_POINT ( 'NONE',  ( -0.5300000000000000300, 0.5749999999999999600, -0.7800000000000002500 ) ) ;
#35 = VERTEX_POINT ( 'NONE', #425 ) ;
#36 = ORIENTED_EDGE ( 'NONE', *, *, #92, .F. ) ;
#37 = CARTESIAN_POINT ( 'NONE',  ( -0.5000000000000000000, 0.1900000000000000000, 0.6628220211291866400 ) ) ;
#38 =( NAMED_UNIT ( * ) SI_UNIT ( $, .STERADIAN. ) SOLID_ANGLE_UNIT ( ) );
#39 = PLANE ( 'NONE',  #622 ) ;
#40 =( LENGTH_UNIT ( ) NAMED_UNIT ( * ) SI_UNIT ( .MILLI., .METRE. ) );
#41 = MECHANICAL_DESIGN_GEOMETRIC_PRESENTATION_REPRESENTATION (  '', ( #176 ), #443 ) ;
#42 = MANIFOLD_SOLID_BREP ( 'LPattern1[2]', #1159 ) ;
#43 = DIRECTION ( 'NONE',  ( -1.000000000000000000, 0.0000000000000000000, 1.224646799147353200E-016 ) ) ;
#44 = AXIS2_PLACEMENT_3D ( 'NONE', #884, #1104, #79 ) ;
#45 = VERTEX_POINT ( 'NONE', #232 ) ;
#46 = DIRECTION ( 'NONE',  ( 0.0000000000000000000, 0.0000000000000000000, -1.000000000000000000 ) ) ;
#47 = DIRECTION ( 'NONE',  ( 1.224646799147353200E-016, 0.0000000000000000000, 1.000000000000000000 ) ) ;
#48 = DIRECTION ( 'NONE',  ( 0.0000000000000000000, 0.0000000000000000000, -1.000000000000000000 ) ) ;
#49 = DIRECTION ( 'NONE',  ( 0.0000000000000000000, 1.000000000000000000, 0.0000000000000000000 ) ) ;
#50 = VERTEX_POINT ( 'NONE', #726 ) ;
#51 = CARTESIAN_POINT ( 'NONE',  ( -1.067622327802772600E-017, 0.1900000000000000000, -0.3371779788708134100 ) ) ;
#52 = FACE_OUTER_BOUND ( 'NONE', #1094, .T. ) ;
#53 =( LENGTH_UNIT ( ) NAMED_UNIT ( * ) SI_UNIT ( .MILLI., .METRE. ) );
#54 = CARTESIAN_POINT ( 'NONE',  ( -0.6799999999999999400, 0.1900000000000000000, -0.9300000000000001600 ) ) ;
#55 = EDGE_CURVE ( 'NONE', #505, #1030, #14, .T. ) ;
#56 = CIRCLE ( 'NONE', #584, 0.1149999999999999800 ) ;
#57 = FILL_AREA_STYLE_COLOUR ( '', #106 ) ;
#58 = AXIS2_PLACEMENT_3D ( 'NONE', #1192, #767, #863 ) ;
#59 = SURFACE_SIDE_STYLE ('',( #908 ) ) ;
#60 = ORIENTED_EDGE ( 'NONE', *, *, #787, .T. ) ;
#61 = VERTEX_POINT ( 'NONE', #1268 ) ;
#62 = STYLED_ITEM ( 'NONE', ( #198 ), #647 ) ;
#63 = EDGE_LOOP ( 'NONE', ( #504, #482 ) ) ;
#64 = ORIENTED_EDGE ( 'NONE', *, *, #247, .F. ) ;
#65 =( LENGTH_UNIT ( ) NAMED_UNIT ( * ) SI_UNIT ( .MILLI., .METRE. ) );
#66 = AXIS2_PLACEMENT_3D ( 'NONE', #399, #522, #1245 ) ;
#67 = CIRCLE ( 'NONE', #137, 0.1149999999999999800 ) ;
#68 = CARTESIAN_POINT ( 'NONE',  ( 0.0000000000000000000, 0.1150000000000000000, 0.7500000000000000000 ) ) ;
#69 = AXIS2_PLACEMENT_3D ( 'NONE', #891, #304, #714 ) ;
#70 = CARTESIAN_POINT ( 'NONE',  ( -0.5000000000000000000, 0.1150000000000000000, -0.2500000000000000000 ) ) ;
#71 = DIRECTION ( 'NONE',  ( 1.000000000000000000, -0.0000000000000000000, 0.0000000000000000000 ) ) ;
#72 =( GEOMETRIC_REPRESENTATION_CONTEXT ( 3 ) GLOBAL_UNCERTAINTY_ASSIGNED_CONTEXT ( ( #782 ) ) GLOBAL_UNIT_ASSIGNED_CONTEXT ( ( #53, #650, #645 ) ) REPRESENTATION_CONTEXT ( 'NONE', 'WORKASPACE' ) );
#73 = COLOUR_RGB ( '',0.2509803921568627400, 0.2509803921568627400, 0.2509803921568627400 ) ;
#74 = ADVANCED_FACE ( 'NONE', ( #191 ), #39, .F. ) ;
#75 = DIRECTION ( 'NONE',  ( -1.000000000000000000, 0.0000000000000000000, 0.0000000000000000000 ) ) ;
#76 = COLOUR_RGB ( '',0.7921568627450980000, 0.8196078431372548800, 0.9333333333333333500 ) ;
#77 = ORIENTED_EDGE ( 'NONE', *, *, #700, .T. ) ;
#78 = STYLED_ITEM ( 'NONE', ( #842 ), #331 ) ;
#79 = DIRECTION ( 'NONE',  ( 0.0000000000000000000, 0.0000000000000000000, 1.000000000000000000 ) ) ;
#80 = VERTEX_POINT ( 'NONE', #417 ) ;
#81 = CARTESIAN_POINT ( 'NONE',  ( -0.5000000000000000000, 0.1900000000000000000, 0.2500000000000000000 ) ) ;
#82 = ADVANCED_FACE ( 'NONE', ( #627 ), #1252, .T. ) ;
#83 = DIRECTION ( 'NONE',  ( 0.0000000000000000000, 0.0000000000000000000, 1.000000000000000000 ) ) ;
#84 = CARTESIAN_POINT ( 'NONE',  ( -0.6799999999999999400, 0.6250000000000001100, 0.9299999999999998300 ) ) ;
#85 = ORIENTED_EDGE ( 'NONE', *, *, #877, .T. ) ;
#86 = UNCERTAINTY_MEASURE_WITH_UNIT (LENGTH_MEASURE( 1.000000000000000100E-005 ), #1237, 'distance_accuracy_value', 'NONE');
#87 = FACE_OUTER_BOUND ( 'NONE', #1260, .T. ) ;
#88 = SURFACE_STYLE_FILL_AREA ( #1141 ) ;
#89 = CARTESIAN_POINT ( 'NONE',  ( -0.5300000000000000300, 0.6250000000000000000, -0.7200000000000002000 ) ) ;
#90 = SPHERICAL_SURFACE ( 'NONE', #258, 0.1149999999999999600 ) ;
#91 = PRESENTATION_LAYER_ASSIGNMENT (  '', '', ( #292 ) ) ;
#92 = EDGE_CURVE ( 'NONE', #317, #249, #1219, .T. ) ;
#93 =( NAMED_UNIT ( * ) SI_UNIT ( $, .STERADIAN. ) SOLID_ANGLE_UNIT ( ) );
#94 = CIRCLE ( 'NONE', #1103, 0.1149999999999999800 ) ;
#95 = VERTEX_POINT ( 'NONE', #950 ) ;
#96 = SPHERICAL_SURFACE ( 'NONE', #470, 0.1149999999999999600 ) ;
#97 = ORIENTED_EDGE ( 'NONE', *, *, #651, .T. ) ;
#98 = DIRECTION ( 'NONE',  ( 1.000000000000000000, 0.0000000000000000000, 0.0000000000000000000 ) ) ;
#99 = VERTEX_POINT ( 'NONE', #1045 ) ;
#100 = PRODUCT_DEFINITION_FORMATION_WITH_SPECIFIED_SOURCE ( 'ANY', '', #895, .NOT_KNOWN. ) ;
#101 = ORIENTED_EDGE ( 'NONE', *, *, #889, .F. ) ;
#102 = FILL_AREA_STYLE_COLOUR ( '', #1296 ) ;
#103 = ADVANCED_FACE ( 'NONE', ( #169, #881 ), #229, .T. ) ;
#104 = COLOUR_RGB ( '',0.7921568627450980000, 0.8196078431372548800, 0.9333333333333333500 ) ;
#105 = DIRECTION ( 'NONE',  ( 0.0000000000000000000, 0.0000000000000000000, -1.000000000000000000 ) ) ;
#106 = COLOUR_RGB ( '',0.7921568627450980000, 0.8196078431372548800, 0.9333333333333333500 ) ;
#107 = STYLED_ITEM ( 'NONE', ( #965 ), #745 ) ;
#108 = CYLINDRICAL_SURFACE ( 'NONE', #709, 0.06000000000000004600 ) ;
#109 = SPHERICAL_SURFACE ( 'NONE', #312, 0.1149999999999999600 ) ;
#110 = FACE_OUTER_BOUND ( 'NONE', #152, .T. ) ;
#111 = ORIENTED_EDGE ( 'NONE', *, *, #1314, .T. ) ;
#112 = ORIENTED_EDGE ( 'NONE', *, *, #153, .F. ) ;
#113 = DIRECTION ( 'NONE',  ( -1.000000000000000000, 0.0000000000000000000, 0.0000000000000000000 ) ) ;
#114 = ADVANCED_FACE ( 'NONE', ( #327 ), #1164, .T. ) ;
#115 = ORIENTED_EDGE ( 'NONE', *, *, #1248, .T. ) ;
#116 = AXIS2_PLACEMENT_3D ( 'NONE', #706, #1130, #592 ) ;
#117 = FACE_OUTER_BOUND ( 'NONE', #471, .T. ) ;
#118 = DIRECTION ( 'NONE',  ( 0.0000000000000000000, 1.000000000000000000, 0.0000000000000000000 ) ) ;
#119 = FACE_OUTER_BOUND ( 'NONE', #630, .T. ) ;
#120 = PRODUCT_DEFINITION ( 'UNKNOWN', '', #100, #5 ) ;
#121 = EDGE_CURVE ( 'NONE', #123, #898, #939, .T. ) ;
#122 = UNCERTAINTY_MEASURE_WITH_UNIT (LENGTH_MEASURE( 1.000000000000000100E-005 ), #65, 'distance_accuracy_value', 'NONE');
#123 = VERTEX_POINT ( 'NONE', #25 ) ;
#124 = CIRCLE ( 'NONE', #1310, 0.06000000000000004600 ) ;
#125 = PRESENTATION_STYLE_ASSIGNMENT (( #940 ) ) ;
#126 = ORIENTED_EDGE ( 'NONE', *, *, #562, .T. ) ;
#127 = ORIENTED_EDGE ( 'NONE', *, *, #481, .F. ) ;
#128 = AXIS2_PLACEMENT_3D ( 'NONE', #20, #1054, #428 ) ;
#129 = FILL_AREA_STYLE ('',( #429 ) ) ;
#130 = FACE_OUTER_BOUND ( 'NONE', #1074, .T. ) ;
#131 = CARTESIAN_POINT ( 'NONE',  ( 0.0000000000000000000, 0.1150000000000000000, -0.7500000000000000000 ) ) ;
#132 = CARTESIAN_POINT ( 'NONE',  ( 0.5000000000000000000, 0.1900000000000000000, -0.7500000000000000000 ) ) ;
#133 =( NAMED_UNIT ( * ) PLANE_ANGLE_UNIT ( ) SI_UNIT ( $, .RADIAN. ) );
#134 = DIRECTION ( 'NONE',  ( 1.000000000000000000, 0.0000000000000000000, 0.0000000000000000000 ) ) ;
#135 = DIRECTION ( 'NONE',  ( 0.0000000000000000000, -0.0000000000000000000, -1.000000000000000000 ) ) ;
#136 = CARTESIAN_POINT ( 'NONE',  ( -0.5300000000000000300, 0.6250000000000000000, -0.8400000000000003000 ) ) ;
#137 = AXIS2_PLACEMENT_3D ( 'NONE', #321, #1148, #621 ) ;
#138 = DIRECTION ( 'NONE',  ( -0.0000000000000000000, -1.000000000000000000, -0.0000000000000000000 ) ) ;
#139 = VECTOR ( 'NONE', #4, 1000.000000000000000 ) ;
#140 = CARTESIAN_POINT ( 'NONE',  ( -0.5000000000000000000, 0.1150000000000000000, 0.2500000000000000000 ) ) ;
#141 = AXIS2_PLACEMENT_3D ( 'NONE', #1166, #1274, #1267 ) ;
#142 = DIRECTION ( 'NONE',  ( 0.0000000000000000000, 0.0000000000000000000, 1.000000000000000000 ) ) ;
#143 = DIRECTION ( 'NONE',  ( -1.000000000000000000, 0.0000000000000000000, 0.0000000000000000000 ) ) ;
#144 = ORIENTED_EDGE ( 'NONE', *, *, #293, .F. ) ;
#145 = SURFACE_STYLE_USAGE ( .BOTH. , #149 ) ;
#146 = DIRECTION ( 'NONE',  ( 0.0000000000000000000, 0.0000000000000000000, 1.000000000000000000 ) ) ;
#147 =( NAMED_UNIT ( * ) SI_UNIT ( $, .STERADIAN. ) SOLID_ANGLE_UNIT ( ) );
#148 = VECTOR ( 'NONE', #569, 1000.000000000000000 ) ;
#149 = SURFACE_SIDE_STYLE ('',( #1181 ) ) ;
#150 = DIRECTION ( 'NONE',  ( 0.0000000000000000000, 0.0000000000000000000, -1.000000000000000000 ) ) ;
#151 = MECHANICAL_DESIGN_GEOMETRIC_PRESENTATION_REPRESENTATION (  '', ( #1008 ), #786 ) ;
#152 = EDGE_LOOP ( 'NONE', ( #1275, #1114, #1031 ) ) ;
#153 = EDGE_CURVE ( 'NONE', #61, #370, #484, .T. ) ;
#154 = ORIENTED_EDGE ( 'NONE', *, *, #293, .T. ) ;
#155 = DIRECTION ( 'NONE',  ( 0.0000000000000000000, 0.0000000000000000000, 1.000000000000000000 ) ) ;
#156 = ORIENTED_EDGE ( 'NONE', *, *, #1175, .T. ) ;
#157 = CARTESIAN_POINT ( 'NONE',  ( -0.6799999999999999400, 3.554170132607399800, 0.9299999999999998300 ) ) ;
#158 = EDGE_LOOP ( 'NONE', ( #957, #252 ) ) ;
#159 = DIRECTION ( 'NONE',  ( 1.000000000000000000, 0.0000000000000000000, 0.0000000000000000000 ) ) ;
#160 = SPHERICAL_SURFACE ( 'NONE', #474, 0.1149999999999999600 ) ;
#161 = SURFACE_STYLE_USAGE ( .BOTH. , #566 ) ;
#162 = CARTESIAN_POINT ( 'NONE',  ( 0.5000000000000000000, 0.1150000000000000000, 0.2500000000000000000 ) ) ;
#163 = ADVANCED_FACE ( 'NONE', ( #414 ), #632, .F. ) ;
#164 = DIRECTION ( 'NONE',  ( 0.0000000000000000000, 0.0000000000000000000, -1.000000000000000000 ) ) ;
#165 = FACE_OUTER_BOUND ( 'NONE', #1062, .T. ) ;
#166 = CARTESIAN_POINT ( 'NONE',  ( 0.5000000000000000000, 4.065758146820641600E-017, 0.7500000000000000000 ) ) ;
#167 =( NAMED_UNIT ( * ) SI_UNIT ( $, .STERADIAN. ) SOLID_ANGLE_UNIT ( ) );
#168 = ORIENTED_EDGE ( 'NONE', *, *, #755, .F. ) ;
#169 = FACE_BOUND ( 'NONE', #633, .T. ) ;
#170 = DIRECTION ( 'NONE',  ( -0.0000000000000000000, -1.000000000000000000, -0.0000000000000000000 ) ) ;
#171 = PRESENTATION_LAYER_ASSIGNMENT (  '', '', ( #107 ) ) ;
#172 = DIRECTION ( 'NONE',  ( -0.0000000000000000000, -1.000000000000000000, -0.0000000000000000000 ) ) ;
#173 = ORIENTED_EDGE ( 'NONE', *, *, #853, .F. ) ;
#174 = ADVANCED_FACE ( 'NONE', ( #1068 ), #829, .T. ) ;
#175 = CARTESIAN_POINT ( 'NONE',  ( 0.0000000000000000000, 0.1900000000000000000, 0.7500000000000000000 ) ) ;
#176 = STYLED_ITEM ( 'NONE', ( #861 ), #590 ) ;
#177 =( NAMED_UNIT ( * ) SI_UNIT ( $, .STERADIAN. ) SOLID_ANGLE_UNIT ( ) );
#178 = LINE ( 'NONE', #532, #1210 ) ;
#179 = CARTESIAN_POINT ( 'NONE',  ( -0.5300000000000000300, 0.6250000000000000000, -0.7800000000000002500 ) ) ;
#180 = MANIFOLD_SOLID_BREP ( 'LPattern1[7]', #1291 ) ;
#181 = PRESENTATION_LAYER_ASSIGNMENT (  '', '', ( #1008 ) ) ;
#182 =( NAMED_UNIT ( * ) SI_UNIT ( $, .STERADIAN. ) SOLID_ANGLE_UNIT ( ) );
#183 = EDGE_CURVE ( 'NONE', #518, #503, #717, .T. ) ;
#184 = CIRCLE ( 'NONE', #433, 0.1149999999999999800 ) ;
#185 = CARTESIAN_POINT ( 'NONE',  ( -0.6799999999999999400, 3.554170132607399800, -0.9300000000000001600 ) ) ;
#186 = CARTESIAN_POINT ( 'NONE',  ( -0.5000000000000000000, 0.1900000000000000000, 0.8371779788708134700 ) ) ;
#187 = ADVANCED_FACE ( 'NONE', ( #201 ), #90, .T. ) ;
#188 = CARTESIAN_POINT ( 'NONE',  ( -0.5000000000000000000, 0.1900000000000000000, -0.3371779788708134100 ) ) ;
#189 = ORIENTED_EDGE ( 'NONE', *, *, #583, .F. ) ;
#190 = SURFACE_STYLE_FILL_AREA ( #838 ) ;
#191 = FACE_OUTER_BOUND ( 'NONE', #923, .T. ) ;
#192 = EDGE_CURVE ( 'NONE', #1207, #1139, #380, .T. ) ;
#193 = DIRECTION ( 'NONE',  ( -0.0000000000000000000, -1.000000000000000000, -0.0000000000000000000 ) ) ;
#194 = STYLED_ITEM ( 'NONE', ( #462 ), #180 ) ;
#195 = FILL_AREA_STYLE ('',( #384 ) ) ;
#196 = ORIENTED_EDGE ( 'NONE', *, *, #55, .F. ) ;
#197 = ADVANCED_FACE ( 'NONE', ( #1151 ), #448, .F. ) ;
#198 = PRESENTATION_STYLE_ASSIGNMENT (( #145 ) ) ;
#199 = CARTESIAN_POINT ( 'NONE',  ( 0.5000000000000000000, 0.1900000000000000000, -0.6628220211291866400 ) ) ;
#200 = PRESENTATION_STYLE_ASSIGNMENT (( #298 ) ) ;
#201 = FACE_OUTER_BOUND ( 'NONE', #742, .T. ) ;
#202 = EDGE_CURVE ( 'NONE', #756, #61, #929, .T. ) ;
#203 = SURFACE_SIDE_STYLE ('',( #927 ) ) ;
#204 = CARTESIAN_POINT ( 'NONE',  ( -0.5000000000000000000, 0.1900000000000000000, 0.7500000000000000000 ) ) ;
#205 = CLOSED_SHELL ( 'NONE', ( #303, #609, #687, #602 ) ) ;
#206 = EDGE_CURVE ( 'NONE', #1142, #80, #1184, .T. ) ;
#207 = ORIENTED_EDGE ( 'NONE', *, *, #889, .T. ) ;
#208 = AXIS2_PLACEMENT_3D ( 'NONE', #897, #1327, #3 ) ;
#209 = ORIENTED_EDGE ( 'NONE', *, *, #121, .F. ) ;
#210 = CARTESIAN_POINT ( 'NONE',  ( -0.5300000000000000300, 0.5749999999999999600, -0.7800000000000002500 ) ) ;
#211 = AXIS2_PLACEMENT_3D ( 'NONE', #733, #1067, #545 ) ;
#212 = SURFACE_SIDE_STYLE ('',( #801 ) ) ;
#213 = CYLINDRICAL_SURFACE ( 'NONE', #668, 0.06000000000000004600 ) ;
#214 = APPLICATION_PROTOCOL_DEFINITION ( 'draft international standard', 'automotive_design', 1998, #818 ) ;
#215 =( GEOMETRIC_REPRESENTATION_CONTEXT ( 3 ) GLOBAL_UNCERTAINTY_ASSIGNED_CONTEXT ( ( #682 ) ) GLOBAL_UNIT_ASSIGNED_CONTEXT ( ( #634, #26, #827 ) ) REPRESENTATION_CONTEXT ( 'NONE', 'WORKASPACE' ) );
#216 = DIRECTION ( 'NONE',  ( 0.0000000000000000000, 0.0000000000000000000, -1.000000000000000000 ) ) ;
#217 = ADVANCED_FACE ( 'NONE', ( #1088 ), #890, .T. ) ;
#218 = ORIENTED_EDGE ( 'NONE', *, *, #23, .T. ) ;
#219 = UNCERTAINTY_MEASURE_WITH_UNIT (LENGTH_MEASURE( 1.000000000000000100E-005 ), #896, 'distance_accuracy_value', 'NONE');
#220 = ORIENTED_EDGE ( 'NONE', *, *, #183, .T. ) ;
#221 = DIRECTION ( 'NONE',  ( 1.000000000000000000, 0.0000000000000000000, 0.0000000000000000000 ) ) ;
#222 = ORIENTED_EDGE ( 'NONE', *, *, #395, .T. ) ;
#223 = EDGE_CURVE ( 'NONE', #1189, #941, #259, .T. ) ;
#224 = AXIS2_PLACEMENT_3D ( 'NONE', #1215, #591, #603 ) ;
#225 = EDGE_CURVE ( 'NONE', #333, #1233, #855, .T. ) ;
#226 = VERTEX_POINT ( 'NONE', #550 ) ;
#227 = CIRCLE ( 'NONE', #1092, 0.08717797887081342500 ) ;
#228 = DIRECTION ( 'NONE',  ( 0.0000000000000000000, 0.0000000000000000000, -1.000000000000000000 ) ) ;
#229 = PLANE ( 'NONE',  #746 ) ;
#230 = DIRECTION ( 'NONE',  ( 0.0000000000000000000, 0.0000000000000000000, 1.000000000000000000 ) ) ;
#231 = MECHANICAL_DESIGN_GEOMETRIC_PRESENTATION_REPRESENTATION (  '', ( #194 ), #72 ) ;
#232 = CARTESIAN_POINT ( 'NONE',  ( -0.5000000000000000000, 0.1900000000000000000, -0.6628220211291866400 ) ) ;
#233 = CARTESIAN_POINT ( 'NONE',  ( 0.6800000000000001600, 0.1900000000000000000, 0.9299999999999998300 ) ) ;
#234 = EDGE_LOOP ( 'NONE', ( #673, #675, #658 ) ) ;
#235 = VERTEX_POINT ( 'NONE', #527 ) ;
#236 = DIRECTION ( 'NONE',  ( -1.000000000000000000, 0.0000000000000000000, 0.0000000000000000000 ) ) ;
#237 = EDGE_LOOP ( 'NONE', ( #642, #784, #1293, #1000 ) ) ;
#238 = CARTESIAN_POINT ( 'NONE',  ( -0.5000000000000000000, 0.1900000000000000000, 0.7500000000000000000 ) ) ;
#239 = SURFACE_STYLE_USAGE ( .BOTH. , #1269 ) ;
#240 = EDGE_LOOP ( 'NONE', ( #593, #289, #408, #848 ) ) ;
#241 = CARTESIAN_POINT ( 'NONE',  ( 0.6800000000000001600, 0.1900000000000000000, -0.9300000000000001600 ) ) ;
#242 = DIRECTION ( 'NONE',  ( 0.0000000000000000000, 0.0000000000000000000, 1.000000000000000000 ) ) ;
#243 = DIRECTION ( 'NONE',  ( 1.000000000000000000, 0.0000000000000000000, 0.0000000000000000000 ) ) ;
#244 = PLANE ( 'NONE',  #360 ) ;
#245 = AXIS2_PLACEMENT_3D ( 'NONE', #744, #43, #1277 ) ;
#246 = FILL_AREA_STYLE ('',( #1273 ) ) ;
#247 = EDGE_CURVE ( 'NONE', #249, #943, #184, .T. ) ;
#248 = CARTESIAN_POINT ( 'NONE',  ( -0.5000000000000000000, 0.1150000000000000000, -0.2500000000000000000 ) ) ;
#249 = VERTEX_POINT ( 'NONE', #352 ) ;
#250 = DIRECTION ( 'NONE',  ( 0.0000000000000000000, 0.0000000000000000000, -1.000000000000000000 ) ) ;
#251 = FACE_OUTER_BOUND ( 'NONE', #234, .T. ) ;
#252 = ORIENTED_EDGE ( 'NONE', *, *, #651, .F. ) ;
#253 = ORIENTED_EDGE ( 'NONE', *, *, #329, .F. ) ;
#254 = CIRCLE ( 'NONE', #245, 0.1149999999999999800 ) ;
#255 = FACE_OUTER_BOUND ( 'NONE', #977, .T. ) ;
#256 = COLOUR_RGB ( '',0.7921568627450980000, 0.8196078431372548800, 0.9333333333333333500 ) ;
#257 = CIRCLE ( 'NONE', #563, 0.1149999999999999800 ) ;
#258 = AXIS2_PLACEMENT_3D ( 'NONE', #1069, #958, #966 ) ;
#259 = CIRCLE ( 'NONE', #997, 0.06000000000000004600 ) ;
#260 = DIRECTION ( 'NONE',  ( 0.0000000000000000000, 0.0000000000000000000, 1.000000000000000000 ) ) ;
#261 = FILL_AREA_STYLE ('',( #57 ) ) ;
#262 = ORIENTED_EDGE ( 'NONE', *, *, #225, .F. ) ;
#263 = DIRECTION ( 'NONE',  ( -0.0000000000000000000, -1.000000000000000000, -0.0000000000000000000 ) ) ;
#264 = ORIENTED_EDGE ( 'NONE', *, *, #678, .F. ) ;
#265 = DIRECTION ( 'NONE',  ( -1.000000000000000000, 0.0000000000000000000, -0.0000000000000000000 ) ) ;
#266 = AXIS2_PLACEMENT_3D ( 'NONE', #804, #510, #611 ) ;
#267 = ORIENTED_EDGE ( 'NONE', *, *, #340, .T. ) ;
#268 = CARTESIAN_POINT ( 'NONE',  ( -0.5000000000000000000, 4.065758146820641600E-017, -0.2500000000000000000 ) ) ;
#269 = ORIENTED_EDGE ( 'NONE', *, *, #601, .T. ) ;
#270 = DIRECTION ( 'NONE',  ( -1.000000000000000000, 0.0000000000000000000, 0.0000000000000000000 ) ) ;
#271 = EDGE_CURVE ( 'NONE', #1220, #699, #445, .T. ) ;
#272 = AXIS2_PLACEMENT_3D ( 'NONE', #1046, #731, #529 ) ;
#273 = SURFACE_STYLE_USAGE ( .BOTH. , #59 ) ;
#274 = SHAPE_DEFINITION_REPRESENTATION ( #1099, #331 ) ;
#275 = DIRECTION ( 'NONE',  ( 0.0000000000000000000, 0.0000000000000000000, 1.000000000000000000 ) ) ;
#276 = DIRECTION ( 'NONE',  ( 0.0000000000000000000, -1.000000000000000000, -0.0000000000000000000 ) ) ;
#277 = DIRECTION ( 'NONE',  ( 0.0000000000000000000, -1.000000000000000000, -0.0000000000000000000 ) ) ;
#278 = UNCERTAINTY_MEASURE_WITH_UNIT (LENGTH_MEASURE( 1.000000000000000100E-005 ), #992, 'distance_accuracy_value', 'NONE');
#279 = FILL_AREA_STYLE ('',( #781 ) ) ;
#280 = CYLINDRICAL_SURFACE ( 'NONE', #446, 0.06000000000000004600 ) ;
#281 =( LENGTH_UNIT ( ) NAMED_UNIT ( * ) SI_UNIT ( .MILLI., .METRE. ) );
#282 = CLOSED_SHELL ( 'NONE', ( #894, #614, #1040, #789, #912, #114, #103, #918, #1250 ) ) ;
#283 = DIRECTION ( 'NONE',  ( 0.0000000000000000000, -1.000000000000000000, -0.0000000000000000000 ) ) ;
#284 = FACE_OUTER_BOUND ( 'NONE', #839, .T. ) ;
#285 = DIRECTION ( 'NONE',  ( 1.000000000000000000, 0.0000000000000000000, -0.0000000000000000000 ) ) ;
#286 = CARTESIAN_POINT ( 'NONE',  ( 0.5000000000000000000, 0.1900000000000000000, 0.8371779788708134700 ) ) ;
#287 = VERTEX_POINT ( 'NONE', #540 ) ;
#288 = ADVANCED_FACE ( 'NONE', ( #523 ), #1228, .T. ) ;
#289 = ORIENTED_EDGE ( 'NONE', *, *, #153, .T. ) ;
#290 = PLANE ( 'NONE',  #799 ) ;
#291 = AXIS2_PLACEMENT_3D ( 'NONE', #1167, #431, #135 ) ;
#292 = STYLED_ITEM ( 'NONE', ( #200 ), #1136 ) ;
#293 = EDGE_CURVE ( 'NONE', #235, #867, #355, .T. ) ;
#294 = CIRCLE ( 'NONE', #58, 0.08717797887081342500 ) ;
#295 = FILL_AREA_STYLE ('',( #1120 ) ) ;
#296 = CIRCLE ( 'NONE', #696, 0.08717797887081342500 ) ;
#297 = VERTEX_POINT ( 'NONE', #1169 ) ;
#298 = SURFACE_STYLE_USAGE ( .BOTH. , #905 ) ;
#299 = EDGE_LOOP ( 'NONE', ( #154, #335, #1095 ) ) ;
#300 = AXIS2_PLACEMENT_3D ( 'NONE', #1064, #953, #47 ) ;
#301 = DIRECTION ( 'NONE',  ( 1.000000000000000000, 0.0000000000000000000, 0.0000000000000000000 ) ) ;
#302 = EDGE_LOOP ( 'NONE', ( #860, #983, #33 ) ) ;
#303 = ADVANCED_FACE ( 'NONE', ( #1021 ), #766, .T. ) ;
#304 = DIRECTION ( 'NONE',  ( -1.000000000000000000, 0.0000000000000000000, 0.0000000000000000000 ) ) ;
#305 = PRESENTATION_STYLE_ASSIGNMENT (( #949 ) ) ;
#306 = AXIS2_PLACEMENT_3D ( 'NONE', #1143, #942, #324 ) ;
#307 = CARTESIAN_POINT ( 'NONE',  ( -0.5300000000000000300, 0.5749999999999999600, -0.7200000000000002000 ) ) ;
#308 = ADVANCED_FACE ( 'NONE', ( #119 ), #1053, .T. ) ;
#309 = UNCERTAINTY_MEASURE_WITH_UNIT (LENGTH_MEASURE( 1.000000000000000100E-005 ), #916, 'distance_accuracy_value', 'NONE');
#310 = EDGE_LOOP ( 'NONE', ( #144, #362 ) ) ;
#311 = CARTESIAN_POINT ( 'NONE',  ( -0.5300000000000000300, 0.5749999999999999600, -0.7800000000000002500 ) ) ;
#312 = AXIS2_PLACEMENT_3D ( 'NONE', #1188, #1194, #872 ) ;
#313 = ADVANCED_FACE ( 'NONE', ( #636 ), #366, .T. ) ;
#314 = EDGE_CURVE ( 'NONE', #1107, #963, #812, .T. ) ;
#315 = MANIFOLD_SOLID_BREP ( 'Boss-Extrude2', #205 ) ;
#316 = AXIS2_PLACEMENT_3D ( 'NONE', #790, #879, #382 ) ;
#317 = VERTEX_POINT ( 'NONE', #956 ) ;
#318 = COLOUR_RGB ( '',0.7921568627450980000, 0.8196078431372548800, 0.9333333333333333500 ) ;
#319 = FACE_OUTER_BOUND ( 'NONE', #1013, .T. ) ;
#320 = DIRECTION ( 'NONE',  ( 0.0000000000000000000, 0.0000000000000000000, 1.000000000000000000 ) ) ;
#321 = CARTESIAN_POINT ( 'NONE',  ( -0.5000000000000000000, 0.1150000000000000000, 0.2500000000000000000 ) ) ;
#322 = EDGE_CURVE ( 'NONE', #370, #473, #892, .T. ) ;
#323 = AXIS2_PLACEMENT_3D ( 'NONE', #657, #270, #155 ) ;
#324 = DIRECTION ( 'NONE',  ( 0.0000000000000000000, -0.0000000000000000000, 1.000000000000000000 ) ) ;
#325 = EDGE_LOOP ( 'NONE', ( #424, #36 ) ) ;
#326 = VECTOR ( 'NONE', #1333, 1000.000000000000000 ) ;
#327 = FACE_OUTER_BOUND ( 'NONE', #1317, .T. ) ;
#328 = ORIENTED_EDGE ( 'NONE', *, *, #787, .F. ) ;
#329 = EDGE_CURVE ( 'NONE', #538, #287, #1152, .T. ) ;
#330 = DIRECTION ( 'NONE',  ( -0.0000000000000000000, -0.0000000000000000000, 1.000000000000000000 ) ) ;
#331 = ADVANCED_BREP_SHAPE_REPRESENTATION ( 'TXS0104E', ( #1278, #590, #42, #647, #828, #930, #1136, #180, #745, #507, #410, #692, #880, #315, #1041 ), #215 ) ;
#332 = CARTESIAN_POINT ( 'NONE',  ( -0.5000000000000000000, 0.1150000000000000000, -0.7500000000000000000 ) ) ;
#333 = VERTEX_POINT ( 'NONE', #51 ) ;
#334 = DIRECTION ( 'NONE',  ( 0.0000000000000000000, -1.000000000000000000, -0.0000000000000000000 ) ) ;
#335 = ORIENTED_EDGE ( 'NONE', *, *, #816, .T. ) ;
#336 = DIRECTION ( 'NONE',  ( -0.0000000000000000000, -1.000000000000000000, -0.0000000000000000000 ) ) ;
#337 = DIRECTION ( 'NONE',  ( 1.224646799147353200E-016, 0.0000000000000000000, 1.000000000000000000 ) ) ;
#338 = DIRECTION ( 'NONE',  ( -0.0000000000000000000, -1.000000000000000000, -0.0000000000000000000 ) ) ;
#339 = CARTESIAN_POINT ( 'NONE',  ( 0.0000000000000000000, 4.065758146820641600E-017, -0.7500000000000000000 ) ) ;
#340 = EDGE_CURVE ( 'NONE', #123, #802, #707, .T. ) ;
#341 = STYLED_ITEM ( 'NONE', ( #1242 ), #1278 ) ;
#342 = EDGE_CURVE ( 'NONE', #941, #775, #667, .T. ) ;
#343 = CARTESIAN_POINT ( 'NONE',  ( 0.5000000000000000000, 0.1150000000000000000, -0.7500000000000000000 ) ) ;
#344 = DIRECTION ( 'NONE',  ( 0.0000000000000000000, 0.0000000000000000000, -1.000000000000000000 ) ) ;
#345 = COLOUR_RGB ( '',0.7921568627450980000, 0.8196078431372548800, 0.9333333333333333500 ) ;
#346 = ORIENTED_EDGE ( 'NONE', *, *, #1055, .F. ) ;
#347 = VERTEX_POINT ( 'NONE', #166 ) ;
#348 = ORIENTED_EDGE ( 'NONE', *, *, #934, .T. ) ;
#349 = SURFACE_SIDE_STYLE ('',( #1035 ) ) ;
#350 = ORIENTED_EDGE ( 'NONE', *, *, #271, .F. ) ;
#351 = CARTESIAN_POINT ( 'NONE',  ( 0.0000000000000000000, 0.1150000000000000000, -0.7500000000000000000 ) ) ;
#352 = CARTESIAN_POINT ( 'NONE',  ( -0.5000000000000000000, 0.1900000000000000000, 0.3371779788708134100 ) ) ;
#353 = FACE_OUTER_BOUND ( 'NONE', #625, .T. ) ;
#354 = DIRECTION ( 'NONE',  ( 0.0000000000000000000, 0.0000000000000000000, 1.000000000000000000 ) ) ;
#355 = CIRCLE ( 'NONE', #1187, 0.08717797887081342500 ) ;
#356 = DIRECTION ( 'NONE',  ( 1.224646799147353200E-016, 0.0000000000000000000, 1.000000000000000000 ) ) ;
#357 = VECTOR ( 'NONE', #761, 1000.000000000000000 ) ;
#358 = DIRECTION ( 'NONE',  ( 0.0000000000000000000, 0.0000000000000000000, 1.000000000000000000 ) ) ;
#359 = UNCERTAINTY_MEASURE_WITH_UNIT (LENGTH_MEASURE( 1.000000000000000100E-005 ), #663, 'distance_accuracy_value', 'NONE');
#360 = AXIS2_PLACEMENT_3D ( 'NONE', #754, #1186, #646 ) ;
#361 = EDGE_LOOP ( 'NONE', ( #1015, #1093, #156 ) ) ;
#362 = ORIENTED_EDGE ( 'NONE', *, *, #1331, .F. ) ;
#363 = ORIENTED_EDGE ( 'NONE', *, *, #1034, .F. ) ;
#364 = ORIENTED_EDGE ( 'NONE', *, *, #464, .T. ) ;
#365 =( NAMED_UNIT ( * ) PLANE_ANGLE_UNIT ( ) SI_UNIT ( $, .RADIAN. ) );
#366 = SPHERICAL_SURFACE ( 'NONE', #546, 0.1149999999999999600 ) ;
#367 = SPHERICAL_SURFACE ( 'NONE', #323, 0.1149999999999999600 ) ;
#368 = CARTESIAN_POINT ( 'NONE',  ( 0.0000000000000000000, 0.1150000000000000000, 0.2500000000000000000 ) ) ;
#369 = CIRCLE ( 'NONE', #539, 0.06000000000000004600 ) ;
#370 = VERTEX_POINT ( 'NONE', #868 ) ;
#371 = ORIENTED_EDGE ( 'NONE', *, *, #223, .T. ) ;
#372 = SURFACE_STYLE_USAGE ( .BOTH. , #1309 ) ;
#373 = AXIS2_PLACEMENT_3D ( 'NONE', #204, #494, #499 ) ;
#374 = ORIENTED_EDGE ( 'NONE', *, *, #562, .F. ) ;
#375 = ADVANCED_FACE ( 'NONE', ( #398 ), #367, .T. ) ;
#376 = PLANE ( 'NONE',  #732 ) ;
#377 =( GEOMETRIC_REPRESENTATION_CONTEXT ( 3 ) GLOBAL_UNCERTAINTY_ASSIGNED_CONTEXT ( ( #122 ) ) GLOBAL_UNIT_ASSIGNED_CONTEXT ( ( #65, #571, #167 ) ) REPRESENTATION_CONTEXT ( 'NONE', 'WORKASPACE' ) );
#378 = SPHERICAL_SURFACE ( 'NONE', #69, 0.1149999999999999600 ) ;
#379 = PLANE ( 'NONE',  #1 ) ;
#380 = CIRCLE ( 'NONE', #409, 0.1149999999999999800 ) ;
#381 = PRESENTATION_LAYER_ASSIGNMENT (  '', '', ( #1014 ) ) ;
#382 = DIRECTION ( 'NONE',  ( 0.0000000000000000000, 0.0000000000000000000, -1.000000000000000000 ) ) ;
#383 = DIRECTION ( 'NONE',  ( 1.000000000000000000, 0.0000000000000000000, 0.0000000000000000000 ) ) ;
#384 = FILL_AREA_STYLE_COLOUR ( '', #345 ) ;
#385 = CLOSED_SHELL ( 'NONE', ( #878, #1144, #570 ) ) ;
#386 = EDGE_LOOP ( 'NONE', ( #454, #404, #450 ) ) ;
#387 = CARTESIAN_POINT ( 'NONE',  ( 0.0000000000000000000, 4.065758146820641600E-017, -0.2500000000000000000 ) ) ;
#388 = AXIS2_PLACEMENT_3D ( 'NONE', #964, #643, #639 ) ;
#389 = CARTESIAN_POINT ( 'NONE',  ( 0.5000000000000000000, 0.1900000000000000000, -0.3371779788708134100 ) ) ;
#390 = ORIENTED_EDGE ( 'NONE', *, *, #1055, .T. ) ;
#391 = AXIS2_PLACEMENT_3D ( 'NONE', #982, #457, #1303 ) ;
#392 = COLOUR_RGB ( '',0.7921568627450980000, 0.8196078431372548800, 0.9333333333333333500 ) ;
#393 = CARTESIAN_POINT ( 'NONE',  ( -0.5000000000000000000, 0.1150000000000000000, 0.7500000000000000000 ) ) ;
#394 = CIRCLE ( 'NONE', #224, 0.1149999999999999800 ) ;
#395 = EDGE_CURVE ( 'NONE', #1220, #45, #294, .T. ) ;
#396 = CARTESIAN_POINT ( 'NONE',  ( 0.0000000000000000000, 0.1900000000000000000, 0.3371779788708134100 ) ) ;
#397 = ADVANCED_FACE ( 'NONE', ( #857 ), #1264, .T. ) ;
#398 = FACE_OUTER_BOUND ( 'NONE', #302, .T. ) ;
#399 = CARTESIAN_POINT ( 'NONE',  ( 0.5000000000000000000, 0.1900000000000000000, 0.2500000000000000000 ) ) ;
#400 =( GEOMETRIC_REPRESENTATION_CONTEXT ( 3 ) GLOBAL_UNCERTAINTY_ASSIGNED_CONTEXT ( ( #219 ) ) GLOBAL_UNIT_ASSIGNED_CONTEXT ( ( #896, #688, #177 ) ) REPRESENTATION_CONTEXT ( 'NONE', 'WORKASPACE' ) );
#401 =( NAMED_UNIT ( * ) SI_UNIT ( $, .STERADIAN. ) SOLID_ANGLE_UNIT ( ) );
#402 = AXIS2_PLACEMENT_3D ( 'NONE', #502, #113, #823 ) ;
#403 = AXIS2_PLACEMENT_3D ( 'NONE', #718, #928, #216 ) ;
#404 = ORIENTED_EDGE ( 'NONE', *, *, #271, .T. ) ;
#405 = EDGE_CURVE ( 'NONE', #249, #317, #915, .T. ) ;
#406 = CIRCLE ( 'NONE', #1149, 0.1149999999999999800 ) ;
#407 = CARTESIAN_POINT ( 'NONE',  ( 0.5000000000000000000, 4.065758146820641600E-017, -0.7500000000000000000 ) ) ;
#408 = ORIENTED_EDGE ( 'NONE', *, *, #322, .T. ) ;
#409 = AXIS2_PLACEMENT_3D ( 'NONE', #343, #243, #849 ) ;
#410 = MANIFOLD_SOLID_BREP ( 'LPattern1[10]', #438 ) ;
#411 = DIRECTION ( 'NONE',  ( -1.000000000000000000, 0.0000000000000000000, 0.0000000000000000000 ) ) ;
#412 = APPLICATION_CONTEXT ( 'automotive_design' ) ;
#413 = VECTOR ( 'NONE', #774, 1000.000000000000000 ) ;
#414 = FACE_OUTER_BOUND ( 'NONE', #158, .T. ) ;
#415 = FACE_OUTER_BOUND ( 'NONE', #1156, .T. ) ;
#416 = ADVANCED_FACE ( 'NONE', ( #451 ), #1123, .T. ) ;
#417 = CARTESIAN_POINT ( 'NONE',  ( 0.0000000000000000000, 4.065758146820641600E-017, 0.2500000000000000000 ) ) ;
#418 = VERTEX_POINT ( 'NONE', #186 ) ;
#419 = VERTEX_POINT ( 'NONE', #1217 ) ;
#420 = DIRECTION ( 'NONE',  ( 0.0000000000000000000, 1.000000000000000000, 0.0000000000000000000 ) ) ;
#421 = AXIS2_PLACEMENT_3D ( 'NONE', #442, #447, #1282 ) ;
#422 = MECHANICAL_DESIGN_GEOMETRIC_PRESENTATION_REPRESENTATION (  '', ( #292 ), #491 ) ;
#423 = EDGE_CURVE ( 'NONE', #1044, #297, #530, .T. ) ;
#424 = ORIENTED_EDGE ( 'NONE', *, *, #405, .F. ) ;
#425 = CARTESIAN_POINT ( 'NONE',  ( 0.6800000000000003800, 0.6250000000000001100, 0.9299999999999998300 ) ) ;
#426 = CARTESIAN_POINT ( 'NONE',  ( 0.5000000000000000000, 0.1150000000000000000, -0.7500000000000000000 ) ) ;
#427 = ORIENTED_EDGE ( 'NONE', *, *, #23, .F. ) ;
#428 = DIRECTION ( 'NONE',  ( 0.0000000000000000000, 0.0000000000000000000, -1.000000000000000000 ) ) ;
#429 = FILL_AREA_STYLE_COLOUR ( '', #1133 ) ;
#430 = FACE_OUTER_BOUND ( 'NONE', #299, .T. ) ;
#431 = DIRECTION ( 'NONE',  ( 0.0000000000000000000, -1.000000000000000000, 0.0000000000000000000 ) ) ;
#432 = DIRECTION ( 'NONE',  ( 0.0000000000000000000, 0.0000000000000000000, 1.000000000000000000 ) ) ;
#433 = AXIS2_PLACEMENT_3D ( 'NONE', #140, #134, #845 ) ;
#434 = CARTESIAN_POINT ( 'NONE',  ( 0.0000000000000000000, 0.6250000000000000000, 0.0000000000000000000 ) ) ;
#435 = PRODUCT_RELATED_PRODUCT_CATEGORY ( 'part', '', ( #895 ) ) ;
#436 = ORIENTED_EDGE ( 'NONE', *, *, #987, .T. ) ;
#437 = DIRECTION ( 'NONE',  ( -1.000000000000000000, 0.0000000000000000000, 0.0000000000000000000 ) ) ;
#438 = CLOSED_SHELL ( 'NONE', ( #1029, #416, #933 ) ) ;
#439 = DIRECTION ( 'NONE',  ( -0.0000000000000000000, -1.000000000000000000, -0.0000000000000000000 ) ) ;
#440 = AXIS2_PLACEMENT_3D ( 'NONE', #81, #283, #508 ) ;
#441 = PRESENTATION_STYLE_ASSIGNMENT (( #885 ) ) ;
#442 = CARTESIAN_POINT ( 'NONE',  ( -0.5300000000000000300, 0.5749999999999999600, -0.7800000000000002500 ) ) ;
#443 =( GEOMETRIC_REPRESENTATION_CONTEXT ( 3 ) GLOBAL_UNCERTAINTY_ASSIGNED_CONTEXT ( ( #1183 ) ) GLOBAL_UNIT_ASSIGNED_CONTEXT ( ( #1050, #133, #1162 ) ) REPRESENTATION_CONTEXT ( 'NONE', 'WORKASPACE' ) );
#444 = CARTESIAN_POINT ( 'NONE',  ( 0.0000000000000000000, 0.1900000000000000000, 0.7500000000000000000 ) ) ;
#445 = CIRCLE ( 'NONE', #141, 0.1149999999999999800 ) ;
#446 = AXIS2_PLACEMENT_3D ( 'NONE', #979, #659, #358 ) ;
#447 = DIRECTION ( 'NONE',  ( -0.0000000000000000000, -1.000000000000000000, -0.0000000000000000000 ) ) ;
#448 = PLANE ( 'NONE',  #661 ) ;
#449 = UNCERTAINTY_MEASURE_WITH_UNIT (LENGTH_MEASURE( 1.000000000000000100E-005 ), #40, 'distance_accuracy_value', 'NONE');
#450 = ORIENTED_EDGE ( 'NONE', *, *, #604, .F. ) ;
#451 = FACE_OUTER_BOUND ( 'NONE', #607, .T. ) ;
#452 = VECTOR ( 'NONE', #734, 1000.000000000000000 ) ;
#453 = CARTESIAN_POINT ( 'NONE',  ( -0.5300000000000000300, 0.4052943725152284800, -0.8400000000000003000 ) ) ;
#454 = ORIENTED_EDGE ( 'NONE', *, *, #749, .T. ) ;
#455 = DIRECTION ( 'NONE',  ( -0.0000000000000000000, -1.000000000000000000, -0.0000000000000000000 ) ) ;
#456 = ORIENTED_EDGE ( 'NONE', *, *, #719, .F. ) ;
#457 = DIRECTION ( 'NONE',  ( -1.000000000000000000, 0.0000000000000000000, 0.0000000000000000000 ) ) ;
#458 = CIRCLE ( 'NONE', #421, 0.06000000000000004600 ) ;
#459 = CLOSED_SHELL ( 'NONE', ( #217, #821, #197 ) ) ;
#460 =( GEOMETRIC_REPRESENTATION_CONTEXT ( 3 ) GLOBAL_UNCERTAINTY_ASSIGNED_CONTEXT ( ( #278 ) ) GLOBAL_UNIT_ASSIGNED_CONTEXT ( ( #992, #365, #466 ) ) REPRESENTATION_CONTEXT ( 'NONE', 'WORKASPACE' ) );
#461 = DIRECTION ( 'NONE',  ( 0.0000000000000000000, 0.0000000000000000000, -1.000000000000000000 ) ) ;
#462 = PRESENTATION_STYLE_ASSIGNMENT (( #1180 ) ) ;
#463 = MECHANICAL_DESIGN_GEOMETRIC_PRESENTATION_REPRESENTATION (  '', ( #62 ), #1262 ) ;
#464 = EDGE_CURVE ( 'NONE', #35, #473, #672, .T. ) ;
#465 = FACE_OUTER_BOUND ( 'NONE', #883, .T. ) ;
#466 =( NAMED_UNIT ( * ) SI_UNIT ( $, .STERADIAN. ) SOLID_ANGLE_UNIT ( ) );
#467 = VECTOR ( 'NONE', #1306, 1000.000000000000000 ) ;
#468 =( NAMED_UNIT ( * ) SI_UNIT ( $, .STERADIAN. ) SOLID_ANGLE_UNIT ( ) );
#469 = VERTEX_POINT ( 'NONE', #1204 ) ;
#470 = AXIS2_PLACEMENT_3D ( 'NONE', #1154, #926, #432 ) ;
#471 = EDGE_LOOP ( 'NONE', ( #1287, #364, #740, #31 ) ) ;
#472 = EDGE_CURVE ( 'NONE', #489, #713, #1058, .T. ) ;
#473 = VERTEX_POINT ( 'NONE', #780 ) ;
#474 = AXIS2_PLACEMENT_3D ( 'NONE', #1004, #1011, #479 ) ;
#475 = FILL_AREA_STYLE_COLOUR ( '', #73 ) ;
#476 = EDGE_CURVE ( 'NONE', #1107, #95, #296, .T. ) ;
#477 = DIRECTION ( 'NONE',  ( -0.0000000000000000000, -1.000000000000000000, -0.0000000000000000000 ) ) ;
#478 = CARTESIAN_POINT ( 'NONE',  ( -0.5000000000000000000, 4.065758146820641600E-017, -0.7500000000000000000 ) ) ;
#479 = DIRECTION ( 'NONE',  ( 0.0000000000000000000, 0.0000000000000000000, 1.000000000000000000 ) ) ;
#480 = DIRECTION ( 'NONE',  ( 0.0000000000000000000, 0.0000000000000000000, -1.000000000000000000 ) ) ;
#481 = EDGE_CURVE ( 'NONE', #775, #1084, #28, .T. ) ;
#482 = ORIENTED_EDGE ( 'NONE', *, *, #395, .F. ) ;
#483 = AXIS2_PLACEMENT_3D ( 'NONE', #179, #779, #1001 ) ;
#484 = LINE ( 'NONE', #525, #980 ) ;
#485 = VERTEX_POINT ( 'NONE', #882 ) ;
#486 = CARTESIAN_POINT ( 'NONE',  ( -0.5300000000000000300, 0.6250000000000000000, -0.7200000000000002000 ) ) ;
#487 = CARTESIAN_POINT ( 'NONE',  ( -0.5000000000000000000, 0.1900000000000000000, -0.7500000000000000000 ) ) ;
#488 = ADVANCED_FACE ( 'NONE', ( #978 ), #376, .F. ) ;
#489 = VERTEX_POINT ( 'NONE', #690 ) ;
#490 = CIRCLE ( 'NONE', #985, 0.08717797887081342500 ) ;
#491 =( GEOMETRIC_REPRESENTATION_CONTEXT ( 3 ) GLOBAL_UNCERTAINTY_ASSIGNED_CONTEXT ( ( #619 ) ) GLOBAL_UNIT_ASSIGNED_CONTEXT ( ( #8, #704, #93 ) ) REPRESENTATION_CONTEXT ( 'NONE', 'WORKASPACE' ) );
#492 = EDGE_CURVE ( 'NONE', #61, #35, #846, .T. ) ;
#493 = DIRECTION ( 'NONE',  ( 0.0000000000000000000, 1.000000000000000000, 0.0000000000000000000 ) ) ;
#494 = DIRECTION ( 'NONE',  ( -0.0000000000000000000, -1.000000000000000000, -0.0000000000000000000 ) ) ;
#495 = VECTOR ( 'NONE', #758, 1000.000000000000000 ) ;
#496 = ADVANCED_FACE ( 'NONE', ( #1270 ), #290, .F. ) ;
#497 = PRESENTATION_STYLE_ASSIGNMENT (( #161 ) ) ;
#498 = CARTESIAN_POINT ( 'NONE',  ( -0.5300000000000000300, 0.5749999999999999600, -0.7800000000000002500 ) ) ;
#499 = DIRECTION ( 'NONE',  ( 0.0000000000000000000, 0.0000000000000000000, -1.000000000000000000 ) ) ;
#500 = COLOUR_RGB ( '',0.7921568627450980000, 0.8196078431372548800, 0.9333333333333333500 ) ;
#501 = ADVANCED_FACE ( 'NONE', ( #1091 ), #837, .T. ) ;
#502 = CARTESIAN_POINT ( 'NONE',  ( -0.5000000000000000000, 0.1150000000000000000, 0.2500000000000000000 ) ) ;
#503 = VERTEX_POINT ( 'NONE', #286 ) ;
#504 = ORIENTED_EDGE ( 'NONE', *, *, #749, .F. ) ;
#505 = VERTEX_POINT ( 'NONE', #1113 ) ;
#506 = CARTESIAN_POINT ( 'NONE',  ( -0.5000000000000000000, 0.1150000000000000000, -0.2500000000000000000 ) ) ;
#507 = MANIFOLD_SOLID_BREP ( 'LPattern1[9]', #738 ) ;
#508 = DIRECTION ( 'NONE',  ( 0.0000000000000000000, 0.0000000000000000000, -1.000000000000000000 ) ) ;
#509 = SURFACE_STYLE_USAGE ( .BOTH. , #203 ) ;
#510 = DIRECTION ( 'NONE',  ( -0.0000000000000000000, -1.000000000000000000, -0.0000000000000000000 ) ) ;
#511 = ADVANCED_FACE ( 'NONE', ( #712 ), #379, .F. ) ;
#512 = AXIS2_PLACEMENT_3D ( 'NONE', #936, #411, #618 ) ;
#513 = SURFACE_SIDE_STYLE ('',( #88 ) ) ;
#514 = AXIS2_PLACEMENT_3D ( 'NONE', #577, #383, #573 ) ;
#515 = ORIENTED_EDGE ( 'NONE', *, *, #973, .F. ) ;
#516 = EDGE_CURVE ( 'NONE', #226, #333, #1301, .T. ) ;
#517 = ADVANCED_FACE ( 'NONE', ( #1205 ), #1230, .F. ) ;
#518 = VERTEX_POINT ( 'NONE', #708 ) ;
#519 = DIRECTION ( 'NONE',  ( 0.0000000000000000000, 0.0000000000000000000, 1.000000000000000000 ) ) ;
#520 = DIRECTION ( 'NONE',  ( 0.0000000000000000000, 1.000000000000000000, 0.0000000000000000000 ) ) ;
#521 = CIRCLE ( 'NONE', #9, 0.1149999999999999800 ) ;
#522 = DIRECTION ( 'NONE',  ( 0.0000000000000000000, -1.000000000000000000, -0.0000000000000000000 ) ) ;
#523 = FACE_OUTER_BOUND ( 'NONE', #386, .T. ) ;
#524 = PRESENTATION_LAYER_ASSIGNMENT (  '', '', ( #684 ) ) ;
#525 = CARTESIAN_POINT ( 'NONE',  ( -0.6799999999999999400, 3.554170132607399800, 0.9299999999999998300 ) ) ;
#526 = MECHANICAL_DESIGN_GEOMETRIC_PRESENTATION_REPRESENTATION (  '', ( #557 ), #1024 ) ;
#527 = CARTESIAN_POINT ( 'NONE',  ( 0.0000000000000000000, 0.1900000000000000000, 0.8371779788708134700 ) ) ;
#528 = SPHERICAL_SURFACE ( 'NONE', #44, 0.1149999999999999600 ) ;
#529 = DIRECTION ( 'NONE',  ( 0.0000000000000000000, 0.0000000000000000000, -1.000000000000000000 ) ) ;
#530 = CIRCLE ( 'NONE', #1325, 0.08717797887081342500 ) ;
#531 = ORIENTED_EDGE ( 'NONE', *, *, #1241, .T. ) ;
#532 = CARTESIAN_POINT ( 'NONE',  ( -0.6799999999999999400, 0.1900000000000000000, 0.9299999999999998300 ) ) ;
#533 = EDGE_CURVE ( 'NONE', #418, #811, #938, .T. ) ;
#534 = ORIENTED_EDGE ( 'NONE', *, *, #1034, .T. ) ;
#535 = CARTESIAN_POINT ( 'NONE',  ( 0.0000000000000000000, 0.1150000000000000000, -0.2500000000000000000 ) ) ;
#536 = ORIENTED_EDGE ( 'NONE', *, *, #192, .T. ) ;
#537 = DIRECTION ( 'NONE',  ( 0.0000000000000000000, 0.0000000000000000000, -1.000000000000000000 ) ) ;
#538 = VERTEX_POINT ( 'NONE', #389 ) ;
#539 = AXIS2_PLACEMENT_3D ( 'NONE', #1038, #623, #831 ) ;
#540 = CARTESIAN_POINT ( 'NONE',  ( 0.5000000000000000000, 4.065758146820641600E-017, -0.2500000000000000000 ) ) ;
#541 = DIRECTION ( 'NONE',  ( 0.0000000000000000000, 0.0000000000000000000, -1.000000000000000000 ) ) ;
#542 = MECHANICAL_DESIGN_GEOMETRIC_PRESENTATION_REPRESENTATION (  '', ( #1195 ), #1286 ) ;
#543 = MECHANICAL_DESIGN_GEOMETRIC_PRESENTATION_REPRESENTATION (  '', ( #341 ), #914 ) ;
#544 = PLANE ( 'NONE',  #808 ) ;
#545 = DIRECTION ( 'NONE',  ( 0.0000000000000000000, 0.0000000000000000000, 1.000000000000000000 ) ) ;
#546 = AXIS2_PLACEMENT_3D ( 'NONE', #1276, #1263, #242 ) ;
#547 = CARTESIAN_POINT ( 'NONE',  ( 0.0000000000000000000, 0.1150000000000000000, -0.7500000000000000000 ) ) ;
#548 = FILL_AREA_STYLE ('',( #972 ) ) ;
#549 = DIRECTION ( 'NONE',  ( -0.0000000000000000000, -1.000000000000000000, -0.0000000000000000000 ) ) ;
#550 = CARTESIAN_POINT ( 'NONE',  ( 0.0000000000000000000, 0.1900000000000000000, -0.1628220211291865900 ) ) ;
#551 = ORIENTED_EDGE ( 'NONE', *, *, #833, .T. ) ;
#552 = DIRECTION ( 'NONE',  ( 0.0000000000000000000, 0.0000000000000000000, -1.000000000000000000 ) ) ;
#553 = UNCERTAINTY_MEASURE_WITH_UNIT (LENGTH_MEASURE( 1.000000000000000100E-005 ), #1163, 'distance_accuracy_value', 'NONE');
#554 = SPHERICAL_SURFACE ( 'NONE', #1081, 0.1149999999999999600 ) ;
#555 = DIRECTION ( 'NONE',  ( -1.000000000000000000, 0.0000000000000000000, 0.0000000000000000000 ) ) ;
#556 = EDGE_LOOP ( 'NONE', ( #1138, #679, #809 ) ) ;
#557 = STYLED_ITEM ( 'NONE', ( #1190 ), #507 ) ;
#558 = CIRCLE ( 'NONE', #1330, 0.06000000000000004600 ) ;
#559 = PRESENTATION_STYLE_ASSIGNMENT (( #372 ) ) ;
#560 = FACE_OUTER_BOUND ( 'NONE', #556, .T. ) ;
#561 = DIRECTION ( 'NONE',  ( 0.0000000000000000000, 0.0000000000000000000, -1.000000000000000000 ) ) ;
#562 = EDGE_CURVE ( 'NONE', #1189, #1084, #1218, .T. ) ;
#563 = AXIS2_PLACEMENT_3D ( 'NONE', #506, #98, #1017 ) ;
#564 = EDGE_CURVE ( 'NONE', #489, #756, #919, .T. ) ;
#565 = VERTEX_POINT ( 'NONE', #594 ) ;
#566 = SURFACE_SIDE_STYLE ('',( #798 ) ) ;
#567 = ORIENTED_EDGE ( 'NONE', *, *, #1290, .T. ) ;
#568 = ORIENTED_EDGE ( 'NONE', *, *, #192, .F. ) ;
#569 = DIRECTION ( 'NONE',  ( 0.0000000000000000000, 1.000000000000000000, 0.0000000000000000000 ) ) ;
#570 = ADVANCED_FACE ( 'NONE', ( #899 ), #1221, .F. ) ;
#571 =( NAMED_UNIT ( * ) PLANE_ANGLE_UNIT ( ) SI_UNIT ( $, .RADIAN. ) );
#572 = CIRCLE ( 'NONE', #922, 0.08717797887081342500 ) ;
#573 = DIRECTION ( 'NONE',  ( 0.0000000000000000000, 0.0000000000000000000, -1.000000000000000000 ) ) ;
#574 = CARTESIAN_POINT ( 'NONE',  ( 0.0000000000000000000, 0.1150000000000000000, -0.2500000000000000000 ) ) ;
#575 = ADVANCED_FACE ( 'NONE', ( #110 ), #96, .T. ) ;
#576 = CARTESIAN_POINT ( 'NONE',  ( -0.5000000000000000000, 4.065758146820641600E-017, 0.2500000000000000000 ) ) ;
#577 = CARTESIAN_POINT ( 'NONE',  ( 0.0000000000000000000, 0.1150000000000000000, 0.7500000000000000000 ) ) ;
#578 = ORIENTED_EDGE ( 'NONE', *, *, #606, .F. ) ;
#579 = ORIENTED_EDGE ( 'NONE', *, *, #931, .T. ) ;
#580 = DIRECTION ( 'NONE',  ( 0.0000000000000000000, 1.000000000000000000, 0.0000000000000000000 ) ) ;
#581 = DIRECTION ( 'NONE',  ( 0.0000000000000000000, 0.0000000000000000000, 1.000000000000000000 ) ) ;
#582 = ORIENTED_EDGE ( 'NONE', *, *, #225, .T. ) ;
#583 = EDGE_CURVE ( 'NONE', #1030, #50, #369, .T. ) ;
#584 = AXIS2_PLACEMENT_3D ( 'NONE', #1203, #1305, #671 ) ;
#585 = EDGE_CURVE ( 'NONE', #644, #505, #124, .T. ) ;
#586 = EDGE_LOOP ( 'NONE', ( #920, #907 ) ) ;
#587 = CARTESIAN_POINT ( 'NONE',  ( -0.5300000000000000300, 0.5749999999999999600, -0.8400000000000003000 ) ) ;
#588 = CIRCLE ( 'NONE', #316, 0.08717797887081342500 ) ;
#589 = VECTOR ( 'NONE', #689, 1000.000000000000000 ) ;
#590 = MANIFOLD_SOLID_BREP ( 'LPattern1[1]', #847 ) ;
#591 = DIRECTION ( 'NONE',  ( -1.000000000000000000, 0.0000000000000000000, 1.224646799147353200E-016 ) ) ;
#592 = DIRECTION ( 'NONE',  ( 0.0000000000000000000, 0.0000000000000000000, 1.000000000000000000 ) ) ;
#593 = ORIENTED_EDGE ( 'NONE', *, *, #492, .F. ) ;
#594 = CARTESIAN_POINT ( 'NONE',  ( -0.5000000000000000000, 4.065758146820641600E-017, 0.7500000000000000000 ) ) ;
#595 = AXIS2_PLACEMENT_3D ( 'NONE', #770, #263, #1298 ) ;
#596 = SURFACE_STYLE_FILL_AREA ( #1254 ) ;
#597 = EDGE_LOOP ( 'NONE', ( #995, #582, #1111 ) ) ;
#598 = ADVANCED_FACE ( 'NONE', ( #1231 ), #649, .T. ) ;
#599 = CARTESIAN_POINT ( 'NONE',  ( -0.5300000000000000300, 0.4052943725152284800, -0.7200000000000002000 ) ) ;
#600 = ORIENTED_EDGE ( 'NONE', *, *, #202, .T. ) ;
#601 = EDGE_CURVE ( 'NONE', #628, #370, #178, .T. ) ;
#602 = ADVANCED_FACE ( 'NONE', ( #851 ), #932, .F. ) ;
#603 = DIRECTION ( 'NONE',  ( 0.0000000000000000000, 0.0000000000000000000, 1.000000000000000000 ) ) ;
#604 = EDGE_CURVE ( 'NONE', #45, #699, #21, .T. ) ;
#605 = AXIS2_PLACEMENT_3D ( 'NONE', #1299, #666, #561 ) ;
#606 = EDGE_CURVE ( 'NONE', #50, #1030, #558, .T. ) ;
#607 = EDGE_LOOP ( 'NONE', ( #1160, #1096, #579 ) ) ;
#608 = PRODUCT_CONTEXT ( 'NONE', #818, 'mechanical' ) ;
#609 = ADVANCED_FACE ( 'NONE', ( #255 ), #213, .T. ) ;
#610 = AXIS2_PLACEMENT_3D ( 'NONE', #248, #750, #230 ) ;
#611 = DIRECTION ( 'NONE',  ( 0.0000000000000000000, 0.0000000000000000000, -1.000000000000000000 ) ) ;
#612 = CLOSED_SHELL ( 'NONE', ( #994, #925, #511 ) ) ;
#613 =( NAMED_UNIT ( * ) PLANE_ANGLE_UNIT ( ) SI_UNIT ( $, .RADIAN. ) );
#614 = ADVANCED_FACE ( 'NONE', ( #117 ), #544, .F. ) ;
#615 = CIRCLE ( 'NONE', #1082, 0.08717797887081342500 ) ;
#616 = DIRECTION ( 'NONE',  ( -0.0000000000000000000, -1.000000000000000000, -0.0000000000000000000 ) ) ;
#617 = PRESENTATION_LAYER_ASSIGNMENT (  '', '', ( #557 ) ) ;
#618 = DIRECTION ( 'NONE',  ( 0.0000000000000000000, 0.0000000000000000000, 1.000000000000000000 ) ) ;
#619 = UNCERTAINTY_MEASURE_WITH_UNIT (LENGTH_MEASURE( 1.000000000000000100E-005 ), #8, 'distance_accuracy_value', 'NONE');
#620 = CARTESIAN_POINT ( 'NONE',  ( 0.5000000000000000000, 0.1150000000000000000, 0.7500000000000000000 ) ) ;
#621 = DIRECTION ( 'NONE',  ( 0.0000000000000000000, 0.0000000000000000000, 1.000000000000000000 ) ) ;
#622 = AXIS2_PLACEMENT_3D ( 'NONE', #238, #334, #637 ) ;
#623 = DIRECTION ( 'NONE',  ( 0.0000000000000000000, 1.000000000000000000, 0.0000000000000000000 ) ) ;
#624 = AXIS2_PLACEMENT_3D ( 'NONE', #498, #493, #1229 ) ;
#625 = EDGE_LOOP ( 'NONE', ( #1170, #1238, #77 ) ) ;
#626 = VECTOR ( 'NONE', #694, 1000.000000000000000 ) ;
#627 = FACE_OUTER_BOUND ( 'NONE', #757, .T. ) ;
#628 = VERTEX_POINT ( 'NONE', #1158 ) ;
#629 = DIRECTION ( 'NONE',  ( 0.0000000000000000000, 0.0000000000000000000, 1.000000000000000000 ) ) ;
#630 = EDGE_LOOP ( 'NONE', ( #348, #1047, #777 ) ) ;
#631 = SURFACE_STYLE_FILL_AREA ( #548 ) ;
#632 = PLANE ( 'NONE',  #814 ) ;
#633 = EDGE_LOOP ( 'NONE', ( #189, #578 ) ) ;
#634 =( LENGTH_UNIT ( ) NAMED_UNIT ( * ) SI_UNIT ( .MILLI., .METRE. ) );
#635 = DIRECTION ( 'NONE',  ( 0.0000000000000000000, 1.000000000000000000, 0.0000000000000000000 ) ) ;
#636 = FACE_OUTER_BOUND ( 'NONE', #15, .T. ) ;
#637 = DIRECTION ( 'NONE',  ( 0.0000000000000000000, 0.0000000000000000000, -1.000000000000000000 ) ) ;
#638 = DIRECTION ( 'NONE',  ( 0.0000000000000000000, -1.000000000000000000, -0.0000000000000000000 ) ) ;
#639 = DIRECTION ( 'NONE',  ( 0.0000000000000000000, 0.0000000000000000000, 1.000000000000000000 ) ) ;
#640 = CARTESIAN_POINT ( 'NONE',  ( 0.0000000000000000000, 0.1150000000000000000, -0.2500000000000000000 ) ) ;
#641 = EDGE_LOOP ( 'NONE', ( #1272, #328 ) ) ;
#642 = ORIENTED_EDGE ( 'NONE', *, *, #564, .F. ) ;
#643 = DIRECTION ( 'NONE',  ( 0.0000000000000000000, 1.000000000000000000, 0.0000000000000000000 ) ) ;
#644 = VERTEX_POINT ( 'NONE', #1071 ) ;
#645 =( NAMED_UNIT ( * ) SI_UNIT ( $, .STERADIAN. ) SOLID_ANGLE_UNIT ( ) );
#646 = DIRECTION ( 'NONE',  ( 0.0000000000000000000, 0.0000000000000000000, -1.000000000000000000 ) ) ;
#647 = MANIFOLD_SOLID_BREP ( 'LPattern1[3]', #612 ) ;
#648 = DIRECTION ( 'NONE',  ( 0.0000000000000000000, 0.0000000000000000000, 1.000000000000000000 ) ) ;
#649 = SPHERICAL_SURFACE ( 'NONE', #512, 0.1149999999999999600 ) ;
#650 =( NAMED_UNIT ( * ) PLANE_ANGLE_UNIT ( ) SI_UNIT ( $, .RADIAN. ) );
#651 = EDGE_CURVE ( 'NONE', #538, #485, #1224, .T. ) ;
#652 = AXIS2_PLACEMENT_3D ( 'NONE', #175, #276, #697 ) ;
#653 = EDGE_CURVE ( 'NONE', #941, #1189, #458, .T. ) ;
#654 = FILL_AREA_STYLE ('',( #751 ) ) ;
#655 = CARTESIAN_POINT ( 'NONE',  ( -1.067622327802772600E-017, 0.1900000000000000000, 0.6628220211291866400 ) ) ;
#656 = CARTESIAN_POINT ( 'NONE',  ( -0.5300000000000000300, 0.6250000000000000000, -0.7800000000000002500 ) ) ;
#657 = CARTESIAN_POINT ( 'NONE',  ( 0.0000000000000000000, 0.1150000000000000000, 0.2500000000000000000 ) ) ;
#658 = ORIENTED_EDGE ( 'NONE', *, *, #973, .T. ) ;
#659 = DIRECTION ( 'NONE',  ( -0.0000000000000000000, 1.000000000000000000, -0.0000000000000000000 ) ) ;
#660 = EDGE_LOOP ( 'NONE', ( #111, #267, #515 ) ) ;
#661 = AXIS2_PLACEMENT_3D ( 'NONE', #1072, #753, #552 ) ;
#662 = SPHERICAL_SURFACE ( 'NONE', #1213, 0.1149999999999999600 ) ;
#663 =( LENGTH_UNIT ( ) NAMED_UNIT ( * ) SI_UNIT ( .MILLI., .METRE. ) );
#664 = SURFACE_STYLE_FILL_AREA ( #765 ) ;
#665 = CARTESIAN_POINT ( 'NONE',  ( 0.5000000000000000000, 0.1150000000000000000, -0.2500000000000000000 ) ) ;
#666 = DIRECTION ( 'NONE',  ( 1.000000000000000000, 0.0000000000000000000, 0.0000000000000000000 ) ) ;
#667 = LINE ( 'NONE', #453, #148 ) ;
#668 = AXIS2_PLACEMENT_3D ( 'NONE', #735, #420, #27 ) ;
#669 = DIRECTION ( 'NONE',  ( 0.0000000000000000000, 0.0000000000000000000, 1.000000000000000000 ) ) ;
#670 = AXIS2_PLACEMENT_3D ( 'NONE', #1126, #10, #913 ) ;
#671 = DIRECTION ( 'NONE',  ( 0.0000000000000000000, 0.0000000000000000000, -1.000000000000000000 ) ) ;
#672 = LINE ( 'NONE', #683, #467 ) ;
#673 = ORIENTED_EDGE ( 'NONE', *, *, #340, .F. ) ;
#674 = CARTESIAN_POINT ( 'NONE',  ( -0.5000000000000000000, 0.1900000000000000000, -0.2500000000000000000 ) ) ;
#675 = ORIENTED_EDGE ( 'NONE', *, *, #121, .T. ) ;
#676 = STYLED_ITEM ( 'NONE', ( #1323 ), #828 ) ;
#677 = PLANE ( 'NONE',  #652 ) ;
#678 = EDGE_CURVE ( 'NONE', #1142, #1256, #1308, .T. ) ;
#679 = ORIENTED_EDGE ( 'NONE', *, *, #314, .T. ) ;
#680 = FILL_AREA_STYLE_COLOUR ( '', #944 ) ;
#681 = CARTESIAN_POINT ( 'NONE',  ( 0.0000000000000000000, 0.1150000000000000000, 0.7500000000000000000 ) ) ;
#682 = UNCERTAINTY_MEASURE_WITH_UNIT (LENGTH_MEASURE( 1.000000000000000100E-005 ), #634, 'distance_accuracy_value', 'NONE');
#683 = CARTESIAN_POINT ( 'NONE',  ( 0.6800000000000001600, 3.554170132607399800, 0.9299999999999998300 ) ) ;
#684 = STYLED_ITEM ( 'NONE', ( #305 ), #315 ) ;
#685 = AXIS2_PLACEMENT_3D ( 'NONE', #656, #49, #952 ) ;
#686 = ORIENTED_EDGE ( 'NONE', *, *, #564, .T. ) ;
#687 = ADVANCED_FACE ( 'NONE', ( #87 ), #1075, .T. ) ;
#688 =( NAMED_UNIT ( * ) PLANE_ANGLE_UNIT ( ) SI_UNIT ( $, .RADIAN. ) );
#689 = DIRECTION ( 'NONE',  ( -0.0000000000000000000, 1.000000000000000000, -0.0000000000000000000 ) ) ;
#690 = CARTESIAN_POINT ( 'NONE',  ( 0.6800000000000001600, 0.6250000000000001100, -0.9300000000000001600 ) ) ;
#691 = EDGE_CURVE ( 'NONE', #95, #1107, #588, .T. ) ;
#692 = MANIFOLD_SOLID_BREP ( 'LPattern1[11]', #1122 ) ;
#693 = DIRECTION ( 'NONE',  ( -1.000000000000000000, 0.0000000000000000000, 0.0000000000000000000 ) ) ;
#694 = DIRECTION ( 'NONE',  ( -0.0000000000000000000, -1.000000000000000000, -0.0000000000000000000 ) ) ;
#695 = ADVANCED_FACE ( 'NONE', ( #1146 ), #1101, .F. ) ;
#696 = AXIS2_PLACEMENT_3D ( 'NONE', #674, #172, #480 ) ;
#697 = DIRECTION ( 'NONE',  ( 0.0000000000000000000, 0.0000000000000000000, -1.000000000000000000 ) ) ;
#698 = DIRECTION ( 'NONE',  ( 0.0000000000000000000, 0.0000000000000000000, -1.000000000000000000 ) ) ;
#699 = VERTEX_POINT ( 'NONE', #478 ) ;
#700 = EDGE_CURVE ( 'NONE', #418, #565, #1197, .T. ) ;
#701 = ADVANCED_FACE ( 'NONE', ( #52 ), #825, .T. ) ;
#702 = AXIS2_PLACEMENT_3D ( 'NONE', #1315, #170, #873 ) ;
#703 = EDGE_LOOP ( 'NONE', ( #903, #1110, #269, #112 ) ) ;
#704 =( NAMED_UNIT ( * ) PLANE_ANGLE_UNIT ( ) SI_UNIT ( $, .RADIAN. ) );
#705 = FACE_OUTER_BOUND ( 'NONE', #237, .T. ) ;
#706 = CARTESIAN_POINT ( 'NONE',  ( 0.5000000000000000000, 0.1150000000000000000, 0.2500000000000000000 ) ) ;
#707 = CIRCLE ( 'NONE', #1244, 0.1149999999999999800 ) ;
#708 = CARTESIAN_POINT ( 'NONE',  ( 0.5000000000000000000, 0.1900000000000000000, 0.6628220211291866400 ) ) ;
#709 = AXIS2_PLACEMENT_3D ( 'NONE', #859, #1295, #260 ) ;
#710 = PLANE ( 'NONE',  #1312 ) ;
#711 = AXIS2_PLACEMENT_3D ( 'NONE', #1280, #1284, #971 ) ;
#712 = FACE_OUTER_BOUND ( 'NONE', #715, .T. ) ;
#713 = VERTEX_POINT ( 'NONE', #241 ) ;
#714 = DIRECTION ( 'NONE',  ( 0.0000000000000000000, 0.0000000000000000000, 1.000000000000000000 ) ) ;
#715 = EDGE_LOOP ( 'NONE', ( #1225, #19 ) ) ;
#716 = ORIENTED_EDGE ( 'NONE', *, *, #585, .T. ) ;
#717 = CIRCLE ( 'NONE', #711, 0.08717797887081342500 ) ;
#718 = CARTESIAN_POINT ( 'NONE',  ( 0.5000000000000000000, 0.1900000000000000000, -0.7500000000000000000 ) ) ;
#719 = EDGE_CURVE ( 'NONE', #297, #1044, #909, .T. ) ;
#720 = SURFACE_STYLE_USAGE ( .BOTH. , #724 ) ;
#721 = AXIS2_PLACEMENT_3D ( 'NONE', #681, #75, #1324 ) ;
#722 = ORIENTED_EDGE ( 'NONE', *, *, #604, .T. ) ;
#723 = EDGE_LOOP ( 'NONE', ( #788, #1193, #536 ) ) ;
#724 = SURFACE_SIDE_STYLE ('',( #190 ) ) ;
#725 = EDGE_LOOP ( 'NONE', ( #173, #264 ) ) ;
#726 = CARTESIAN_POINT ( 'NONE',  ( -0.5300000000000000300, 0.6250000000000000000, -0.8400000000000003000 ) ) ;
#727 = ORIENTED_EDGE ( 'NONE', *, *, #423, .T. ) ;
#728 = FACE_OUTER_BOUND ( 'NONE', #1027, .T. ) ;
#729 = AXIS2_PLACEMENT_3D ( 'NONE', #1165, #439, #344 ) ;
#730 = CARTESIAN_POINT ( 'NONE',  ( 0.0000000000000000000, 0.1900000000000000000, -0.7500000000000000000 ) ) ;
#731 = DIRECTION ( 'NONE',  ( -0.0000000000000000000, -1.000000000000000000, -0.0000000000000000000 ) ) ;
#732 = AXIS2_PLACEMENT_3D ( 'NONE', #487, #277, #1108 ) ;
#733 = CARTESIAN_POINT ( 'NONE',  ( 0.5000000000000000000, 0.1150000000000000000, -0.2500000000000000000 ) ) ;
#734 = DIRECTION ( 'NONE',  ( -0.0000000000000000000, 1.000000000000000000, -0.0000000000000000000 ) ) ;
#735 = CARTESIAN_POINT ( 'NONE',  ( -0.5300000000000000300, 0.4052943725152284800, -0.7800000000000002500 ) ) ;
#736 = DIRECTION ( 'NONE',  ( -0.0000000000000000000, -1.000000000000000000, -0.0000000000000000000 ) ) ;
#737 = ORIENTED_EDGE ( 'NONE', *, *, #183, .F. ) ;
#738 = CLOSED_SHELL ( 'NONE', ( #701, #1033, #74 ) ) ;
#739 = PRESENTATION_LAYER_ASSIGNMENT (  '', '', ( #176 ) ) ;
#740 = ORIENTED_EDGE ( 'NONE', *, *, #755, .T. ) ;
#741 = DIRECTION ( 'NONE',  ( 0.0000000000000000000, 0.0000000000000000000, -1.000000000000000000 ) ) ;
#742 = EDGE_LOOP ( 'NONE', ( #869, #807, #568 ) ) ;
#743 = ORIENTED_EDGE ( 'NONE', *, *, #1314, .F. ) ;
#744 = CARTESIAN_POINT ( 'NONE',  ( 0.0000000000000000000, 0.1150000000000000000, 0.7500000000000000000 ) ) ;
#745 = MANIFOLD_SOLID_BREP ( 'LPattern1[8]', #385 ) ;
#746 = AXIS2_PLACEMENT_3D ( 'NONE', #434, #520, #1265 ) ;
#747 = PRESENTATION_LAYER_ASSIGNMENT (  '', '', ( #676 ) ) ;
#748 =( NAMED_UNIT ( * ) PLANE_ANGLE_UNIT ( ) SI_UNIT ( $, .RADIAN. ) );
#749 = EDGE_CURVE ( 'NONE', #45, #1220, #227, .T. ) ;
#750 = DIRECTION ( 'NONE',  ( -1.000000000000000000, 0.0000000000000000000, 1.224646799147353200E-016 ) ) ;
#751 = FILL_AREA_STYLE_COLOUR ( '', #990 ) ;
#752 = DIRECTION ( 'NONE',  ( 0.0000000000000000000, 0.0000000000000000000, 1.000000000000000000 ) ) ;
#753 = DIRECTION ( 'NONE',  ( 0.0000000000000000000, -1.000000000000000000, -0.0000000000000000000 ) ) ;
#754 = CARTESIAN_POINT ( 'NONE',  ( -0.6799999999999999400, 3.554170132607399800, 0.9299999999999998300 ) ) ;
#755 = EDGE_CURVE ( 'NONE', #473, #713, #1294, .T. ) ;
#756 = VERTEX_POINT ( 'NONE', #1080 ) ;
#757 = EDGE_LOOP ( 'NONE', ( #115, #207, #427 ) ) ;
#758 = DIRECTION ( 'NONE',  ( -0.0000000000000000000, 0.0000000000000000000, 1.000000000000000000 ) ) ;
#759 = DIRECTION ( 'NONE',  ( -1.000000000000000000, -0.0000000000000000000, -0.0000000000000000000 ) ) ;
#760 = ORIENTED_EDGE ( 'NONE', *, *, #601, .F. ) ;
#761 = DIRECTION ( 'NONE',  ( 1.000000000000000000, 0.0000000000000000000, 0.0000000000000000000 ) ) ;
#762 = AXIS2_PLACEMENT_3D ( 'NONE', #834, #830, #320 ) ;
#763 = FACE_OUTER_BOUND ( 'NONE', #725, .T. ) ;
#764 = AXIS2_PLACEMENT_3D ( 'NONE', #921, #193, #1028 ) ;
#765 = FILL_AREA_STYLE ('',( #680 ) ) ;
#766 = CYLINDRICAL_SURFACE ( 'NONE', #388, 0.06000000000000004600 ) ;
#767 = DIRECTION ( 'NONE',  ( -0.0000000000000000000, -1.000000000000000000, -0.0000000000000000000 ) ) ;
#768 = SURFACE_STYLE_USAGE ( .BOTH. , #1086 ) ;
#769 = PRESENTATION_STYLE_ASSIGNMENT (( #768 ) ) ;
#770 = CARTESIAN_POINT ( 'NONE',  ( -0.5000000000000000000, 0.1900000000000000000, 0.2500000000000000000 ) ) ;
#771 = AXIS2_PLACEMENT_3D ( 'NONE', #157, #1206, #265 ) ;
#772 = DIRECTION ( 'NONE',  ( -1.000000000000000000, 0.0000000000000000000, 1.224646799147353200E-016 ) ) ;
#773 = ORIENTED_EDGE ( 'NONE', *, *, #902, .F. ) ;
#774 = DIRECTION ( 'NONE',  ( 0.0000000000000000000, 0.0000000000000000000, -1.000000000000000000 ) ) ;
#775 = VERTEX_POINT ( 'NONE', #136 ) ;
#776 = ORIENTED_EDGE ( 'NONE', *, *, #533, .T. ) ;
#777 = ORIENTED_EDGE ( 'NONE', *, *, #1241, .F. ) ;
#778 = DIRECTION ( 'NONE',  ( 0.0000000000000000000, 0.0000000000000000000, 1.000000000000000000 ) ) ;
#779 = DIRECTION ( 'NONE',  ( 0.0000000000000000000, 1.000000000000000000, 0.0000000000000000000 ) ) ;
#780 = CARTESIAN_POINT ( 'NONE',  ( 0.6800000000000001600, 0.1900000000000000000, 0.9299999999999998300 ) ) ;
#781 = FILL_AREA_STYLE_COLOUR ( '', #500 ) ;
#782 = UNCERTAINTY_MEASURE_WITH_UNIT (LENGTH_MEASURE( 1.000000000000000100E-005 ), #53, 'distance_accuracy_value', 'NONE');
#783 = PLANE ( 'NONE',  #22 ) ;
#784 = ORIENTED_EDGE ( 'NONE', *, *, #472, .T. ) ;
#785 = EDGE_CURVE ( 'NONE', #1207, #469, #490, .T. ) ;
#786 =( GEOMETRIC_REPRESENTATION_CONTEXT ( 3 ) GLOBAL_UNCERTAINTY_ASSIGNED_CONTEXT ( ( #1235 ) ) GLOBAL_UNIT_ASSIGNED_CONTEXT ( ( #281, #876, #182 ) ) REPRESENTATION_CONTEXT ( 'NONE', 'WORKASPACE' ) );
#787 = EDGE_CURVE ( 'NONE', #333, #226, #1161, .T. ) ;
#788 = ORIENTED_EDGE ( 'NONE', *, *, #1328, .F. ) ;
#789 = ADVANCED_FACE ( 'NONE', ( #1016 ), #244, .F. ) ;
#790 = CARTESIAN_POINT ( 'NONE',  ( -0.5000000000000000000, 0.1900000000000000000, -0.2500000000000000000 ) ) ;
#791 = DIRECTION ( 'NONE',  ( 1.000000000000000000, 0.0000000000000000000, 0.0000000000000000000 ) ) ;
#792 = CARTESIAN_POINT ( 'NONE',  ( 0.5000000000000000000, 0.1900000000000000000, 0.2500000000000000000 ) ) ;
#793 = MECHANICAL_DESIGN_GEOMETRIC_PRESENTATION_REPRESENTATION (  '', ( #1014 ), #400 ) ;
#794 = CIRCLE ( 'NONE', #403, 0.08717797887081342500 ) ;
#795 = CARTESIAN_POINT ( 'NONE',  ( -0.5000000000000000000, 0.1900000000000000000, -0.8371779788708134700 ) ) ;
#796 = CIRCLE ( 'NONE', #852, 0.06000000000000004600 ) ;
#797 = DIRECTION ( 'NONE',  ( -1.000000000000000000, 0.0000000000000000000, 0.0000000000000000000 ) ) ;
#798 = SURFACE_STYLE_FILL_AREA ( #261 ) ;
#799 = AXIS2_PLACEMENT_3D ( 'NONE', #1118, #1012, #698 ) ;
#800 = CIRCLE ( 'NONE', #815, 0.1149999999999999800 ) ;
#801 = SURFACE_STYLE_FILL_AREA ( #195 ) ;
#802 = VERTEX_POINT ( 'NONE', #339 ) ;
#803 = FILL_AREA_STYLE ('',( #102 ) ) ;
#804 = CARTESIAN_POINT ( 'NONE',  ( 0.0000000000000000000, 0.1900000000000000000, -0.2500000000000000000 ) ) ;
#805 = APPLICATION_PROTOCOL_DEFINITION ( 'draft international standard', 'automotive_design', 1998, #412 ) ;
#806 = ORIENTED_EDGE ( 'NONE', *, *, #606, .T. ) ;
#807 = ORIENTED_EDGE ( 'NONE', *, *, #1328, .T. ) ;
#808 = AXIS2_PLACEMENT_3D ( 'NONE', #962, #1182, #354 ) ;
#809 = ORIENTED_EDGE ( 'NONE', *, *, #1175, .F. ) ;
#810 = DIRECTION ( 'NONE',  ( 0.0000000000000000000, -0.0000000000000000000, 1.000000000000000000 ) ) ;
#811 = VERTEX_POINT ( 'NONE', #37 ) ;
#812 = CIRCLE ( 'NONE', #610, 0.1149999999999999800 ) ;
#813 = ADVANCED_FACE ( 'NONE', ( #1129 ), #1285, .F. ) ;
#814 = AXIS2_PLACEMENT_3D ( 'NONE', #843, #1185, #150 ) ;
#815 = AXIS2_PLACEMENT_3D ( 'NONE', #574, #159, #856 ) ;
#816 = EDGE_CURVE ( 'NONE', #867, #99, #254, .T. ) ;
#817 = CIRCLE ( 'NONE', #1174, 0.1149999999999999800 ) ;
#818 = APPLICATION_CONTEXT ( 'automotive_design' ) ;
#819 = MECHANICAL_DESIGN_GEOMETRIC_PRESENTATION_REPRESENTATION (  '', ( #684 ), #1109 ) ;
#820 = ORIENTED_EDGE ( 'NONE', *, *, #533, .F. ) ;
#821 = ADVANCED_FACE ( 'NONE', ( #1258 ), #662, .T. ) ;
#822 = ORIENTED_EDGE ( 'NONE', *, *, #583, .T. ) ;
#823 = DIRECTION ( 'NONE',  ( 0.0000000000000000000, 0.0000000000000000000, 1.000000000000000000 ) ) ;
#824 = EDGE_CURVE ( 'NONE', #1256, #80, #1223, .T. ) ;
#825 = SPHERICAL_SURFACE ( 'NONE', #1232, 0.1149999999999999600 ) ;
#826 = FILL_AREA_STYLE_COLOUR ( '', #1010 ) ;
#827 =( NAMED_UNIT ( * ) SI_UNIT ( $, .STERADIAN. ) SOLID_ANGLE_UNIT ( ) );
#828 = MANIFOLD_SOLID_BREP ( 'LPattern1[4]', #459 ) ;
#829 = SPHERICAL_SURFACE ( 'NONE', #7, 0.1149999999999999600 ) ;
#830 = DIRECTION ( 'NONE',  ( -1.000000000000000000, 0.0000000000000000000, 0.0000000000000000000 ) ) ;
#831 = DIRECTION ( 'NONE',  ( 0.0000000000000000000, 0.0000000000000000000, 1.000000000000000000 ) ) ;
#832 = AXIS2_PLACEMENT_3D ( 'NONE', #1083, #549, #46 ) ;
#833 = EDGE_CURVE ( 'NONE', #1044, #419, #1025, .T. ) ;
#834 = CARTESIAN_POINT ( 'NONE',  ( 0.5000000000000000000, 0.1150000000000000000, 0.7500000000000000000 ) ) ;
#835 = EDGE_LOOP ( 'NONE', ( #2, #456 ) ) ;
#836 = CARTESIAN_POINT ( 'NONE',  ( 0.0000000000000000000, 0.1900000000000000000, 0.7500000000000000000 ) ) ;
#837 = SPHERICAL_SURFACE ( 'NONE', #865, 0.1149999999999999600 ) ;
#838 = FILL_AREA_STYLE ('',( #1043 ) ) ;
#839 = EDGE_LOOP ( 'NONE', ( #1236, #567, #64 ) ) ;
#840 = SURFACE_SIDE_STYLE ('',( #1200 ) ) ;
#841 = ORIENTED_EDGE ( 'NONE', *, *, #653, .F. ) ;
#842 = PRESENTATION_STYLE_ASSIGNMENT (( #1243 ) ) ;
#843 = CARTESIAN_POINT ( 'NONE',  ( 0.5000000000000000000, 0.1900000000000000000, -0.2500000000000000000 ) ) ;
#844 =( NAMED_UNIT ( * ) PLANE_ANGLE_UNIT ( ) SI_UNIT ( $, .RADIAN. ) );
#845 = DIRECTION ( 'NONE',  ( 0.0000000000000000000, 0.0000000000000000000, -1.000000000000000000 ) ) ;
#846 = LINE ( 'NONE', #84, #1251 ) ;
#847 = CLOSED_SHELL ( 'NONE', ( #174, #17, #517 ) ) ;
#848 = ORIENTED_EDGE ( 'NONE', *, *, #464, .F. ) ;
#849 = DIRECTION ( 'NONE',  ( 0.0000000000000000000, 0.0000000000000000000, -1.000000000000000000 ) ) ;
#850 =( LENGTH_UNIT ( ) NAMED_UNIT ( * ) SI_UNIT ( .MILLI., .METRE. ) );
#851 = FACE_OUTER_BOUND ( 'NONE', #1145, .T. ) ;
#852 = AXIS2_PLACEMENT_3D ( 'NONE', #1106, #580, #83 ) ;
#853 = EDGE_CURVE ( 'NONE', #1256, #1142, #1134, .T. ) ;
#854 = LINE ( 'NONE', #1102, #1211 ) ;
#855 = CIRCLE ( 'NONE', #1022, 0.1149999999999999800 ) ;
#856 = DIRECTION ( 'NONE',  ( 0.0000000000000000000, 0.0000000000000000000, -1.000000000000000000 ) ) ;
#857 = FACE_OUTER_BOUND ( 'NONE', #723, .T. ) ;
#858 =( NAMED_UNIT ( * ) PLANE_ANGLE_UNIT ( ) SI_UNIT ( $, .RADIAN. ) );
#859 = CARTESIAN_POINT ( 'NONE',  ( -0.5300000000000000300, 0.5749999999999999600, -0.7800000000000002500 ) ) ;
#860 = ORIENTED_EDGE ( 'NONE', *, *, #853, .T. ) ;
#861 = PRESENTATION_STYLE_ASSIGNMENT (( #720 ) ) ;
#862 = SPHERICAL_SURFACE ( 'NONE', #402, 0.1149999999999999600 ) ;
#863 = DIRECTION ( 'NONE',  ( 0.0000000000000000000, 0.0000000000000000000, -1.000000000000000000 ) ) ;
#864 = EDGE_LOOP ( 'NONE', ( #841, #1178, #363, #374 ) ) ;
#865 = AXIS2_PLACEMENT_3D ( 'NONE', #1006, #797, #581 ) ;
#866 = DIRECTION ( 'NONE',  ( 1.000000000000000000, 0.0000000000000000000, 0.0000000000000000000 ) ) ;
#867 = VERTEX_POINT ( 'NONE', #655 ) ;
#868 = CARTESIAN_POINT ( 'NONE',  ( -0.6799999999999999400, 0.1900000000000000000, 0.9299999999999998300 ) ) ;
#869 = ORIENTED_EDGE ( 'NONE', *, *, #785, .T. ) ;
#870 = DIRECTION ( 'NONE',  ( -0.0000000000000000000, -1.000000000000000000, -0.0000000000000000000 ) ) ;
#871 = AXIS2_PLACEMENT_3D ( 'NONE', #393, #301, #969 ) ;
#872 = DIRECTION ( 'NONE',  ( 0.0000000000000000000, 0.0000000000000000000, 1.000000000000000000 ) ) ;
#873 = DIRECTION ( 'NONE',  ( 0.0000000000000000000, 0.0000000000000000000, -1.000000000000000000 ) ) ;
#874 = EDGE_CURVE ( 'NONE', #713, #628, #1300, .T. ) ;
#875 = PRESENTATION_LAYER_ASSIGNMENT (  '', '', ( #1201 ) ) ;
#876 =( NAMED_UNIT ( * ) PLANE_ANGLE_UNIT ( ) SI_UNIT ( $, .RADIAN. ) );
#877 = EDGE_CURVE ( 'NONE', #226, #1233, #800, .T. ) ;
#878 = ADVANCED_FACE ( 'NONE', ( #465 ), #109, .T. ) ;
#879 = DIRECTION ( 'NONE',  ( -0.0000000000000000000, -1.000000000000000000, -0.0000000000000000000 ) ) ;
#880 = MANIFOLD_SOLID_BREP ( 'Cut-Extrude1', #282 ) ;
#881 = FACE_OUTER_BOUND ( 'NONE', #981, .T. ) ;
#882 = CARTESIAN_POINT ( 'NONE',  ( 0.5000000000000000000, 0.1900000000000000000, -0.1628220211291865900 ) ) ;
#883 = EDGE_LOOP ( 'NONE', ( #727, #1076, #1316 ) ) ;
#884 = CARTESIAN_POINT ( 'NONE',  ( -0.5000000000000000000, 0.1150000000000000000, -0.2500000000000000000 ) ) ;
#885 = SURFACE_STYLE_USAGE ( .BOTH. , #904 ) ;
#886 = DIRECTION ( 'NONE',  ( 0.0000000000000000000, 0.0000000000000000000, 1.000000000000000000 ) ) ;
#887 = DIRECTION ( 'NONE',  ( -1.000000000000000000, 0.0000000000000000000, 0.0000000000000000000 ) ) ;
#888 =( GEOMETRIC_REPRESENTATION_CONTEXT ( 3 ) GLOBAL_UNCERTAINTY_ASSIGNED_CONTEXT ( ( #18 ) ) GLOBAL_UNIT_ASSIGNED_CONTEXT ( ( #16, #613, #147 ) ) REPRESENTATION_CONTEXT ( 'NONE', 'WORKASPACE' ) );
#889 = EDGE_CURVE ( 'NONE', #518, #347, #94, .T. ) ;
#890 = SPHERICAL_SURFACE ( 'NONE', #917, 0.1149999999999999600 ) ;
#891 = CARTESIAN_POINT ( 'NONE',  ( 0.5000000000000000000, 0.1150000000000000000, -0.2500000000000000000 ) ) ;
#892 = LINE ( 'NONE', #970, #357 ) ;
#893 = STYLED_ITEM ( 'NONE', ( #497 ), #410 ) ;
#894 = ADVANCED_FACE ( 'NONE', ( #165 ), #280, .F. ) ;
#895 = PRODUCT ( 'TXS0104E', 'TXS0104E', '', ( #608 ) ) ;
#896 =( LENGTH_UNIT ( ) NAMED_UNIT ( * ) SI_UNIT ( .MILLI., .METRE. ) );
#897 = CARTESIAN_POINT ( 'NONE',  ( 0.5000000000000000000, 0.1150000000000000000, -0.2500000000000000000 ) ) ;
#898 = VERTEX_POINT ( 'NONE', #1202 ) ;
#899 = FACE_OUTER_BOUND ( 'NONE', #835, .T. ) ;
#900 = AXIS2_PLACEMENT_3D ( 'NONE', #730, #1060, #537 ) ;
#901 = AXIS2_PLACEMENT_3D ( 'NONE', #210, #1332, #810 ) ;
#902 = EDGE_CURVE ( 'NONE', #297, #419, #817, .T. ) ;
#903 = ORIENTED_EDGE ( 'NONE', *, *, #202, .F. ) ;
#904 = SURFACE_SIDE_STYLE ('',( #664 ) ) ;
#905 = SURFACE_SIDE_STYLE ('',( #1051 ) ) ;
#906 = DIRECTION ( 'NONE',  ( 0.0000000000000000000, -1.000000000000000000, -0.0000000000000000000 ) ) ;
#907 = ORIENTED_EDGE ( 'NONE', *, *, #1321, .F. ) ;
#908 = SURFACE_STYLE_FILL_AREA ( #1168 ) ;
#909 = CIRCLE ( 'NONE', #1140, 0.08717797887081342500 ) ;
#910 = SURFACE_STYLE_FILL_AREA ( #279 ) ;
#911 =( NAMED_UNIT ( * ) PLANE_ANGLE_UNIT ( ) SI_UNIT ( $, .RADIAN. ) );
#912 = ADVANCED_FACE ( 'NONE', ( #974 ), #1198, .F. ) ;
#913 = DIRECTION ( 'NONE',  ( 0.0000000000000000000, 0.0000000000000000000, -1.000000000000000000 ) ) ;
#914 =( GEOMETRIC_REPRESENTATION_CONTEXT ( 3 ) GLOBAL_UNCERTAINTY_ASSIGNED_CONTEXT ( ( #309 ) ) GLOBAL_UNIT_ASSIGNED_CONTEXT ( ( #916, #911, #401 ) ) REPRESENTATION_CONTEXT ( 'NONE', 'WORKASPACE' ) );
#915 = CIRCLE ( 'NONE', #595, 0.08717797887081342500 ) ;
#916 =( LENGTH_UNIT ( ) NAMED_UNIT ( * ) SI_UNIT ( .MILLI., .METRE. ) );
#917 = AXIS2_PLACEMENT_3D ( 'NONE', #29, #437, #629 ) ;
#918 = ADVANCED_FACE ( 'NONE', ( #415 ), #108, .F. ) ;
#919 = LINE ( 'NONE', #1121, #326 ) ;
#920 = ORIENTED_EDGE ( 'NONE', *, *, #785, .F. ) ;
#921 = CARTESIAN_POINT ( 'NONE',  ( 0.5000000000000000000, 0.1900000000000000000, 0.7500000000000000000 ) ) ;
#922 = AXIS2_PLACEMENT_3D ( 'NONE', #836, #616, #946 ) ;
#923 = EDGE_LOOP ( 'NONE', ( #820, #1222 ) ) ;
#924 = CARTESIAN_POINT ( 'NONE',  ( 0.0000000000000000000, 0.0000000000000000000, 0.0000000000000000000 ) ) ;
#925 = ADVANCED_FACE ( 'NONE', ( #11 ), #528, .T. ) ;
#926 = DIRECTION ( 'NONE',  ( -1.000000000000000000, 0.0000000000000000000, 0.0000000000000000000 ) ) ;
#927 = SURFACE_STYLE_FILL_AREA ( #803 ) ;
#928 = DIRECTION ( 'NONE',  ( -0.0000000000000000000, -1.000000000000000000, -0.0000000000000000000 ) ) ;
#929 = LINE ( 'NONE', #1079, #495 ) ;
#930 = MANIFOLD_SOLID_BREP ( 'LPattern1[5]', #1042 ) ;
#931 = EDGE_CURVE ( 'NONE', #235, #99, #1087, .T. ) ;
#932 = PLANE ( 'NONE',  #306 ) ;
#933 = ADVANCED_FACE ( 'NONE', ( #1150 ), #677, .F. ) ;
#934 = EDGE_CURVE ( 'NONE', #485, #538, #615, .T. ) ;
#935 = CARTESIAN_POINT ( 'NONE',  ( -0.5000000000000000000, 0.1900000000000000000, 0.2500000000000000000 ) ) ;
#936 = CARTESIAN_POINT ( 'NONE',  ( 0.5000000000000000000, 0.1150000000000000000, 0.7500000000000000000 ) ) ;
#937 = ORIENTED_EDGE ( 'NONE', *, *, #322, .F. ) ;
#938 = CIRCLE ( 'NONE', #373, 0.08717797887081342500 ) ;
#939 = CIRCLE ( 'NONE', #900, 0.08717797887081342500 ) ;
#940 = SURFACE_STYLE_USAGE ( .BOTH. , #1259 ) ;
#941 = VERTEX_POINT ( 'NONE', #1116 ) ;
#942 = DIRECTION ( 'NONE',  ( 0.0000000000000000000, 1.000000000000000000, 0.0000000000000000000 ) ) ;
#943 = VERTEX_POINT ( 'NONE', #576 ) ;
#944 = COLOUR_RGB ( '',0.7921568627450980000, 0.8196078431372548800, 0.9333333333333333500 ) ;
#945 = DIRECTION ( 'NONE',  ( 0.0000000000000000000, 0.0000000000000000000, -1.000000000000000000 ) ) ;
#946 = DIRECTION ( 'NONE',  ( 0.0000000000000000000, 0.0000000000000000000, -1.000000000000000000 ) ) ;
#947 = PRESENTATION_LAYER_ASSIGNMENT (  '', '', ( #893 ) ) ;
#948 = COLOUR_RGB ( '',0.7921568627450980000, 0.8196078431372548800, 0.9333333333333333500 ) ;
#949 = SURFACE_STYLE_USAGE ( .BOTH. , #840 ) ;
#950 = CARTESIAN_POINT ( 'NONE',  ( -0.5000000000000000000, 0.1900000000000000000, -0.1628220211291865900 ) ) ;
#951 = CARTESIAN_POINT ( 'NONE',  ( 0.5000000000000000000, 0.1900000000000000000, 0.2500000000000000000 ) ) ;
#952 = DIRECTION ( 'NONE',  ( 0.0000000000000000000, -0.0000000000000000000, 1.000000000000000000 ) ) ;
#953 = DIRECTION ( 'NONE',  ( -1.000000000000000000, 0.0000000000000000000, 1.224646799147353200E-016 ) ) ;
#954 = DIRECTION ( 'NONE',  ( 0.0000000000000000000, 0.0000000000000000000, 1.000000000000000000 ) ) ;
#955 = ORIENTED_EDGE ( 'NONE', *, *, #719, .T. ) ;
#956 = CARTESIAN_POINT ( 'NONE',  ( -0.5000000000000000000, 0.1900000000000000000, 0.1628220211291865900 ) ) ;
#957 = ORIENTED_EDGE ( 'NONE', *, *, #934, .F. ) ;
#958 = DIRECTION ( 'NONE',  ( -1.000000000000000000, 0.0000000000000000000, 0.0000000000000000000 ) ) ;
#959 = DIRECTION ( 'NONE',  ( -0.0000000000000000000, -1.000000000000000000, -0.0000000000000000000 ) ) ;
#960 = EDGE_CURVE ( 'NONE', #756, #628, #854, .T. ) ;
#961 =( GEOMETRIC_REPRESENTATION_CONTEXT ( 3 ) GLOBAL_UNCERTAINTY_ASSIGNED_CONTEXT ( ( #359 ) ) GLOBAL_UNIT_ASSIGNED_CONTEXT ( ( #663, #1297, #468 ) ) REPRESENTATION_CONTEXT ( 'NONE', 'WORKASPACE' ) );
#962 = CARTESIAN_POINT ( 'NONE',  ( 0.6800000000000001600, 3.554170132607399800, 0.9299999999999998300 ) ) ;
#963 = VERTEX_POINT ( 'NONE', #268 ) ;
#964 = CARTESIAN_POINT ( 'NONE',  ( -0.5300000000000000300, 0.4052943725152284800, -0.7800000000000002500 ) ) ;
#965 = PRESENTATION_STYLE_ASSIGNMENT (( #239 ) ) ;
#966 = DIRECTION ( 'NONE',  ( 0.0000000000000000000, 0.0000000000000000000, 1.000000000000000000 ) ) ;
#967 = DIRECTION ( 'NONE',  ( -0.0000000000000000000, -1.000000000000000000, -0.0000000000000000000 ) ) ;
#968 = SPHERICAL_SURFACE ( 'NONE', #721, 0.1149999999999999600 ) ;
#969 = DIRECTION ( 'NONE',  ( 0.0000000000000000000, 0.0000000000000000000, -1.000000000000000000 ) ) ;
#970 = CARTESIAN_POINT ( 'NONE',  ( -0.6799999999999999400, 0.1900000000000000000, 0.9299999999999998300 ) ) ;
#971 = DIRECTION ( 'NONE',  ( 0.0000000000000000000, 0.0000000000000000000, -1.000000000000000000 ) ) ;
#972 = FILL_AREA_STYLE_COLOUR ( '', #318 ) ;
#973 = EDGE_CURVE ( 'NONE', #898, #802, #56, .T. ) ;
#974 = FACE_OUTER_BOUND ( 'NONE', #240, .T. ) ;
#975 = CARTESIAN_POINT ( 'NONE',  ( 0.0000000000000000000, 0.1900000000000000000, 0.2500000000000000000 ) ) ;
#976 = DIRECTION ( 'NONE',  ( -1.000000000000000000, 0.0000000000000000000, 1.224646799147353200E-016 ) ) ;
#977 = EDGE_LOOP ( 'NONE', ( #1009, #1319, #126, #127 ) ) ;
#978 = FACE_OUTER_BOUND ( 'NONE', #63, .T. ) ;
#979 = CARTESIAN_POINT ( 'NONE',  ( -0.5300000000000000300, 0.5749999999999999600, -0.7800000000000002500 ) ) ;
#980 = VECTOR ( 'NONE', #338, 1000.000000000000000 ) ;
#981 = EDGE_LOOP ( 'NONE', ( #1283, #436, #686, #600 ) ) ;
#982 = CARTESIAN_POINT ( 'NONE',  ( 0.5000000000000000000, 0.1150000000000000000, -0.7500000000000000000 ) ) ;
#983 = ORIENTED_EDGE ( 'NONE', *, *, #206, .T. ) ;
#984 = CARTESIAN_POINT ( 'NONE',  ( 0.5000000000000000000, 0.1150000000000000000, 0.7500000000000000000 ) ) ;
#985 = AXIS2_PLACEMENT_3D ( 'NONE', #1171, #336, #541 ) ;
#986 = PRESENTATION_LAYER_ASSIGNMENT (  '', '', ( #341 ) ) ;
#987 = EDGE_CURVE ( 'NONE', #35, #489, #1227, .T. ) ;
#988 = SPHERICAL_SURFACE ( 'NONE', #1131, 0.1149999999999999600 ) ;
#989 = CARTESIAN_POINT ( 'NONE',  ( 0.6800000000000001600, 3.554170132607399800, -0.9300000000000001600 ) ) ;
#990 = COLOUR_RGB ( '',0.7921568627450980000, 0.8196078431372548800, 0.9333333333333333500 ) ;
#991 = DIRECTION ( 'NONE',  ( 0.0000000000000000000, 0.0000000000000000000, 1.000000000000000000 ) ) ;
#992 =( LENGTH_UNIT ( ) NAMED_UNIT ( * ) SI_UNIT ( .MILLI., .METRE. ) );
#993 = DIRECTION ( 'NONE',  ( 0.0000000000000000000, 0.0000000000000000000, -1.000000000000000000 ) ) ;
#994 = ADVANCED_FACE ( 'NONE', ( #560 ), #988, .T. ) ;
#995 = ORIENTED_EDGE ( 'NONE', *, *, #516, .T. ) ;
#996 = DIRECTION ( 'NONE',  ( 0.0000000000000000000, 0.0000000000000000000, 1.000000000000000000 ) ) ;
#997 = AXIS2_PLACEMENT_3D ( 'NONE', #34, #736, #648 ) ;
#998 = CARTESIAN_POINT ( 'NONE',  ( 0.0000000000000000000, 0.1900000000000000000, 0.2500000000000000000 ) ) ;
#999 = ORIENTED_EDGE ( 'NONE', *, *, #874, .F. ) ;
#1000 = ORIENTED_EDGE ( 'NONE', *, *, #960, .F. ) ;
#1001 = DIRECTION ( 'NONE',  ( 0.0000000000000000000, 0.0000000000000000000, 1.000000000000000000 ) ) ;
#1002 = ORIENTED_EDGE ( 'NONE', *, *, #585, .F. ) ;
#1003 = MECHANICAL_DESIGN_GEOMETRIC_PRESENTATION_REPRESENTATION (  '', ( #78 ), #888 ) ;
#1004 = CARTESIAN_POINT ( 'NONE',  ( -0.5000000000000000000, 0.1150000000000000000, 0.7500000000000000000 ) ) ;
#1005 = DIRECTION ( 'NONE',  ( 0.0000000000000000000, 0.0000000000000000000, -1.000000000000000000 ) ) ;
#1006 = CARTESIAN_POINT ( 'NONE',  ( -0.5000000000000000000, 0.1150000000000000000, 0.2500000000000000000 ) ) ;
#1007 = EDGE_CURVE ( 'NONE', #811, #418, #1020, .T. ) ;
#1008 = STYLED_ITEM ( 'NONE', ( #559 ), #930 ) ;
#1009 = ORIENTED_EDGE ( 'NONE', *, *, #342, .F. ) ;
#1010 = COLOUR_RGB ( '',0.7921568627450980000, 0.8196078431372548800, 0.9333333333333333500 ) ;
#1011 = DIRECTION ( 'NONE',  ( -1.000000000000000000, 0.0000000000000000000, 0.0000000000000000000 ) ) ;
#1012 = DIRECTION ( 'NONE',  ( 0.0000000000000000000, -1.000000000000000000, -0.0000000000000000000 ) ) ;
#1013 = EDGE_LOOP ( 'NONE', ( #253, #97, #531 ) ) ;
#1014 = STYLED_ITEM ( 'NONE', ( #441 ), #692 ) ;
#1015 = ORIENTED_EDGE ( 'NONE', *, *, #314, .F. ) ;
#1016 = FACE_OUTER_BOUND ( 'NONE', #703, .T. ) ;
#1017 = DIRECTION ( 'NONE',  ( 0.0000000000000000000, 0.0000000000000000000, -1.000000000000000000 ) ) ;
#1018 = CIRCLE ( 'NONE', #272, 0.08717797887081342500 ) ;
#1019 =( NAMED_UNIT ( * ) PLANE_ANGLE_UNIT ( ) SI_UNIT ( $, .RADIAN. ) );
#1020 = CIRCLE ( 'NONE', #702, 0.08717797887081342500 ) ;
#1021 = FACE_OUTER_BOUND ( 'NONE', #864, .T. ) ;
#1022 = AXIS2_PLACEMENT_3D ( 'NONE', #535, #1177, #337 ) ;
#1023 = SURFACE_STYLE_USAGE ( .BOTH. , #212 ) ;
#1024 =( GEOMETRIC_REPRESENTATION_CONTEXT ( 3 ) GLOBAL_UNCERTAINTY_ASSIGNED_CONTEXT ( ( #86 ) ) GLOBAL_UNIT_ASSIGNED_CONTEXT ( ( #1237, #1019, #1137 ) ) REPRESENTATION_CONTEXT ( 'NONE', 'WORKASPACE' ) );
#1025 = CIRCLE ( 'NONE', #605, 0.1149999999999999800 ) ;
#1026 = CLOSED_SHELL ( 'NONE', ( #12, #501, #695 ) ) ;
#1027 = EDGE_LOOP ( 'NONE', ( #1176, #716 ) ) ;
#1028 = DIRECTION ( 'NONE',  ( 0.0000000000000000000, 0.0000000000000000000, -1.000000000000000000 ) ) ;
#1029 = ADVANCED_FACE ( 'NONE', ( #430 ), #968, .T. ) ;
#1030 = VERTEX_POINT ( 'NONE', #89 ) ;
#1031 = ORIENTED_EDGE ( 'NONE', *, *, #824, .T. ) ;
#1032 = MECHANICAL_DESIGN_GEOMETRIC_PRESENTATION_REPRESENTATION (  '', ( #1201 ), #377 ) ;
#1033 = ADVANCED_FACE ( 'NONE', ( #353 ), #160, .T. ) ;
#1034 = EDGE_CURVE ( 'NONE', #1084, #775, #796, .T. ) ;
#1035 = SURFACE_STYLE_FILL_AREA ( #654 ) ;
#1036 = FILL_AREA_STYLE_COLOUR ( '', #256 ) ;
#1037 = PRESENTATION_LAYER_ASSIGNMENT (  '', '', ( #194 ) ) ;
#1038 = CARTESIAN_POINT ( 'NONE',  ( -0.5300000000000000300, 0.6250000000000000000, -0.7800000000000002500 ) ) ;
#1039 = DIRECTION ( 'NONE',  ( -1.000000000000000000, 0.0000000000000000000, 1.224646799147353200E-016 ) ) ;
#1040 = ADVANCED_FACE ( 'NONE', ( #705 ), #783, .F. ) ;
#1041 = AXIS2_PLACEMENT_3D ( 'NONE', #924, #1313, #791 ) ;
#1042 = CLOSED_SHELL ( 'NONE', ( #308, #1115, #163 ) ) ;
#1043 = FILL_AREA_STYLE_COLOUR ( '', #76 ) ;
#1044 = VERTEX_POINT ( 'NONE', #1112 ) ;
#1045 = CARTESIAN_POINT ( 'NONE',  ( 0.0000000000000000000, 4.065758146820641600E-017, 0.7500000000000000000 ) ) ;
#1046 = CARTESIAN_POINT ( 'NONE',  ( 0.0000000000000000000, 0.1900000000000000000, -0.7500000000000000000 ) ) ;
#1047 = ORIENTED_EDGE ( 'NONE', *, *, #329, .T. ) ;
#1048 = VECTOR ( 'NONE', #48, 1000.000000000000000 ) ;
#1049 = AXIS2_PLACEMENT_3D ( 'NONE', #68, #1077, #996 ) ;
#1050 =( LENGTH_UNIT ( ) NAMED_UNIT ( * ) SI_UNIT ( .MILLI., .METRE. ) );
#1051 = SURFACE_STYLE_FILL_AREA ( #295 ) ;
#1052 = DIRECTION ( 'NONE',  ( -1.000000000000000000, 0.0000000000000000000, 0.0000000000000000000 ) ) ;
#1053 = SPHERICAL_SURFACE ( 'NONE', #211, 0.1149999999999999600 ) ;
#1054 = DIRECTION ( 'NONE',  ( 1.000000000000000000, 0.0000000000000000000, 0.0000000000000000000 ) ) ;
#1055 = EDGE_CURVE ( 'NONE', #644, #50, #1117, .T. ) ;
#1056 =( NAMED_UNIT ( * ) SI_UNIT ( $, .STERADIAN. ) SOLID_ANGLE_UNIT ( ) );
#1057 = VECTOR ( 'NONE', #759, 1000.000000000000000 ) ;
#1058 = LINE ( 'NONE', #989, #626 ) ;
#1059 = EDGE_LOOP ( 'NONE', ( #101, #220, #218 ) ) ;
#1060 = DIRECTION ( 'NONE',  ( -0.0000000000000000000, -1.000000000000000000, -0.0000000000000000000 ) ) ;
#1061 = DIRECTION ( 'NONE',  ( 0.0000000000000000000, 0.0000000000000000000, -1.000000000000000000 ) ) ;
#1062 = EDGE_LOOP ( 'NONE', ( #1002, #390, #806, #196 ) ) ;
#1063 = AXIS2_PLACEMENT_3D ( 'NONE', #998, #455, #461 ) ;
#1064 = CARTESIAN_POINT ( 'NONE',  ( 0.0000000000000000000, 0.1150000000000000000, 0.2500000000000000000 ) ) ;
#1065 =( LENGTH_UNIT ( ) NAMED_UNIT ( * ) SI_UNIT ( .MILLI., .METRE. ) );
#1066 = DIRECTION ( 'NONE',  ( 0.0000000000000000000, 0.0000000000000000000, -1.000000000000000000 ) ) ;
#1067 = DIRECTION ( 'NONE',  ( -1.000000000000000000, 0.0000000000000000000, 0.0000000000000000000 ) ) ;
#1068 = FACE_OUTER_BOUND ( 'NONE', #660, .T. ) ;
#1069 = CARTESIAN_POINT ( 'NONE',  ( 0.5000000000000000000, 0.1150000000000000000, -0.7500000000000000000 ) ) ;
#1070 = CARTESIAN_POINT ( 'NONE',  ( -0.5000000000000000000, 0.1900000000000000000, -0.7500000000000000000 ) ) ;
#1071 = CARTESIAN_POINT ( 'NONE',  ( -0.5300000000000000300, 0.5749999999999999600, -0.8400000000000003000 ) ) ;
#1072 = CARTESIAN_POINT ( 'NONE',  ( 0.0000000000000000000, 0.1900000000000000000, -0.2500000000000000000 ) ) ;
#1073 = FILL_AREA_STYLE_COLOUR ( '', #392 ) ;
#1074 = EDGE_LOOP ( 'NONE', ( #773, #955, #551 ) ) ;
#1075 = PLANE ( 'NONE',  #685 ) ;
#1076 = ORIENTED_EDGE ( 'NONE', *, *, #902, .T. ) ;
#1077 = DIRECTION ( 'NONE',  ( -1.000000000000000000, 0.0000000000000000000, 0.0000000000000000000 ) ) ;
#1078 = ORIENTED_EDGE ( 'NONE', *, *, #653, .T. ) ;
#1079 = CARTESIAN_POINT ( 'NONE',  ( -0.6799999999999999400, 0.6250000000000001100, 0.9299999999999998300 ) ) ;
#1080 = CARTESIAN_POINT ( 'NONE',  ( -0.6799999999999999400, 0.6250000000000001100, -0.9300000000000001600 ) ) ;
#1081 = AXIS2_PLACEMENT_3D ( 'NONE', #131, #1052, #954 ) ;
#1082 = AXIS2_PLACEMENT_3D ( 'NONE', #1311, #1098, #164 ) ;
#1083 = CARTESIAN_POINT ( 'NONE',  ( 0.5000000000000000000, 0.1900000000000000000, -0.2500000000000000000 ) ) ;
#1084 = VERTEX_POINT ( 'NONE', #486 ) ;
#1085 = UNCERTAINTY_MEASURE_WITH_UNIT (LENGTH_MEASURE( 1.000000000000000100E-005 ), #1065, 'distance_accuracy_value', 'NONE');
#1086 = SURFACE_SIDE_STYLE ('',( #1090 ) ) ;
#1087 = CIRCLE ( 'NONE', #514, 0.1149999999999999800 ) ;
#1088 = FACE_OUTER_BOUND ( 'NONE', #597, .T. ) ;
#1089 = DIRECTION ( 'NONE',  ( 0.0000000000000000000, 0.0000000000000000000, 1.000000000000000000 ) ) ;
#1090 = SURFACE_STYLE_FILL_AREA ( #1097 ) ;
#1091 = FACE_OUTER_BOUND ( 'NONE', #1257, .T. ) ;
#1092 = AXIS2_PLACEMENT_3D ( 'NONE', #1070, #959, #250 ) ;
#1093 = ORIENTED_EDGE ( 'NONE', *, *, #476, .T. ) ;
#1094 = EDGE_LOOP ( 'NONE', ( #776, #1307, #1127 ) ) ;
#1095 = ORIENTED_EDGE ( 'NONE', *, *, #931, .F. ) ;
#1096 = ORIENTED_EDGE ( 'NONE', *, *, #1331, .T. ) ;
#1097 = FILL_AREA_STYLE ('',( #475 ) ) ;
#1098 = DIRECTION ( 'NONE',  ( -0.0000000000000000000, -1.000000000000000000, -0.0000000000000000000 ) ) ;
#1099 = PRODUCT_DEFINITION_SHAPE ( 'NONE', 'NONE',  #120 ) ;
#1100 = DIRECTION ( 'NONE',  ( -1.000000000000000000, 0.0000000000000000000, 1.224646799147353200E-016 ) ) ;
#1101 = PLANE ( 'NONE',  #440 ) ;
#1102 = CARTESIAN_POINT ( 'NONE',  ( -0.6799999999999999400, 3.554170132607399800, -0.9300000000000001600 ) ) ;
#1103 = AXIS2_PLACEMENT_3D ( 'NONE', #984, #1100, #669 ) ;
#1104 = DIRECTION ( 'NONE',  ( -1.000000000000000000, 0.0000000000000000000, 0.0000000000000000000 ) ) ;
#1105 = EDGE_CURVE ( 'NONE', #811, #565, #394, .T. ) ;
#1106 = CARTESIAN_POINT ( 'NONE',  ( -0.5300000000000000300, 0.6250000000000000000, -0.7800000000000002500 ) ) ;
#1107 = VERTEX_POINT ( 'NONE', #188 ) ;
#1108 = DIRECTION ( 'NONE',  ( 0.0000000000000000000, 0.0000000000000000000, -1.000000000000000000 ) ) ;
#1109 =( GEOMETRIC_REPRESENTATION_CONTEXT ( 3 ) GLOBAL_UNCERTAINTY_ASSIGNED_CONTEXT ( ( #553 ) ) GLOBAL_UNIT_ASSIGNED_CONTEXT ( ( #1163, #858, #1292 ) ) REPRESENTATION_CONTEXT ( 'NONE', 'WORKASPACE' ) );
#1110 = ORIENTED_EDGE ( 'NONE', *, *, #960, .T. ) ;
#1111 = ORIENTED_EDGE ( 'NONE', *, *, #877, .F. ) ;
#1112 = CARTESIAN_POINT ( 'NONE',  ( 0.5000000000000000000, 0.1900000000000000000, 0.3371779788708134100 ) ) ;
#1113 = CARTESIAN_POINT ( 'NONE',  ( -0.5300000000000000300, 0.5749999999999999600, -0.7200000000000002000 ) ) ;
#1114 = ORIENTED_EDGE ( 'NONE', *, *, #678, .T. ) ;
#1115 = ADVANCED_FACE ( 'NONE', ( #319 ), #378, .T. ) ;
#1116 = CARTESIAN_POINT ( 'NONE',  ( -0.5300000000000000300, 0.5749999999999999600, -0.8400000000000003000 ) ) ;
#1117 = LINE ( 'NONE', #587, #589 ) ;
#1118 = CARTESIAN_POINT ( 'NONE',  ( 0.5000000000000000000, 0.1900000000000000000, 0.7500000000000000000 ) ) ;
#1119 = MECHANICAL_DESIGN_GEOMETRIC_PRESENTATION_REPRESENTATION (  '', ( #893 ), #460 ) ;
#1120 = FILL_AREA_STYLE_COLOUR ( '', #948 ) ;
#1121 = CARTESIAN_POINT ( 'NONE',  ( -0.6799999999999999400, 0.6250000000000001100, -0.9300000000000001600 ) ) ;
#1122 = CLOSED_SHELL ( 'NONE', ( #82, #598, #496 ) ) ;
#1123 = SPHERICAL_SURFACE ( 'NONE', #1049, 0.1149999999999999600 ) ;
#1124 = DIRECTION ( 'NONE',  ( 0.0000000000000000000, 0.0000000000000000000, -1.000000000000000000 ) ) ;
#1125 = ADVANCED_FACE ( 'NONE', ( #763 ), #710, .F. ) ;
#1126 = CARTESIAN_POINT ( 'NONE',  ( 0.0000000000000000000, 0.1900000000000000000, -0.7500000000000000000 ) ) ;
#1127 = ORIENTED_EDGE ( 'NONE', *, *, #700, .F. ) ;
#1128 = EDGE_LOOP ( 'NONE', ( #262, #60, #85 ) ) ;
#1129 = FACE_OUTER_BOUND ( 'NONE', #586, .T. ) ;
#1130 = DIRECTION ( 'NONE',  ( -1.000000000000000000, 0.0000000000000000000, 0.0000000000000000000 ) ) ;
#1131 = AXIS2_PLACEMENT_3D ( 'NONE', #70, #693, #778 ) ;
#1132 = CIRCLE ( 'NONE', #208, 0.1149999999999999800 ) ;
#1133 = COLOUR_RGB ( '',1.000000000000000000, 1.000000000000000000, 1.000000000000000000 ) ;
#1134 = CIRCLE ( 'NONE', #1063, 0.08717797887081342500 ) ;
#1135 = PLANE ( 'NONE',  #901 ) ;
#1136 = MANIFOLD_SOLID_BREP ( 'LPattern1[6]', #1026 ) ;
#1137 =( NAMED_UNIT ( * ) SI_UNIT ( $, .STERADIAN. ) SOLID_ANGLE_UNIT ( ) );
#1138 = ORIENTED_EDGE ( 'NONE', *, *, #691, .T. ) ;
#1139 = VERTEX_POINT ( 'NONE', #407 ) ;
#1140 = AXIS2_PLACEMENT_3D ( 'NONE', #951, #967, #1061 ) ;
#1141 = FILL_AREA_STYLE ('',( #1036 ) ) ;
#1142 = VERTEX_POINT ( 'NONE', #1226 ) ;
#1143 = CARTESIAN_POINT ( 'NONE',  ( -0.5300000000000000300, 0.5749999999999999600, -0.7800000000000002500 ) ) ;
#1144 = ADVANCED_FACE ( 'NONE', ( #130 ), #24, .T. ) ;
#1145 = EDGE_LOOP ( 'NONE', ( #371, #1078 ) ) ;
#1146 = FACE_OUTER_BOUND ( 'NONE', #325, .T. ) ;
#1147 = CARTESIAN_POINT ( 'NONE',  ( -0.5000000000000000000, 0.1150000000000000000, 0.7500000000000000000 ) ) ;
#1148 = DIRECTION ( 'NONE',  ( -1.000000000000000000, 0.0000000000000000000, 1.224646799147353200E-016 ) ) ;
#1149 = AXIS2_PLACEMENT_3D ( 'NONE', #620, #221, #228 ) ;
#1150 = FACE_OUTER_BOUND ( 'NONE', #310, .T. ) ;
#1151 = FACE_OUTER_BOUND ( 'NONE', #641, .T. ) ;
#1152 = CIRCLE ( 'NONE', #1179, 0.1149999999999999800 ) ;
#1153 = DIRECTION ( 'NONE',  ( -0.0000000000000000000, -1.000000000000000000, -0.0000000000000000000 ) ) ;
#1154 = CARTESIAN_POINT ( 'NONE',  ( 0.0000000000000000000, 0.1150000000000000000, 0.2500000000000000000 ) ) ;
#1155 = CARTESIAN_POINT ( 'NONE',  ( -0.5300000000000000300, 0.5749999999999999600, -0.7200000000000002000 ) ) ;
#1156 = EDGE_LOOP ( 'NONE', ( #346, #1173, #1249, #822 ) ) ;
#1157 = ORIENTED_EDGE ( 'NONE', *, *, #1248, .F. ) ;
#1158 = CARTESIAN_POINT ( 'NONE',  ( -0.6799999999999999400, 0.1900000000000000000, -0.9300000000000001600 ) ) ;
#1159 = CLOSED_SHELL ( 'NONE', ( #187, #397, #813 ) ) ;
#1160 = ORIENTED_EDGE ( 'NONE', *, *, #816, .F. ) ;
#1161 = CIRCLE ( 'NONE', #729, 0.08717797887081342500 ) ;
#1162 =( NAMED_UNIT ( * ) SI_UNIT ( $, .STERADIAN. ) SOLID_ANGLE_UNIT ( ) );
#1163 =( LENGTH_UNIT ( ) NAMED_UNIT ( * ) SI_UNIT ( .MILLI., .METRE. ) );
#1164 = PLANE ( 'NONE',  #291 ) ;
#1165 = CARTESIAN_POINT ( 'NONE',  ( 0.0000000000000000000, 0.1900000000000000000, -0.2500000000000000000 ) ) ;
#1166 = CARTESIAN_POINT ( 'NONE',  ( -0.5000000000000000000, 0.1150000000000000000, -0.7500000000000000000 ) ) ;
#1167 = CARTESIAN_POINT ( 'NONE',  ( 0.0000000000000000000, 0.1900000000000000000, 0.0000000000000000000 ) ) ;
#1168 = FILL_AREA_STYLE ('',( #1073 ) ) ;
#1169 = CARTESIAN_POINT ( 'NONE',  ( 0.5000000000000000000, 0.1900000000000000000, 0.1628220211291865900 ) ) ;
#1170 = ORIENTED_EDGE ( 'NONE', *, *, #1105, .F. ) ;
#1171 = CARTESIAN_POINT ( 'NONE',  ( 0.5000000000000000000, 0.1900000000000000000, -0.7500000000000000000 ) ) ;
#1172 = AXIS2_PLACEMENT_3D ( 'NONE', #935, #1153, #945 ) ;
#1173 = ORIENTED_EDGE ( 'NONE', *, *, #1214, .F. ) ;
#1174 = AXIS2_PLACEMENT_3D ( 'NONE', #162, #772, #991 ) ;
#1175 = EDGE_CURVE ( 'NONE', #95, #963, #257, .T. ) ;
#1176 = ORIENTED_EDGE ( 'NONE', *, *, #1214, .T. ) ;
#1177 = DIRECTION ( 'NONE',  ( -1.000000000000000000, 0.0000000000000000000, 1.224646799147353200E-016 ) ) ;
#1178 = ORIENTED_EDGE ( 'NONE', *, *, #342, .T. ) ;
#1179 = AXIS2_PLACEMENT_3D ( 'NONE', #665, #1196, #1089 ) ;
#1180 = SURFACE_STYLE_USAGE ( .BOTH. , #349 ) ;
#1181 = SURFACE_STYLE_FILL_AREA ( #246 ) ;
#1182 = DIRECTION ( 'NONE',  ( -1.000000000000000000, 0.0000000000000000000, 0.0000000000000000000 ) ) ;
#1183 = UNCERTAINTY_MEASURE_WITH_UNIT (LENGTH_MEASURE( 1.000000000000000100E-005 ), #1050, 'distance_accuracy_value', 'NONE');
#1184 = CIRCLE ( 'NONE', #300, 0.1149999999999999800 ) ;
#1185 = DIRECTION ( 'NONE',  ( 0.0000000000000000000, -1.000000000000000000, -0.0000000000000000000 ) ) ;
#1186 = DIRECTION ( 'NONE',  ( 1.000000000000000000, -0.0000000000000000000, 0.0000000000000000000 ) ) ;
#1187 = AXIS2_PLACEMENT_3D ( 'NONE', #444, #1279, #741 ) ;
#1188 = CARTESIAN_POINT ( 'NONE',  ( 0.5000000000000000000, 0.1150000000000000000, 0.2500000000000000000 ) ) ;
#1189 = VERTEX_POINT ( 'NONE', #307 ) ;
#1190 = PRESENTATION_STYLE_ASSIGNMENT (( #1023 ) ) ;
#1191 = ORIENTED_EDGE ( 'NONE', *, *, #247, .T. ) ;
#1192 = CARTESIAN_POINT ( 'NONE',  ( -0.5000000000000000000, 0.1900000000000000000, -0.7500000000000000000 ) ) ;
#1193 = ORIENTED_EDGE ( 'NONE', *, *, #1321, .T. ) ;
#1194 = DIRECTION ( 'NONE',  ( -1.000000000000000000, 0.0000000000000000000, 0.0000000000000000000 ) ) ;
#1195 = STYLED_ITEM ( 'NONE', ( #125 ), #42 ) ;
#1196 = DIRECTION ( 'NONE',  ( -1.000000000000000000, 0.0000000000000000000, 1.224646799147353200E-016 ) ) ;
#1197 = CIRCLE ( 'NONE', #871, 0.1149999999999999800 ) ;
#1198 = PLANE ( 'NONE',  #771 ) ;
#1199 = CIRCLE ( 'NONE', #624, 0.06000000000000004600 ) ;
#1200 = SURFACE_STYLE_FILL_AREA ( #129 ) ;
#1201 = STYLED_ITEM ( 'NONE', ( #769 ), #880 ) ;
#1202 = CARTESIAN_POINT ( 'NONE',  ( 0.0000000000000000000, 0.1900000000000000000, -0.6628220211291866400 ) ) ;
#1203 = CARTESIAN_POINT ( 'NONE',  ( 0.0000000000000000000, 0.1150000000000000000, -0.7500000000000000000 ) ) ;
#1204 = CARTESIAN_POINT ( 'NONE',  ( 0.5000000000000000000, 0.1900000000000000000, -0.8371779788708134700 ) ) ;
#1205 = FACE_OUTER_BOUND ( 'NONE', #1322, .T. ) ;
#1206 = DIRECTION ( 'NONE',  ( 0.0000000000000000000, 0.0000000000000000000, -1.000000000000000000 ) ) ;
#1207 = VERTEX_POINT ( 'NONE', #199 ) ;
#1208 = CLOSED_SHELL ( 'NONE', ( #288, #313, #488 ) ) ;
#1209 = ORIENTED_EDGE ( 'NONE', *, *, #1290, .F. ) ;
#1210 = VECTOR ( 'NONE', #330, 1000.000000000000000 ) ;
#1211 = VECTOR ( 'NONE', #870, 1000.000000000000000 ) ;
#1212 = PRESENTATION_LAYER_ASSIGNMENT (  '', '', ( #1195 ) ) ;
#1213 = AXIS2_PLACEMENT_3D ( 'NONE', #640, #143, #752 ) ;
#1214 = EDGE_CURVE ( 'NONE', #505, #644, #1199, .T. ) ;
#1215 = CARTESIAN_POINT ( 'NONE',  ( -0.5000000000000000000, 0.1150000000000000000, 0.7500000000000000000 ) ) ;
#1216 = ORIENTED_EDGE ( 'NONE', *, *, #481, .T. ) ;
#1217 = CARTESIAN_POINT ( 'NONE',  ( 0.5000000000000000000, 4.065758146820641600E-017, 0.2500000000000000000 ) ) ;
#1218 = LINE ( 'NONE', #599, #139 ) ;
#1219 = CIRCLE ( 'NONE', #1172, 0.08717797887081342500 ) ;
#1220 = VERTEX_POINT ( 'NONE', #795 ) ;
#1221 = PLANE ( 'NONE',  #66 ) ;
#1222 = ORIENTED_EDGE ( 'NONE', *, *, #1007, .F. ) ;
#1223 = CIRCLE ( 'NONE', #1240, 0.1149999999999999800 ) ;
#1224 = CIRCLE ( 'NONE', #832, 0.08717797887081342500 ) ;
#1225 = ORIENTED_EDGE ( 'NONE', *, *, #691, .F. ) ;
#1226 = CARTESIAN_POINT ( 'NONE',  ( -1.067622327802772600E-017, 0.1900000000000000000, 0.1628220211291865900 ) ) ;
#1227 = LINE ( 'NONE', #1318, #413 ) ;
#1228 = SPHERICAL_SURFACE ( 'NONE', #1253, 0.1149999999999999600 ) ;
#1229 = DIRECTION ( 'NONE',  ( 0.0000000000000000000, 0.0000000000000000000, 1.000000000000000000 ) ) ;
#1230 = PLANE ( 'NONE',  #670 ) ;
#1231 = FACE_OUTER_BOUND ( 'NONE', #1059, .T. ) ;
#1232 = AXIS2_PLACEMENT_3D ( 'NONE', #1147, #887, #275 ) ;
#1233 = VERTEX_POINT ( 'NONE', #387 ) ;
#1234 = DIRECTION ( 'NONE',  ( 0.0000000000000000000, -1.000000000000000000, -0.0000000000000000000 ) ) ;
#1235 = UNCERTAINTY_MEASURE_WITH_UNIT (LENGTH_MEASURE( 1.000000000000000100E-005 ), #281, 'distance_accuracy_value', 'NONE');
#1236 = ORIENTED_EDGE ( 'NONE', *, *, #405, .T. ) ;
#1237 =( LENGTH_UNIT ( ) NAMED_UNIT ( * ) SI_UNIT ( .MILLI., .METRE. ) );
#1238 = ORIENTED_EDGE ( 'NONE', *, *, #1007, .T. ) ;
#1239 = CARTESIAN_POINT ( 'NONE',  ( -0.5000000000000000000, 0.1900000000000000000, -0.2500000000000000000 ) ) ;
#1240 = AXIS2_PLACEMENT_3D ( 'NONE', #368, #866, #993 ) ;
#1241 = EDGE_CURVE ( 'NONE', #485, #287, #1132, .T. ) ;
#1242 = PRESENTATION_STYLE_ASSIGNMENT (( #509 ) ) ;
#1243 = SURFACE_STYLE_USAGE ( .BOTH. , #513 ) ;
#1244 = AXIS2_PLACEMENT_3D ( 'NONE', #351, #976, #356 ) ;
#1245 = DIRECTION ( 'NONE',  ( 0.0000000000000000000, 0.0000000000000000000, -1.000000000000000000 ) ) ;
#1246 = DIRECTION ( 'NONE',  ( 0.0000000000000000000, 0.0000000000000000000, 1.000000000000000000 ) ) ;
#1247 = PRESENTATION_LAYER_ASSIGNMENT (  '', '', ( #78 ) ) ;
#1248 = EDGE_CURVE ( 'NONE', #503, #518, #1326, .T. ) ;
#1249 = ORIENTED_EDGE ( 'NONE', *, *, #55, .T. ) ;
#1250 = ADVANCED_FACE ( 'NONE', ( #728 ), #1135, .T. ) ;
#1251 = VECTOR ( 'NONE', #71, 1000.000000000000000 ) ;
#1252 = SPHERICAL_SURFACE ( 'NONE', #762, 0.1149999999999999600 ) ;
#1253 = AXIS2_PLACEMENT_3D ( 'NONE', #332, #236, #146 ) ;
#1254 = FILL_AREA_STYLE ('',( #826 ) ) ;
#1255 =( GEOMETRIC_REPRESENTATION_CONTEXT ( 3 ) GLOBAL_UNCERTAINTY_ASSIGNED_CONTEXT ( ( #1320 ) ) GLOBAL_UNIT_ASSIGNED_CONTEXT ( ( #850, #844, #1281 ) ) REPRESENTATION_CONTEXT ( 'NONE', 'WORKASPACE' ) );
#1256 = VERTEX_POINT ( 'NONE', #396 ) ;
#1257 = EDGE_LOOP ( 'NONE', ( #1209, #13, #1191 ) ) ;
#1258 = FACE_OUTER_BOUND ( 'NONE', #1128, .T. ) ;
#1259 = SURFACE_SIDE_STYLE ('',( #596 ) ) ;
#1260 = EDGE_LOOP ( 'NONE', ( #534, #1216 ) ) ;
#1261 = MECHANICAL_DESIGN_GEOMETRIC_PRESENTATION_REPRESENTATION (  '', ( #107 ), #1255 ) ;
#1262 =( GEOMETRIC_REPRESENTATION_CONTEXT ( 3 ) GLOBAL_UNCERTAINTY_ASSIGNED_CONTEXT ( ( #449 ) ) GLOBAL_UNIT_ASSIGNED_CONTEXT ( ( #40, #748, #38 ) ) REPRESENTATION_CONTEXT ( 'NONE', 'WORKASPACE' ) );
#1263 = DIRECTION ( 'NONE',  ( -1.000000000000000000, 0.0000000000000000000, 0.0000000000000000000 ) ) ;
#1264 = SPHERICAL_SURFACE ( 'NONE', #391, 0.1149999999999999600 ) ;
#1265 = DIRECTION ( 'NONE',  ( 0.0000000000000000000, -0.0000000000000000000, 1.000000000000000000 ) ) ;
#1266 = CARTESIAN_POINT ( 'NONE',  ( -0.5300000000000000300, 0.6250000000000000000, -0.7800000000000002500 ) ) ;
#1267 = DIRECTION ( 'NONE',  ( 0.0000000000000000000, 0.0000000000000000000, 1.000000000000000000 ) ) ;
#1268 = CARTESIAN_POINT ( 'NONE',  ( -0.6799999999999999400, 0.6250000000000001100, 0.9299999999999998300 ) ) ;
#1269 = SURFACE_SIDE_STYLE ('',( #631 ) ) ;
#1270 = FACE_OUTER_BOUND ( 'NONE', #1302, .T. ) ;
#1271 = MECHANICAL_DESIGN_GEOMETRIC_PRESENTATION_REPRESENTATION (  '', ( #676 ), #961 ) ;
#1272 = ORIENTED_EDGE ( 'NONE', *, *, #516, .F. ) ;
#1273 = FILL_AREA_STYLE_COLOUR ( '', #104 ) ;
#1274 = DIRECTION ( 'NONE',  ( -1.000000000000000000, 0.0000000000000000000, 1.224646799147353200E-016 ) ) ;
#1275 = ORIENTED_EDGE ( 'NONE', *, *, #206, .F. ) ;
#1276 = CARTESIAN_POINT ( 'NONE',  ( -0.5000000000000000000, 0.1150000000000000000, -0.7500000000000000000 ) ) ;
#1277 = DIRECTION ( 'NONE',  ( 1.224646799147353200E-016, 0.0000000000000000000, 1.000000000000000000 ) ) ;
#1278 = MANIFOLD_SOLID_BREP ( 'Revolve1', #1208 ) ;
#1279 = DIRECTION ( 'NONE',  ( -0.0000000000000000000, -1.000000000000000000, -0.0000000000000000000 ) ) ;
#1280 = CARTESIAN_POINT ( 'NONE',  ( 0.5000000000000000000, 0.1900000000000000000, 0.7500000000000000000 ) ) ;
#1281 =( NAMED_UNIT ( * ) SI_UNIT ( $, .STERADIAN. ) SOLID_ANGLE_UNIT ( ) );
#1282 = DIRECTION ( 'NONE',  ( 0.0000000000000000000, 0.0000000000000000000, 1.000000000000000000 ) ) ;
#1283 = ORIENTED_EDGE ( 'NONE', *, *, #492, .T. ) ;
#1284 = DIRECTION ( 'NONE',  ( -0.0000000000000000000, -1.000000000000000000, -0.0000000000000000000 ) ) ;
#1285 = PLANE ( 'NONE',  #1288 ) ;
#1286 =( GEOMETRIC_REPRESENTATION_CONTEXT ( 3 ) GLOBAL_UNCERTAINTY_ASSIGNED_CONTEXT ( ( #1085 ) ) GLOBAL_UNIT_ASSIGNED_CONTEXT ( ( #1065, #30, #1056 ) ) REPRESENTATION_CONTEXT ( 'NONE', 'WORKASPACE' ) );
#1287 = ORIENTED_EDGE ( 'NONE', *, *, #987, .F. ) ;
#1288 = AXIS2_PLACEMENT_3D ( 'NONE', #132, #638, #1066 ) ;
#1289 = DIRECTION ( 'NONE',  ( 0.0000000000000000000, 0.0000000000000000000, -1.000000000000000000 ) ) ;
#1290 = EDGE_CURVE ( 'NONE', #317, #943, #67, .T. ) ;
#1291 = CLOSED_SHELL ( 'NONE', ( #375, #575, #1125 ) ) ;
#1292 =( NAMED_UNIT ( * ) SI_UNIT ( $, .STERADIAN. ) SOLID_ANGLE_UNIT ( ) );
#1293 = ORIENTED_EDGE ( 'NONE', *, *, #874, .T. ) ;
#1294 = LINE ( 'NONE', #233, #1048 ) ;
#1295 = DIRECTION ( 'NONE',  ( -0.0000000000000000000, 1.000000000000000000, -0.0000000000000000000 ) ) ;
#1296 = COLOUR_RGB ( '',0.7921568627450980000, 0.8196078431372548800, 0.9333333333333333500 ) ;
#1297 =( NAMED_UNIT ( * ) PLANE_ANGLE_UNIT ( ) SI_UNIT ( $, .RADIAN. ) );
#1298 = DIRECTION ( 'NONE',  ( 0.0000000000000000000, 0.0000000000000000000, -1.000000000000000000 ) ) ;
#1299 = CARTESIAN_POINT ( 'NONE',  ( 0.5000000000000000000, 0.1150000000000000000, 0.2500000000000000000 ) ) ;
#1300 = LINE ( 'NONE', #54, #1057 ) ;
#1301 = CIRCLE ( 'NONE', #266, 0.08717797887081342500 ) ;
#1302 = EDGE_LOOP ( 'NONE', ( #1157, #737 ) ) ;
#1303 = DIRECTION ( 'NONE',  ( 0.0000000000000000000, 0.0000000000000000000, 1.000000000000000000 ) ) ;
#1304 = PRESENTATION_LAYER_ASSIGNMENT (  '', '', ( #62 ) ) ;
#1305 = DIRECTION ( 'NONE',  ( 1.000000000000000000, 0.0000000000000000000, 0.0000000000000000000 ) ) ;
#1306 = DIRECTION ( 'NONE',  ( -0.0000000000000000000, -1.000000000000000000, -0.0000000000000000000 ) ) ;
#1307 = ORIENTED_EDGE ( 'NONE', *, *, #1105, .T. ) ;
#1308 = CIRCLE ( 'NONE', #1329, 0.08717797887081342500 ) ;
#1309 = SURFACE_SIDE_STYLE ('',( #910 ) ) ;
#1310 = AXIS2_PLACEMENT_3D ( 'NONE', #311, #118, #519 ) ;
#1311 = CARTESIAN_POINT ( 'NONE',  ( 0.5000000000000000000, 0.1900000000000000000, -0.2500000000000000000 ) ) ;
#1312 = AXIS2_PLACEMENT_3D ( 'NONE', #6, #1234, #1124 ) ;
#1313 = DIRECTION ( 'NONE',  ( 0.0000000000000000000, 0.0000000000000000000, 1.000000000000000000 ) ) ;
#1314 = EDGE_CURVE ( 'NONE', #898, #123, #1018, .T. ) ;
#1315 = CARTESIAN_POINT ( 'NONE',  ( -0.5000000000000000000, 0.1900000000000000000, 0.7500000000000000000 ) ) ;
#1316 = ORIENTED_EDGE ( 'NONE', *, *, #833, .F. ) ;
#1317 = EDGE_LOOP ( 'NONE', ( #168, #937, #760, #999 ) ) ;
#1318 = CARTESIAN_POINT ( 'NONE',  ( 0.6800000000000001600, 0.6250000000000001100, 0.9299999999999998300 ) ) ;
#1319 = ORIENTED_EDGE ( 'NONE', *, *, #223, .F. ) ;
#1320 = UNCERTAINTY_MEASURE_WITH_UNIT (LENGTH_MEASURE( 1.000000000000000100E-005 ), #850, 'distance_accuracy_value', 'NONE');
#1321 = EDGE_CURVE ( 'NONE', #469, #1207, #794, .T. ) ;
#1322 = EDGE_LOOP ( 'NONE', ( #743, #209 ) ) ;
#1323 = PRESENTATION_STYLE_ASSIGNMENT (( #273 ) ) ;
#1324 = DIRECTION ( 'NONE',  ( 0.0000000000000000000, 0.0000000000000000000, 1.000000000000000000 ) ) ;
#1325 = AXIS2_PLACEMENT_3D ( 'NONE', #792, #477, #1005 ) ;
#1326 = CIRCLE ( 'NONE', #764, 0.08717797887081342500 ) ;
#1327 = DIRECTION ( 'NONE',  ( 1.000000000000000000, 0.0000000000000000000, 0.0000000000000000000 ) ) ;
#1328 = EDGE_CURVE ( 'NONE', #469, #1139, #521, .T. ) ;
#1329 = AXIS2_PLACEMENT_3D ( 'NONE', #975, #138, #1289 ) ;
#1330 = AXIS2_PLACEMENT_3D ( 'NONE', #1266, #635, #32 ) ;
#1331 = EDGE_CURVE ( 'NONE', #867, #235, #572, .T. ) ;
#1332 = DIRECTION ( 'NONE',  ( 0.0000000000000000000, 1.000000000000000000, 0.0000000000000000000 ) ) ;
#1333 = DIRECTION ( 'NONE',  ( -1.000000000000000000, 0.0000000000000000000, 0.0000000000000000000 ) ) ;
ENDSEC;
END-ISO-10303-21;
