ISO-10303-21;
HEADER;
FILE_DESCRIPTION (( 'STEP AP214' ),
    '1' );
FILE_NAME ('XAL7030-472MEB.STEP',
    '2024-03-01T03:17:52',
    ( '' ),
    ( '' ),
    'SwSTEP 2.0',
    'SolidWorks 2021',
    '' );
FILE_SCHEMA (( 'AUTOMOTIVE_DESIGN' ));
ENDSEC;

DATA;
#1 = ADVANCED_FACE ( 'NONE', ( #177 ), #1213, .F. ) ;
#2 = CARTESIAN_POINT ( 'NONE',  ( -2.899999999999999911, 3.049999999999999822, -2.249999999999999556 ) ) ;
#3 = ADVANCED_FACE ( 'NONE', ( #929 ), #672, .F. ) ;
#4 = ORIENTED_EDGE ( 'NONE', *, *, #485, .T. ) ;
#5 =( LENGTH_UNIT ( ) NAMED_UNIT ( * ) SI_UNIT ( .MILLI., .METRE. ) );
#6 = FILL_AREA_STYLE ('',( #1132 ) ) ;
#7 = FILL_AREA_STYLE ('',( #1124 ) ) ;
#8 =( GEOMETRIC_REPRESENTATION_CONTEXT ( 3 ) GLOBAL_UNCERTAINTY_ASSIGNED_CONTEXT ( ( #351 ) ) GLOBAL_UNIT_ASSIGNED_CONTEXT ( ( #1050, #28, #299 ) ) REPRESENTATION_CONTEXT ( 'NONE', 'WORKASPACE' ) );
#9 = LINE ( 'NONE', #172, #367 ) ;
#10 =( GEOMETRIC_REPRESENTATION_CONTEXT ( 3 ) GLOBAL_UNCERTAINTY_ASSIGNED_CONTEXT ( ( #406 ) ) GLOBAL_UNIT_ASSIGNED_CONTEXT ( ( #1041, #1031, #468 ) ) REPRESENTATION_CONTEXT ( 'NONE', 'WORKASPACE' ) );
#11 = ORIENTED_EDGE ( 'NONE', *, *, #390, .F. ) ;
#12 = DIRECTION ( 'NONE',  ( -1.000000000000000000, 0.000000000000000000, 0.000000000000000000 ) ) ;
#13 = FILL_AREA_STYLE_COLOUR ( '', #643 ) ;
#14 = DIRECTION ( 'NONE',  ( -0.000000000000000000, 1.000000000000000000, -0.000000000000000000 ) ) ;
#15 = CARTESIAN_POINT ( 'NONE',  ( 3.750000000000000444, 0.08000000000000020983, 3.449999999999999734 ) ) ;
#16 = ADVANCED_FACE ( 'NONE', ( #403 ), #939, .T. ) ;
#17 = CARTESIAN_POINT ( 'NONE',  ( -2.899999999999999911, 3.049999999999999822, 2.250000000000000444 ) ) ;
#18 = DIRECTION ( 'NONE',  ( 0.000000000000000000, 1.000000000000000000, 0.000000000000000000 ) ) ;
#19 = CARTESIAN_POINT ( 'NONE',  ( -3.449999999999999289, -10.60660171779821326, 3.750000000000000000 ) ) ;
#20 = CARTESIAN_POINT ( 'NONE',  ( 1.560000000000000275, 0.000000000000000000, -3.000000000000000000 ) ) ;
#21 = CARTESIAN_POINT ( 'NONE',  ( -3.449999999999999289, -10.60660171779821326, -3.449999999999999734 ) ) ;
#22 = CARTESIAN_POINT ( 'NONE',  ( -2.600000000000000089, 3.100000000000000089, -2.249999999999999556 ) ) ;
#23 = DIRECTION ( 'NONE',  ( -0.000000000000000000, -1.000000000000000000, -0.000000000000000000 ) ) ;
#24 = VECTOR ( 'NONE', #1019, 1000.000000000000000 ) ;
#25 = STYLED_ITEM ( 'NONE', ( #571 ), #916 ) ;
#26 = PRESENTATION_LAYER_ASSIGNMENT (  '', '', ( #684 ) ) ;
#27 = LINE ( 'NONE', #950, #554 ) ;
#28 =( NAMED_UNIT ( * ) PLANE_ANGLE_UNIT ( ) SI_UNIT ( $, .RADIAN. ) );
#29 = CARTESIAN_POINT ( 'NONE',  ( -2.899999999999999911, 3.049999999999999822, 2.250000000000000444 ) ) ;
#30 = DIRECTION ( 'NONE',  ( 0.000000000000000000, 0.000000000000000000, -1.000000000000000000 ) ) ;
#31 = ORIENTED_EDGE ( 'NONE', *, *, #629, .F. ) ;
#32 = DIRECTION ( 'NONE',  ( -0.000000000000000000, 1.000000000000000000, -0.000000000000000000 ) ) ;
#33 = FILL_AREA_STYLE_COLOUR ( '', #745 ) ;
#34 = EDGE_CURVE ( 'NONE', #179, #291, #97, .T. ) ;
#35 = CARTESIAN_POINT ( 'NONE',  ( 2.960000000000002185, 0.000000000000000000, 3.000000000000000000 ) ) ;
#36 = LINE ( 'NONE', #1145, #1106 ) ;
#37 = EDGE_CURVE ( 'NONE', #453, #719, #213, .T. ) ;
#38 = UNCERTAINTY_MEASURE_WITH_UNIT (LENGTH_MEASURE( 1.000000000000000082E-05 ), #218, 'distance_accuracy_value', 'NONE');
#39 = EDGE_LOOP ( 'NONE', ( #708, #1170, #808, #523 ) ) ;
#40 = SURFACE_SIDE_STYLE ('',( #119 ) ) ;
#41 = ORIENTED_EDGE ( 'NONE', *, *, #112, .T. ) ;
#42 = VECTOR ( 'NONE', #652, 1000.000000000000000 ) ;
#43 = AXIS2_PLACEMENT_3D ( 'NONE', #876, #703, #892 ) ;
#45 = EDGE_CURVE ( 'NONE', #47, #146, #363, .T. ) ;
#44 = PRESENTATION_LAYER_ASSIGNMENT (  '', '', ( #742 ) ) ;
#46 = EDGE_CURVE ( 'NONE', #1198, #840, #114, .T. ) ;
#47 = VERTEX_POINT ( 'NONE', #1055 ) ;
#48 = SURFACE_SIDE_STYLE ('',( #135 ) ) ;
#49 = CARTESIAN_POINT ( 'NONE',  ( -2.899999999999999911, 3.049999999999999822, -2.249999999999999556 ) ) ;
#50 = PRESENTATION_STYLE_ASSIGNMENT (( #333 ) ) ;
#51 = DIRECTION ( 'NONE',  ( 0.000000000000000000, 0.000000000000000000, 1.000000000000000000 ) ) ;
#52 = ORIENTED_EDGE ( 'NONE', *, *, #981, .T. ) ;
#53 = FILL_AREA_STYLE ('',( #887 ) ) ;
#54 = ORIENTED_EDGE ( 'NONE', *, *, #993, .F. ) ;
#55 = DIRECTION ( 'NONE',  ( 0.000000000000000000, -0.000000000000000000, -1.000000000000000000 ) ) ;
#56 = FILL_AREA_STYLE ('',( #71 ) ) ;
#57 = FILL_AREA_STYLE ('',( #170 ) ) ;
#58 = CARTESIAN_POINT ( 'NONE',  ( -2.899999999999999911, 3.100000000000000089, 2.250000000000000444 ) ) ;
#59 = ORIENTED_EDGE ( 'NONE', *, *, #389, .T. ) ;
#60 = CARTESIAN_POINT ( 'NONE',  ( 2.960000000000000409, 0.000000000000000000, -3.000000000000000000 ) ) ;
#61 = COLOUR_RGB ( '',0.2509803921568627416, 0.2509803921568627416, 0.2509803921568627416 ) ;
#62 = ORIENTED_EDGE ( 'NONE', *, *, #772, .T. ) ;
#63 = AXIS2_PLACEMENT_3D ( 'NONE', #431, #798, #706 ) ;
#64 = VECTOR ( 'NONE', #689, 1000.000000000000000 ) ;
#65 = AXIS2_PLACEMENT_3D ( 'NONE', #520, #1195, #890 ) ;
#66 = CARTESIAN_POINT ( 'NONE',  ( -3.449999999999999289, 3.100000000000000089, -3.749999999999999556 ) ) ;
#67 = EDGE_LOOP ( 'NONE', ( #54, #1216, #813, #873 ) ) ;
#68 =( NAMED_UNIT ( * ) PLANE_ANGLE_UNIT ( ) SI_UNIT ( $, .RADIAN. ) );
#69 = ORIENTED_EDGE ( 'NONE', *, *, #635, .T. ) ;
#70 = CARTESIAN_POINT ( 'NONE',  ( -2.960000000000000409, 0.08000000000000020983, 3.000000000000000888 ) ) ;
#71 = FILL_AREA_STYLE_COLOUR ( '', #1007 ) ;
#72 = ORIENTED_EDGE ( 'NONE', *, *, #1014, .F. ) ;
#73 = CARTESIAN_POINT ( 'NONE',  ( -2.960000000000000409, 0.000000000000000000, -2.999999999999999112 ) ) ;
#74 = ORIENTED_EDGE ( 'NONE', *, *, #395, .T. ) ;
#75 = DIRECTION ( 'NONE',  ( 0.000000000000000000, 0.000000000000000000, -1.000000000000000000 ) ) ;
#76 = ORIENTED_EDGE ( 'NONE', *, *, #875, .F. ) ;
#77 = EDGE_LOOP ( 'NONE', ( #810, #446, #940, #795 ) ) ;
#78 = LINE ( 'NONE', #907, #987 ) ;
#79 = CARTESIAN_POINT ( 'NONE',  ( -1.560000000000000275, 0.08000000000000020983, -2.999999999999999556 ) ) ;
#80 = ADVANCED_FACE ( 'NONE', ( #499 ), #952, .F. ) ;
#81 = ORIENTED_EDGE ( 'NONE', *, *, #1090, .T. ) ;
#82 = PLANE ( 'NONE',  #863 ) ;
#83 = SURFACE_STYLE_USAGE ( .BOTH. , #617 ) ;
#84 = PLANE ( 'NONE',  #193 ) ;
#85 = EDGE_LOOP ( 'NONE', ( #726, #1188, #288, #828 ) ) ;
#86 = EDGE_CURVE ( 'NONE', #797, #958, #1061, .T. ) ;
#87 = VECTOR ( 'NONE', #692, 1000.000000000000000 ) ;
#88 = COLOUR_RGB ( '',1.000000000000000000, 1.000000000000000000, 1.000000000000000000 ) ;
#89 =( GEOMETRIC_REPRESENTATION_CONTEXT ( 3 ) GLOBAL_UNCERTAINTY_ASSIGNED_CONTEXT ( ( #108 ) ) GLOBAL_UNIT_ASSIGNED_CONTEXT ( ( #475, #384, #206 ) ) REPRESENTATION_CONTEXT ( 'NONE', 'WORKASPACE' ) );
#90 = COLOUR_RGB ( '',0.2509803921568627416, 0.2509803921568627416, 0.2509803921568627416 ) ;
#91 = AXIS2_PLACEMENT_3D ( 'NONE', #488, #404, #1043 ) ;
#92 = SURFACE_SIDE_STYLE ('',( #818 ) ) ;
#93 = ORIENTED_EDGE ( 'NONE', *, *, #452, .F. ) ;
#94 = PLANE ( 'NONE',  #826 ) ;
#95 = FILL_AREA_STYLE_COLOUR ( '', #342 ) ;
#96 = EDGE_CURVE ( 'NONE', #359, #474, #966, .T. ) ;
#97 = LINE ( 'NONE', #786, #1081 ) ;
#98 = EDGE_CURVE ( 'NONE', #185, #270, #1046, .T. ) ;
#99 = LINE ( 'NONE', #2, #24 ) ;
#100 = ORIENTED_EDGE ( 'NONE', *, *, #34, .T. ) ;
#101 =( NAMED_UNIT ( * ) SI_UNIT ( $, .STERADIAN. ) SOLID_ANGLE_UNIT ( ) );
#102 = VERTEX_POINT ( 'NONE', #22 ) ;
#103 = DIRECTION ( 'NONE',  ( -0.000000000000000000, -1.000000000000000000, -0.000000000000000000 ) ) ;
#104 =( NAMED_UNIT ( * ) PLANE_ANGLE_UNIT ( ) SI_UNIT ( $, .RADIAN. ) );
#105 =( GEOMETRIC_REPRESENTATION_CONTEXT ( 3 ) GLOBAL_UNCERTAINTY_ASSIGNED_CONTEXT ( ( #868 ) ) GLOBAL_UNIT_ASSIGNED_CONTEXT ( ( #633, #275, #440 ) ) REPRESENTATION_CONTEXT ( 'NONE', 'WORKASPACE' ) );
#106 =( LENGTH_UNIT ( ) NAMED_UNIT ( * ) SI_UNIT ( .MILLI., .METRE. ) );
#107 =( LENGTH_UNIT ( ) NAMED_UNIT ( * ) SI_UNIT ( .MILLI., .METRE. ) );
#108 = UNCERTAINTY_MEASURE_WITH_UNIT (LENGTH_MEASURE( 1.000000000000000082E-05 ), #475, 'distance_accuracy_value', 'NONE');
#109 = LINE ( 'NONE', #969, #964 ) ;
#110 = DIRECTION ( 'NONE',  ( 0.000000000000000000, 1.000000000000000000, 0.000000000000000000 ) ) ;
#111 = DIRECTION ( 'NONE',  ( -0.000000000000000000, 0.000000000000000000, 1.000000000000000000 ) ) ;
#112 = EDGE_CURVE ( 'NONE', #146, #185, #487, .T. ) ;
#113 = CARTESIAN_POINT ( 'NONE',  ( -2.899999999999999911, 3.049999999999999822, 2.250000000000000444 ) ) ;
#114 = LINE ( 'NONE', #136, #588 ) ;
#115 = FILL_AREA_STYLE_COLOUR ( '', #549 ) ;
#116 = FILL_AREA_STYLE_COLOUR ( '', #167 ) ;
#117 = PLANE ( 'NONE',  #169 ) ;
#118 = PRESENTATION_STYLE_ASSIGNMENT (( #1139 ) ) ;
#119 = SURFACE_STYLE_FILL_AREA ( #503 ) ;
#120 = FILL_AREA_STYLE ('',( #854 ) ) ;
#121 = MANIFOLD_SOLID_BREP ( 'Boss-Extrude3[2]', #725 ) ;
#122 = CARTESIAN_POINT ( 'NONE',  ( -2.600000000000000089, 3.049999999999999822, 2.250000000000000444 ) ) ;
#123 = VECTOR ( 'NONE', #1215, 1000.000000000000000 ) ;
#124 = PRESENTATION_LAYER_ASSIGNMENT (  '', '', ( #644 ) ) ;
#125 = LINE ( 'NONE', #138, #968 ) ;
#126 = MANIFOLD_SOLID_BREP ( 'Cut-Extrude1', #602 ) ;
#127 = PRESENTATION_LAYER_ASSIGNMENT (  '', '', ( #244 ) ) ;
#128 = VECTOR ( 'NONE', #759, 1000.000000000000000 ) ;
#129 = DIRECTION ( 'NONE',  ( 0.000000000000000000, 0.000000000000000000, -1.000000000000000000 ) ) ;
#130 = DIRECTION ( 'NONE',  ( -1.000000000000000000, -0.000000000000000000, -0.000000000000000000 ) ) ;
#131 = EDGE_CURVE ( 'NONE', #158, #1022, #226, .T. ) ;
#132 = ADVANCED_FACE ( 'NONE', ( #594 ), #1190, .T. ) ;
#133 = CARTESIAN_POINT ( 'NONE',  ( -1.560000000000000497, 0.08000000000000020983, 3.000000000000000888 ) ) ;
#134 = CARTESIAN_POINT ( 'NONE',  ( -1.560000000000000497, 0.08000000000000020983, 3.000000000000000888 ) ) ;
#135 = SURFACE_STYLE_FILL_AREA ( #995 ) ;
#136 = CARTESIAN_POINT ( 'NONE',  ( -2.960000000000000409, 0.08000000000000020983, -2.999999999999999112 ) ) ;
#137 = FACE_OUTER_BOUND ( 'NONE', #1010, .T. ) ;
#138 = CARTESIAN_POINT ( 'NONE',  ( -2.960000000000000409, 0.000000000000000000, 3.000000000000000888 ) ) ;
#139 = UNCERTAINTY_MEASURE_WITH_UNIT (LENGTH_MEASURE( 1.000000000000000082E-05 ), #243, 'distance_accuracy_value', 'NONE');
#140 = VERTEX_POINT ( 'NONE', #713 ) ;
#141 = DIRECTION ( 'NONE',  ( -0.000000000000000000, -1.000000000000000000, -0.000000000000000000 ) ) ;
#142 = EDGE_CURVE ( 'NONE', #994, #153, #700, .T. ) ;
#143 = FACE_OUTER_BOUND ( 'NONE', #903, .T. ) ;
#144 = MECHANICAL_DESIGN_GEOMETRIC_PRESENTATION_REPRESENTATION (  '', ( #1207 ), #731 ) ;
#145 = PRESENTATION_LAYER_ASSIGNMENT (  '', '', ( #744 ) ) ;
#146 = VERTEX_POINT ( 'NONE', #895 ) ;
#147 = COLOUR_RGB ( '',0.7921568627450980005, 0.8196078431372548767, 0.9333333333333333481 ) ;
#148 = PRODUCT_DEFINITION_SHAPE ( 'NONE', 'NONE',  #659 ) ;
#149 = DIRECTION ( 'NONE',  ( 1.000000000000000000, -0.000000000000000000, -3.097720492815727166E-16 ) ) ;
#150 = AXIS2_PLACEMENT_3D ( 'NONE', #669, #1176, #234 ) ;
#151 = VECTOR ( 'NONE', #610, 1000.000000000000000 ) ;
#152 = DIRECTION ( 'NONE',  ( 0.000000000000000000, 0.000000000000000000, -1.000000000000000000 ) ) ;
#153 = VERTEX_POINT ( 'NONE', #340 ) ;
#154 = CARTESIAN_POINT ( 'NONE',  ( -3.449999999999999289, 0.08000000000000020983, -3.749999999999999556 ) ) ;
#155 = LINE ( 'NONE', #908, #846 ) ;
#156 = EDGE_LOOP ( 'NONE', ( #543, #236, #721, #466 ) ) ;
#157 = CYLINDRICAL_SURFACE ( 'NONE', #825, 0.2999999999999999334 ) ;
#158 = VERTEX_POINT ( 'NONE', #251 ) ;
#159 = LINE ( 'NONE', #904, #203 ) ;
#160 = ORIENTED_EDGE ( 'NONE', *, *, #273, .T. ) ;
#161 = FACE_OUTER_BOUND ( 'NONE', #439, .T. ) ;
#162 = VERTEX_POINT ( 'NONE', #238 ) ;
#163 = FILL_AREA_STYLE ('',( #436 ) ) ;
#164 = VERTEX_POINT ( 'NONE', #432 ) ;
#165 = COLOUR_RGB ( '',0.7921568627450980005, 0.8196078431372548767, 0.9333333333333333481 ) ;
#166 = ORIENTED_EDGE ( 'NONE', *, *, #667, .F. ) ;
#167 = COLOUR_RGB ( '',0.7921568627450980005, 0.8196078431372548767, 0.9333333333333333481 ) ;
#168 = AXIS2_PLACEMENT_3D ( 'NONE', #294, #658, #953 ) ;
#169 = AXIS2_PLACEMENT_3D ( 'NONE', #1047, #111, #1054 ) ;
#170 = FILL_AREA_STYLE_COLOUR ( '', #860 ) ;
#171 = EDGE_CURVE ( 'NONE', #788, #748, #155, .T. ) ;
#172 = CARTESIAN_POINT ( 'NONE',  ( 2.960000000000000409, 0.08000000000000020983, -3.000000000000000000 ) ) ;
#173 = ORIENTED_EDGE ( 'NONE', *, *, #433, .F. ) ;
#174 = DIRECTION ( 'NONE',  ( 0.000000000000000000, -0.000000000000000000, 1.000000000000000000 ) ) ;
#175 =( NAMED_UNIT ( * ) PLANE_ANGLE_UNIT ( ) SI_UNIT ( $, .RADIAN. ) );
#176 = DIRECTION ( 'NONE',  ( 0.000000000000000000, 1.000000000000000000, 0.000000000000000000 ) ) ;
#177 = FACE_OUTER_BOUND ( 'NONE', #156, .T. ) ;
#178 = ORIENTED_EDGE ( 'NONE', *, *, #171, .F. ) ;
#179 = VERTEX_POINT ( 'NONE', #60 ) ;
#180 = LINE ( 'NONE', #70, #441 ) ;
#181 = SURFACE_STYLE_USAGE ( .BOTH. , #361 ) ;
#182 = ORIENTED_EDGE ( 'NONE', *, *, #427, .F. ) ;
#183 = DIRECTION ( 'NONE',  ( 0.000000000000000000, -0.000000000000000000, 1.000000000000000000 ) ) ;
#184 = EDGE_CURVE ( 'NONE', #788, #634, #448, .T. ) ;
#185 = VERTEX_POINT ( 'NONE', #626 ) ;
#186 = SURFACE_STYLE_FILL_AREA ( #1194 ) ;
#187 = FACE_OUTER_BOUND ( 'NONE', #77, .T. ) ;
#188 = ORIENTED_EDGE ( 'NONE', *, *, #517, .F. ) ;
#189 = AXIS2_PLACEMENT_3D ( 'NONE', #122, #752, #1152 ) ;
#190 = MECHANICAL_DESIGN_GEOMETRIC_PRESENTATION_REPRESENTATION (  '', ( #1025 ), #803 ) ;
#191 = STYLED_ITEM ( 'NONE', ( #196 ), #3 ) ;
#192 = DIRECTION ( 'NONE',  ( 0.000000000000000000, 0.000000000000000000, -1.000000000000000000 ) ) ;
#193 = AXIS2_PLACEMENT_3D ( 'NONE', #638, #749, #1111 ) ;
#194 = LINE ( 'NONE', #565, #702 ) ;
#195 = SURFACE_STYLE_USAGE ( .BOTH. , #563 ) ;
#196 = PRESENTATION_STYLE_ASSIGNMENT (( #1034 ) ) ;
#197 = ORIENTED_EDGE ( 'NONE', *, *, #1103, .T. ) ;
#198 = ADVANCED_FACE ( 'NONE', ( #815 ), #1172, .F. ) ;
#199 = FILL_AREA_STYLE ('',( #844 ) ) ;
#200 = MECHANICAL_DESIGN_GEOMETRIC_PRESENTATION_REPRESENTATION (  '', ( #551 ), #437 ) ;
#201 = CARTESIAN_POINT ( 'NONE',  ( 2.960000000000000409, 0.08000000000000020983, -3.000000000000000000 ) ) ;
#202 =( GEOMETRIC_REPRESENTATION_CONTEXT ( 3 ) GLOBAL_UNCERTAINTY_ASSIGNED_CONTEXT ( ( #676 ) ) GLOBAL_UNIT_ASSIGNED_CONTEXT ( ( #1030, #400, #101 ) ) REPRESENTATION_CONTEXT ( 'NONE', 'WORKASPACE' ) );
#203 = VECTOR ( 'NONE', #415, 1000.000000000000000 ) ;
#204 = EDGE_CURVE ( 'NONE', #1005, #1134, #257, .T. ) ;
#205 = CIRCLE ( 'NONE', #990, 0.2999999999999994893 ) ;
#206 =( NAMED_UNIT ( * ) SI_UNIT ( $, .STERADIAN. ) SOLID_ANGLE_UNIT ( ) );
#207 = CARTESIAN_POINT ( 'NONE',  ( -2.600000000000000089, 3.100000000000000089, -2.249999999999999556 ) ) ;
#208 = SURFACE_SIDE_STYLE ('',( #293 ) ) ;
#209 = SURFACE_SIDE_STYLE ('',( #313 ) ) ;
#210 = CARTESIAN_POINT ( 'NONE',  ( 1.560000000000002052, 0.08000000000000020983, 3.000000000000000444 ) ) ;
#211 = SURFACE_SIDE_STYLE ('',( #1053 ) ) ;
#212 = DIRECTION ( 'NONE',  ( 0.000000000000000000, 0.000000000000000000, 1.000000000000000000 ) ) ;
#213 = LINE ( 'NONE', #1147, #438 ) ;
#214 = CARTESIAN_POINT ( 'NONE',  ( 3.750000000000000444, 3.100000000000000089, 3.449999999999999734 ) ) ;
#215 = ADVANCED_FACE ( 'NONE', ( #707 ), #618, .F. ) ;
#216 = SURFACE_STYLE_USAGE ( .BOTH. , #1154 ) ;
#217 = ADVANCED_FACE ( 'NONE', ( #915 ), #455, .F. ) ;
#218 =( LENGTH_UNIT ( ) NAMED_UNIT ( * ) SI_UNIT ( .MILLI., .METRE. ) );
#219 =( GEOMETRIC_REPRESENTATION_CONTEXT ( 3 ) GLOBAL_UNCERTAINTY_ASSIGNED_CONTEXT ( ( #1100 ) ) GLOBAL_UNIT_ASSIGNED_CONTEXT ( ( #107, #481, #486 ) ) REPRESENTATION_CONTEXT ( 'NONE', 'WORKASPACE' ) );
#220 = CARTESIAN_POINT ( 'NONE',  ( 0.000000000000000000, 0.000000000000000000, 0.000000000000000000 ) ) ;
#221 = CARTESIAN_POINT ( 'NONE',  ( -3.750000000000000000, -10.60660171779821326, 3.449999999999999734 ) ) ;
#222 = COLOUR_RGB ( '',0.2509803921568627416, 0.2509803921568627416, 0.2509803921568627416 ) ;
#223 = AXIS2_PLACEMENT_3D ( 'NONE', #857, #1138, #963 ) ;
#224 = UNCERTAINTY_MEASURE_WITH_UNIT (LENGTH_MEASURE( 1.000000000000000082E-05 ), #5, 'distance_accuracy_value', 'NONE');
#225 = DIRECTION ( 'NONE',  ( 3.097720492815726673E-16, -0.000000000000000000, 1.000000000000000000 ) ) ;
#226 = LINE ( 'NONE', #49, #319 ) ;
#227 = DIRECTION ( 'NONE',  ( -0.000000000000000000, -1.000000000000000000, -0.000000000000000000 ) ) ;
#228 = APPLICATION_PROTOCOL_DEFINITION ( 'draft international standard', 'automotive_design', 1998, #555 ) ;
#229 = DIRECTION ( 'NONE',  ( -3.614007241618347908E-17, 0.000000000000000000, 1.000000000000000000 ) ) ;
#230 = ORIENTED_EDGE ( 'NONE', *, *, #435, .F. ) ;
#231 = CARTESIAN_POINT ( 'NONE',  ( -2.600000000000000089, 3.100000000000000089, 2.250000000000000444 ) ) ;
#232 =( NAMED_UNIT ( * ) SI_UNIT ( $, .STERADIAN. ) SOLID_ANGLE_UNIT ( ) );
#233 = EDGE_CURVE ( 'NONE', #1093, #47, #1071, .T. ) ;
#234 = DIRECTION ( 'NONE',  ( 0.000000000000000000, 0.000000000000000000, -1.000000000000000000 ) ) ;
#235 = UNCERTAINTY_MEASURE_WITH_UNIT (LENGTH_MEASURE( 1.000000000000000082E-05 ), #426, 'distance_accuracy_value', 'NONE');
#236 = ORIENTED_EDGE ( 'NONE', *, *, #575, .F. ) ;
#237 = LINE ( 'NONE', #1178, #240 ) ;
#238 = CARTESIAN_POINT ( 'NONE',  ( 3.750000000000000444, 0.08000000000000020983, -3.449999999999999734 ) ) ;
#239 = SURFACE_STYLE_FILL_AREA ( #163 ) ;
#240 = VECTOR ( 'NONE', #316, 1000.000000000000000 ) ;
#241 = MECHANICAL_DESIGN_GEOMETRIC_PRESENTATION_REPRESENTATION (  '', ( #1204 ), #531 ) ;
#242 = ORIENTED_EDGE ( 'NONE', *, *, #425, .T. ) ;
#243 =( LENGTH_UNIT ( ) NAMED_UNIT ( * ) SI_UNIT ( .MILLI., .METRE. ) );
#244 = STYLED_ITEM ( 'NONE', ( #856 ), #701 ) ;
#245 = VECTOR ( 'NONE', #497, 1000.000000000000000 ) ;
#246 = AXIS2_PLACEMENT_3D ( 'NONE', #997, #504, #1169 ) ;
#247 = FILL_AREA_STYLE ('',( #536 ) ) ;
#248 = DIRECTION ( 'NONE',  ( -0.000000000000000000, -0.000000000000000000, 1.000000000000000000 ) ) ;
#249 = ORIENTED_EDGE ( 'NONE', *, *, #290, .F. ) ;
#250 = CARTESIAN_POINT ( 'NONE',  ( 3.750000000000000444, -10.60660171779821326, -3.449999999999999734 ) ) ;
#251 = CARTESIAN_POINT ( 'NONE',  ( -2.600000000000000089, 3.049999999999999822, -2.249999999999999556 ) ) ;
#252 = ORIENTED_EDGE ( 'NONE', *, *, #620, .T. ) ;
#253 = DIRECTION ( 'NONE',  ( 0.000000000000000000, 1.000000000000000000, 0.000000000000000000 ) ) ;
#254 = ADVANCED_FACE ( 'NONE', ( #1212 ), #561, .T. ) ;
#255 = ORIENTED_EDGE ( 'NONE', *, *, #1037, .T. ) ;
#256 = DIRECTION ( 'NONE',  ( -1.000000000000000000, 0.000000000000000000, -0.000000000000000000 ) ) ;
#257 = LINE ( 'NONE', #599, #1008 ) ;
#258 = ORIENTED_EDGE ( 'NONE', *, *, #295, .F. ) ;
#259 = ADVANCED_FACE ( 'NONE', ( #919 ), #84, .T. ) ;
#260 = FACE_OUTER_BOUND ( 'NONE', #737, .T. ) ;
#261 = PLANE ( 'NONE',  #246 ) ;
#262 = ORIENTED_EDGE ( 'NONE', *, *, #348, .T. ) ;
#263 =( NAMED_UNIT ( * ) SI_UNIT ( $, .STERADIAN. ) SOLID_ANGLE_UNIT ( ) );
#264 = VECTOR ( 'NONE', #326, 1000.000000000000000 ) ;
#265 = ORIENTED_EDGE ( 'NONE', *, *, #98, .T. ) ;
#266 = VECTOR ( 'NONE', #32, 1000.000000000000000 ) ;
#267 = CLOSED_SHELL ( 'NONE', ( #311, #957, #473, #1119, #80, #885 ) ) ;
#268 = ADVANCED_FACE ( 'NONE', ( #187 ), #836, .T. ) ;
#269 = CARTESIAN_POINT ( 'NONE',  ( 0.000000000000000000, 3.049999999999999822, 0.000000000000000000 ) ) ;
#270 = VERTEX_POINT ( 'NONE', #214 ) ;
#271 = ORIENTED_EDGE ( 'NONE', *, *, #184, .T. ) ;
#272 = SURFACE_STYLE_FILL_AREA ( #199 ) ;
#273 = EDGE_CURVE ( 'NONE', #733, #607, #746, .T. ) ;
#274 = ADVANCED_FACE ( 'NONE', ( #1057 ), #484, .F. ) ;
#275 =( NAMED_UNIT ( * ) PLANE_ANGLE_UNIT ( ) SI_UNIT ( $, .RADIAN. ) );
#276 = ORIENTED_EDGE ( 'NONE', *, *, #433, .T. ) ;
#277 = FILL_AREA_STYLE_COLOUR ( '', #458 ) ;
#278 = ORIENTED_EDGE ( 'NONE', *, *, #1173, .T. ) ;
#279 = EDGE_LOOP ( 'NONE', ( #372, #52, #877, #1011, #160, #913, #917, #972 ) ) ;
#280 = DIRECTION ( 'NONE',  ( -0.000000000000000000, -0.000000000000000000, 1.000000000000000000 ) ) ;
#281 = CARTESIAN_POINT ( 'NONE',  ( -3.750000000000000000, 3.100000000000000089, 3.449999999999999734 ) ) ;
#282 =( NAMED_UNIT ( * ) PLANE_ANGLE_UNIT ( ) SI_UNIT ( $, .RADIAN. ) );
#283 = VECTOR ( 'NONE', #1001, 1000.000000000000000 ) ;
#284 = AXIS2_PLACEMENT_3D ( 'NONE', #792, #411, #55 ) ;
#285 = MECHANICAL_DESIGN_GEOMETRIC_PRESENTATION_REPRESENTATION (  '', ( #644 ), #804 ) ;
#286 = SURFACE_STYLE_FILL_AREA ( #7 ) ;
#287 = VECTOR ( 'NONE', #1153, 1000.000000000000000 ) ;
#288 = ORIENTED_EDGE ( 'NONE', *, *, #386, .F. ) ;
#289 =( NAMED_UNIT ( * ) PLANE_ANGLE_UNIT ( ) SI_UNIT ( $, .RADIAN. ) );
#290 = EDGE_CURVE ( 'NONE', #958, #359, #27, .T. ) ;
#291 = VERTEX_POINT ( 'NONE', #20 ) ;
#292 =( NAMED_UNIT ( * ) SI_UNIT ( $, .STERADIAN. ) SOLID_ANGLE_UNIT ( ) );
#293 = SURFACE_STYLE_FILL_AREA ( #845 ) ;
#294 = CARTESIAN_POINT ( 'NONE',  ( 3.450000000000000622, -10.60660171779821326, 3.449999999999999734 ) ) ;
#295 = EDGE_CURVE ( 'NONE', #711, #47, #409, .T. ) ;
#296 =( NAMED_UNIT ( * ) PLANE_ANGLE_UNIT ( ) SI_UNIT ( $, .RADIAN. ) );
#297 = DIRECTION ( 'NONE',  ( 0.000000000000000000, 0.000000000000000000, 1.000000000000000000 ) ) ;
#298 = CARTESIAN_POINT ( 'NONE',  ( -2.600000000000000089, 3.049999999999999822, 2.250000000000000444 ) ) ;
#299 =( NAMED_UNIT ( * ) SI_UNIT ( $, .STERADIAN. ) SOLID_ANGLE_UNIT ( ) );
#300 = VECTOR ( 'NONE', #1114, 1000.000000000000000 ) ;
#301 = MECHANICAL_DESIGN_GEOMETRIC_PRESENTATION_REPRESENTATION (  '', ( #899 ), #985 ) ;
#302 = PRESENTATION_STYLE_ASSIGNMENT (( #673 ) ) ;
#303 = PRESENTATION_LAYER_ASSIGNMENT (  '', '', ( #341 ) ) ;
#304 = AXIS2_PLACEMENT_3D ( 'NONE', #1156, #405, #392 ) ;
#305 =( NAMED_UNIT ( * ) PLANE_ANGLE_UNIT ( ) SI_UNIT ( $, .RADIAN. ) );
#306 = DIRECTION ( 'NONE',  ( 0.000000000000000000, 1.000000000000000000, 0.000000000000000000 ) ) ;
#307 = FACE_OUTER_BOUND ( 'NONE', #1130, .T. ) ;
#308 = EDGE_CURVE ( 'NONE', #162, #733, #687, .T. ) ;
#309 = SHAPE_DEFINITION_REPRESENTATION ( #148, #701 ) ;
#310 = LINE ( 'NONE', #388, #245 ) ;
#311 = ADVANCED_FACE ( 'NONE', ( #777 ), #579, .F. ) ;
#312 = DIRECTION ( 'NONE',  ( 1.000000000000000000, 0.000000000000000000, 0.000000000000000000 ) ) ;
#313 = SURFACE_STYLE_FILL_AREA ( #120 ) ;
#314 = CARTESIAN_POINT ( 'NONE',  ( -3.750000000000000000, 0.08000000000000020983, 3.449999999999999734 ) ) ;
#315 = LINE ( 'NONE', #679, #1107 ) ;
#316 = DIRECTION ( 'NONE',  ( -1.000000000000000000, -0.000000000000000000, -0.000000000000000000 ) ) ;
#317 = PRESENTATION_STYLE_ASSIGNMENT (( #216 ) ) ;
#318 =( NAMED_UNIT ( * ) SI_UNIT ( $, .STERADIAN. ) SOLID_ANGLE_UNIT ( ) );
#319 = VECTOR ( 'NONE', #1089, 1000.000000000000000 ) ;
#320 = AXIS2_PLACEMENT_3D ( 'NONE', #354, #720, #1013 ) ;
#321 = UNCERTAINTY_MEASURE_WITH_UNIT (LENGTH_MEASURE( 1.000000000000000082E-05 ), #775, 'distance_accuracy_value', 'NONE');
#322 = ORIENTED_EDGE ( 'NONE', *, *, #37, .T. ) ;
#323 = LINE ( 'NONE', #250, #553 ) ;
#324 = SURFACE_STYLE_USAGE ( .BOTH. , #40 ) ;
#325 = UNCERTAINTY_MEASURE_WITH_UNIT (LENGTH_MEASURE( 1.000000000000000082E-05 ), #339, 'distance_accuracy_value', 'NONE');
#326 = DIRECTION ( 'NONE',  ( -1.000000000000000000, 0.000000000000000000, 0.000000000000000000 ) ) ;
#327 = DIRECTION ( 'NONE',  ( -3.097720492815727166E-16, 0.000000000000000000, -1.000000000000000000 ) ) ;
#328 = ADVANCED_FACE ( 'NONE', ( #592 ), #117, .F. ) ;
#329 = VERTEX_POINT ( 'NONE', #970 ) ;
#330 = CARTESIAN_POINT ( 'NONE',  ( 3.450000000000000622, 3.100000000000000089, -3.749999999999999556 ) ) ;
#331 = ORIENTED_EDGE ( 'NONE', *, *, #756, .F. ) ;
#332 = CARTESIAN_POINT ( 'NONE',  ( -2.960000000000000409, 0.08000000000000020983, -2.999999999999999112 ) ) ;
#333 = SURFACE_STYLE_USAGE ( .BOTH. , #695 ) ;
#334 = ORIENTED_EDGE ( 'NONE', *, *, #816, .T. ) ;
#335 = DIRECTION ( 'NONE',  ( -1.000000000000000000, -0.000000000000000000, 3.097720492815726673E-16 ) ) ;
#336 = VECTOR ( 'NONE', #397, 1000.000000000000000 ) ;
#337 = VECTOR ( 'NONE', #978, 1000.000000000000000 ) ;
#338 = VERTEX_POINT ( 'NONE', #298 ) ;
#339 =( LENGTH_UNIT ( ) NAMED_UNIT ( * ) SI_UNIT ( .MILLI., .METRE. ) );
#340 = CARTESIAN_POINT ( 'NONE',  ( -1.560000000000000275, 0.000000000000000000, -2.999999999999999556 ) ) ;
#341 = STYLED_ITEM ( 'NONE', ( #570 ), #1161 ) ;
#342 = COLOUR_RGB ( '',0.2509803921568627416, 0.2509803921568627416, 0.2509803921568627416 ) ;
#343 = VECTOR ( 'NONE', #451, 1000.000000000000000 ) ;
#344 = PRESENTATION_STYLE_ASSIGNMENT (( #195 ) ) ;
#345 = ORIENTED_EDGE ( 'NONE', *, *, #1104, .F. ) ;
#346 = ORIENTED_EDGE ( 'NONE', *, *, #420, .F. ) ;
#347 =( NAMED_UNIT ( * ) SI_UNIT ( $, .STERADIAN. ) SOLID_ANGLE_UNIT ( ) );
#348 = EDGE_CURVE ( 'NONE', #410, #102, #500, .T. ) ;
#349 = ORIENTED_EDGE ( 'NONE', *, *, #1000, .T. ) ;
#350 = DIRECTION ( 'NONE',  ( 0.000000000000000000, 0.000000000000000000, -1.000000000000000000 ) ) ;
#351 = UNCERTAINTY_MEASURE_WITH_UNIT (LENGTH_MEASURE( 1.000000000000000082E-05 ), #1050, 'distance_accuracy_value', 'NONE');
#352 = ORIENTED_EDGE ( 'NONE', *, *, #735, .T. ) ;
#353 = ORIENTED_EDGE ( 'NONE', *, *, #1051, .T. ) ;
#354 = CARTESIAN_POINT ( 'NONE',  ( 1.560000000000002052, 0.08000000000000020983, 3.000000000000000444 ) ) ;
#355 = ORIENTED_EDGE ( 'NONE', *, *, #564, .F. ) ;
#356 = ORIENTED_EDGE ( 'NONE', *, *, #816, .F. ) ;
#357 =( NAMED_UNIT ( * ) SI_UNIT ( $, .STERADIAN. ) SOLID_ANGLE_UNIT ( ) );
#358 = EDGE_LOOP ( 'NONE', ( #430, #630, #1193, #41, #265, #619, #242, #640 ) ) ;
#359 = VERTEX_POINT ( 'NONE', #207 ) ;
#360 = FACE_OUTER_BOUND ( 'NONE', #631, .T. ) ;
#361 = SURFACE_SIDE_STYLE ('',( #272 ) ) ;
#362 =( GEOMETRIC_REPRESENTATION_CONTEXT ( 3 ) GLOBAL_UNCERTAINTY_ASSIGNED_CONTEXT ( ( #691 ) ) GLOBAL_UNIT_ASSIGNED_CONTEXT ( ( #1092, #647, #802 ) ) REPRESENTATION_CONTEXT ( 'NONE', 'WORKASPACE' ) );
#363 = CIRCLE ( 'NONE', #460, 0.2999999999999999334 ) ;
#364 = ADVANCED_FACE ( 'NONE', ( #1150 ), #585, .F. ) ;
#365 = ORIENTED_EDGE ( 'NONE', *, *, #756, .T. ) ;
#366 = PRODUCT ( 'XAL7030-472MEB', 'XAL7030-472MEB', '', ( #976 ) ) ;
#367 = VECTOR ( 'NONE', #1024, 1000.000000000000000 ) ;
#368 = CARTESIAN_POINT ( 'NONE',  ( 3.450000000000001066, 0.08000000000000020983, 3.749999999999999556 ) ) ;
#369 = DIRECTION ( 'NONE',  ( -1.000000000000000000, -0.000000000000000000, 3.097720492815726673E-16 ) ) ;
#370 = APPLICATION_CONTEXT ( 'automotive_design' ) ;
#371 = SURFACE_SIDE_STYLE ('',( #429 ) ) ;
#372 = ORIENTED_EDGE ( 'NONE', *, *, #1044, .T. ) ;
#373 = SURFACE_STYLE_FILL_AREA ( #1217 ) ;
#374 = SURFACE_SIDE_STYLE ('',( #743 ) ) ;
#375 = DIRECTION ( 'NONE',  ( -1.000000000000000000, -0.000000000000000000, -0.000000000000000000 ) ) ;
#376 = SURFACE_STYLE_USAGE ( .BOTH. , #92 ) ;
#377 = ORIENTED_EDGE ( 'NONE', *, *, #981, .F. ) ;
#378 = APPLICATION_PROTOCOL_DEFINITION ( 'draft international standard', 'automotive_design', 1998, #370 ) ;
#379 =( NAMED_UNIT ( * ) PLANE_ANGLE_UNIT ( ) SI_UNIT ( $, .RADIAN. ) );
#380 =( NAMED_UNIT ( * ) SI_UNIT ( $, .STERADIAN. ) SOLID_ANGLE_UNIT ( ) );
#381 = COLOUR_RGB ( '',0.2509803921568627416, 0.2509803921568627416, 0.2509803921568627416 ) ;
#382 = LINE ( 'NONE', #654, #399 ) ;
#383 = ORIENTED_EDGE ( 'NONE', *, *, #1085, .T. ) ;
#384 =( NAMED_UNIT ( * ) PLANE_ANGLE_UNIT ( ) SI_UNIT ( $, .RADIAN. ) );
#385 = FILL_AREA_STYLE_COLOUR ( '', #398 ) ;
#386 = EDGE_CURVE ( 'NONE', #538, #933, #956, .T. ) ;
#387 = DIRECTION ( 'NONE',  ( 0.000000000000000000, -1.000000000000000000, 0.000000000000000000 ) ) ;
#388 = CARTESIAN_POINT ( 'NONE',  ( -2.899999999999999911, 3.049999999999999822, 2.250000000000000444 ) ) ;
#389 = EDGE_CURVE ( 'NONE', #840, #1005, #125, .T. ) ;
#390 = EDGE_CURVE ( 'NONE', #548, #338, #310, .T. ) ;
#391 = CARTESIAN_POINT ( 'NONE',  ( -3.449999999999999289, 3.100000000000000089, -3.449999999999999734 ) ) ;
#392 = DIRECTION ( 'NONE',  ( 0.000000000000000000, -0.000000000000000000, 1.000000000000000000 ) ) ;
#393 = EDGE_LOOP ( 'NONE', ( #608, #632, #255, #352 ) ) ;
#394 = SURFACE_STYLE_USAGE ( .BOTH. , #581 ) ;
#395 = EDGE_CURVE ( 'NONE', #329, #513, #315, .T. ) ;
#396 = COLOUR_RGB ( '',0.2509803921568627416, 0.2509803921568627416, 0.2509803921568627416 ) ;
#397 = DIRECTION ( 'NONE',  ( -0.000000000000000000, -0.000000000000000000, 1.000000000000000000 ) ) ;
#398 = COLOUR_RGB ( '',1.000000000000000000, 1.000000000000000000, 1.000000000000000000 ) ;
#399 = VECTOR ( 'NONE', #542, 1000.000000000000000 ) ;
#400 =( NAMED_UNIT ( * ) PLANE_ANGLE_UNIT ( ) SI_UNIT ( $, .RADIAN. ) );
#401 = DIRECTION ( 'NONE',  ( -1.000000000000000000, 0.000000000000000000, -0.000000000000000000 ) ) ;
#402 = LINE ( 'NONE', #593, #1143 ) ;
#403 = FACE_OUTER_BOUND ( 'NONE', #1112, .T. ) ;
#404 = DIRECTION ( 'NONE',  ( 0.000000000000000000, 0.000000000000000000, -1.000000000000000000 ) ) ;
#405 = DIRECTION ( 'NONE',  ( 0.000000000000000000, 1.000000000000000000, 0.000000000000000000 ) ) ;
#406 = UNCERTAINTY_MEASURE_WITH_UNIT (LENGTH_MEASURE( 1.000000000000000082E-05 ), #1041, 'distance_accuracy_value', 'NONE');
#407 = CARTESIAN_POINT ( 'NONE',  ( -1.560000000000000275, 0.08000000000000020983, -2.999999999999999556 ) ) ;
#408 = CARTESIAN_POINT ( 'NONE',  ( 0.000000000000000000, 0.08000000000000020983, 0.000000000000000000 ) ) ;
#409 = LINE ( 'NONE', #221, #128 ) ;
#410 = VERTEX_POINT ( 'NONE', #1060 ) ;
#411 = DIRECTION ( 'NONE',  ( 0.000000000000000000, -1.000000000000000000, 0.000000000000000000 ) ) ;
#412 = DIRECTION ( 'NONE',  ( 0.000000000000000000, 1.000000000000000000, -0.000000000000000000 ) ) ;
#413 = AXIS2_PLACEMENT_3D ( 'NONE', #444, #794, #1123 ) ;
#414 = AXIS2_PLACEMENT_3D ( 'NONE', #751, #192, #557 ) ;
#415 = DIRECTION ( 'NONE',  ( -1.000000000000000000, 0.000000000000000000, 0.000000000000000000 ) ) ;
#416 = VECTOR ( 'NONE', #30, 1000.000000000000000 ) ;
#417 = UNCERTAINTY_MEASURE_WITH_UNIT (LENGTH_MEASURE( 1.000000000000000082E-05 ), #472, 'distance_accuracy_value', 'NONE');
#418 = LINE ( 'NONE', #1121, #509 ) ;
#419 = DIRECTION ( 'NONE',  ( 0.000000000000000000, 0.000000000000000000, 1.000000000000000000 ) ) ;
#420 = EDGE_CURVE ( 'NONE', #733, #270, #36, .T. ) ;
#421 = CARTESIAN_POINT ( 'NONE',  ( 3.450000000000000622, 0.08000000000000020983, -3.449999999999999734 ) ) ;
#422 = EDGE_LOOP ( 'NONE', ( #31, #833, #443, #173 ) ) ;
#423 = PLANE ( 'NONE',  #284 ) ;
#424 = SURFACE_STYLE_USAGE ( .BOTH. , #613 ) ;
#425 = EDGE_CURVE ( 'NONE', #1196, #513, #573, .T. ) ;
#426 =( LENGTH_UNIT ( ) NAMED_UNIT ( * ) SI_UNIT ( .MILLI., .METRE. ) );
#427 = EDGE_CURVE ( 'NONE', #607, #185, #717, .T. ) ;
#428 = EDGE_LOOP ( 'NONE', ( #331, #72, #841, #936 ) ) ;
#429 = SURFACE_STYLE_FILL_AREA ( #53 ) ;
#430 = ORIENTED_EDGE ( 'NONE', *, *, #435, .T. ) ;
#431 = CARTESIAN_POINT ( 'NONE',  ( -3.449999999999999289, 0.08000000000000020983, -3.449999999999999734 ) ) ;
#432 = CARTESIAN_POINT ( 'NONE',  ( -2.600000000000000089, 3.049999999999999822, -2.249999999999999556 ) ) ;
#433 = EDGE_CURVE ( 'NONE', #153, #840, #710, .T. ) ;
#434 = FILL_AREA_STYLE_COLOUR ( '', #61 ) ;
#435 = EDGE_CURVE ( 'NONE', #719, #1093, #535, .T. ) ;
#436 = FILL_AREA_STYLE_COLOUR ( '', #396 ) ;
#437 =( GEOMETRIC_REPRESENTATION_CONTEXT ( 3 ) GLOBAL_UNCERTAINTY_ASSIGNED_CONTEXT ( ( #235 ) ) GLOBAL_UNIT_ASSIGNED_CONTEXT ( ( #426, #609, #811 ) ) REPRESENTATION_CONTEXT ( 'NONE', 'WORKASPACE' ) );
#438 = VECTOR ( 'NONE', #960, 1000.000000000000000 ) ;
#439 = EDGE_LOOP ( 'NONE', ( #188, #74, #1102, #888 ) ) ;
#440 =( NAMED_UNIT ( * ) SI_UNIT ( $, .STERADIAN. ) SOLID_ANGLE_UNIT ( ) );
#441 = VECTOR ( 'NONE', #454, 1000.000000000000000 ) ;
#442 = VECTOR ( 'NONE', #335, 1000.000000000000000 ) ;
#443 = ORIENTED_EDGE ( 'NONE', *, *, #389, .F. ) ;
#444 = CARTESIAN_POINT ( 'NONE',  ( 0.000000000000000000, 0.000000000000000000, 0.000000000000000000 ) ) ;
#445 = LINE ( 'NONE', #1087, #727 ) ;
#446 = ORIENTED_EDGE ( 'NONE', *, *, #735, .F. ) ;
#447 = FILL_AREA_STYLE_COLOUR ( '', #1027 ) ;
#448 = LINE ( 'NONE', #799, #1028 ) ;
#449 = ORIENTED_EDGE ( 'NONE', *, *, #680, .F. ) ;
#450 = ORIENTED_EDGE ( 'NONE', *, *, #942, .T. ) ;
#451 = DIRECTION ( 'NONE',  ( -0.000000000000000000, -1.000000000000000000, -0.000000000000000000 ) ) ;
#452 = EDGE_CURVE ( 'NONE', #1022, #548, #445, .T. ) ;
#453 = VERTEX_POINT ( 'NONE', #1009 ) ;
#454 = DIRECTION ( 'NONE',  ( 1.000000000000000000, 0.000000000000000000, 0.000000000000000000 ) ) ;
#455 = PLANE ( 'NONE',  #627 ) ;
#456 = CARTESIAN_POINT ( 'NONE',  ( -2.600000000000000089, 3.049999999999999822, -2.249999999999999556 ) ) ;
#457 = ORIENTED_EDGE ( 'NONE', *, *, #290, .T. ) ;
#458 = COLOUR_RGB ( '',0.2509803921568627416, 0.2509803921568627416, 0.2509803921568627416 ) ;
#459 = DIRECTION ( 'NONE',  ( 0.000000000000000000, 1.000000000000000000, 0.000000000000000000 ) ) ;
#460 = AXIS2_PLACEMENT_3D ( 'NONE', #1151, #412, #870 ) ;
#461 = EDGE_LOOP ( 'NONE', ( #1091, #1029, #709, #696 ) ) ;
#462 = STYLED_ITEM ( 'NONE', ( #1003 ), #1131 ) ;
#463 = AXIS2_PLACEMENT_3D ( 'NONE', #134, #1065, #229 ) ;
#464 = EDGE_CURVE ( 'NONE', #705, #1108, #159, .T. ) ;
#465 = PRESENTATION_STYLE_ASSIGNMENT (( #376 ) ) ;
#466 = ORIENTED_EDGE ( 'NONE', *, *, #1069, .T. ) ;
#467 = PLANE ( 'NONE',  #1082 ) ;
#468 =( NAMED_UNIT ( * ) SI_UNIT ( $, .STERADIAN. ) SOLID_ANGLE_UNIT ( ) );
#469 = FILL_AREA_STYLE ('',( #434 ) ) ;
#470 = SURFACE_SIDE_STYLE ('',( #932 ) ) ;
#471 = EDGE_CURVE ( 'NONE', #291, #634, #615, .T. ) ;
#472 =( LENGTH_UNIT ( ) NAMED_UNIT ( * ) SI_UNIT ( .MILLI., .METRE. ) );
#473 = ADVANCED_FACE ( 'NONE', ( #1164 ), #261, .F. ) ;
#474 = VERTEX_POINT ( 'NONE', #812 ) ;
#475 =( LENGTH_UNIT ( ) NAMED_UNIT ( * ) SI_UNIT ( .MILLI., .METRE. ) );
#476 = PRESENTATION_STYLE_ASSIGNMENT (( #653 ) ) ;
#477 = DIRECTION ( 'NONE',  ( 0.000000000000000000, 0.000000000000000000, -1.000000000000000000 ) ) ;
#478 = AXIS2_PLACEMENT_3D ( 'NONE', #715, #898, #886 ) ;
#479 = VECTOR ( 'NONE', #110, 1000.000000000000000 ) ;
#480 = STYLED_ITEM ( 'NONE', ( #515 ), #132 ) ;
#481 =( NAMED_UNIT ( * ) PLANE_ANGLE_UNIT ( ) SI_UNIT ( $, .RADIAN. ) );
#482 = LINE ( 'NONE', #849, #1180 ) ;
#483 = CARTESIAN_POINT ( 'NONE',  ( -2.899999999999999911, 3.049999999999999822, 2.250000000000000444 ) ) ;
#484 = PLANE ( 'NONE',  #304 ) ;
#485 = EDGE_CURVE ( 'NONE', #1086, #410, #524, .T. ) ;
#486 =( NAMED_UNIT ( * ) SI_UNIT ( $, .STERADIAN. ) SOLID_ANGLE_UNIT ( ) );
#487 = LINE ( 'NONE', #979, #64 ) ;
#488 = CARTESIAN_POINT ( 'NONE',  ( -3.449999999999999289, -10.60660171779821326, -3.749999999999999556 ) ) ;
#489 = DIRECTION ( 'NONE',  ( -0.000000000000000000, -1.000000000000000000, -0.000000000000000000 ) ) ;
#490 = DIRECTION ( 'NONE',  ( 0.000000000000000000, -0.000000000000000000, -1.000000000000000000 ) ) ;
#491 = VECTOR ( 'NONE', #949, 1000.000000000000000 ) ;
#492 = VECTOR ( 'NONE', #477, 1000.000000000000000 ) ;
#493 = CARTESIAN_POINT ( 'NONE',  ( 1.560000000000002052, 0.08000000000000020983, 3.000000000000000444 ) ) ;
#494 = PRESENTATION_LAYER_ASSIGNMENT (  '', '', ( #462 ) ) ;
#495 = VECTOR ( 'NONE', #642, 1000.000000000000000 ) ;
#496 = VECTOR ( 'NONE', #23, 1000.000000000000000 ) ;
#497 = DIRECTION ( 'NONE',  ( 1.000000000000000000, 0.000000000000000000, 0.000000000000000000 ) ) ;
#498 = LINE ( 'NONE', #973, #587 ) ;
#499 = FACE_OUTER_BOUND ( 'NONE', #820, .T. ) ;
#500 = LINE ( 'NONE', #872, #416 ) ;
#501 = EDGE_LOOP ( 'NONE', ( #1016, #893, #1175, #559 ) ) ;
#502 = SURFACE_STYLE_USAGE ( .BOTH. , #48 ) ;
#503 = FILL_AREA_STYLE ('',( #33 ) ) ;
#504 = DIRECTION ( 'NONE',  ( 1.000000000000000000, -0.000000000000000000, 0.000000000000000000 ) ) ;
#505 = ADVANCED_FACE ( 'NONE', ( #143 ), #980, .T. ) ;
#506 = CARTESIAN_POINT ( 'NONE',  ( -3.750000000000000000, 0.08000000000000020983, -3.449999999999999734 ) ) ;
#507 = MECHANICAL_DESIGN_GEOMETRIC_PRESENTATION_REPRESENTATION (  '', ( #742 ), #362 ) ;
#508 = AXIS2_PLACEMENT_3D ( 'NONE', #853, #582, #419 ) ;
#509 = VECTOR ( 'NONE', #280, 1000.000000000000000 ) ;
#510 = VECTOR ( 'NONE', #253, 1000.000000000000000 ) ;
#511 = CARTESIAN_POINT ( 'NONE',  ( -3.449999999999999289, -10.60660171779821326, 3.449999999999999734 ) ) ;
#512 = MECHANICAL_DESIGN_GEOMETRIC_PRESENTATION_REPRESENTATION (  '', ( #1084 ), #801 ) ;
#513 = VERTEX_POINT ( 'NONE', #330 ) ;
#514 =( NAMED_UNIT ( * ) SI_UNIT ( $, .STERADIAN. ) SOLID_ANGLE_UNIT ( ) );
#515 = PRESENTATION_STYLE_ASSIGNMENT (( #424 ) ) ;
#516 = FACE_OUTER_BOUND ( 'NONE', #1120, .T. ) ;
#517 = EDGE_CURVE ( 'NONE', #329, #162, #205, .T. ) ;
#518 = ORIENTED_EDGE ( 'NONE', *, *, #680, .T. ) ;
#519 =( NAMED_UNIT ( * ) PLANE_ANGLE_UNIT ( ) SI_UNIT ( $, .RADIAN. ) );
#520 = CARTESIAN_POINT ( 'NONE',  ( -2.600000000000000089, 3.049999999999999822, 2.250000000000000444 ) ) ;
#521 = ORIENTED_EDGE ( 'NONE', *, *, #46, .T. ) ;
#522 = EDGE_CURVE ( 'NONE', #711, #1075, #697, .T. ) ;
#523 = ORIENTED_EDGE ( 'NONE', *, *, #772, .F. ) ;
#524 = LINE ( 'NONE', #58, #283 ) ;
#525 = ORIENTED_EDGE ( 'NONE', *, *, #784, .T. ) ;
#526 = CARTESIAN_POINT ( 'NONE',  ( -2.899999999999999911, 3.100000000000000089, 2.250000000000000444 ) ) ;
#527 = DIRECTION ( 'NONE',  ( 0.000000000000000000, 0.000000000000000000, -1.000000000000000000 ) ) ;
#528 = MANIFOLD_SOLID_BREP ( 'Boss-Extrude2', #623 ) ;
#529 = COLOUR_RGB ( '',0.2509803921568627416, 0.2509803921568627416, 0.2509803921568627416 ) ;
#530 = ORIENTED_EDGE ( 'NONE', *, *, #575, .T. ) ;
#531 =( GEOMETRIC_REPRESENTATION_CONTEXT ( 3 ) GLOBAL_UNCERTAINTY_ASSIGNED_CONTEXT ( ( #321 ) ) GLOBAL_UNIT_ASSIGNED_CONTEXT ( ( #775, #675, #232 ) ) REPRESENTATION_CONTEXT ( 'NONE', 'WORKASPACE' ) );
#532 = ORIENTED_EDGE ( 'NONE', *, *, #308, .F. ) ;
#533 = LINE ( 'NONE', #821, #1205 ) ;
#534 = SURFACE_STYLE_FILL_AREA ( #56 ) ;
#535 = CIRCLE ( 'NONE', #43, 0.2999999999999999334 ) ;
#536 = FILL_AREA_STYLE_COLOUR ( '', #529 ) ;
#537 = LINE ( 'NONE', #911, #343 ) ;
#538 = VERTEX_POINT ( 'NONE', #1015 ) ;
#539 = EDGE_LOOP ( 'NONE', ( #100, #356, #718, #616 ) ) ;
#540 = DIRECTION ( 'NONE',  ( -1.000000000000000000, 0.000000000000000000, -0.000000000000000000 ) ) ;
#541 = ORIENTED_EDGE ( 'NONE', *, *, #1214, .F. ) ;
#542 = DIRECTION ( 'NONE',  ( -0.000000000000000000, 1.000000000000000000, -0.000000000000000000 ) ) ;
#543 = ORIENTED_EDGE ( 'NONE', *, *, #875, .T. ) ;
#544 = DIRECTION ( 'NONE',  ( -1.000000000000000000, 0.000000000000000000, 2.891205793294678326E-16 ) ) ;
#545 = DIRECTION ( 'NONE',  ( 0.000000000000000000, 0.000000000000000000, 1.000000000000000000 ) ) ;
#546 = ADVANCED_FACE ( 'NONE', ( #516 ), #82, .F. ) ;
#547 = FACE_OUTER_BOUND ( 'NONE', #780, .T. ) ;
#548 = VERTEX_POINT ( 'NONE', #1127 ) ;
#549 = COLOUR_RGB ( '',1.000000000000000000, 1.000000000000000000, 1.000000000000000000 ) ;
#550 = FACE_BOUND ( 'NONE', #1177, .T. ) ;
#551 = STYLED_ITEM ( 'NONE', ( #344 ), #848 ) ;
#552 = EDGE_CURVE ( 'NONE', #164, #359, #558, .T. ) ;
#553 = VECTOR ( 'NONE', #779, 1000.000000000000000 ) ;
#554 = VECTOR ( 'NONE', #867, 1000.000000000000000 ) ;
#555 = APPLICATION_CONTEXT ( 'automotive_design' ) ;
#556 = STYLED_ITEM ( 'NONE', ( #302 ), #683 ) ;
#557 = DIRECTION ( 'NONE',  ( -1.000000000000000000, 0.000000000000000000, -0.000000000000000000 ) ) ;
#558 = LINE ( 'NONE', #456, #123 ) ;
#559 = ORIENTED_EDGE ( 'NONE', *, *, #171, .T. ) ;
#560 = LINE ( 'NONE', #483, #479 ) ;
#561 = PLANE ( 'NONE',  #902 ) ;
#562 = EDGE_LOOP ( 'NONE', ( #262, #1077, #741, #883 ) ) ;
#563 = SURFACE_SIDE_STYLE ('',( #1174 ) ) ;
#564 = EDGE_CURVE ( 'NONE', #705, #179, #9, .T. ) ;
#565 = CARTESIAN_POINT ( 'NONE',  ( -2.600000000000000089, 3.049999999999999822, 2.250000000000000444 ) ) ;
#566 = ORIENTED_EDGE ( 'NONE', *, *, #1044, .F. ) ;
#567 = CARTESIAN_POINT ( 'NONE',  ( 3.750000000000000444, 3.100000000000000089, -3.449999999999999734 ) ) ;
#568 = PLANE ( 'NONE',  #1080 ) ;
#569 = LINE ( 'NONE', #1155, #1023 ) ;
#570 = PRESENTATION_STYLE_ASSIGNMENT (( #943 ) ) ;
#571 = PRESENTATION_STYLE_ASSIGNMENT (( #1042 ) ) ;
#572 = VECTOR ( 'NONE', #1110, 1000.000000000000000 ) ;
#573 = CIRCLE ( 'NONE', #150, 0.2999999999999994893 ) ;
#574 = AXIS2_PLACEMENT_3D ( 'NONE', #977, #489, #577 ) ;
#575 = EDGE_CURVE ( 'NONE', #1022, #920, #99, .T. ) ;
#576 = LINE ( 'NONE', #1149, #336 ) ;
#577 = DIRECTION ( 'NONE',  ( -4.336808689942024836E-15, 0.000000000000000000, 1.000000000000000000 ) ) ;
#578 = DIRECTION ( 'NONE',  ( 0.000000000000000000, -1.000000000000000000, 0.000000000000000000 ) ) ;
#579 = PLANE ( 'NONE',  #463 ) ;
#580 = ORIENTED_EDGE ( 'NONE', *, *, #603, .F. ) ;
#581 = SURFACE_SIDE_STYLE ('',( #852 ) ) ;
#582 = DIRECTION ( 'NONE',  ( 0.000000000000000000, 1.000000000000000000, 0.000000000000000000 ) ) ;
#583 = DIRECTION ( 'NONE',  ( 0.000000000000000000, -1.000000000000000000, 0.000000000000000000 ) ) ;
#584 =( NAMED_UNIT ( * ) SI_UNIT ( $, .STERADIAN. ) SOLID_ANGLE_UNIT ( ) );
#585 = PLANE ( 'NONE',  #604 ) ;
#586 = DIRECTION ( 'NONE',  ( -0.000000000000000000, -1.000000000000000000, -0.000000000000000000 ) ) ;
#587 = VECTOR ( 'NONE', #889, 1000.000000000000000 ) ;
#588 = VECTOR ( 'NONE', #586, 1000.000000000000000 ) ;
#589 = DIRECTION ( 'NONE',  ( -0.000000000000000000, -0.000000000000000000, 1.000000000000000000 ) ) ;
#590 = AXIS2_PLACEMENT_3D ( 'NONE', #914, #544, #1020 ) ;
#591 = MECHANICAL_DESIGN_GEOMETRIC_PRESENTATION_REPRESENTATION (  '', ( #1146 ), #10 ) ;
#592 = FACE_OUTER_BOUND ( 'NONE', #998, .T. ) ;
#593 = CARTESIAN_POINT ( 'NONE',  ( -2.600000000000000089, 3.049999999999999822, 2.250000000000000444 ) ) ;
#594 = FACE_OUTER_BOUND ( 'NONE', #393, .T. ) ;
#595 = ADVANCED_FACE ( 'NONE', ( #930 ), #824, .T. ) ;
#596 = CARTESIAN_POINT ( 'NONE',  ( -1.560000000000000497, 0.08000000000000020983, 3.000000000000000888 ) ) ;
#597 = PRESENTATION_STYLE_ASSIGNMENT (( #807 ) ) ;
#598 = LINE ( 'NONE', #774, #264 ) ;
#599 = CARTESIAN_POINT ( 'NONE',  ( -2.960000000000000409, 0.000000000000000000, 3.000000000000000888 ) ) ;
#600 = PLANE ( 'NONE',  #413 ) ;
#601 = AXIS2_PLACEMENT_3D ( 'NONE', #332, #225, #785 ) ;
#602 = CLOSED_SHELL ( 'NONE', ( #897, #646, #1131, #831, #16, #259, #505, #254, #1161, #848, #198, #328, #364, #1, #546 ) ) ;
#603 = EDGE_CURVE ( 'NONE', #338, #410, #382, .T. ) ;
#604 = AXIS2_PLACEMENT_3D ( 'NONE', #850, #401, #771 ) ;
#605 = ORIENTED_EDGE ( 'NONE', *, *, #142, .T. ) ;
#606 = DIRECTION ( 'NONE',  ( 0.000000000000000000, 0.000000000000000000, 1.000000000000000000 ) ) ;
#607 = VERTEX_POINT ( 'NONE', #368 ) ;
#608 = ORIENTED_EDGE ( 'NONE', *, *, #96, .F. ) ;
#609 =( NAMED_UNIT ( * ) PLANE_ANGLE_UNIT ( ) SI_UNIT ( $, .RADIAN. ) );
#610 = DIRECTION ( 'NONE',  ( 3.252606517456513302E-16, -0.000000000000000000, 1.000000000000000000 ) ) ;
#611 = ORIENTED_EDGE ( 'NONE', *, *, #86, .F. ) ;
#612 = CARTESIAN_POINT ( 'NONE',  ( 2.960000000000002185, 0.000000000000000000, 3.000000000000000000 ) ) ;
#613 = SURFACE_SIDE_STYLE ('',( #534 ) ) ;
#614 = ORIENTED_EDGE ( 'NONE', *, *, #204, .T. ) ;
#615 = LINE ( 'NONE', #690, #151 ) ;
#616 = ORIENTED_EDGE ( 'NONE', *, *, #564, .T. ) ;
#617 = SURFACE_SIDE_STYLE ('',( #186 ) ) ;
#618 = PLANE ( 'NONE',  #320 ) ;
#619 = ORIENTED_EDGE ( 'NONE', *, *, #901, .T. ) ;
#620 = EDGE_CURVE ( 'NONE', #338, #158, #194, .T. ) ;
#621 = LINE ( 'NONE', #1168, #878 ) ;
#622 = UNCERTAINTY_MEASURE_WITH_UNIT (LENGTH_MEASURE( 1.000000000000000082E-05 ), #959, 'distance_accuracy_value', 'NONE');
#623 = CLOSED_SHELL ( 'NONE', ( #683, #916, #268, #132, #1038, #3 ) ) ;
#624 = ORIENTED_EDGE ( 'NONE', *, *, #722, .T. ) ;
#625 = CARTESIAN_POINT ( 'NONE',  ( -1.560000000000000497, 0.000000000000000000, 3.000000000000000888 ) ) ;
#626 = CARTESIAN_POINT ( 'NONE',  ( 3.450000000000000622, 3.100000000000000089, 3.749999999999999556 ) ) ;
#627 = AXIS2_PLACEMENT_3D ( 'NONE', #822, #327, #693 ) ;
#628 = ORIENTED_EDGE ( 'NONE', *, *, #865, .F. ) ;
#629 = EDGE_CURVE ( 'NONE', #1134, #153, #723, .T. ) ;
#630 = ORIENTED_EDGE ( 'NONE', *, *, #233, .T. ) ;
#631 = EDGE_LOOP ( 'NONE', ( #365, #355, #1036, #518 ) ) ;
#632 = ORIENTED_EDGE ( 'NONE', *, *, #552, .F. ) ;
#633 =( LENGTH_UNIT ( ) NAMED_UNIT ( * ) SI_UNIT ( .MILLI., .METRE. ) );
#634 = VERTEX_POINT ( 'NONE', #1117 ) ;
#635 = EDGE_CURVE ( 'NONE', #140, #1005, #537, .T. ) ;
#636 = DIRECTION ( 'NONE',  ( 0.000000000000000000, -1.000000000000000000, 0.000000000000000000 ) ) ;
#637 = CARTESIAN_POINT ( 'NONE',  ( -2.960000000000000409, 0.08000000000000020983, 3.000000000000000888 ) ) ;
#638 = CARTESIAN_POINT ( 'NONE',  ( -3.449999999999999289, -10.60660171779821326, 3.749999999999999556 ) ) ;
#639 = ORIENTED_EDGE ( 'NONE', *, *, #485, .F. ) ;
#640 = ORIENTED_EDGE ( 'NONE', *, *, #865, .T. ) ;
#641 = VECTOR ( 'NONE', #776, 1000.000000000000000 ) ;
#642 = DIRECTION ( 'NONE',  ( -0.000000000000000000, -0.000000000000000000, 1.000000000000000000 ) ) ;
#643 = COLOUR_RGB ( '',1.000000000000000000, 1.000000000000000000, 1.000000000000000000 ) ;
#644 = STYLED_ITEM ( 'NONE', ( #666 ), #16 ) ;
#645 = ORIENTED_EDGE ( 'NONE', *, *, #766, .F. ) ;
#646 = ADVANCED_FACE ( 'NONE', ( #547 ), #922, .T. ) ;
#647 =( NAMED_UNIT ( * ) PLANE_ANGLE_UNIT ( ) SI_UNIT ( $, .RADIAN. ) );
#648 = CIRCLE ( 'NONE', #1048, 0.2999999999999999334 ) ;
#649 = PRESENTATION_LAYER_ASSIGNMENT (  '', '', ( #1207 ) ) ;
#650 = SURFACE_SIDE_STYLE ('',( #286 ) ) ;
#651 = ORIENTED_EDGE ( 'NONE', *, *, #694, .F. ) ;
#652 = DIRECTION ( 'NONE',  ( 0.000000000000000000, 1.000000000000000000, 0.000000000000000000 ) ) ;
#653 = SURFACE_STYLE_USAGE ( .BOTH. , #374 ) ;
#654 = CARTESIAN_POINT ( 'NONE',  ( -2.600000000000000089, 3.049999999999999822, 2.250000000000000444 ) ) ;
#655 = ORIENTED_EDGE ( 'NONE', *, *, #420, .T. ) ;
#656 = CARTESIAN_POINT ( 'NONE',  ( -2.960000000000000409, 0.08000000000000020983, -2.999999999999999112 ) ) ;
#657 = PRESENTATION_STYLE_ASSIGNMENT (( #1021 ) ) ;
#658 = DIRECTION ( 'NONE',  ( 0.000000000000000000, 1.000000000000000000, 0.000000000000000000 ) ) ;
#659 = PRODUCT_DEFINITION ( 'UNKNOWN', '', #879, #1072 ) ;
#660 = LINE ( 'NONE', #493, #858 ) ;
#661 = DIRECTION ( 'NONE',  ( 0.000000000000000000, 1.000000000000000000, 0.000000000000000000 ) ) ;
#662 = CARTESIAN_POINT ( 'NONE',  ( -3.449999999999999289, 0.08000000000000020983, 3.750000000000000000 ) ) ;
#663 = CARTESIAN_POINT ( 'NONE',  ( -2.899999999999999911, 3.100000000000000089, 2.250000000000000444 ) ) ;
#664 = PRESENTATION_LAYER_ASSIGNMENT (  '', '', ( #25 ) ) ;
#665 = AXIS2_PLACEMENT_3D ( 'NONE', #637, #894, #256 ) ;
#666 = PRESENTATION_STYLE_ASSIGNMENT (( #677 ) ) ;
#667 = EDGE_CURVE ( 'NONE', #548, #1086, #757, .T. ) ;
#668 = FILL_AREA_STYLE ('',( #116 ) ) ;
#669 = CARTESIAN_POINT ( 'NONE',  ( 3.450000000000000622, 3.100000000000000089, -3.449999999999999734 ) ) ;
#670 = UNCERTAINTY_MEASURE_WITH_UNIT (LENGTH_MEASURE( 1.000000000000000082E-05 ), #842, 'distance_accuracy_value', 'NONE');
#671 = FILL_AREA_STYLE ('',( #769 ) ) ;
#672 = PLANE ( 'NONE',  #1182 ) ;
#673 = SURFACE_STYLE_USAGE ( .BOTH. , #1141 ) ;
#674 = CARTESIAN_POINT ( 'NONE',  ( -2.899999999999999911, 3.049999999999999822, 2.250000000000000444 ) ) ;
#675 =( NAMED_UNIT ( * ) PLANE_ANGLE_UNIT ( ) SI_UNIT ( $, .RADIAN. ) );
#676 = UNCERTAINTY_MEASURE_WITH_UNIT (LENGTH_MEASURE( 1.000000000000000082E-05 ), #1030, 'distance_accuracy_value', 'NONE');
#677 = SURFACE_STYLE_USAGE ( .BOTH. , #209 ) ;
#678 = LINE ( 'NONE', #35, #491 ) ;
#679 = CARTESIAN_POINT ( 'NONE',  ( 3.450000000000000622, -10.60660171779821326, -3.749999999999999556 ) ) ;
#680 = EDGE_CURVE ( 'NONE', #748, #896, #1059, .T. ) ;
#681 = UNCERTAINTY_MEASURE_WITH_UNIT (LENGTH_MEASURE( 1.000000000000000082E-05 ), #106, 'distance_accuracy_value', 'NONE');
#682 = FACE_OUTER_BOUND ( 'NONE', #85, .T. ) ;
#683 = ADVANCED_FACE ( 'NONE', ( #1136 ), #770, .T. ) ;
#684 = STYLED_ITEM ( 'NONE', ( #317 ), #126 ) ;
#685 = LINE ( 'NONE', #1063, #1125 ) ;
#686 = STYLED_ITEM ( 'NONE', ( #657 ), #259 ) ;
#687 = LINE ( 'NONE', #15, #806 ) ;
#688 = LINE ( 'NONE', #869, #266 ) ;
#689 = DIRECTION ( 'NONE',  ( 1.000000000000000000, 0.000000000000000000, 0.000000000000000000 ) ) ;
#690 = CARTESIAN_POINT ( 'NONE',  ( 1.560000000000002052, 0.000000000000000000, 3.000000000000000444 ) ) ;
#691 = UNCERTAINTY_MEASURE_WITH_UNIT (LENGTH_MEASURE( 1.000000000000000082E-05 ), #1092, 'distance_accuracy_value', 'NONE');
#692 = DIRECTION ( 'NONE',  ( 1.000000000000000000, -0.000000000000000000, -3.097720492815727166E-16 ) ) ;
#693 = DIRECTION ( 'NONE',  ( -1.000000000000000000, 0.000000000000000000, 3.097720492815727166E-16 ) ) ;
#694 = EDGE_CURVE ( 'NONE', #1108, #788, #660, .T. ) ;
#695 = SURFACE_SIDE_STYLE ('',( #1099 ) ) ;
#696 = ORIENTED_EDGE ( 'NONE', *, *, #1074, .T. ) ;
#697 = LINE ( 'NONE', #992, #927 ) ;
#698 = ORIENTED_EDGE ( 'NONE', *, *, #1202, .F. ) ;
#699 = FACE_OUTER_BOUND ( 'NONE', #1199, .T. ) ;
#700 = LINE ( 'NONE', #79, #862 ) ;
#701 = ADVANCED_BREP_SHAPE_REPRESENTATION ( 'XAL7030-472MEB', ( #126, #528, #934, #121, #805 ), #89 ) ;
#702 = VECTOR ( 'NONE', #75, 1000.000000000000000 ) ;
#703 = DIRECTION ( 'NONE',  ( 0.000000000000000000, 1.000000000000000000, -0.000000000000000000 ) ) ;
#704 = COLOUR_RGB ( '',0.7921568627450980005, 0.8196078431372548767, 0.9333333333333333481 ) ;
#705 = VERTEX_POINT ( 'NONE', #201 ) ;
#706 = DIRECTION ( 'NONE',  ( 0.000000000000000000, 0.000000000000000000, 1.000000000000000000 ) ) ;
#707 = FACE_OUTER_BOUND ( 'NONE', #906, .T. ) ;
#708 = ORIENTED_EDGE ( 'NONE', *, *, #522, .F. ) ;
#709 = ORIENTED_EDGE ( 'NONE', *, *, #784, .F. ) ;
#710 = LINE ( 'NONE', #796, #442 ) ;
#711 = VERTEX_POINT ( 'NONE', #314 ) ;
#712 = DIRECTION ( 'NONE',  ( 0.000000000000000000, 1.000000000000000000, 0.000000000000000000 ) ) ;
#713 = CARTESIAN_POINT ( 'NONE',  ( -2.960000000000000409, 0.08000000000000020983, 3.000000000000000888 ) ) ;
#714 = ORIENTED_EDGE ( 'NONE', *, *, #1085, .F. ) ;
#715 = CARTESIAN_POINT ( 'NONE',  ( 0.000000000000000000, 0.08000000000000000167, 0.000000000000000000 ) ) ;
#716 = ORIENTED_EDGE ( 'NONE', *, *, #348, .F. ) ;
#717 = LINE ( 'NONE', #783, #510 ) ;
#718 = ORIENTED_EDGE ( 'NONE', *, *, #464, .F. ) ;
#719 = VERTEX_POINT ( 'NONE', #767 ) ;
#720 = DIRECTION ( 'NONE',  ( 1.000000000000000000, 0.000000000000000000, -3.252606517456513302E-16 ) ) ;
#721 = ORIENTED_EDGE ( 'NONE', *, *, #131, .F. ) ;
#722 = EDGE_CURVE ( 'NONE', #474, #797, #576, .T. ) ;
#723 = LINE ( 'NONE', #732, #300 ) ;
#724 = AXIS2_PLACEMENT_3D ( 'NONE', #1083, #838, #350 ) ;
#725 = CLOSED_SHELL ( 'NONE', ( #1129, #1140, #215, #217, #595, #274 ) ) ;
#726 = ORIENTED_EDGE ( 'NONE', *, *, #942, .F. ) ;
#727 = VECTOR ( 'NONE', #248, 1000.000000000000000 ) ;
#728 = EDGE_LOOP ( 'NONE', ( #59, #1197, #645, #521 ) ) ;
#729 = CARTESIAN_POINT ( 'NONE',  ( 1.560000000000000275, 0.08000000000000020983, -3.000000000000000000 ) ) ;
#730 = FILL_AREA_STYLE ('',( #95 ) ) ;
#731 =( GEOMETRIC_REPRESENTATION_CONTEXT ( 3 ) GLOBAL_UNCERTAINTY_ASSIGNED_CONTEXT ( ( #790 ) ) GLOBAL_UNIT_ASSIGNED_CONTEXT ( ( #1187, #68, #1101 ) ) REPRESENTATION_CONTEXT ( 'NONE', 'WORKASPACE' ) );
#732 = CARTESIAN_POINT ( 'NONE',  ( -1.560000000000000497, 0.000000000000000000, 3.000000000000000888 ) ) ;
#733 = VERTEX_POINT ( 'NONE', #962 ) ;
#734 = DIRECTION ( 'NONE',  ( 1.000000000000000000, 0.000000000000000000, -0.000000000000000000 ) ) ;
#735 = EDGE_CURVE ( 'NONE', #538, #474, #569, .T. ) ;
#736 = PRESENTATION_STYLE_ASSIGNMENT (( #747 ) ) ;
#737 = EDGE_LOOP ( 'NONE', ( #566, #62, #230, #800 ) ) ;
#738 = SURFACE_SIDE_STYLE ('',( #373 ) ) ;
#739 =( LENGTH_UNIT ( ) NAMED_UNIT ( * ) SI_UNIT ( .MILLI., .METRE. ) );
#740 = FILL_AREA_STYLE ('',( #277 ) ) ;
#741 = ORIENTED_EDGE ( 'NONE', *, *, #620, .F. ) ;
#742 = STYLED_ITEM ( 'NONE', ( #50 ), #831 ) ;
#743 = SURFACE_STYLE_FILL_AREA ( #1218 ) ;
#744 = STYLED_ITEM ( 'NONE', ( #118 ), #897 ) ;
#745 = COLOUR_RGB ( '',0.7921568627450980005, 0.8196078431372548767, 0.9333333333333333481 ) ;
#746 = CIRCLE ( 'NONE', #574, 0.2999999999999994893 ) ;
#747 = SURFACE_STYLE_USAGE ( .BOTH. , #371 ) ;
#748 = VERTEX_POINT ( 'NONE', #866 ) ;
#749 = DIRECTION ( 'NONE',  ( 0.000000000000000000, 0.000000000000000000, 1.000000000000000000 ) ) ;
#750 = DIRECTION ( 'NONE',  ( 0.000000000000000000, 0.000000000000000000, 1.000000000000000000 ) ) ;
#751 = CARTESIAN_POINT ( 'NONE',  ( -2.899999999999999911, 3.049999999999999822, -2.249999999999999556 ) ) ;
#752 = DIRECTION ( 'NONE',  ( 1.000000000000000000, -0.000000000000000000, 0.000000000000000000 ) ) ;
#753 = DIRECTION ( 'NONE',  ( 0.000000000000000000, -0.000000000000000000, -1.000000000000000000 ) ) ;
#754 =( NAMED_UNIT ( * ) SI_UNIT ( $, .STERADIAN. ) SOLID_ANGLE_UNIT ( ) );
#755 = DIRECTION ( 'NONE',  ( 0.000000000000000000, 1.000000000000000000, 0.000000000000000000 ) ) ;
#756 = EDGE_CURVE ( 'NONE', #896, #179, #678, .T. ) ;
#757 = LINE ( 'NONE', #29, #1148 ) ;
#758 = CARTESIAN_POINT ( 'NONE',  ( -3.449999999999999289, 0.08000000000000020983, 3.449999999999999734 ) ) ;
#759 = DIRECTION ( 'NONE',  ( 0.000000000000000000, 1.000000000000000000, 0.000000000000000000 ) ) ;
#760 = PRESENTATION_STYLE_ASSIGNMENT (( #394 ) ) ;
#761 = VECTOR ( 'NONE', #375, 1000.000000000000000 ) ;
#762 = VECTOR ( 'NONE', #130, 1000.000000000000000 ) ;
#763 = VECTOR ( 'NONE', #141, 1000.000000000000000 ) ;
#764 = PRESENTATION_LAYER_ASSIGNMENT (  '', '', ( #1206 ) ) ;
#765 = PRESENTATION_LAYER_ASSIGNMENT (  '', '', ( #556 ) ) ;
#766 = EDGE_CURVE ( 'NONE', #1198, #140, #109, .T. ) ;
#767 = CARTESIAN_POINT ( 'NONE',  ( -3.449999999999999289, 3.100000000000000089, -3.749999999999999556 ) ) ;
#768 = DIRECTION ( 'NONE',  ( -0.000000000000000000, 0.000000000000000000, 1.000000000000000000 ) ) ;
#769 = FILL_AREA_STYLE_COLOUR ( '', #147 ) ;
#770 = PLANE ( 'NONE',  #189 ) ;
#771 = DIRECTION ( 'NONE',  ( -0.000000000000000000, 0.000000000000000000, 1.000000000000000000 ) ) ;
#772 = EDGE_CURVE ( 'NONE', #1075, #1093, #482, .T. ) ;
#773 = ORIENTED_EDGE ( 'NONE', *, *, #131, .T. ) ;
#774 = CARTESIAN_POINT ( 'NONE',  ( -3.449999999999999289, 0.08000000000000020983, 3.749999999999999556 ) ) ;
#775 =( LENGTH_UNIT ( ) NAMED_UNIT ( * ) SI_UNIT ( .MILLI., .METRE. ) );
#776 = DIRECTION ( 'NONE',  ( 3.614007241618347908E-17, 0.000000000000000000, -1.000000000000000000 ) ) ;
#777 = FACE_OUTER_BOUND ( 'NONE', #461, .T. ) ;
#778 = EDGE_LOOP ( 'NONE', ( #614, #1162, #345, #69 ) ) ;
#779 = DIRECTION ( 'NONE',  ( 0.000000000000000000, 1.000000000000000000, 0.000000000000000000 ) ) ;
#780 = EDGE_LOOP ( 'NONE', ( #377, #322, #628, #817 ) ) ;
#781 = MECHANICAL_DESIGN_GEOMETRIC_PRESENTATION_REPRESENTATION (  '', ( #462 ), #105 ) ;
#782 = MECHANICAL_DESIGN_GEOMETRIC_PRESENTATION_REPRESENTATION (  '', ( #480 ), #1163 ) ;
#783 = CARTESIAN_POINT ( 'NONE',  ( 3.450000000000000622, -10.60660171779821326, 3.749999999999999556 ) ) ;
#784 = EDGE_CURVE ( 'NONE', #1109, #994, #1052, .T. ) ;
#785 = DIRECTION ( 'NONE',  ( 1.000000000000000000, 0.000000000000000000, -3.097720492815726673E-16 ) ) ;
#786 = CARTESIAN_POINT ( 'NONE',  ( 2.960000000000000409, 0.000000000000000000, -3.000000000000000000 ) ) ;
#787 = LINE ( 'NONE', #66, #761 ) ;
#788 = VERTEX_POINT ( 'NONE', #210 ) ;
#789 = DIRECTION ( 'NONE',  ( -0.000000000000000000, -1.000000000000000000, -0.000000000000000000 ) ) ;
#790 = UNCERTAINTY_MEASURE_WITH_UNIT (LENGTH_MEASURE( 1.000000000000000082E-05 ), #1187, 'distance_accuracy_value', 'NONE');
#791 = ORIENTED_EDGE ( 'NONE', *, *, #96, .T. ) ;
#792 = CARTESIAN_POINT ( 'NONE',  ( 0.000000000000000000, 3.049999999999999822, 0.000000000000000000 ) ) ;
#793 = DIRECTION ( 'NONE',  ( -0.000000000000000000, -1.000000000000000000, -0.000000000000000000 ) ) ;
#794 = DIRECTION ( 'NONE',  ( 0.000000000000000000, -1.000000000000000000, 0.000000000000000000 ) ) ;
#795 = ORIENTED_EDGE ( 'NONE', *, *, #1214, .T. ) ;
#796 = CARTESIAN_POINT ( 'NONE',  ( -2.960000000000000409, 0.000000000000000000, -2.999999999999999112 ) ) ;
#797 = VERTEX_POINT ( 'NONE', #975 ) ;
#798 = DIRECTION ( 'NONE',  ( -0.000000000000000000, -1.000000000000000000, -0.000000000000000000 ) ) ;
#799 = CARTESIAN_POINT ( 'NONE',  ( 1.560000000000002052, 0.08000000000000020983, 3.000000000000000444 ) ) ;
#800 = ORIENTED_EDGE ( 'NONE', *, *, #37, .F. ) ;
#801 =( GEOMETRIC_REPRESENTATION_CONTEXT ( 3 ) GLOBAL_UNCERTAINTY_ASSIGNED_CONTEXT ( ( #971 ) ) GLOBAL_UNIT_ASSIGNED_CONTEXT ( ( #839, #935, #318 ) ) REPRESENTATION_CONTEXT ( 'NONE', 'WORKASPACE' ) );
#802 =( NAMED_UNIT ( * ) SI_UNIT ( $, .STERADIAN. ) SOLID_ANGLE_UNIT ( ) );
#803 =( GEOMETRIC_REPRESENTATION_CONTEXT ( 3 ) GLOBAL_UNCERTAINTY_ASSIGNED_CONTEXT ( ( #325 ) ) GLOBAL_UNIT_ASSIGNED_CONTEXT ( ( #339, #519, #514 ) ) REPRESENTATION_CONTEXT ( 'NONE', 'WORKASPACE' ) );
#804 =( GEOMETRIC_REPRESENTATION_CONTEXT ( 3 ) GLOBAL_UNCERTAINTY_ASSIGNED_CONTEXT ( ( #1126 ) ) GLOBAL_UNIT_ASSIGNED_CONTEXT ( ( #739, #282, #380 ) ) REPRESENTATION_CONTEXT ( 'NONE', 'WORKASPACE' ) );
#805 = AXIS2_PLACEMENT_3D ( 'NONE', #220, #51, #1064 ) ;
#806 = VECTOR ( 'NONE', #768, 1000.000000000000000 ) ;
#807 = SURFACE_STYLE_USAGE ( .BOTH. , #1094 ) ;
#808 = ORIENTED_EDGE ( 'NONE', *, *, #233, .F. ) ;
#809 = CARTESIAN_POINT ( 'NONE',  ( -1.560000000000000497, 0.08000000000000020983, 3.000000000000000888 ) ) ;
#810 = ORIENTED_EDGE ( 'NONE', *, *, #722, .F. ) ;
#811 =( NAMED_UNIT ( * ) SI_UNIT ( $, .STERADIAN. ) SOLID_ANGLE_UNIT ( ) );
#812 = CARTESIAN_POINT ( 'NONE',  ( -2.899999999999999911, 3.100000000000000089, -2.249999999999999556 ) ) ;
#813 = ORIENTED_EDGE ( 'NONE', *, *, #112, .F. ) ;
#814 = FACE_OUTER_BOUND ( 'NONE', #778, .T. ) ;
#815 = FACE_OUTER_BOUND ( 'NONE', #562, .T. ) ;
#816 = EDGE_CURVE ( 'NONE', #1108, #291, #685, .T. ) ;
#817 = ORIENTED_EDGE ( 'NONE', *, *, #395, .F. ) ;
#818 = SURFACE_STYLE_FILL_AREA ( #740 ) ;
#819 = ORIENTED_EDGE ( 'NONE', *, *, #1090, .F. ) ;
#820 = EDGE_LOOP ( 'NONE', ( #525, #81, #1088, #1035 ) ) ;
#821 = CARTESIAN_POINT ( 'NONE',  ( -2.600000000000000089, 3.049999999999999822, 2.250000000000000444 ) ) ;
#822 = CARTESIAN_POINT ( 'NONE',  ( 2.960000000000002185, 0.08000000000000020983, 3.000000000000000000 ) ) ;
#823 = AXIS2_PLACEMENT_3D ( 'NONE', #1208, #176, #183 ) ;
#824 = PLANE ( 'NONE',  #823 ) ;
#825 = AXIS2_PLACEMENT_3D ( 'NONE', #21, #755, #750 ) ;
#826 = AXIS2_PLACEMENT_3D ( 'NONE', #391, #387, #753 ) ;
#827 =( GEOMETRIC_REPRESENTATION_CONTEXT ( 3 ) GLOBAL_UNCERTAINTY_ASSIGNED_CONTEXT ( ( #224 ) ) GLOBAL_UNIT_ASSIGNED_CONTEXT ( ( #5, #379, #292 ) ) REPRESENTATION_CONTEXT ( 'NONE', 'WORKASPACE' ) );
#828 = ORIENTED_EDGE ( 'NONE', *, *, #1037, .F. ) ;
#829 = DIRECTION ( 'NONE',  ( 0.000000000000000000, 0.000000000000000000, 1.000000000000000000 ) ) ;
#830 = AXIS2_PLACEMENT_3D ( 'NONE', #511, #882, #606 ) ;
#831 = ADVANCED_FACE ( 'NONE', ( #137 ), #989, .T. ) ;
#832 = DIRECTION ( 'NONE',  ( 0.000000000000000000, -0.000000000000000000, -1.000000000000000000 ) ) ;
#833 = ORIENTED_EDGE ( 'NONE', *, *, #204, .F. ) ;
#834 = ORIENTED_EDGE ( 'NONE', *, *, #667, .T. ) ;
#835 = FILL_AREA_STYLE_COLOUR ( '', #222 ) ;
#836 = PLANE ( 'NONE',  #223 ) ;
#837 = ORIENTED_EDGE ( 'NONE', *, *, #901, .F. ) ;
#838 = DIRECTION ( 'NONE',  ( 1.000000000000000000, -0.000000000000000000, 0.000000000000000000 ) ) ;
#839 =( LENGTH_UNIT ( ) NAMED_UNIT ( * ) SI_UNIT ( .MILLI., .METRE. ) );
#840 = VERTEX_POINT ( 'NONE', #73 ) ;
#841 = ORIENTED_EDGE ( 'NONE', *, *, #471, .F. ) ;
#842 =( LENGTH_UNIT ( ) NAMED_UNIT ( * ) SI_UNIT ( .MILLI., .METRE. ) );
#843 = COLOUR_RGB ( '',1.000000000000000000, 1.000000000000000000, 1.000000000000000000 ) ;
#844 = FILL_AREA_STYLE_COLOUR ( '', #90 ) ;
#845 = FILL_AREA_STYLE ('',( #13 ) ) ;
#846 = VECTOR ( 'NONE', #149, 1000.000000000000000 ) ;
#847 = DIRECTION ( 'NONE',  ( -0.000000000000000000, -0.000000000000000000, 1.000000000000000000 ) ) ;
#848 = ADVANCED_FACE ( 'NONE', ( #1033 ), #1219, .F. ) ;
#849 = CARTESIAN_POINT ( 'NONE',  ( -3.750000000000000000, -10.60660171779821326, -3.449999999999999734 ) ) ;
#850 = CARTESIAN_POINT ( 'NONE',  ( -2.899999999999999911, 3.049999999999999822, 2.250000000000000444 ) ) ;
#851 = UNCERTAINTY_MEASURE_WITH_UNIT (LENGTH_MEASURE( 1.000000000000000082E-05 ), #1122, 'distance_accuracy_value', 'NONE');
#852 = SURFACE_STYLE_FILL_AREA ( #6 ) ;
#853 = CARTESIAN_POINT ( 'NONE',  ( 3.450000000000000622, 3.100000000000000089, 3.449999999999999734 ) ) ;
#854 = FILL_AREA_STYLE_COLOUR ( '', #381 ) ;
#855 = DIRECTION ( 'NONE',  ( 3.252606517456513302E-16, -0.000000000000000000, 1.000000000000000000 ) ) ;
#856 = PRESENTATION_STYLE_ASSIGNMENT (( #955 ) ) ;
#857 = CARTESIAN_POINT ( 'NONE',  ( -2.899999999999999911, 3.049999999999999822, 2.250000000000000444 ) ) ;
#858 = VECTOR ( 'NONE', #855, 1000.000000000000000 ) ;
#859 = CARTESIAN_POINT ( 'NONE',  ( -2.899999999999999911, 3.100000000000000089, -2.249999999999999556 ) ) ;
#860 = COLOUR_RGB ( '',0.2509803921568627416, 0.2509803921568627416, 0.2509803921568627416 ) ;
#861 = PRODUCT_RELATED_PRODUCT_CATEGORY ( 'part', '', ( #366 ) ) ;
#862 = VECTOR ( 'NONE', #1097, 1000.000000000000000 ) ;
#863 = AXIS2_PLACEMENT_3D ( 'NONE', #269, #636, #832 ) ;
#864 = CARTESIAN_POINT ( 'NONE',  ( 0.000000000000000000, 3.100000000000000089, 0.000000000000000000 ) ) ;
#865 = EDGE_CURVE ( 'NONE', #513, #719, #787, .T. ) ;
#866 = CARTESIAN_POINT ( 'NONE',  ( 2.960000000000002185, 0.08000000000000020983, 3.000000000000000000 ) ) ;
#867 = DIRECTION ( 'NONE',  ( 0.000000000000000000, 0.000000000000000000, -1.000000000000000000 ) ) ;
#868 = UNCERTAINTY_MEASURE_WITH_UNIT (LENGTH_MEASURE( 1.000000000000000082E-05 ), #633, 'distance_accuracy_value', 'NONE');
#869 = CARTESIAN_POINT ( 'NONE',  ( -2.600000000000000089, 3.049999999999999822, -2.249999999999999556 ) ) ;
#870 = DIRECTION ( 'NONE',  ( 0.000000000000000000, 0.000000000000000000, -1.000000000000000000 ) ) ;
#871 = FILL_AREA_STYLE ('',( #115 ) ) ;
#872 = CARTESIAN_POINT ( 'NONE',  ( -2.600000000000000089, 3.100000000000000089, 2.250000000000000444 ) ) ;
#873 = ORIENTED_EDGE ( 'NONE', *, *, #1173, .F. ) ;
#874 = CARTESIAN_POINT ( 'NONE',  ( -2.899999999999999911, 3.100000000000000089, -2.249999999999999556 ) ) ;
#875 = EDGE_CURVE ( 'NONE', #102, #920, #621, .T. ) ;
#876 = CARTESIAN_POINT ( 'NONE',  ( -3.449999999999999289, 3.100000000000000089, -3.449999999999999734 ) ) ;
#877 = ORIENTED_EDGE ( 'NONE', *, *, #517, .T. ) ;
#878 = VECTOR ( 'NONE', #910, 1000.000000000000000 ) ;
#879 = PRODUCT_DEFINITION_FORMATION_WITH_SPECIFIED_SOURCE ( 'ANY', '', #366, .NOT_KNOWN. ) ;
#880 = AXIS2_PLACEMENT_3D ( 'NONE', #1004, #527, #540 ) ;
#881 = MECHANICAL_DESIGN_GEOMETRIC_PRESENTATION_REPRESENTATION (  '', ( #556 ), #921 ) ;
#882 = DIRECTION ( 'NONE',  ( 0.000000000000000000, 1.000000000000000000, 0.000000000000000000 ) ) ;
#883 = ORIENTED_EDGE ( 'NONE', *, *, #603, .T. ) ;
#884 = CARTESIAN_POINT ( 'NONE',  ( -2.960000000000000409, 0.000000000000000000, 3.000000000000000888 ) ) ;
#885 = ADVANCED_FACE ( 'NONE', ( #1073 ), #600, .T. ) ;
#886 = DIRECTION ( 'NONE',  ( 0.000000000000000000, -0.000000000000000000, 1.000000000000000000 ) ) ;
#887 = FILL_AREA_STYLE_COLOUR ( '', #704 ) ;
#888 = ORIENTED_EDGE ( 'NONE', *, *, #1051, .F. ) ;
#889 = DIRECTION ( 'NONE',  ( 1.000000000000000000, 0.000000000000000000, 0.000000000000000000 ) ) ;
#890 = DIRECTION ( 'NONE',  ( 0.000000000000000000, 0.000000000000000000, -1.000000000000000000 ) ) ;
#891 = ORIENTED_EDGE ( 'NONE', *, *, #1103, .F. ) ;
#892 = DIRECTION ( 'NONE',  ( 0.000000000000000000, 0.000000000000000000, -1.000000000000000000 ) ) ;
#893 = ORIENTED_EDGE ( 'NONE', *, *, #464, .T. ) ;
#894 = DIRECTION ( 'NONE',  ( 0.000000000000000000, 0.000000000000000000, -1.000000000000000000 ) ) ;
#895 = CARTESIAN_POINT ( 'NONE',  ( -3.449999999999999289, 3.100000000000000089, 3.750000000000000000 ) ) ;
#896 = VERTEX_POINT ( 'NONE', #996 ) ;
#897 = ADVANCED_FACE ( 'NONE', ( #260 ), #157, .T. ) ;
#898 = DIRECTION ( 'NONE',  ( 0.000000000000000000, 1.000000000000000000, 0.000000000000000000 ) ) ;
#899 = STYLED_ITEM ( 'NONE', ( #760 ), #934 ) ;
#900 = PRESENTATION_LAYER_ASSIGNMENT (  '', '', ( #191 ) ) ;
#901 = EDGE_CURVE ( 'NONE', #270, #1196, #1135, .T. ) ;
#902 = AXIS2_PLACEMENT_3D ( 'NONE', #1116, #12, #545 ) ;
#903 = EDGE_LOOP ( 'NONE', ( #698, #278, #1118, #258 ) ) ;
#904 = CARTESIAN_POINT ( 'NONE',  ( 2.960000000000000409, 0.08000000000000020983, -3.000000000000000000 ) ) ;
#905 = ORIENTED_EDGE ( 'NONE', *, *, #552, .T. ) ;
#906 = EDGE_LOOP ( 'NONE', ( #931, #1209, #651, #334 ) ) ;
#907 = CARTESIAN_POINT ( 'NONE',  ( -2.960000000000000409, 0.08000000000000020983, -2.999999999999999112 ) ) ;
#908 = CARTESIAN_POINT ( 'NONE',  ( 2.960000000000002185, 0.08000000000000020983, 3.000000000000000000 ) ) ;
#909 = EDGE_LOOP ( 'NONE', ( #1157, #449, #178, #271 ) ) ;
#910 = DIRECTION ( 'NONE',  ( -1.000000000000000000, -0.000000000000000000, -0.000000000000000000 ) ) ;
#911 = CARTESIAN_POINT ( 'NONE',  ( -2.960000000000000409, 0.08000000000000020983, 3.000000000000000888 ) ) ;
#912 = VERTEX_POINT ( 'NONE', #662 ) ;
#913 = ORIENTED_EDGE ( 'NONE', *, *, #993, .T. ) ;
#914 = CARTESIAN_POINT ( 'NONE',  ( 2.960000000000002185, 0.08000000000000020983, 3.000000000000000000 ) ) ;
#915 = FACE_OUTER_BOUND ( 'NONE', #909, .T. ) ;
#916 = ADVANCED_FACE ( 'NONE', ( #307 ), #568, .T. ) ;
#917 = ORIENTED_EDGE ( 'NONE', *, *, #1202, .T. ) ;
#918 = CARTESIAN_POINT ( 'NONE',  ( -3.750000000000000000, 3.100000000000000089, -3.449999999999999734 ) ) ;
#919 = FACE_OUTER_BOUND ( 'NONE', #67, .T. ) ;
#920 = VERTEX_POINT ( 'NONE', #859 ) ;
#921 =( GEOMETRIC_REPRESENTATION_CONTEXT ( 3 ) GLOBAL_UNCERTAINTY_ASSIGNED_CONTEXT ( ( #38 ) ) GLOBAL_UNIT_ASSIGNED_CONTEXT ( ( #218, #296, #584 ) ) REPRESENTATION_CONTEXT ( 'NONE', 'WORKASPACE' ) );
#922 = PLANE ( 'NONE',  #91 ) ;
#923 = MECHANICAL_DESIGN_GEOMETRIC_PRESENTATION_REPRESENTATION (  '', ( #684 ), #946 ) ;
#924 = MECHANICAL_DESIGN_GEOMETRIC_PRESENTATION_REPRESENTATION (  '', ( #244 ), #202 ) ;
#925 = MECHANICAL_DESIGN_GEOMETRIC_PRESENTATION_REPRESENTATION (  '', ( #686 ), #827 ) ;
#926 = FACE_OUTER_BOUND ( 'NONE', #358, .T. ) ;
#927 = VECTOR ( 'NONE', #152, 1000.000000000000000 ) ;
#928 = ORIENTED_EDGE ( 'NONE', *, *, #273, .F. ) ;
#929 = FACE_OUTER_BOUND ( 'NONE', #1095, .T. ) ;
#930 = FACE_OUTER_BOUND ( 'NONE', #501, .T. ) ;
#931 = ORIENTED_EDGE ( 'NONE', *, *, #471, .T. ) ;
#932 = SURFACE_STYLE_FILL_AREA ( #730 ) ;
#933 = VERTEX_POINT ( 'NONE', #113 ) ;
#934 = MANIFOLD_SOLID_BREP ( 'Boss-Extrude3[1]', #267 ) ;
#935 =( NAMED_UNIT ( * ) PLANE_ANGLE_UNIT ( ) SI_UNIT ( $, .RADIAN. ) );
#936 = ORIENTED_EDGE ( 'NONE', *, *, #34, .F. ) ;
#937 =( NAMED_UNIT ( * ) SI_UNIT ( $, .STERADIAN. ) SOLID_ANGLE_UNIT ( ) );
#938 = PRESENTATION_STYLE_ASSIGNMENT (( #181 ) ) ;
#939 = CYLINDRICAL_SURFACE ( 'NONE', #168, 0.2999999999999994893 ) ;
#940 = ORIENTED_EDGE ( 'NONE', *, *, #386, .T. ) ;
#941 = DIRECTION ( 'NONE',  ( 0.000000000000000000, 1.000000000000000000, 0.000000000000000000 ) ) ;
#942 = EDGE_CURVE ( 'NONE', #1210, #164, #402, .T. ) ;
#943 = SURFACE_STYLE_USAGE ( .BOTH. , #738 ) ;
#944 = PRESENTATION_LAYER_ASSIGNMENT (  '', '', ( #480 ) ) ;
#945 =( GEOMETRIC_REPRESENTATION_CONTEXT ( 3 ) GLOBAL_UNCERTAINTY_ASSIGNED_CONTEXT ( ( #681 ) ) GLOBAL_UNIT_ASSIGNED_CONTEXT ( ( #106, #305, #937 ) ) REPRESENTATION_CONTEXT ( 'NONE', 'WORKASPACE' ) );
#946 =( GEOMETRIC_REPRESENTATION_CONTEXT ( 3 ) GLOBAL_UNCERTAINTY_ASSIGNED_CONTEXT ( ( #1165 ) ) GLOBAL_UNIT_ASSIGNED_CONTEXT ( ( #974, #1159, #347 ) ) REPRESENTATION_CONTEXT ( 'NONE', 'WORKASPACE' ) );
#947 = CARTESIAN_POINT ( 'NONE',  ( 3.750000000000000444, 3.100000000000000089, 3.449999999999999734 ) ) ;
#948 =( GEOMETRIC_REPRESENTATION_CONTEXT ( 3 ) GLOBAL_UNCERTAINTY_ASSIGNED_CONTEXT ( ( #851 ) ) GLOBAL_UNIT_ASSIGNED_CONTEXT ( ( #1122, #1201, #754 ) ) REPRESENTATION_CONTEXT ( 'NONE', 'WORKASPACE' ) );
#949 = DIRECTION ( 'NONE',  ( -2.891205793294678326E-16, 0.000000000000000000, -1.000000000000000000 ) ) ;
#950 = CARTESIAN_POINT ( 'NONE',  ( -2.600000000000000089, 3.100000000000000089, 2.250000000000000444 ) ) ;
#951 = DIRECTION ( 'NONE',  ( 1.000000000000000000, 0.000000000000000000, -0.000000000000000000 ) ) ;
#952 = PLANE ( 'NONE',  #1062 ) ;
#953 = DIRECTION ( 'NONE',  ( 0.000000000000000000, 0.000000000000000000, 1.000000000000000000 ) ) ;
#954 = CARTESIAN_POINT ( 'NONE',  ( 2.960000000000002185, 0.08000000000000020983, 3.000000000000000000 ) ) ;
#955 = SURFACE_STYLE_USAGE ( .BOTH. , #211 ) ;
#956 = LINE ( 'NONE', #674, #287 ) ;
#957 = ADVANCED_FACE ( 'NONE', ( #699 ), #1078, .F. ) ;
#958 = VERTEX_POINT ( 'NONE', #231 ) ;
#959 =( LENGTH_UNIT ( ) NAMED_UNIT ( * ) SI_UNIT ( .MILLI., .METRE. ) );
#960 = DIRECTION ( 'NONE',  ( 0.000000000000000000, 1.000000000000000000, 0.000000000000000000 ) ) ;
#961 = DIRECTION ( 'NONE',  ( 0.000000000000000000, -0.000000000000000000, -1.000000000000000000 ) ) ;
#962 = CARTESIAN_POINT ( 'NONE',  ( 3.750000000000000444, 0.08000000000000020983, 3.449999999999999734 ) ) ;
#963 = DIRECTION ( 'NONE',  ( 0.000000000000000000, 0.000000000000000000, 1.000000000000000000 ) ) ;
#964 = VECTOR ( 'NONE', #589, 1000.000000000000000 ) ;
#965 =( NAMED_UNIT ( * ) SI_UNIT ( $, .STERADIAN. ) SOLID_ANGLE_UNIT ( ) );
#966 = LINE ( 'NONE', #874, #762 ) ;
#967 = CIRCLE ( 'NONE', #63, 0.2999999999999999334 ) ;
#968 = VECTOR ( 'NONE', #847, 1000.000000000000000 ) ;
#969 = CARTESIAN_POINT ( 'NONE',  ( -2.960000000000000409, 0.08000000000000020983, 3.000000000000000888 ) ) ;
#970 = CARTESIAN_POINT ( 'NONE',  ( 3.450000000000000622, 0.08000000000000020983, -3.749999999999999556 ) ) ;
#971 = UNCERTAINTY_MEASURE_WITH_UNIT (LENGTH_MEASURE( 1.000000000000000082E-05 ), #839, 'distance_accuracy_value', 'NONE');
#972 = ORIENTED_EDGE ( 'NONE', *, *, #522, .T. ) ;
#973 = CARTESIAN_POINT ( 'NONE',  ( -2.899999999999999911, 3.049999999999999822, 2.250000000000000444 ) ) ;
#974 =( LENGTH_UNIT ( ) NAMED_UNIT ( * ) SI_UNIT ( .MILLI., .METRE. ) );
#975 = CARTESIAN_POINT ( 'NONE',  ( -2.899999999999999911, 3.100000000000000089, 2.250000000000000444 ) ) ;
#976 = PRODUCT_CONTEXT ( 'NONE', #370, 'mechanical' ) ;
#977 = CARTESIAN_POINT ( 'NONE',  ( 3.450000000000000622, 0.08000000000000020983, 3.449999999999999734 ) ) ;
#978 = DIRECTION ( 'NONE',  ( 1.000000000000000000, -0.000000000000000000, 0.000000000000000000 ) ) ;
#979 = CARTESIAN_POINT ( 'NONE',  ( -3.449999999999999289, 3.100000000000000089, 3.749999999999999556 ) ) ;
#980 = CYLINDRICAL_SURFACE ( 'NONE', #830, 0.2999999999999999334 ) ;
#981 = EDGE_CURVE ( 'NONE', #453, #329, #1166, .T. ) ;
#982 = ORIENTED_EDGE ( 'NONE', *, *, #390, .T. ) ;
#983 = PRESENTATION_STYLE_ASSIGNMENT (( #502 ) ) ;
#984 = STYLED_ITEM ( 'NONE', ( #736 ), #528 ) ;
#985 =( GEOMETRIC_REPRESENTATION_CONTEXT ( 3 ) GLOBAL_UNCERTAINTY_ASSIGNED_CONTEXT ( ( #622 ) ) GLOBAL_UNIT_ASSIGNED_CONTEXT ( ( #959, #289, #965 ) ) REPRESENTATION_CONTEXT ( 'NONE', 'WORKASPACE' ) );
#986 =( GEOMETRIC_REPRESENTATION_CONTEXT ( 3 ) GLOBAL_UNCERTAINTY_ASSIGNED_CONTEXT ( ( #417 ) ) GLOBAL_UNIT_ASSIGNED_CONTEXT ( ( #472, #104, #1056 ) ) REPRESENTATION_CONTEXT ( 'NONE', 'WORKASPACE' ) );
#987 = VECTOR ( 'NONE', #369, 1000.000000000000000 ) ;
#988 = PRESENTATION_LAYER_ASSIGNMENT (  '', '', ( #1146 ) ) ;
#989 = PLANE ( 'NONE',  #724 ) ;
#990 = AXIS2_PLACEMENT_3D ( 'NONE', #421, #789, #1076 ) ;
#991 = ORIENTED_EDGE ( 'NONE', *, *, #98, .F. ) ;
#992 = CARTESIAN_POINT ( 'NONE',  ( -3.750000000000000000, 0.08000000000000020983, 3.449999999999999734 ) ) ;
#993 = EDGE_CURVE ( 'NONE', #607, #912, #598, .T. ) ;
#994 = VERTEX_POINT ( 'NONE', #407 ) ;
#995 = FILL_AREA_STYLE ('',( #1158 ) ) ;
#996 = CARTESIAN_POINT ( 'NONE',  ( 2.960000000000002185, 0.000000000000000000, 3.000000000000000000 ) ) ;
#997 = CARTESIAN_POINT ( 'NONE',  ( -2.960000000000000409, 0.08000000000000020983, 3.000000000000000888 ) ) ;
#998 = EDGE_LOOP ( 'NONE', ( #4, #580, #11, #834 ) ) ;
#999 = LINE ( 'NONE', #1096, #572 ) ;
#1000 = EDGE_CURVE ( 'NONE', #933, #1210, #498, .T. ) ;
#1001 = DIRECTION ( 'NONE',  ( 1.000000000000000000, 0.000000000000000000, 0.000000000000000000 ) ) ;
#1002 = ORIENTED_EDGE ( 'NONE', *, *, #46, .F. ) ;
#1003 = PRESENTATION_STYLE_ASSIGNMENT (( #83 ) ) ;
#1004 = CARTESIAN_POINT ( 'NONE',  ( -2.899999999999999911, 3.049999999999999822, -2.249999999999999556 ) ) ;
#1005 = VERTEX_POINT ( 'NONE', #884 ) ;
#1006 = AXIS2_PLACEMENT_3D ( 'NONE', #1189, #459, #829 ) ;
#1007 = COLOUR_RGB ( '',1.000000000000000000, 1.000000000000000000, 1.000000000000000000 ) ;
#1008 = VECTOR ( 'NONE', #1179, 1000.000000000000000 ) ;
#1009 = CARTESIAN_POINT ( 'NONE',  ( -3.449999999999999289, 0.08000000000000020983, -3.749999999999999556 ) ) ;
#1010 = EDGE_LOOP ( 'NONE', ( #532, #353, #837, #346 ) ) ;
#1011 = ORIENTED_EDGE ( 'NONE', *, *, #308, .T. ) ;
#1012 = CARTESIAN_POINT ( 'NONE',  ( 2.960000000000000409, 0.08000000000000020983, -3.000000000000000000 ) ) ;
#1013 = DIRECTION ( 'NONE',  ( -3.252606517456513302E-16, 0.000000000000000000, -1.000000000000000000 ) ) ;
#1014 = EDGE_CURVE ( 'NONE', #634, #896, #1171, .T. ) ;
#1015 = CARTESIAN_POINT ( 'NONE',  ( -2.899999999999999911, 3.049999999999999822, -2.249999999999999556 ) ) ;
#1016 = ORIENTED_EDGE ( 'NONE', *, *, #1113, .T. ) ;
#1017 = EDGE_LOOP ( 'NONE', ( #249, #891, #450, #905 ) ) ;
#1018 = CYLINDRICAL_SURFACE ( 'NONE', #1006, 0.2999999999999994893 ) ;
#1019 = DIRECTION ( 'NONE',  ( -0.000000000000000000, 1.000000000000000000, -0.000000000000000000 ) ) ;
#1020 = DIRECTION ( 'NONE',  ( 2.891205793294678326E-16, 0.000000000000000000, 1.000000000000000000 ) ) ;
#1021 = SURFACE_STYLE_USAGE ( .BOTH. , #470 ) ;
#1022 = VERTEX_POINT ( 'NONE', #1070 ) ;
#1023 = VECTOR ( 'NONE', #941, 1000.000000000000000 ) ;
#1024 = DIRECTION ( 'NONE',  ( -0.000000000000000000, -1.000000000000000000, -0.000000000000000000 ) ) ;
#1025 = STYLED_ITEM ( 'NONE', ( #983 ), #1038 ) ;
#1026 = MECHANICAL_DESIGN_GEOMETRIC_PRESENTATION_REPRESENTATION (  '', ( #191 ), #986 ) ;
#1027 = COLOUR_RGB ( '',0.2509803921568627416, 0.2509803921568627416, 0.2509803921568627416 ) ;
#1028 = VECTOR ( 'NONE', #793, 1000.000000000000000 ) ;
#1029 = ORIENTED_EDGE ( 'NONE', *, *, #142, .F. ) ;
#1030 =( LENGTH_UNIT ( ) NAMED_UNIT ( * ) SI_UNIT ( .MILLI., .METRE. ) );
#1031 =( NAMED_UNIT ( * ) PLANE_ANGLE_UNIT ( ) SI_UNIT ( $, .RADIAN. ) );
#1032 =( GEOMETRIC_REPRESENTATION_CONTEXT ( 3 ) GLOBAL_UNCERTAINTY_ASSIGNED_CONTEXT ( ( #670 ) ) GLOBAL_UNIT_ASSIGNED_CONTEXT ( ( #842, #1133, #357 ) ) REPRESENTATION_CONTEXT ( 'NONE', 'WORKASPACE' ) );
#1033 = FACE_OUTER_BOUND ( 'NONE', #279, .T. ) ;
#1034 = SURFACE_STYLE_USAGE ( .BOTH. , #650 ) ;
#1035 = ORIENTED_EDGE ( 'NONE', *, *, #1104, .T. ) ;
#1036 = ORIENTED_EDGE ( 'NONE', *, *, #1113, .F. ) ;
#1037 = EDGE_CURVE ( 'NONE', #164, #538, #237, .T. ) ;
#1038 = ADVANCED_FACE ( 'NONE', ( #682 ), #423, .T. ) ;
#1039 = SURFACE_STYLE_FILL_AREA ( #871 ) ;
#1040 = CARTESIAN_POINT ( 'NONE',  ( -2.600000000000000089, 3.049999999999999822, 2.250000000000000444 ) ) ;
#1041 =( LENGTH_UNIT ( ) NAMED_UNIT ( * ) SI_UNIT ( .MILLI., .METRE. ) );
#1042 = SURFACE_STYLE_USAGE ( .BOTH. , #208 ) ;
#1043 = DIRECTION ( 'NONE',  ( -1.000000000000000000, 0.000000000000000000, -0.000000000000000000 ) ) ;
#1044 = EDGE_CURVE ( 'NONE', #1075, #453, #967, .T. ) ;
#1045 = MECHANICAL_DESIGN_GEOMETRIC_PRESENTATION_REPRESENTATION (  '', ( #25 ), #219 ) ;
#1046 = CIRCLE ( 'NONE', #508, 0.2999999999999994893 ) ;
#1047 = CARTESIAN_POINT ( 'NONE',  ( -2.899999999999999911, 3.049999999999999822, 2.250000000000000444 ) ) ;
#1048 = AXIS2_PLACEMENT_3D ( 'NONE', #758, #103, #297 ) ;
#1049 = MECHANICAL_DESIGN_GEOMETRIC_PRESENTATION_REPRESENTATION (  '', ( #1206 ), #948 ) ;
#1050 =( LENGTH_UNIT ( ) NAMED_UNIT ( * ) SI_UNIT ( .MILLI., .METRE. ) );
#1051 = EDGE_CURVE ( 'NONE', #162, #1196, #323, .T. ) ;
#1052 = LINE ( 'NONE', #133, #641 ) ;
#1053 = SURFACE_STYLE_FILL_AREA ( #668 ) ;
#1054 = DIRECTION ( 'NONE',  ( 1.000000000000000000, 0.000000000000000000, 0.000000000000000000 ) ) ;
#1055 = CARTESIAN_POINT ( 'NONE',  ( -3.750000000000000000, 3.100000000000000089, 3.449999999999999734 ) ) ;
#1056 =( NAMED_UNIT ( * ) SI_UNIT ( $, .STERADIAN. ) SOLID_ANGLE_UNIT ( ) );
#1057 = FACE_OUTER_BOUND ( 'NONE', #428, .T. ) ;
#1058 = SURFACE_STYLE_FILL_AREA ( #671 ) ;
#1059 = LINE ( 'NONE', #954, #496 ) ;
#1060 = CARTESIAN_POINT ( 'NONE',  ( -2.600000000000000089, 3.100000000000000089, 2.250000000000000444 ) ) ;
#1061 = LINE ( 'NONE', #663, #1144 ) ;
#1062 = AXIS2_PLACEMENT_3D ( 'NONE', #408, #578, #490 ) ;
#1063 = CARTESIAN_POINT ( 'NONE',  ( 1.560000000000000275, 0.08000000000000020983, -3.000000000000000000 ) ) ;
#1064 = DIRECTION ( 'NONE',  ( 1.000000000000000000, 0.000000000000000000, 0.000000000000000000 ) ) ;
#1065 = DIRECTION ( 'NONE',  ( -1.000000000000000000, 0.000000000000000000, -3.614007241618347908E-17 ) ) ;
#1066 = ORIENTED_EDGE ( 'NONE', *, *, #86, .T. ) ;
#1067 = LINE ( 'NONE', #596, #763 ) ;
#1068 = PRESENTATION_STYLE_ASSIGNMENT (( #324 ) ) ;
#1069 = EDGE_CURVE ( 'NONE', #158, #102, #688, .T. ) ;
#1070 = CARTESIAN_POINT ( 'NONE',  ( -2.899999999999999911, 3.049999999999999822, -2.249999999999999556 ) ) ;
#1071 = LINE ( 'NONE', #281, #495 ) ;
#1072 = PRODUCT_DEFINITION_CONTEXT ( 'detailed design', #555, 'design' ) ;
#1073 = FACE_OUTER_BOUND ( 'NONE', #422, .T. ) ;
#1074 = EDGE_CURVE ( 'NONE', #1109, #1134, #1067, .T. ) ;
#1075 = VERTEX_POINT ( 'NONE', #506 ) ;
#1076 = DIRECTION ( 'NONE',  ( 0.000000000000000000, 0.000000000000000000, 1.000000000000000000 ) ) ;
#1077 = ORIENTED_EDGE ( 'NONE', *, *, #1069, .F. ) ;
#1078 = PLANE ( 'NONE',  #601 ) ;
#1079 = MECHANICAL_DESIGN_GEOMETRIC_PRESENTATION_REPRESENTATION (  '', ( #984 ), #1032 ) ;
#1080 = AXIS2_PLACEMENT_3D ( 'NONE', #17, #212, #951 ) ;
#1081 = VECTOR ( 'NONE', #1167, 1000.000000000000000 ) ;
#1082 = AXIS2_PLACEMENT_3D ( 'NONE', #1012, #174, #734 ) ;
#1083 = CARTESIAN_POINT ( 'NONE',  ( 3.750000000000000444, -10.60660171779821326, 3.449999999999999734 ) ) ;
#1084 = STYLED_ITEM ( 'NONE', ( #465 ), #646 ) ;
#1085 = EDGE_CURVE ( 'NONE', #920, #1086, #418, .T. ) ;
#1086 = VERTEX_POINT ( 'NONE', #526 ) ;
#1087 = CARTESIAN_POINT ( 'NONE',  ( -2.899999999999999911, 3.049999999999999822, 2.250000000000000444 ) ) ;
#1088 = ORIENTED_EDGE ( 'NONE', *, *, #766, .T. ) ;
#1089 = DIRECTION ( 'NONE',  ( -1.000000000000000000, -0.000000000000000000, -0.000000000000000000 ) ) ;
#1090 = EDGE_CURVE ( 'NONE', #994, #1198, #78, .T. ) ;
#1091 = ORIENTED_EDGE ( 'NONE', *, *, #629, .T. ) ;
#1092 =( LENGTH_UNIT ( ) NAMED_UNIT ( * ) SI_UNIT ( .MILLI., .METRE. ) );
#1093 = VERTEX_POINT ( 'NONE', #918 ) ;
#1094 = SURFACE_SIDE_STYLE ('',( #239 ) ) ;
#1095 = EDGE_LOOP ( 'NONE', ( #457, #791, #624, #1066 ) ) ;
#1096 = CARTESIAN_POINT ( 'NONE',  ( 2.960000000000002185, 0.08000000000000020983, 3.000000000000000000 ) ) ;
#1097 = DIRECTION ( 'NONE',  ( -0.000000000000000000, -1.000000000000000000, -0.000000000000000000 ) ) ;
#1098 = ORIENTED_EDGE ( 'NONE', *, *, #452, .T. ) ;
#1099 = SURFACE_STYLE_FILL_AREA ( #469 ) ;
#1100 = UNCERTAINTY_MEASURE_WITH_UNIT (LENGTH_MEASURE( 1.000000000000000082E-05 ), #107, 'distance_accuracy_value', 'NONE');
#1101 =( NAMED_UNIT ( * ) SI_UNIT ( $, .STERADIAN. ) SOLID_ANGLE_UNIT ( ) );
#1102 = ORIENTED_EDGE ( 'NONE', *, *, #425, .F. ) ;
#1103 = EDGE_CURVE ( 'NONE', #1210, #958, #533, .T. ) ;
#1104 = EDGE_CURVE ( 'NONE', #140, #1109, #180, .T. ) ;
#1105 = PRESENTATION_LAYER_ASSIGNMENT (  '', '', ( #1025 ) ) ;
#1106 = VECTOR ( 'NONE', #306, 1000.000000000000000 ) ;
#1107 = VECTOR ( 'NONE', #661, 1000.000000000000000 ) ;
#1108 = VERTEX_POINT ( 'NONE', #729 ) ;
#1109 = VERTEX_POINT ( 'NONE', #809 ) ;
#1110 = DIRECTION ( 'NONE',  ( -2.891205793294678326E-16, 0.000000000000000000, -1.000000000000000000 ) ) ;
#1111 = DIRECTION ( 'NONE',  ( 1.000000000000000000, 0.000000000000000000, -0.000000000000000000 ) ) ;
#1112 = EDGE_LOOP ( 'NONE', ( #928, #655, #991, #182 ) ) ;
#1113 = EDGE_CURVE ( 'NONE', #748, #705, #999, .T. ) ;
#1114 = DIRECTION ( 'NONE',  ( 3.614007241618347908E-17, 0.000000000000000000, -1.000000000000000000 ) ) ;
#1115 = PLANE ( 'NONE',  #590 ) ;
#1116 = CARTESIAN_POINT ( 'NONE',  ( -3.750000000000000000, -10.60660171779821326, 3.449999999999999734 ) ) ;
#1117 = CARTESIAN_POINT ( 'NONE',  ( 1.560000000000002052, 0.000000000000000000, 3.000000000000000444 ) ) ;
#1118 = ORIENTED_EDGE ( 'NONE', *, *, #45, .F. ) ;
#1119 = ADVANCED_FACE ( 'NONE', ( #814 ), #1200, .F. ) ;
#1120 = EDGE_LOOP ( 'NONE', ( #252, #773, #1098, #982 ) ) ;
#1121 = CARTESIAN_POINT ( 'NONE',  ( -2.899999999999999911, 3.100000000000000089, 2.250000000000000444 ) ) ;
#1122 =( LENGTH_UNIT ( ) NAMED_UNIT ( * ) SI_UNIT ( .MILLI., .METRE. ) );
#1123 = DIRECTION ( 'NONE',  ( 0.000000000000000000, -0.000000000000000000, -1.000000000000000000 ) ) ;
#1124 = FILL_AREA_STYLE_COLOUR ( '', #88 ) ;
#1125 = VECTOR ( 'NONE', #227, 1000.000000000000000 ) ;
#1126 = UNCERTAINTY_MEASURE_WITH_UNIT (LENGTH_MEASURE( 1.000000000000000082E-05 ), #739, 'distance_accuracy_value', 'NONE');
#1127 = CARTESIAN_POINT ( 'NONE',  ( -2.899999999999999911, 3.049999999999999822, 2.250000000000000444 ) ) ;
#1128 = PRESENTATION_LAYER_ASSIGNMENT (  '', '', ( #899 ) ) ;
#1129 = ADVANCED_FACE ( 'NONE', ( #360 ), #1115, .F. ) ;
#1130 = EDGE_LOOP ( 'NONE', ( #611, #541, #349, #197 ) ) ;
#1131 = ADVANCED_FACE ( 'NONE', ( #161 ), #1018, .T. ) ;
#1132 = FILL_AREA_STYLE_COLOUR ( '', #165 ) ;
#1133 =( NAMED_UNIT ( * ) PLANE_ANGLE_UNIT ( ) SI_UNIT ( $, .RADIAN. ) );
#1134 = VERTEX_POINT ( 'NONE', #625 ) ;
#1135 = LINE ( 'NONE', #947, #492 ) ;
#1136 = FACE_OUTER_BOUND ( 'NONE', #1017, .T. ) ;
#1137 = LINE ( 'NONE', #19, #42 ) ;
#1138 = DIRECTION ( 'NONE',  ( -1.000000000000000000, 0.000000000000000000, 0.000000000000000000 ) ) ;
#1139 = SURFACE_STYLE_USAGE ( .BOTH. , #1191 ) ;
#1140 = ADVANCED_FACE ( 'NONE', ( #1211 ), #467, .F. ) ;
#1141 = SURFACE_SIDE_STYLE ('',( #1039 ) ) ;
#1142 = PRESENTATION_LAYER_ASSIGNMENT (  '', '', ( #1084 ) ) ;
#1143 = VECTOR ( 'NONE', #129, 1000.000000000000000 ) ;
#1144 = VECTOR ( 'NONE', #312, 1000.000000000000000 ) ;
#1145 = CARTESIAN_POINT ( 'NONE',  ( 3.750000000000000444, -10.60660171779821326, 3.449999999999999734 ) ) ;
#1146 = STYLED_ITEM ( 'NONE', ( #938 ), #254 ) ;
#1147 = CARTESIAN_POINT ( 'NONE',  ( -3.449999999999999289, -10.60660171779821326, -3.749999999999999556 ) ) ;
#1148 = VECTOR ( 'NONE', #14, 1000.000000000000000 ) ;
#1149 = CARTESIAN_POINT ( 'NONE',  ( -2.899999999999999911, 3.100000000000000089, 2.250000000000000444 ) ) ;
#1150 = FACE_OUTER_BOUND ( 'NONE', #1192, .T. ) ;
#1151 = CARTESIAN_POINT ( 'NONE',  ( -3.449999999999999289, 3.100000000000000089, 3.449999999999999734 ) ) ;
#1152 = DIRECTION ( 'NONE',  ( 0.000000000000000000, 0.000000000000000000, -1.000000000000000000 ) ) ;
#1153 = DIRECTION ( 'NONE',  ( -0.000000000000000000, -0.000000000000000000, 1.000000000000000000 ) ) ;
#1154 = SURFACE_SIDE_STYLE ('',( #1058 ) ) ;
#1155 = CARTESIAN_POINT ( 'NONE',  ( -2.899999999999999911, 3.049999999999999822, -2.249999999999999556 ) ) ;
#1156 = CARTESIAN_POINT ( 'NONE',  ( 0.000000000000000000, 0.000000000000000000, 0.000000000000000000 ) ) ;
#1157 = ORIENTED_EDGE ( 'NONE', *, *, #1014, .T. ) ;
#1158 = FILL_AREA_STYLE_COLOUR ( '', #843 ) ;
#1159 =( NAMED_UNIT ( * ) PLANE_ANGLE_UNIT ( ) SI_UNIT ( $, .RADIAN. ) );
#1160 = PRESENTATION_LAYER_ASSIGNMENT (  '', '', ( #1204 ) ) ;
#1161 = ADVANCED_FACE ( 'NONE', ( #550, #926 ), #94, .F. ) ;
#1162 = ORIENTED_EDGE ( 'NONE', *, *, #1074, .F. ) ;
#1163 =( GEOMETRIC_REPRESENTATION_CONTEXT ( 3 ) GLOBAL_UNCERTAINTY_ASSIGNED_CONTEXT ( ( #139 ) ) GLOBAL_UNIT_ASSIGNED_CONTEXT ( ( #243, #175, #263 ) ) REPRESENTATION_CONTEXT ( 'NONE', 'WORKASPACE' ) );
#1164 = FACE_OUTER_BOUND ( 'NONE', #728, .T. ) ;
#1165 = UNCERTAINTY_MEASURE_WITH_UNIT (LENGTH_MEASURE( 1.000000000000000082E-05 ), #974, 'distance_accuracy_value', 'NONE');
#1166 = LINE ( 'NONE', #154, #337 ) ;
#1167 = DIRECTION ( 'NONE',  ( -1.000000000000000000, 0.000000000000000000, 0.000000000000000000 ) ) ;
#1168 = CARTESIAN_POINT ( 'NONE',  ( -2.899999999999999911, 3.100000000000000089, -2.249999999999999556 ) ) ;
#1169 = DIRECTION ( 'NONE',  ( 0.000000000000000000, 0.000000000000000000, -1.000000000000000000 ) ) ;
#1170 = ORIENTED_EDGE ( 'NONE', *, *, #295, .T. ) ;
#1171 = LINE ( 'NONE', #612, #87 ) ;
#1172 = PLANE ( 'NONE',  #65 ) ;
#1173 = EDGE_CURVE ( 'NONE', #912, #146, #1137, .T. ) ;
#1174 = SURFACE_STYLE_FILL_AREA ( #247 ) ;
#1175 = ORIENTED_EDGE ( 'NONE', *, *, #694, .T. ) ;
#1176 = DIRECTION ( 'NONE',  ( 0.000000000000000000, 1.000000000000000000, -0.000000000000000000 ) ) ;
#1177 = EDGE_LOOP ( 'NONE', ( #76, #716, #639, #714 ) ) ;
#1178 = CARTESIAN_POINT ( 'NONE',  ( -2.899999999999999911, 3.049999999999999822, -2.249999999999999556 ) ) ;
#1179 = DIRECTION ( 'NONE',  ( 1.000000000000000000, 0.000000000000000000, 0.000000000000000000 ) ) ;
#1180 = VECTOR ( 'NONE', #18, 1000.000000000000000 ) ;
#1181 = MECHANICAL_DESIGN_GEOMETRIC_PRESENTATION_REPRESENTATION (  '', ( #744 ), #8 ) ;
#1182 = AXIS2_PLACEMENT_3D ( 'NONE', #864, #583, #961 ) ;
#1183 = MECHANICAL_DESIGN_GEOMETRIC_PRESENTATION_REPRESENTATION (  '', ( #341 ), #945 ) ;
#1184 = PRESENTATION_LAYER_ASSIGNMENT (  '', '', ( #686 ) ) ;
#1185 = SURFACE_STYLE_FILL_AREA ( #57 ) ;
#1186 = PRESENTATION_LAYER_ASSIGNMENT (  '', '', ( #984 ) ) ;
#1187 =( LENGTH_UNIT ( ) NAMED_UNIT ( * ) SI_UNIT ( .MILLI., .METRE. ) );
#1188 = ORIENTED_EDGE ( 'NONE', *, *, #1000, .F. ) ;
#1189 = CARTESIAN_POINT ( 'NONE',  ( 3.450000000000000622, -10.60660171779821326, -3.449999999999999734 ) ) ;
#1190 = PLANE ( 'NONE',  #880 ) ;
#1191 = SURFACE_SIDE_STYLE ('',( #1185 ) ) ;
#1192 = EDGE_LOOP ( 'NONE', ( #383, #166, #93, #530 ) ) ;
#1193 = ORIENTED_EDGE ( 'NONE', *, *, #45, .T. ) ;
#1194 = FILL_AREA_STYLE ('',( #447 ) ) ;
#1195 = DIRECTION ( 'NONE',  ( 1.000000000000000000, 0.000000000000000000, 0.000000000000000000 ) ) ;
#1196 = VERTEX_POINT ( 'NONE', #567 ) ;
#1197 = ORIENTED_EDGE ( 'NONE', *, *, #635, .F. ) ;
#1198 = VERTEX_POINT ( 'NONE', #656 ) ;
#1199 = EDGE_LOOP ( 'NONE', ( #276, #1002, #819, #605 ) ) ;
#1200 = PLANE ( 'NONE',  #665 ) ;
#1201 =( NAMED_UNIT ( * ) PLANE_ANGLE_UNIT ( ) SI_UNIT ( $, .RADIAN. ) );
#1202 = EDGE_CURVE ( 'NONE', #912, #711, #648, .T. ) ;
#1203 = PRESENTATION_LAYER_ASSIGNMENT (  '', '', ( #551 ) ) ;
#1204 = STYLED_ITEM ( 'NONE', ( #1068 ), #121 ) ;
#1205 = VECTOR ( 'NONE', #712, 1000.000000000000000 ) ;
#1206 = STYLED_ITEM ( 'NONE', ( #476 ), #268 ) ;
#1207 = STYLED_ITEM ( 'NONE', ( #597 ), #505 ) ;
#1208 = CARTESIAN_POINT ( 'NONE',  ( 0.000000000000000000, 0.08000000000000020983, 0.000000000000000000 ) ) ;
#1209 = ORIENTED_EDGE ( 'NONE', *, *, #184, .F. ) ;
#1210 = VERTEX_POINT ( 'NONE', #1040 ) ;
#1211 = FACE_OUTER_BOUND ( 'NONE', #539, .T. ) ;
#1212 = FACE_OUTER_BOUND ( 'NONE', #39, .T. ) ;
#1213 = PLANE ( 'NONE',  #414 ) ;
#1214 = EDGE_CURVE ( 'NONE', #933, #797, #560, .T. ) ;
#1215 = DIRECTION ( 'NONE',  ( 0.000000000000000000, 1.000000000000000000, 0.000000000000000000 ) ) ;
#1216 = ORIENTED_EDGE ( 'NONE', *, *, #427, .T. ) ;
#1217 = FILL_AREA_STYLE ('',( #835 ) ) ;
#1218 = FILL_AREA_STYLE ('',( #385 ) ) ;
#1219 = PLANE ( 'NONE',  #478 ) ;
ENDSEC;
END-ISO-10303-21;
