ISO-10303-21;
HEADER;
FILE_DESCRIPTION (( 'STEP AP214' ),
    '1' );
FILE_NAME ('CUI_DEVICES_CMM-2718AT-3817NC-TR.step',
    '2023-02-08T16:17:54',
    ( '' ),
    ( '' ),
    'SwSTEP 2.0',
    'SolidWorks 2022',
    '' );
FILE_SCHEMA (( 'AUTOMOTIVE_DESIGN' ));
ENDSEC;

DATA;
#1 = CARTESIAN_POINT ( 'NONE',  ( 0.0000000000000000000, 0.0000000000000000000, 0.0000000000000000000 ) ) ;
#2 = DIRECTION ( 'NONE',  ( 1.000000000000000000, 0.0000000000000000000, 0.0000000000000000000 ) ) ;
#3 = ORIENTED_EDGE ( 'NONE', *, *, #638, .T. ) ;
#4 = DIRECTION ( 'NONE',  ( 0.0000000000000000000, -1.000000000000000000, 0.0000000000000000000 ) ) ;
#5 = VERTEX_POINT ( 'NONE', #765 ) ;
#6 = FACE_OUTER_BOUND ( 'NONE', #915, .T. ) ;
#7 = CARTESIAN_POINT ( 'NONE',  ( 0.008858267716535434683, -0.04862204724409449619, -3.937007874015747841E-05 ) ) ;
#8 = VECTOR ( 'NONE', #567, 39.37007874015748143 ) ;
#9 = EDGE_LOOP ( 'NONE', ( #559, #908, #264, #993 ) ) ;
#10 = DIRECTION ( 'NONE',  ( 1.000000000000000000, 0.0000000000000000000, 0.0000000000000000000 ) ) ;
#11 = EDGE_LOOP ( 'NONE', ( #256, #104, #747, #654 ) ) ;
#12 =( CONVERSION_BASED_UNIT ( 'INCH', #112 ) LENGTH_UNIT ( ) NAMED_UNIT ( #975 ) );
#13 = ADVANCED_FACE ( 'NONE', ( #277 ), #526, .F. ) ;
#14 = LINE ( 'NONE', #930, #651 ) ;
#15 = DIRECTION ( 'NONE',  ( 0.0000000000000000000, -1.000000000000000000, 0.0000000000000000000 ) ) ;
#16 = EDGE_LOOP ( 'NONE', ( #482, #939, #830, #82 ) ) ;
#17 = DIRECTION ( 'NONE',  ( -1.000000000000000000, 0.0000000000000000000, 0.0000000000000000000 ) ) ;
#18 = ORIENTED_EDGE ( 'NONE', *, *, #445, .F. ) ;
#19 = DIRECTION ( 'NONE',  ( 1.000000000000000000, 0.0000000000000000000, 0.0000000000000000000 ) ) ;
#20 = FACE_OUTER_BOUND ( 'NONE', #979, .T. ) ;
#21 = ADVANCED_FACE ( 'NONE', ( #606 ), #615, .T. ) ;
#22 = ORIENTED_EDGE ( 'NONE', *, *, #221, .T. ) ;
#23 = CARTESIAN_POINT ( 'NONE',  ( 0.03248031496194224432, 0.02736220473425196933, 0.0000000000000000000 ) ) ;
#24 = EDGE_LOOP ( 'NONE', ( #649, #98, #816, #920 ) ) ;
#25 = SURFACE_STYLE_USAGE ( .BOTH. , #271 ) ;
#26 = CARTESIAN_POINT ( 'NONE',  ( -0.008858267716535434683, 0.03799212598425197318, -3.937007874015747841E-05 ) ) ;
#27 = AXIS2_PLACEMENT_3D ( 'NONE', #99, #1012, #853 ) ;
#28 = DIRECTION ( 'NONE',  ( -1.000000000000000000, 0.0000000000000000000, 0.0000000000000000000 ) ) ;
#29 = EDGE_LOOP ( 'NONE', ( #58, #46 ) ) ;
#30 = EDGE_CURVE ( 'NONE', #775, #406, #117, .T. ) ;
#31 =( GEOMETRIC_REPRESENTATION_CONTEXT ( 3 ) GLOBAL_UNCERTAINTY_ASSIGNED_CONTEXT ( ( #322 ) ) GLOBAL_UNIT_ASSIGNED_CONTEXT ( ( #416, #243, #819 ) ) REPRESENTATION_CONTEXT ( 'NONE', 'WORKASPACE' ) );
#32 = ORIENTED_EDGE ( 'NONE', *, *, #424, .F. ) ;
#33 = CARTESIAN_POINT ( 'NONE',  ( -0.008858267725721773872, 0.04862204724081378715, 0.0000000000000000000 ) ) ;
#34 = LINE ( 'NONE', #365, #344 ) ;
#35 = DIRECTION ( 'NONE',  ( 0.0000000000000000000, 0.0000000000000000000, 1.000000000000000000 ) ) ;
#36 = PLANE ( 'NONE',  #562 ) ;
#37 = ORIENTED_EDGE ( 'NONE', *, *, #657, .T. ) ;
#38 = FACE_OUTER_BOUND ( 'NONE', #690, .T. ) ;
#39 =( NAMED_UNIT ( * ) PLANE_ANGLE_UNIT ( ) SI_UNIT ( $, .RADIAN. ) );
#40 = EDGE_LOOP ( 'NONE', ( #258, #946, #1052, #719 ) ) ;
#41 = EDGE_CURVE ( 'NONE', #820, #940, #950, .T. ) ;
#42 = CIRCLE ( 'NONE', #639, 0.007874015748031495954 ) ;
#43 = VECTOR ( 'NONE', #873, 39.37007874015748143 ) ;
#44 = AXIS2_PLACEMENT_3D ( 'NONE', #613, #681, #114 ) ;
#45 = AXIS2_PLACEMENT_3D ( 'NONE', #764, #1078, #614 ) ;
#46 = ORIENTED_EDGE ( 'NONE', *, *, #594, .F. ) ;
#47 = AXIS2_PLACEMENT_3D ( 'NONE', #855, #783, #259 ) ;
#48 = PLANE ( 'NONE',  #914 ) ;
#49 = ORIENTED_EDGE ( 'NONE', *, *, #960, .F. ) ;
#50 = CARTESIAN_POINT ( 'NONE',  ( -0.007874015748031495954, -0.02460629921259842659, 0.03897637795275590844 ) ) ;
#51 =( NAMED_UNIT ( * ) PLANE_ANGLE_UNIT ( ) SI_UNIT ( $, .RADIAN. ) );
#52 = CARTESIAN_POINT ( 'NONE',  ( 0.0000000000000000000, 0.05413385826771653642, 0.0000000000000000000 ) ) ;
#53 = EDGE_CURVE ( 'NONE', #456, #209, #283, .T. ) ;
#54 = EDGE_LOOP ( 'NONE', ( #244, #357, #877, #536 ) ) ;
#55 = FILL_AREA_STYLE ('',( #557 ) ) ;
#56 = DIRECTION ( 'NONE',  ( 0.0000000000000000000, 0.0000000000000000000, 1.000000000000000000 ) ) ;
#57 = ADVANCED_FACE ( 'NONE', ( #1039 ), #211, .F. ) ;
#58 = ORIENTED_EDGE ( 'NONE', *, *, #1029, .F. ) ;
#59 = VECTOR ( 'NONE', #918, 39.37007874015748143 ) ;
#60 = STYLED_ITEM ( 'NONE', ( #485 ), #157 ) ;
#61 = CIRCLE ( 'NONE', #47, 0.007874015748031495954 ) ;
#62 = CARTESIAN_POINT ( 'NONE',  ( -0.004921259842519684971, -0.02460629921259842659, 0.02755905511811023584 ) ) ;
#63 = DIRECTION ( 'NONE',  ( 0.0000000000000000000, 0.0000000000000000000, -1.000000000000000000 ) ) ;
#64 = VERTEX_POINT ( 'NONE', #945 ) ;
#65 = LINE ( 'NONE', #1070, #625 ) ;
#66 = LINE ( 'NONE', #410, #531 ) ;
#67 = LINE ( 'NONE', #1050, #547 ) ;
#68 = ORIENTED_EDGE ( 'NONE', *, *, #1047, .T. ) ;
#69 = CARTESIAN_POINT ( 'NONE',  ( 0.008858267716535434683, 0.04862204724409449619, -1.968503937007873921E-05 ) ) ;
#70 = EDGE_CURVE ( 'NONE', #351, #820, #794, .T. ) ;
#71 = CARTESIAN_POINT ( 'NONE',  ( 0.007874015748031495954, -0.02460629921259842659, 0.03897637795275590844 ) ) ;
#72 = ORIENTED_EDGE ( 'NONE', *, *, #1024, .T. ) ;
#73 = CARTESIAN_POINT ( 'NONE',  ( 0.03641732283464567399, 0.0000000000000000000, 0.03937007874015747977 ) ) ;
#74 = PRESENTATION_LAYER_ASSIGNMENT (  '', '', ( #668 ) ) ;
#75 = DIRECTION ( 'NONE',  ( 0.0000000000000000000, 0.0000000000000000000, 1.000000000000000000 ) ) ;
#76 = VECTOR ( 'NONE', #2, 39.37007874015748143 ) ;
#77 = VECTOR ( 'NONE', #903, 39.37007874015748143 ) ;
#78 = DIRECTION ( 'NONE',  ( 0.0000000000000000000, 0.0000000000000000000, 1.000000000000000000 ) ) ;
#79 = ORIENTED_EDGE ( 'NONE', *, *, #404, .F. ) ;
#80 = ADVANCED_FACE ( 'NONE', ( #786 ), #36, .F. ) ;
#81 = DIRECTION ( 'NONE',  ( 0.0000000000000000000, 0.0000000000000000000, 1.000000000000000000 ) ) ;
#82 = ORIENTED_EDGE ( 'NONE', *, *, #706, .T. ) ;
#83 = DIRECTION ( 'NONE',  ( 0.0000000000000000000, 0.0000000000000000000, -1.000000000000000000 ) ) ;
#84 = EDGE_CURVE ( 'NONE', #173, #624, #648, .T. ) ;
#85 = DIMENSIONAL_EXPONENTS ( 1.000000000000000000, 0.0000000000000000000, 0.0000000000000000000, 0.0000000000000000000, 0.0000000000000000000, 0.0000000000000000000, 0.0000000000000000000 ) ;
#86 = ORIENTED_EDGE ( 'NONE', *, *, #646, .T. ) ;
#87 = LINE ( 'NONE', #226, #713 ) ;
#88 = SURFACE_SIDE_STYLE ('',( #814 ) ) ;
#89 = CARTESIAN_POINT ( 'NONE',  ( 0.008858267725721773872, -0.02736220473425196933, 0.0000000000000000000 ) ) ;
#90 = ORIENTED_EDGE ( 'NONE', *, *, #134, .F. ) ;
#91 = LINE ( 'NONE', #435, #162 ) ;
#92 = EDGE_CURVE ( 'NONE', #1007, #624, #67, .T. ) ;
#93 = ORIENTED_EDGE ( 'NONE', *, *, #371, .F. ) ;
#94 = AXIS2_PLACEMENT_3D ( 'NONE', #372, #861, #198 ) ;
#95 = CARTESIAN_POINT ( 'NONE',  ( 0.02066929133858268208, 0.02736220472440945017, -3.937007874015747841E-05 ) ) ;
#96 = CARTESIAN_POINT ( 'NONE',  ( 0.008858267716535434683, -0.03799212598425197318, -3.937007874015747841E-05 ) ) ;
#97 = COLOUR_RGB ( '',0.7607843137254901578, 0.7607843137254901578, 0.0000000000000000000 ) ;
#98 = ORIENTED_EDGE ( 'NONE', *, *, #770, .F. ) ;
#99 = CARTESIAN_POINT ( 'NONE',  ( -0.03641732283464567399, -0.05413385826771653642, 0.0000000000000000000 ) ) ;
#100 = ORIENTED_EDGE ( 'NONE', *, *, #1010, .F. ) ;
#101 = EDGE_CURVE ( 'NONE', #1000, #5, #711, .T. ) ;
#102 = FACE_OUTER_BOUND ( 'NONE', #1005, .T. ) ;
#103 = CARTESIAN_POINT ( 'NONE',  ( -0.02066929133858268208, 0.04862204724409449619, 0.0000000000000000000 ) ) ;
#104 = ORIENTED_EDGE ( 'NONE', *, *, #638, .F. ) ;
#105 = DIRECTION ( 'NONE',  ( 0.0000000000000000000, 1.000000000000000000, 0.0000000000000000000 ) ) ;
#106 = ORIENTED_EDGE ( 'NONE', *, *, #101, .F. ) ;
#107 = DIRECTION ( 'NONE',  ( 0.0000000000000000000, -1.000000000000000000, 0.0000000000000000000 ) ) ;
#108 = CARTESIAN_POINT ( 'NONE',  ( 0.03248031496062991907, -0.04862204724409449619, -3.937007874015747841E-05 ) ) ;
#109 = LINE ( 'NONE', #378, #421 ) ;
#110 = ORIENTED_EDGE ( 'NONE', *, *, #201, .F. ) ;
#111 = VERTEX_POINT ( 'NONE', #140 ) ;
#112 = LENGTH_MEASURE_WITH_UNIT ( LENGTH_MEASURE( 0.02539999999999999897 ), #522 );
#113 = VECTOR ( 'NONE', #554, 39.37007874015748143 ) ;
#114 = DIRECTION ( 'NONE',  ( 0.0000000000000000000, 0.0000000000000000000, 1.000000000000000000 ) ) ;
#115 = VECTOR ( 'NONE', #105, 39.37007874015748143 ) ;
#116 = CARTESIAN_POINT ( 'NONE',  ( -0.03248031496062991907, 0.02736220472440945017, -1.968503937007873921E-05 ) ) ;
#117 = LINE ( 'NONE', #379, #43 ) ;
#118 = VECTOR ( 'NONE', #632, 39.37007874015748143 ) ;
#119 = ORIENTED_EDGE ( 'NONE', *, *, #1047, .F. ) ;
#120 = LINE ( 'NONE', #273, #911 ) ;
#121 = LINE ( 'NONE', #116, #650 ) ;
#122 = EDGE_LOOP ( 'NONE', ( #160, #284, #899, #355 ) ) ;
#123 = ADVANCED_FACE ( 'NONE', ( #150 ), #969, .F. ) ;
#124 = PRESENTATION_STYLE_ASSIGNMENT (( #728 ) ) ;
#125 = DIRECTION ( 'NONE',  ( -1.000000000000000000, 0.0000000000000000000, 0.0000000000000000000 ) ) ;
#126 = CARTESIAN_POINT ( 'NONE',  ( 0.008858267716535434683, -0.04862204724409449619, -3.937007874015747841E-05 ) ) ;
#127 = EDGE_LOOP ( 'NONE', ( #1044, #86 ) ) ;
#128 = VECTOR ( 'NONE', #990, 39.37007874015748143 ) ;
#129 = ORIENTED_EDGE ( 'NONE', *, *, #749, .F. ) ;
#130 = FILL_AREA_STYLE ('',( #1034 ) ) ;
#131 =( GEOMETRIC_REPRESENTATION_CONTEXT ( 3 ) GLOBAL_UNCERTAINTY_ASSIGNED_CONTEXT ( ( #679 ) ) GLOBAL_UNIT_ASSIGNED_CONTEXT ( ( #558, #477, #148 ) ) REPRESENTATION_CONTEXT ( 'NONE', 'WORKASPACE' ) );
#132 = LENGTH_MEASURE_WITH_UNIT ( LENGTH_MEASURE( 0.02539999999999999897 ), #876 );
#133 = DIRECTION ( 'NONE',  ( 1.000000000000000000, 0.0000000000000000000, 0.0000000000000000000 ) ) ;
#134 = EDGE_CURVE ( 'NONE', #303, #406, #504, .T. ) ;
#135 =( CONVERSION_BASED_UNIT ( 'INCH', #704 ) LENGTH_UNIT ( ) NAMED_UNIT ( #1071 ) );
#136 = VERTEX_POINT ( 'NONE', #231 ) ;
#137 =( LENGTH_UNIT ( ) NAMED_UNIT ( * ) SI_UNIT ( $, .METRE. ) );
#138 = APPLICATION_CONTEXT ( 'automotive_design' ) ;
#139 = CARTESIAN_POINT ( 'NONE',  ( 0.03641732283464567399, 0.05413385826771653642, 0.01968503937007873988 ) ) ;
#140 = CARTESIAN_POINT ( 'NONE',  ( -0.03248031496062991907, 0.04862204724409449619, -3.937007874015747841E-05 ) ) ;
#141 = ORIENTED_EDGE ( 'NONE', *, *, #208, .T. ) ;
#142 = UNCERTAINTY_MEASURE_WITH_UNIT (LENGTH_MEASURE( 1.000000000000000082E-05 ), #135, 'distance_accuracy_value', 'NONE');
#143 =( LENGTH_UNIT ( ) NAMED_UNIT ( * ) SI_UNIT ( $, .METRE. ) );
#144 = DIRECTION ( 'NONE',  ( 0.0000000000000000000, -1.000000000000000000, 0.0000000000000000000 ) ) ;
#145 = ORIENTED_EDGE ( 'NONE', *, *, #221, .F. ) ;
#146 = AXIS2_PLACEMENT_3D ( 'NONE', #440, #937, #943 ) ;
#147 = COLOUR_RGB ( '',0.7607843137254901578, 0.7607843137254901578, 0.0000000000000000000 ) ;
#148 =( NAMED_UNIT ( * ) SI_UNIT ( $, .STERADIAN. ) SOLID_ANGLE_UNIT ( ) );
#149 = DIRECTION ( 'NONE',  ( 0.0000000000000000000, 0.0000000000000000000, -1.000000000000000000 ) ) ;
#150 = FACE_OUTER_BOUND ( 'NONE', #363, .T. ) ;
#151 = VERTEX_POINT ( 'NONE', #308 ) ;
#152 = DIRECTION ( 'NONE',  ( 1.000000000000000000, 0.0000000000000000000, 0.0000000000000000000 ) ) ;
#153 = EDGE_CURVE ( 'NONE', #775, #209, #897, .T. ) ;
#154 = DIRECTION ( 'NONE',  ( 0.0000000000000000000, 0.0000000000000000000, 1.000000000000000000 ) ) ;
#155 = ORIENTED_EDGE ( 'NONE', *, *, #53, .T. ) ;
#156 = DIRECTION ( 'NONE',  ( 0.0000000000000000000, 0.0000000000000000000, 1.000000000000000000 ) ) ;
#157 = ADVANCED_FACE ( 'NONE', ( #738 ), #1075, .T. ) ;
#158 = DIRECTION ( 'NONE',  ( 0.0000000000000000000, 0.0000000000000000000, 1.000000000000000000 ) ) ;
#159 = DIRECTION ( 'NONE',  ( -1.000000000000000000, 0.0000000000000000000, 0.0000000000000000000 ) ) ;
#160 = ORIENTED_EDGE ( 'NONE', *, *, #875, .F. ) ;
#161 = DIRECTION ( 'NONE',  ( 0.0000000000000000000, 0.0000000000000000000, 1.000000000000000000 ) ) ;
#162 = VECTOR ( 'NONE', #242, 39.37007874015748143 ) ;
#163 = MECHANICAL_DESIGN_GEOMETRIC_PRESENTATION_REPRESENTATION (  '', ( #710 ), #981 ) ;
#164 = MECHANICAL_DESIGN_GEOMETRIC_PRESENTATION_REPRESENTATION (  '', ( #60 ), #31 ) ;
#165 = AXIS2_PLACEMENT_3D ( 'NONE', #978, #56, #1063 ) ;
#166 = EDGE_CURVE ( 'NONE', #151, #234, #988, .T. ) ;
#167 = CARTESIAN_POINT ( 'NONE',  ( -0.008858267716535434683, -0.03799212598425197318, -3.937007874015747841E-05 ) ) ;
#168 = VERTEX_POINT ( 'NONE', #275 ) ;
#169 = DIRECTION ( 'NONE',  ( 0.0000000000000000000, 0.0000000000000000000, 1.000000000000000000 ) ) ;
#170 = FACE_BOUND ( 'NONE', #1069, .T. ) ;
#171 = CARTESIAN_POINT ( 'NONE',  ( 0.004921259842519684971, -0.02460629921259842659, 0.02755905508791787334 ) ) ;
#172 = ADVANCED_FACE ( 'NONE', ( #336 ), #261, .F. ) ;
#173 = VERTEX_POINT ( 'NONE', #533 ) ;
#174 = CARTESIAN_POINT ( 'NONE',  ( 0.0000000000000000000, -0.02460629921259842659, 0.03897637795275590844 ) ) ;
#175 = EDGE_CURVE ( 'NONE', #705, #506, #354, .T. ) ;
#176 = EDGE_LOOP ( 'NONE', ( #1013, #194, #708, #634, #587 ) ) ;
#177 = DIRECTION ( 'NONE',  ( 0.0000000000000000000, 0.0000000000000000000, 1.000000000000000000 ) ) ;
#178 = DIRECTION ( 'NONE',  ( 1.000000000000000000, 0.0000000000000000000, 0.0000000000000000000 ) ) ;
#179 = VERTEX_POINT ( 'NONE', #1017 ) ;
#180 = DIRECTION ( 'NONE',  ( 0.0000000000000000000, 0.0000000000000000000, 1.000000000000000000 ) ) ;
#181 = ORIENTED_EDGE ( 'NONE', *, *, #70, .F. ) ;
#182 = ADVANCED_FACE ( 'NONE', ( #932 ), #689, .F. ) ;
#183 = MECHANICAL_DESIGN_GEOMETRIC_PRESENTATION_REPRESENTATION (  '', ( #1022 ), #983 ) ;
#184 = AXIS2_PLACEMENT_3D ( 'NONE', #126, #295, #630 ) ;
#185 = PLANE ( 'NONE',  #576 ) ;
#186 = DIRECTION ( 'NONE',  ( 1.000000000000000000, 0.0000000000000000000, 0.0000000000000000000 ) ) ;
#187 = VERTEX_POINT ( 'NONE', #746 ) ;
#188 = FACE_OUTER_BOUND ( 'NONE', #24, .T. ) ;
#189 = ORIENTED_EDGE ( 'NONE', *, *, #335, .F. ) ;
#190 = ADVANCED_FACE ( 'NONE', ( #599 ), #841, .F. ) ;
#191 = LINE ( 'NONE', #26, #528 ) ;
#192 = DIRECTION ( 'NONE',  ( 0.0000000000000000000, 1.000000000000000000, 0.0000000000000000000 ) ) ;
#193 = ORIENTED_EDGE ( 'NONE', *, *, #986, .F. ) ;
#194 = ORIENTED_EDGE ( 'NONE', *, *, #213, .T. ) ;
#195 = FACE_BOUND ( 'NONE', #724, .T. ) ;
#196 = PLANE ( 'NONE',  #296 ) ;
#197 = ORIENTED_EDGE ( 'NONE', *, *, #568, .F. ) ;
#198 = DIRECTION ( 'NONE',  ( 0.0000000000000000000, 0.0000000000000000000, -1.000000000000000000 ) ) ;
#199 = FILL_AREA_STYLE_COLOUR ( '', #147 ) ;
#200 = AXIS2_PLACEMENT_3D ( 'NONE', #703, #467, #862 ) ;
#201 = EDGE_CURVE ( 'NONE', #647, #768, #938, .T. ) ;
#202 = CARTESIAN_POINT ( 'NONE',  ( 0.008858267716535434683, -0.03799212598425197318, 0.0000000000000000000 ) ) ;
#203 = VECTOR ( 'NONE', #733, 39.37007874015748143 ) ;
#204 = ORIENTED_EDGE ( 'NONE', *, *, #339, .F. ) ;
#205 = SURFACE_STYLE_FILL_AREA ( #130 ) ;
#206 = DIRECTION ( 'NONE',  ( 0.0000000000000000000, -1.000000000000000000, 0.0000000000000000000 ) ) ;
#207 = CARTESIAN_POINT ( 'NONE',  ( 0.03641732283464567399, 0.05413385826771653642, 0.0000000000000000000 ) ) ;
#208 = EDGE_CURVE ( 'NONE', #1007, #705, #247, .T. ) ;
#209 = VERTEX_POINT ( 'NONE', #89 ) ;
#210 = LENGTH_MEASURE_WITH_UNIT ( LENGTH_MEASURE( 0.02539999999999999897 ), #384 );
#211 = PLANE ( 'NONE',  #184 ) ;
#212 = ORIENTED_EDGE ( 'NONE', *, *, #726, .F. ) ;
#213 = EDGE_CURVE ( 'NONE', #262, #940, #676, .T. ) ;
#214 = FILL_AREA_STYLE_COLOUR ( '', #97 ) ;
#215 =( GEOMETRIC_REPRESENTATION_CONTEXT ( 3 ) GLOBAL_UNCERTAINTY_ASSIGNED_CONTEXT ( ( #755 ) ) GLOBAL_UNIT_ASSIGNED_CONTEXT ( ( #660, #991, #510 ) ) REPRESENTATION_CONTEXT ( 'NONE', 'WORKASPACE' ) );
#216 =( LENGTH_UNIT ( ) NAMED_UNIT ( * ) SI_UNIT ( $, .METRE. ) );
#217 = VECTOR ( 'NONE', #447, 39.37007874015748143 ) ;
#218 = ORIENTED_EDGE ( 'NONE', *, *, #643, .T. ) ;
#219 = PRESENTATION_LAYER_ASSIGNMENT (  '', '', ( #1022 ) ) ;
#220 = PRODUCT_DEFINITION_CONTEXT ( 'detailed design', #1032, 'design' ) ;
#221 = EDGE_CURVE ( 'NONE', #224, #775, #758, .T. ) ;
#222 = CARTESIAN_POINT ( 'NONE',  ( -0.008858267716535434683, 0.03799212598425197318, 0.0000000000000000000 ) ) ;
#223 = CARTESIAN_POINT ( 'NONE',  ( 0.03248031496062991907, -0.02736220472440945017, -1.968503937007873921E-05 ) ) ;
#224 = VERTEX_POINT ( 'NONE', #7 ) ;
#225 = SURFACE_STYLE_FILL_AREA ( #55 ) ;
#226 = CARTESIAN_POINT ( 'NONE',  ( -0.007874015748031495954, -0.02460629921259842659, 0.03897637795275590844 ) ) ;
#227 = ORIENTED_EDGE ( 'NONE', *, *, #240, .F. ) ;
#228 = DIRECTION ( 'NONE',  ( 1.000000000000000000, 0.0000000000000000000, 0.0000000000000000000 ) ) ;
#229 = SURFACE_STYLE_FILL_AREA ( #572 ) ;
#230 = LINE ( 'NONE', #984, #780 ) ;
#231 = CARTESIAN_POINT ( 'NONE',  ( 0.008858267716535434683, 0.02736220472440945017, -3.937007874015747841E-05 ) ) ;
#232 = EDGE_CURVE ( 'NONE', #151, #805, #682, .T. ) ;
#233 =( GEOMETRIC_REPRESENTATION_CONTEXT ( 3 ) GLOBAL_UNCERTAINTY_ASSIGNED_CONTEXT ( ( #142 ) ) GLOBAL_UNIT_ASSIGNED_CONTEXT ( ( #135, #39, #714 ) ) REPRESENTATION_CONTEXT ( 'NONE', 'WORKASPACE' ) );
#234 = VERTEX_POINT ( 'NONE', #441 ) ;
#235 = VECTOR ( 'NONE', #83, 39.37007874015748143 ) ;
#236 = VECTOR ( 'NONE', #810, 39.37007874015748143 ) ;
#237 = VECTOR ( 'NONE', #833, 39.37007874015748143 ) ;
#238 = DIRECTION ( 'NONE',  ( 0.0000000000000000000, 1.000000000000000000, 0.0000000000000000000 ) ) ;
#239 = LENGTH_MEASURE_WITH_UNIT ( LENGTH_MEASURE( 0.02539999999999999897 ), #400 );
#240 = EDGE_CURVE ( 'NONE', #985, #262, #829, .T. ) ;
#241 = ORIENTED_EDGE ( 'NONE', *, *, #737, .F. ) ;
#242 = DIRECTION ( 'NONE',  ( 0.0000000000000000000, -1.000000000000000000, 0.0000000000000000000 ) ) ;
#243 =( NAMED_UNIT ( * ) PLANE_ANGLE_UNIT ( ) SI_UNIT ( $, .RADIAN. ) );
#244 = ORIENTED_EDGE ( 'NONE', *, *, #801, .F. ) ;
#245 = LINE ( 'NONE', #909, #128 ) ;
#246 = EDGE_CURVE ( 'NONE', #1048, #492, #511, .T. ) ;
#247 = LINE ( 'NONE', #590, #366 ) ;
#248 = ORIENTED_EDGE ( 'NONE', *, *, #792, .T. ) ;
#249 = LINE ( 'NONE', #588, #549 ) ;
#250 = CIRCLE ( 'NONE', #865, 0.004921259842519684971 ) ;
#251 = FACE_OUTER_BOUND ( 'NONE', #301, .T. ) ;
#252 = VECTOR ( 'NONE', #15, 39.37007874015748143 ) ;
#253 = CARTESIAN_POINT ( 'NONE',  ( 0.008858267716535434683, -0.02736220472440945017, -3.937007874015747841E-05 ) ) ;
#254 = CARTESIAN_POINT ( 'NONE',  ( 0.02066929133858268208, 0.02736220472440945017, 0.0000000000000000000 ) ) ;
#255 = DIMENSIONAL_EXPONENTS ( 1.000000000000000000, 0.0000000000000000000, 0.0000000000000000000, 0.0000000000000000000, 0.0000000000000000000, 0.0000000000000000000, 0.0000000000000000000 ) ;
#256 = ORIENTED_EDGE ( 'NONE', *, *, #1043, .T. ) ;
#257 = DIRECTION ( 'NONE',  ( 0.0000000000000000000, -1.000000000000000000, 0.0000000000000000000 ) ) ;
#258 = ORIENTED_EDGE ( 'NONE', *, *, #910, .F. ) ;
#259 = DIRECTION ( 'NONE',  ( 1.000000000000000000, 0.0000000000000000000, 0.0000000000000000000 ) ) ;
#260 = CARTESIAN_POINT ( 'NONE',  ( 0.007874015748031495954, -0.02460629921259842659, 0.03937007874015747977 ) ) ;
#261 = PLANE ( 'NONE',  #45 ) ;
#262 = VERTEX_POINT ( 'NONE', #427 ) ;
#263 = DIRECTION ( 'NONE',  ( -0.0000000000000000000, -0.0000000000000000000, -1.000000000000000000 ) ) ;
#264 = ORIENTED_EDGE ( 'NONE', *, *, #560, .T. ) ;
#265 = CARTESIAN_POINT ( 'NONE',  ( -0.03248031496062991907, 0.04862204724409449619, -1.968503937007873921E-05 ) ) ;
#266 = CARTESIAN_POINT ( 'NONE',  ( -0.03641732283464567399, 0.05413385826771653642, 0.01968503937007873988 ) ) ;
#267 = DIRECTION ( 'NONE',  ( 0.0000000000000000000, 0.0000000000000000000, 1.000000000000000000 ) ) ;
#268 = CYLINDRICAL_SURFACE ( 'NONE', #272, 0.007874015748031495954 ) ;
#269 = ADVANCED_FACE ( 'NONE', ( #20 ), #341, .F. ) ;
#270 = ORIENTED_EDGE ( 'NONE', *, *, #30, .F. ) ;
#271 = SURFACE_SIDE_STYLE ('',( #542 ) ) ;
#272 = AXIS2_PLACEMENT_3D ( 'NONE', #678, #429, #10 ) ;
#273 = CARTESIAN_POINT ( 'NONE',  ( 0.02066929133858268208, 0.04862204724409449619, 0.0000000000000000000 ) ) ;
#274 = VECTOR ( 'NONE', #667, 39.37007874015748854 ) ;
#275 = CARTESIAN_POINT ( 'NONE',  ( 0.03641732283464567399, -0.05413385826771653642, 0.0000000000000000000 ) ) ;
#276 = COLOUR_RGB ( '',0.7607843137254901578, 0.7607843137254901578, 0.0000000000000000000 ) ;
#277 = FACE_OUTER_BOUND ( 'NONE', #54, .T. ) ;
#278 = CARTESIAN_POINT ( 'NONE',  ( 0.008858267716535434683, 0.03799212598425197318, 0.0000000000000000000 ) ) ;
#279 = ORIENTED_EDGE ( 'NONE', *, *, #84, .T. ) ;
#280 = DIRECTION ( 'NONE',  ( -1.000000000000000000, 0.0000000000000000000, 0.0000000000000000000 ) ) ;
#281 = LINE ( 'NONE', #265, #692 ) ;
#282 = DIRECTION ( 'NONE',  ( -1.000000000000000000, 0.0000000000000000000, 0.0000000000000000000 ) ) ;
#283 = LINE ( 'NONE', #202, #113 ) ;
#284 = ORIENTED_EDGE ( 'NONE', *, *, #568, .T. ) ;
#285 = EDGE_CURVE ( 'NONE', #752, #311, #1009, .T. ) ;
#286 = CARTESIAN_POINT ( 'NONE',  ( 0.02066929133858268208, -0.04862204724409449619, 0.0000000000000000000 ) ) ;
#287 = CARTESIAN_POINT ( 'NONE',  ( -0.02066929133858268208, 0.02736220472440945017, -3.937007874015747841E-05 ) ) ;
#288 = ORIENTED_EDGE ( 'NONE', *, *, #723, .F. ) ;
#289 = ADVANCED_FACE ( 'NONE', ( #996 ), #919, .T. ) ;
#290 = DIRECTION ( 'NONE',  ( 0.0000000000000000000, 0.0000000000000000000, -1.000000000000000000 ) ) ;
#291 = VECTOR ( 'NONE', #716, 39.37007874015748143 ) ;
#292 = DIRECTION ( 'NONE',  ( 0.0000000000000000000, 1.000000000000000000, 0.0000000000000000000 ) ) ;
#293 = AXIS2_PLACEMENT_3D ( 'NONE', #1, #75, #340 ) ;
#294 = VECTOR ( 'NONE', #517, 39.37007874015748143 ) ;
#295 = DIRECTION ( 'NONE',  ( 0.0000000000000000000, 1.000000000000000000, 0.0000000000000000000 ) ) ;
#296 = AXIS2_PLACEMENT_3D ( 'NONE', #299, #553, #367 ) ;
#297 = ORIENTED_EDGE ( 'NONE', *, *, #1002, .T. ) ;
#298 = APPLICATION_PROTOCOL_DEFINITION ( 'draft international standard', 'automotive_design', 1998, #138 ) ;
#299 = CARTESIAN_POINT ( 'NONE',  ( 0.008858267716535434683, 0.04862204724409449619, 0.0000000000000000000 ) ) ;
#300 = EDGE_CURVE ( 'NONE', #179, #500, #851, .T. ) ;
#301 = EDGE_LOOP ( 'NONE', ( #402, #871, #248, #616 ) ) ;
#302 = LINE ( 'NONE', #869, #1056 ) ;
#303 = VERTEX_POINT ( 'NONE', #772 ) ;
#304 = PRODUCT ( 'CUI_DEVICES_CMM-2718AT-3817NC-TR', 'CUI_DEVICES_CMM-2718AT-3817NC-TR', '', ( #494 ) ) ;
#305 =( NAMED_UNIT ( * ) SI_UNIT ( $, .STERADIAN. ) SOLID_ANGLE_UNIT ( ) );
#306 = LINE ( 'NONE', #976, #809 ) ;
#307 = MECHANICAL_DESIGN_GEOMETRIC_PRESENTATION_REPRESENTATION (  '', ( #668 ), #215 ) ;
#308 = CARTESIAN_POINT ( 'NONE',  ( -0.03641732283464567399, 0.05413385826771653642, 0.0000000000000000000 ) ) ;
#309 = AXIS2_PLACEMENT_3D ( 'NONE', #423, #359, #186 ) ;
#310 = AXIS2_PLACEMENT_3D ( 'NONE', #373, #790, #292 ) ;
#311 = VERTEX_POINT ( 'NONE', #785 ) ;
#312 = UNCERTAINTY_MEASURE_WITH_UNIT (LENGTH_MEASURE( 1.000000000000000082E-05 ), #967, 'distance_accuracy_value', 'NONE');
#313 = DIRECTION ( 'NONE',  ( 0.0000000000000000000, 0.0000000000000000000, -1.000000000000000000 ) ) ;
#314 = EDGE_LOOP ( 'NONE', ( #700, #79, #345, #795 ) ) ;
#315 = DIRECTION ( 'NONE',  ( 0.0000000000000000000, 1.000000000000000000, 0.0000000000000000000 ) ) ;
#316 = SHAPE_DEFINITION_REPRESENTATION ( #1035, #766 ) ;
#317 = DIRECTION ( 'NONE',  ( 0.0000000000000000000, 0.0000000000000000000, -1.000000000000000000 ) ) ;
#318 = DIRECTION ( 'NONE',  ( 0.0000000000000000000, 0.0000000000000000000, 1.000000000000000000 ) ) ;
#319 = ADVANCED_FACE ( 'NONE', ( #707 ), #1031, .F. ) ;
#320 = ORIENTED_EDGE ( 'NONE', *, *, #438, .F. ) ;
#321 = DIRECTION ( 'NONE',  ( 1.000000000000000000, 0.0000000000000000000, 0.0000000000000000000 ) ) ;
#322 = UNCERTAINTY_MEASURE_WITH_UNIT (LENGTH_MEASURE( 1.000000000000000082E-05 ), #416, 'distance_accuracy_value', 'NONE');
#323 = CARTESIAN_POINT ( 'NONE',  ( -0.008858267716535434683, -0.04862204724409449619, -3.937007874015747841E-05 ) ) ;
#324 = CARTESIAN_POINT ( 'NONE',  ( -0.008858267716535434683, -0.02736220472440945017, -1.968503937007873921E-05 ) ) ;
#325 = VECTOR ( 'NONE', #848, 39.37007874015748143 ) ;
#326 = ORIENTED_EDGE ( 'NONE', *, *, #300, .F. ) ;
#327 = AXIS2_PLACEMENT_3D ( 'NONE', #593, #161, #831 ) ;
#328 = LINE ( 'NONE', #507, #966 ) ;
#329 = MECHANICAL_DESIGN_GEOMETRIC_PRESENTATION_REPRESENTATION (  '', ( #799 ), #564 ) ;
#330 = DIMENSIONAL_EXPONENTS ( 1.000000000000000000, 0.0000000000000000000, 0.0000000000000000000, 0.0000000000000000000, 0.0000000000000000000, 0.0000000000000000000, 0.0000000000000000000 ) ;
#331 = CARTESIAN_POINT ( 'NONE',  ( -0.008858267725721773872, -0.04862204724081378715, 0.0000000000000000000 ) ) ;
#332 = CARTESIAN_POINT ( 'NONE',  ( 0.03248031496062991907, 0.02736220472440945017, -3.937007874015747841E-05 ) ) ;
#333 = VERTEX_POINT ( 'NONE', #539 ) ;
#334 = LINE ( 'NONE', #827, #797 ) ;
#335 = EDGE_CURVE ( 'NONE', #925, #779, #121, .T. ) ;
#336 = FACE_OUTER_BOUND ( 'NONE', #694, .T. ) ;
#337 = ORIENTED_EDGE ( 'NONE', *, *, #600, .F. ) ;
#338 = DIRECTION ( 'NONE',  ( -0.0000000000000000000, -0.0000000000000000000, -1.000000000000000000 ) ) ;
#339 = EDGE_CURVE ( 'NONE', #624, #64, #302, .T. ) ;
#340 = DIRECTION ( 'NONE',  ( 1.000000000000000000, 0.0000000000000000000, 0.0000000000000000000 ) ) ;
#341 = CYLINDRICAL_SURFACE ( 'NONE', #640, 0.007874015748031495954 ) ;
#342 = ORIENTED_EDGE ( 'NONE', *, *, #300, .T. ) ;
#343 = DIRECTION ( 'NONE',  ( -1.000000000000000000, 0.0000000000000000000, 0.0000000000000000000 ) ) ;
#344 = VECTOR ( 'NONE', #763, 39.37007874015748143 ) ;
#345 = ORIENTED_EDGE ( 'NONE', *, *, #1060, .F. ) ;
#346 = VECTOR ( 'NONE', #125, 39.37007874015748143 ) ;
#347 = DIRECTION ( 'NONE',  ( 0.0000000000000000000, 0.0000000000000000000, -1.000000000000000000 ) ) ;
#348 = DIRECTION ( 'NONE',  ( 0.7071067811865475727, 0.7071067811865475727, -0.0000000000000000000 ) ) ;
#349 = EDGE_LOOP ( 'NONE', ( #442, #434, #883, #570 ) ) ;
#350 = CARTESIAN_POINT ( 'NONE',  ( 0.03248031496062991907, -0.04862204724409449619, -1.968503937007873921E-05 ) ) ;
#351 = VERTEX_POINT ( 'NONE', #954 ) ;
#352 = CARTESIAN_POINT ( 'NONE',  ( -0.03248031496194224432, 0.02736220473425196933, 0.0000000000000000000 ) ) ;
#353 = ADVANCED_FACE ( 'NONE', ( #618 ), #48, .F. ) ;
#354 = LINE ( 'NONE', #254, #294 ) ;
#355 = ORIENTED_EDGE ( 'NONE', *, *, #849, .F. ) ;
#356 = LINE ( 'NONE', #443, #473 ) ;
#357 = ORIENTED_EDGE ( 'NONE', *, *, #594, .T. ) ;
#358 = DIRECTION ( 'NONE',  ( 0.0000000000000000000, 1.000000000000000000, 0.0000000000000000000 ) ) ;
#359 = DIRECTION ( 'NONE',  ( 0.0000000000000000000, 0.0000000000000000000, 1.000000000000000000 ) ) ;
#360 = ADVANCED_FACE ( 'NONE', ( #858 ), #1046, .F. ) ;
#361 = EDGE_LOOP ( 'NONE', ( #413, #3, #22, #582 ) ) ;
#362 = LINE ( 'NONE', #278, #115 ) ;
#363 = EDGE_LOOP ( 'NONE', ( #68, #204, #773, #141 ) ) ;
#364 = VECTOR ( 'NONE', #419, 39.37007874015748143 ) ;
#365 = CARTESIAN_POINT ( 'NONE',  ( 0.02066929133858268208, -0.02736220472440945017, 0.0000000000000000000 ) ) ;
#366 = VECTOR ( 'NONE', #913, 39.37007874015748143 ) ;
#367 = DIRECTION ( 'NONE',  ( 0.0000000000000000000, 0.0000000000000000000, -1.000000000000000000 ) ) ;
#368 = CIRCLE ( 'NONE', #509, 0.004921259842519684971 ) ;
#369 = DIRECTION ( 'NONE',  ( -1.000000000000000000, 0.0000000000000000000, 0.0000000000000000000 ) ) ;
#370 = ORIENTED_EDGE ( 'NONE', *, *, #646, .F. ) ;
#371 = EDGE_CURVE ( 'NONE', #854, #1000, #109, .T. ) ;
#372 = CARTESIAN_POINT ( 'NONE',  ( -0.03248031496062991907, -0.02736220472440945017, 0.0000000000000000000 ) ) ;
#373 = CARTESIAN_POINT ( 'NONE',  ( 0.008858267716535434683, -0.04862204724409449619, -3.937007874015747841E-05 ) ) ;
#374 = VERTEX_POINT ( 'NONE', #778 ) ;
#375 = FACE_OUTER_BOUND ( 'NONE', #887, .T. ) ;
#376 = EDGE_CURVE ( 'NONE', #985, #388, #717, .T. ) ;
#377 =( NAMED_UNIT ( * ) PLANE_ANGLE_UNIT ( ) SI_UNIT ( $, .RADIAN. ) );
#378 = CARTESIAN_POINT ( 'NONE',  ( 0.007874015748031495954, -0.02460629921259842659, 0.03897637795275590844 ) ) ;
#379 = CARTESIAN_POINT ( 'NONE',  ( 0.02066929133858268208, -0.02736220472440945017, -3.937007874015747841E-05 ) ) ;
#380 = ORIENTED_EDGE ( 'NONE', *, *, #424, .T. ) ;
#381 =( CONVERSION_BASED_UNIT ( 'INCH', #962 ) LENGTH_UNIT ( ) NAMED_UNIT ( #330 ) );
#382 = LINE ( 'NONE', #139, #291 ) ;
#383 = AXIS2_PLACEMENT_3D ( 'NONE', #995, #784, #19 ) ;
#384 =( LENGTH_UNIT ( ) NAMED_UNIT ( * ) SI_UNIT ( $, .METRE. ) );
#385 = ADVANCED_FACE ( 'NONE', ( #38 ), #462, .F. ) ;
#386 = PRESENTATION_LAYER_ASSIGNMENT (  '', '', ( #60 ) ) ;
#387 = MECHANICAL_DESIGN_GEOMETRIC_PRESENTATION_REPRESENTATION (  '', ( #439 ), #401 ) ;
#388 = VERTEX_POINT ( 'NONE', #944 ) ;
#389 = FACE_BOUND ( 'NONE', #418, .T. ) ;
#390 = DIRECTION ( 'NONE',  ( 0.0000000000000000000, 0.0000000000000000000, -1.000000000000000000 ) ) ;
#391 = DIRECTION ( 'NONE',  ( 0.0000000000000000000, -1.000000000000000000, 0.0000000000000000000 ) ) ;
#392 = ADVANCED_FACE ( 'NONE', ( #628 ), #196, .F. ) ;
#393 = EDGE_LOOP ( 'NONE', ( #37, #212, #90, #218 ) ) ;
#394 = CARTESIAN_POINT ( 'NONE',  ( 0.004921259842519684971, -0.02460629921259842659, 0.02755905511811023584 ) ) ;
#395 = CARTESIAN_POINT ( 'NONE',  ( -0.01791338583070866200, -0.04862204724409449619, -3.937007874015747841E-05 ) ) ;
#396 = ORIENTED_EDGE ( 'NONE', *, *, #339, .T. ) ;
#397 = SURFACE_SIDE_STYLE ('',( #225 ) ) ;
#398 =( CONVERSION_BASED_UNIT ( 'INCH', #645 ) LENGTH_UNIT ( ) NAMED_UNIT ( #255 ) );
#399 = CIRCLE ( 'NONE', #740, 0.004921259842519684971 ) ;
#400 =( LENGTH_UNIT ( ) NAMED_UNIT ( * ) SI_UNIT ( $, .METRE. ) );
#401 =( GEOMETRIC_REPRESENTATION_CONTEXT ( 3 ) GLOBAL_UNCERTAINTY_ASSIGNED_CONTEXT ( ( #725 ) ) GLOBAL_UNIT_ASSIGNED_CONTEXT ( ( #12, #458, #701 ) ) REPRESENTATION_CONTEXT ( 'NONE', 'WORKASPACE' ) );
#402 = ORIENTED_EDGE ( 'NONE', *, *, #870, .T. ) ;
#403 = CARTESIAN_POINT ( 'NONE',  ( -0.03641732283464567399, -0.05413385826771653642, 0.03937007874015747977 ) ) ;
#404 = EDGE_CURVE ( 'NONE', #187, #779, #872, .T. ) ;
#405 = LINE ( 'NONE', #1061, #237 ) ;
#406 = VERTEX_POINT ( 'NONE', #453 ) ;
#407 = DIRECTION ( 'NONE',  ( 0.0000000000000000000, 0.0000000000000000000, -1.000000000000000000 ) ) ;
#408 = ADVANCED_FACE ( 'NONE', ( #948 ), #698, .T. ) ;
#409 = APPLICATION_PROTOCOL_DEFINITION ( 'draft international standard', 'automotive_design', 1998, #1032 ) ;
#410 = CARTESIAN_POINT ( 'NONE',  ( -0.008858267716535434683, 0.04862204724409449619, -1.968503937007873921E-05 ) ) ;
#411 = LENGTH_MEASURE_WITH_UNIT ( LENGTH_MEASURE( 0.02539999999999999897 ), #823 );
#412 = DIRECTION ( 'NONE',  ( 0.0000000000000000000, 0.0000000000000000000, 1.000000000000000000 ) ) ;
#413 = ORIENTED_EDGE ( 'NONE', *, *, #726, .T. ) ;
#414 = FACE_OUTER_BOUND ( 'NONE', #658, .T. ) ;
#415 = ADVANCED_FACE ( 'NONE', ( #251 ), #563, .T. ) ;
#416 =( CONVERSION_BASED_UNIT ( 'INCH', #239 ) LENGTH_UNIT ( ) NAMED_UNIT ( #664 ) );
#417 = AXIS2_PLACEMENT_3D ( 'NONE', #495, #818, #1062 ) ;
#418 = EDGE_LOOP ( 'NONE', ( #72, #1076 ) ) ;
#419 = DIRECTION ( 'NONE',  ( 0.0000000000000000000, 1.000000000000000000, 0.0000000000000000000 ) ) ;
#420 = VECTOR ( 'NONE', #722, 39.37007874015748143 ) ;
#421 = VECTOR ( 'NONE', #35, 39.37007874015748143 ) ;
#422 = PLANE ( 'NONE',  #417 ) ;
#423 = CARTESIAN_POINT ( 'NONE',  ( -0.004980314960629921538, -0.02958661417322834553, 0.02755905511811023584 ) ) ;
#424 = EDGE_CURVE ( 'NONE', #500, #580, #917, .T. ) ;
#425 = ORIENTED_EDGE ( 'NONE', *, *, #573, .T. ) ;
#426 =( NAMED_UNIT ( * ) SI_UNIT ( $, .STERADIAN. ) SOLID_ANGLE_UNIT ( ) );
#427 = CARTESIAN_POINT ( 'NONE',  ( -0.008858267716535434683, -0.02736220472440945017, -3.937007874015747841E-05 ) ) ;
#428 = ORIENTED_EDGE ( 'NONE', *, *, #792, .F. ) ;
#429 = DIRECTION ( 'NONE',  ( 0.0000000000000000000, 0.0000000000000000000, 1.000000000000000000 ) ) ;
#430 = ORIENTED_EDGE ( 'NONE', *, *, #41, .F. ) ;
#431 = PRESENTATION_STYLE_ASSIGNMENT (( #982 ) ) ;
#432 = PRESENTATION_STYLE_ASSIGNMENT (( #503 ) ) ;
#433 = CARTESIAN_POINT ( 'NONE',  ( 0.008858267716535434683, -0.02736220472440945017, -3.937007874015747841E-05 ) ) ;
#434 = ORIENTED_EDGE ( 'NONE', *, *, #633, .F. ) ;
#435 = CARTESIAN_POINT ( 'NONE',  ( -0.03641732283464567399, 0.0000000000000000000, 0.03937007874015747977 ) ) ;
#436 = AXIS2_PLACEMENT_3D ( 'NONE', #684, #267, #843 ) ;
#437 = VECTOR ( 'NONE', #149, 39.37007874015748143 ) ;
#438 = EDGE_CURVE ( 'NONE', #940, #752, #808, .T. ) ;
#439 = STYLED_ITEM ( 'NONE', ( #611 ), #529 ) ;
#440 = CARTESIAN_POINT ( 'NONE',  ( 0.0000000000000000000, -0.02460629921259842659, 0.03897637795275590844 ) ) ;
#441 = CARTESIAN_POINT ( 'NONE',  ( 0.03641732283464567399, 0.05413385826771653642, 0.0000000000000000000 ) ) ;
#442 = ORIENTED_EDGE ( 'NONE', *, *, #1055, .T. ) ;
#443 = CARTESIAN_POINT ( 'NONE',  ( 0.03248031496062991907, -0.03799212598425197318, -3.937007874015747841E-05 ) ) ;
#444 = VERTEX_POINT ( 'NONE', #62 ) ;
#445 = EDGE_CURVE ( 'NONE', #551, #5, #87, .T. ) ;
#446 = CARTESIAN_POINT ( 'NONE',  ( -0.03641732283464567399, -0.05413385826771653642, 0.03937007874015747977 ) ) ;
#447 = DIRECTION ( 'NONE',  ( 1.000000000000000000, 0.0000000000000000000, 0.0000000000000000000 ) ) ;
#448 = ORIENTED_EDGE ( 'NONE', *, *, #629, .T. ) ;
#449 = LINE ( 'NONE', #350, #235 ) ;
#450 = EDGE_LOOP ( 'NONE', ( #468, #731, #811, #465 ) ) ;
#451 = CARTESIAN_POINT ( 'NONE',  ( 0.004921259842519684971, -0.02460629921259842659, 0.03897637795275590844 ) ) ;
#452 = CARTESIAN_POINT ( 'NONE',  ( 0.0000000000000000000, 0.05413385826771653642, 0.03937007874015747977 ) ) ;
#453 = CARTESIAN_POINT ( 'NONE',  ( 0.03248031496062991907, -0.02736220472440945017, -3.937007874015747841E-05 ) ) ;
#454 = EDGE_CURVE ( 'NONE', #580, #925, #405, .T. ) ;
#455 = ORIENTED_EDGE ( 'NONE', *, *, #246, .F. ) ;
#456 = VERTEX_POINT ( 'NONE', #804 ) ;
#457 = VECTOR ( 'NONE', #481, 39.37007874015748143 ) ;
#458 =( NAMED_UNIT ( * ) PLANE_ANGLE_UNIT ( ) SI_UNIT ( $, .RADIAN. ) );
#459 = VECTOR ( 'NONE', #538, 39.37007874015748143 ) ;
#460 = FACE_OUTER_BOUND ( 'NONE', #512, .T. ) ;
#461 = AXIS2_PLACEMENT_3D ( 'NONE', #323, #317, #813 ) ;
#462 = PLANE ( 'NONE',  #310 ) ;
#463 = DIRECTION ( 'NONE',  ( 0.0000000000000000000, -1.000000000000000000, 0.0000000000000000000 ) ) ;
#464 = ADVANCED_FACE ( 'NONE', ( #882 ), #575, .F. ) ;
#465 = ORIENTED_EDGE ( 'NONE', *, *, #166, .F. ) ;
#466 = CARTESIAN_POINT ( 'NONE',  ( 0.03248031496062991907, 0.02736220472440945017, -1.968503937007873921E-05 ) ) ;
#467 = DIRECTION ( 'NONE',  ( 1.000000000000000000, 0.0000000000000000000, 0.0000000000000000000 ) ) ;
#468 = ORIENTED_EDGE ( 'NONE', *, *, #232, .T. ) ;
#469 = LINE ( 'NONE', #963, #807 ) ;
#470 = PRESENTATION_STYLE_ASSIGNMENT (( #550 ) ) ;
#471 = PRESENTATION_STYLE_ASSIGNMENT (( #859 ) ) ;
#472 = VERTEX_POINT ( 'NONE', #1049 ) ;
#473 = VECTOR ( 'NONE', #774, 39.37007874015748143 ) ;
#474 = EDGE_CURVE ( 'NONE', #506, #136, #306, .T. ) ;
#475 = VECTOR ( 'NONE', #463, 39.37007874015748143 ) ;
#476 = AXIS2_PLACEMENT_3D ( 'NONE', #446, #543, #598 ) ;
#477 =( NAMED_UNIT ( * ) PLANE_ANGLE_UNIT ( ) SI_UNIT ( $, .RADIAN. ) );
#478 = AXIS2_PLACEMENT_3D ( 'NONE', #889, #490, #318 ) ;
#479 = ORIENTED_EDGE ( 'NONE', *, *, #1060, .T. ) ;
#480 = DIRECTION ( 'NONE',  ( -1.000000000000000000, 0.0000000000000000000, 0.0000000000000000000 ) ) ;
#481 = DIRECTION ( 'NONE',  ( 0.0000000000000000000, 0.0000000000000000000, -1.000000000000000000 ) ) ;
#482 = ORIENTED_EDGE ( 'NONE', *, *, #560, .F. ) ;
#483 = UNCERTAINTY_MEASURE_WITH_UNIT (LENGTH_MEASURE( 1.000000000000000082E-05 ), #381, 'distance_accuracy_value', 'NONE');
#484 = CARTESIAN_POINT ( 'NONE',  ( -0.03641732283464567399, 0.05413385826771653642, 0.03937007874015747977 ) ) ;
#485 = PRESENTATION_STYLE_ASSIGNMENT (( #886 ) ) ;
#486 = EDGE_CURVE ( 'NONE', #500, #592, #66, .T. ) ;
#487 = ORIENTED_EDGE ( 'NONE', *, *, #153, .T. ) ;
#488 = FACE_OUTER_BOUND ( 'NONE', #127, .T. ) ;
#489 = AXIS2_PLACEMENT_3D ( 'NONE', #499, #238, #158 ) ;
#490 = DIRECTION ( 'NONE',  ( -1.000000000000000000, 0.0000000000000000000, 0.0000000000000000000 ) ) ;
#491 = EDGE_CURVE ( 'NONE', #925, #179, #1066, .T. ) ;
#492 = VERTEX_POINT ( 'NONE', #451 ) ;
#493 = DIRECTION ( 'NONE',  ( 1.000000000000000000, 0.0000000000000000000, 0.0000000000000000000 ) ) ;
#494 = PRODUCT_CONTEXT ( 'NONE', #138, 'mechanical' ) ;
#495 = CARTESIAN_POINT ( 'NONE',  ( -0.03248031496062991907, 0.02736220472440945017, 0.0000000000000000000 ) ) ;
#496 = CARTESIAN_POINT ( 'NONE',  ( 0.008858267716535434683, -0.02736220472440945017, -1.968503937007873921E-05 ) ) ;
#497 = ORIENTED_EDGE ( 'NONE', *, *, #1024, .F. ) ;
#498 = CARTESIAN_POINT ( 'NONE',  ( 0.0000000000000000000, -0.02460629921259842659, 0.02755905511811023584 ) ) ;
#499 = CARTESIAN_POINT ( 'NONE',  ( -0.03248031496062991907, 0.02736220472440945017, -3.937007874015747841E-05 ) ) ;
#500 = VERTEX_POINT ( 'NONE', #33 ) ;
#501 = DIRECTION ( 'NONE',  ( 0.0000000000000000000, 1.000000000000000000, 0.0000000000000000000 ) ) ;
#502 = PRODUCT_DEFINITION ( 'UNKNOWN', '', #693, #220 ) ;
#503 = SURFACE_STYLE_USAGE ( .BOTH. , #88 ) ;
#504 = LINE ( 'NONE', #223, #236 ) ;
#505 = CIRCLE ( 'NONE', #327, 0.007874015748031495954 ) ;
#506 = VERTEX_POINT ( 'NONE', #941 ) ;
#507 = CARTESIAN_POINT ( 'NONE',  ( -0.03641732283464567399, 0.0000000000000000000, 0.0000000000000000000 ) ) ;
#508 = AXIS2_PLACEMENT_3D ( 'NONE', #332, #656, #159 ) ;
#509 = AXIS2_PLACEMENT_3D ( 'NONE', #498, #338, #493 ) ;
#510 =( NAMED_UNIT ( * ) SI_UNIT ( $, .STERADIAN. ) SOLID_ANGLE_UNIT ( ) );
#511 = LINE ( 'NONE', #171, #1073 ) ;
#512 = EDGE_LOOP ( 'NONE', ( #603, #1079, #874, #782 ) ) ;
#513 = CARTESIAN_POINT ( 'NONE',  ( -0.008858267725721773872, 0.02736220473425196933, 0.0000000000000000000 ) ) ;
#514 = VERTEX_POINT ( 'NONE', #769 ) ;
#515 =( NAMED_UNIT ( * ) PLANE_ANGLE_UNIT ( ) SI_UNIT ( $, .RADIAN. ) );
#516 = FACE_BOUND ( 'NONE', #955, .T. ) ;
#517 = DIRECTION ( 'NONE',  ( -1.000000000000000000, 0.0000000000000000000, 0.0000000000000000000 ) ) ;
#518 = EDGE_LOOP ( 'NONE', ( #370, #928, #677, #93 ) ) ;
#519 = LINE ( 'NONE', #761, #842 ) ;
#520 = ADVANCED_FACE ( 'NONE', ( #375 ), #687, .F. ) ;
#521 = ORIENTED_EDGE ( 'NONE', *, *, #665, .T. ) ;
#522 =( LENGTH_UNIT ( ) NAMED_UNIT ( * ) SI_UNIT ( $, .METRE. ) );
#523 = EDGE_CURVE ( 'NONE', #854, #551, #61, .T. ) ;
#524 = LINE ( 'NONE', #286, #1053 ) ;
#525 = CARTESIAN_POINT ( 'NONE',  ( 0.0000000000000000000, -0.02460629921259842659, 0.03897637795275590844 ) ) ;
#526 = CYLINDRICAL_SURFACE ( 'NONE', #436, 0.004921259842519684971 ) ;
#527 = FACE_OUTER_BOUND ( 'NONE', #518, .T. ) ;
#528 = VECTOR ( 'NONE', #757, 39.37007874015748143 ) ;
#529 = MANIFOLD_SOLID_BREP ( 'Cut-Extrude1', #1051 ) ;
#530 = ORIENTED_EDGE ( 'NONE', *, *, #41, .T. ) ;
#531 = VECTOR ( 'NONE', #736, 39.37007874015748143 ) ;
#532 = DIRECTION ( 'NONE',  ( -1.000000000000000000, 0.0000000000000000000, 0.0000000000000000000 ) ) ;
#533 = CARTESIAN_POINT ( 'NONE',  ( 0.008858267716535434683, 0.04862204724409449619, -3.937007874015747841E-05 ) ) ;
#534 = SURFACE_STYLE_FILL_AREA ( #540 ) ;
#535 = PLANE ( 'NONE',  #27 ) ;
#536 = ORIENTED_EDGE ( 'NONE', *, *, #683, .F. ) ;
#537 = EDGE_CURVE ( 'NONE', #111, #592, #929, .T. ) ;
#538 = DIRECTION ( 'NONE',  ( 0.0000000000000000000, 0.0000000000000000000, -1.000000000000000000 ) ) ;
#539 = CARTESIAN_POINT ( 'NONE',  ( 0.03248031496194224432, -0.04862204724081378715, 0.0000000000000000000 ) ) ;
#540 = FILL_AREA_STYLE ('',( #933 ) ) ;
#541 = ORIENTED_EDGE ( 'NONE', *, *, #890, .F. ) ;
#542 = SURFACE_STYLE_FILL_AREA ( #839 ) ;
#543 = DIRECTION ( 'NONE',  ( 0.0000000000000000000, 0.0000000000000000000, 1.000000000000000000 ) ) ;
#544 = SURFACE_SIDE_STYLE ('',( #1027 ) ) ;
#545 = ORIENTED_EDGE ( 'NONE', *, *, #175, .F. ) ;
#546 = VECTOR ( 'NONE', #154, 39.37007874015748143 ) ;
#547 = VECTOR ( 'NONE', #578, 39.37007874015748143 ) ;
#548 = CARTESIAN_POINT ( 'NONE',  ( -0.004921259842519684971, -0.02460629921259842659, 0.03897637795275590844 ) ) ;
#549 = VECTOR ( 'NONE', #315, 39.37007874015748143 ) ;
#550 = SURFACE_STYLE_USAGE ( .BOTH. , #544 ) ;
#551 = VERTEX_POINT ( 'NONE', #50 ) ;
#552 = LENGTH_MEASURE_WITH_UNIT ( LENGTH_MEASURE( 0.02539999999999999897 ), #712 );
#553 = DIRECTION ( 'NONE',  ( 0.0000000000000000000, -1.000000000000000000, 0.0000000000000000000 ) ) ;
#554 = DIRECTION ( 'NONE',  ( 0.0000000000000000000, 1.000000000000000000, 0.0000000000000000000 ) ) ;
#555 = EDGE_LOOP ( 'NONE', ( #1065, #428, #189, #838 ) ) ;
#556 = ADVANCED_FACE ( 'NONE', ( #488, #389 ), #1054, .T. ) ;
#557 = FILL_AREA_STYLE_COLOUR ( '', #1018 ) ;
#558 =( CONVERSION_BASED_UNIT ( 'INCH', #210 ) LENGTH_UNIT ( ) NAMED_UNIT ( #85 ) );
#559 = ORIENTED_EDGE ( 'NONE', *, *, #92, .T. ) ;
#560 = EDGE_CURVE ( 'NONE', #173, #973, #663, .T. ) ;
#561 = COLOUR_RGB ( '',0.5019607843137254832, 1.000000000000000000, 0.5019607843137254832 ) ;
#562 = AXIS2_PLACEMENT_3D ( 'NONE', #906, #144, #63 ) ;
#563 = PLANE ( 'NONE',  #1042 ) ;
#564 =( GEOMETRIC_REPRESENTATION_CONTEXT ( 3 ) GLOBAL_UNCERTAINTY_ASSIGNED_CONTEXT ( ( #483 ) ) GLOBAL_UNIT_ASSIGNED_CONTEXT ( ( #381, #974, #426 ) ) REPRESENTATION_CONTEXT ( 'NONE', 'WORKASPACE' ) );
#565 = ORIENTED_EDGE ( 'NONE', *, *, #977, .T. ) ;
#566 = DIRECTION ( 'NONE',  ( 0.0000000000000000000, 0.0000000000000000000, -1.000000000000000000 ) ) ;
#567 = DIRECTION ( 'NONE',  ( 0.0000000000000000000, -1.000000000000000000, 0.0000000000000000000 ) ) ;
#568 = EDGE_CURVE ( 'NONE', #374, #388, #249, .T. ) ;
#569 = SURFACE_STYLE_FILL_AREA ( #815 ) ;
#570 = ORIENTED_EDGE ( 'NONE', *, *, #665, .F. ) ;
#571 =( CONVERSION_BASED_UNIT ( 'INCH', #132 ) LENGTH_UNIT ( ) NAMED_UNIT ( #907 ) );
#572 = FILL_AREA_STYLE ('',( #214 ) ) ;
#573 = EDGE_CURVE ( 'NONE', #388, #351, #821, .T. ) ;
#574 = EDGE_LOOP ( 'NONE', ( #609, #860, #565, #342 ) ) ;
#575 = PLANE ( 'NONE',  #730 ) ;
#576 = AXIS2_PLACEMENT_3D ( 'NONE', #868, #358, #177 ) ;
#577 = PLANE ( 'NONE',  #489 ) ;
#578 = DIRECTION ( 'NONE',  ( 0.0000000000000000000, 0.0000000000000000000, -1.000000000000000000 ) ) ;
#579 = AXIS2_PLACEMENT_3D ( 'NONE', #964, #28, #391 ) ;
#580 = VERTEX_POINT ( 'NONE', #513 ) ;
#581 = CARTESIAN_POINT ( 'NONE',  ( -0.02066929133858268208, -0.02736220472440945017, 0.0000000000000000000 ) ) ;
#582 = ORIENTED_EDGE ( 'NONE', *, *, #30, .T. ) ;
#583 = DIRECTION ( 'NONE',  ( 0.0000000000000000000, 0.0000000000000000000, 1.000000000000000000 ) ) ;
#584 = ADVANCED_FACE ( 'NONE', ( #414 ), #916, .F. ) ;
#585 = DIMENSIONAL_EXPONENTS ( 1.000000000000000000, 0.0000000000000000000, 0.0000000000000000000, 0.0000000000000000000, 0.0000000000000000000, 0.0000000000000000000, 0.0000000000000000000 ) ;
#586 = CARTESIAN_POINT ( 'NONE',  ( -0.03641732283464567399, 0.05413385826771653642, 0.03937007874015747977 ) ) ;
#587 = ORIENTED_EDGE ( 'NONE', *, *, #849, .T. ) ;
#588 = CARTESIAN_POINT ( 'NONE',  ( -0.03248031496062991907, -0.03523622047244094613, 0.0000000000000000000 ) ) ;
#589 = CARTESIAN_POINT ( 'NONE',  ( -0.004921259842519684971, -0.02460629921259842659, 0.02755905508791787334 ) ) ;
#590 = CARTESIAN_POINT ( 'NONE',  ( 0.03248031496062991907, 0.03799212598425197318, 0.0000000000000000000 ) ) ;
#591 = VECTOR ( 'NONE', #1030, 39.37007874015748143 ) ;
#592 = VERTEX_POINT ( 'NONE', #732 ) ;
#593 = CARTESIAN_POINT ( 'NONE',  ( 0.0000000000000000000, -0.02460629921259842659, 0.03897637795275590844 ) ) ;
#594 = EDGE_CURVE ( 'NONE', #444, #1048, #368, .T. ) ;
#595 = DIRECTION ( 'NONE',  ( 0.0000000000000000000, 0.0000000000000000000, 1.000000000000000000 ) ) ;
#596 = EDGE_LOOP ( 'NONE', ( #396, #802, #297, #279 ) ) ;
#597 = CARTESIAN_POINT ( 'NONE',  ( 0.03641732283464567399, -0.05413385826771653642, 0.03937007874015747977 ) ) ;
#598 = DIRECTION ( 'NONE',  ( 1.000000000000000000, 0.0000000000000000000, 0.0000000000000000000 ) ) ;
#599 = FACE_OUTER_BOUND ( 'NONE', #40, .T. ) ;
#600 = EDGE_CURVE ( 'NONE', #5, #1000, #42, .T. ) ;
#601 = ORIENTED_EDGE ( 'NONE', *, *, #824, .F. ) ;
#602 = DIRECTION ( 'NONE',  ( 1.000000000000000000, 0.0000000000000000000, 0.0000000000000000000 ) ) ;
#603 = ORIENTED_EDGE ( 'NONE', *, *, #770, .T. ) ;
#604 = DIRECTION ( 'NONE',  ( 0.0000000000000000000, 0.0000000000000000000, 1.000000000000000000 ) ) ;
#605 = CARTESIAN_POINT ( 'NONE',  ( -0.02972440945275590593, -0.04586614173503936881, -3.937007874015747841E-05 ) ) ;
#606 = FACE_OUTER_BOUND ( 'NONE', #361, .T. ) ;
#607 = CARTESIAN_POINT ( 'NONE',  ( -0.02972440944881889896, -0.04586614173228345526, 0.0000000000000000000 ) ) ;
#608 = COLOUR_RGB ( '',0.7607843137254901578, 0.7607843137254901578, 0.0000000000000000000 ) ;
#609 = ORIENTED_EDGE ( 'NONE', *, *, #486, .T. ) ;
#610 = EDGE_CURVE ( 'NONE', #768, #168, #65, .T. ) ;
#611 = PRESENTATION_STYLE_ASSIGNMENT (( #25 ) ) ;
#612 = PRESENTATION_LAYER_ASSIGNMENT (  '', '', ( #799 ) ) ;
#613 = CARTESIAN_POINT ( 'NONE',  ( 0.008858267716535434683, 0.02736220472440945017, -3.937007874015747841E-05 ) ) ;
#614 = DIRECTION ( 'NONE',  ( 0.0000000000000000000, 0.0000000000000000000, 1.000000000000000000 ) ) ;
#615 = PLANE ( 'NONE',  #931 ) ;
#616 = ORIENTED_EDGE ( 'NONE', *, *, #537, .T. ) ;
#617 = DIRECTION ( 'NONE',  ( -1.000000000000000000, 0.0000000000000000000, 0.0000000000000000000 ) ) ;
#618 = FACE_OUTER_BOUND ( 'NONE', #349, .T. ) ;
#619 = ORIENTED_EDGE ( 'NONE', *, *, #213, .F. ) ;
#620 = CARTESIAN_POINT ( 'NONE',  ( -0.008858267716535434683, -0.02736220472440945017, -3.937007874015747841E-05 ) ) ;
#621 = DIRECTION ( 'NONE',  ( 1.000000000000000000, 0.0000000000000000000, 0.0000000000000000000 ) ) ;
#622 = DIRECTION ( 'NONE',  ( 0.0000000000000000000, -1.000000000000000000, 0.0000000000000000000 ) ) ;
#623 = DIRECTION ( 'NONE',  ( 0.0000000000000000000, 0.0000000000000000000, -1.000000000000000000 ) ) ;
#624 = VERTEX_POINT ( 'NONE', #1077 ) ;
#625 = VECTOR ( 'NONE', #407, 39.37007874015748143 ) ;
#626 = PRESENTATION_LAYER_ASSIGNMENT (  '', '', ( #710 ) ) ;
#627 = PLANE ( 'NONE',  #709 ) ;
#628 = FACE_OUTER_BOUND ( 'NONE', #9, .T. ) ;
#629 = EDGE_CURVE ( 'NONE', #472, #151, #328, .T. ) ;
#630 = DIRECTION ( 'NONE',  ( 0.0000000000000000000, 0.0000000000000000000, 1.000000000000000000 ) ) ;
#631 = ORIENTED_EDGE ( 'NONE', *, *, #870, .F. ) ;
#632 = DIRECTION ( 'NONE',  ( 0.0000000000000000000, 0.0000000000000000000, 1.000000000000000000 ) ) ;
#633 = EDGE_CURVE ( 'NONE', #768, #1059, #994, .T. ) ;
#634 = ORIENTED_EDGE ( 'NONE', *, *, #285, .T. ) ;
#635 = CARTESIAN_POINT ( 'NONE',  ( -0.008858267716535434683, 0.02736220472440945017, -1.968503937007873921E-05 ) ) ;
#636 = FILL_AREA_STYLE ('',( #199 ) ) ;
#637 = ORIENTED_EDGE ( 'NONE', *, *, #175, .T. ) ;
#638 = EDGE_CURVE ( 'NONE', #961, #224, #334, .T. ) ;
#639 = AXIS2_PLACEMENT_3D ( 'NONE', #812, #156, #321 ) ;
#640 = AXIS2_PLACEMENT_3D ( 'NONE', #525, #751, #825 ) ;
#641 = CARTESIAN_POINT ( 'NONE',  ( 0.02066929133858268208, 0.04862204724409449619, -3.937007874015747841E-05 ) ) ;
#642 = ORIENTED_EDGE ( 'NONE', *, *, #523, .F. ) ;
#643 = EDGE_CURVE ( 'NONE', #303, #333, #245, .T. ) ;
#644 = CARTESIAN_POINT ( 'NONE',  ( 0.03641732283464567399, 0.05413385826771653642, 0.03937007874015747977 ) ) ;
#645 = LENGTH_MEASURE_WITH_UNIT ( LENGTH_MEASURE( 0.02539999999999999897 ), #143 );
#646 = EDGE_CURVE ( 'NONE', #551, #854, #505, .T. ) ;
#647 = VERTEX_POINT ( 'NONE', #403 ) ;
#648 = LINE ( 'NONE', #641, #879 ) ;
#649 = ORIENTED_EDGE ( 'NONE', *, *, #674, .T. ) ;
#650 = VECTOR ( 'NONE', #800, 39.37007874015748143 ) ;
#651 = VECTOR ( 'NONE', #347, 39.37007874015748143 ) ;
#652 = LINE ( 'NONE', #901, #59 ) ;
#653 = ADVANCED_FACE ( 'NONE', ( #188 ), #535, .F. ) ;
#654 = ORIENTED_EDGE ( 'NONE', *, *, #986, .T. ) ;
#655 = FACE_BOUND ( 'NONE', #744, .T. ) ;
#656 = DIRECTION ( 'NONE',  ( 0.0000000000000000000, 0.0000000000000000000, -1.000000000000000000 ) ) ;
#657 = EDGE_CURVE ( 'NONE', #333, #961, #449, .T. ) ;
#658 = EDGE_LOOP ( 'NONE', ( #680, #952, #497, #455 ) ) ;
#659 = DIRECTION ( 'NONE',  ( -1.000000000000000000, 0.0000000000000000000, 0.0000000000000000000 ) ) ;
#660 =( CONVERSION_BASED_UNIT ( 'INCH', #411 ) LENGTH_UNIT ( ) NAMED_UNIT ( #585 ) );
#661 = DIRECTION ( 'NONE',  ( 0.0000000000000000000, -1.000000000000000000, 0.0000000000000000000 ) ) ;
#662 = ORIENTED_EDGE ( 'NONE', *, *, #706, .F. ) ;
#663 = LINE ( 'NONE', #69, #881 ) ;
#664 = DIMENSIONAL_EXPONENTS ( 1.000000000000000000, 0.0000000000000000000, 0.0000000000000000000, 0.0000000000000000000, 0.0000000000000000000, 0.0000000000000000000, 0.0000000000000000000 ) ;
#665 = EDGE_CURVE ( 'NONE', #234, #168, #753, .T. ) ;
#666 = FACE_OUTER_BOUND ( 'NONE', #555, .T. ) ;
#667 = DIRECTION ( 'NONE',  ( -0.7071067810350232241, 0.7071067813380716993, 0.0000000000000000000 ) ) ;
#668 = STYLED_ITEM ( 'NONE', ( #432 ), #863 ) ;
#669 = ORIENTED_EDGE ( 'NONE', *, *, #376, .T. ) ;
#670 = VECTOR ( 'NONE', #81, 39.37007874015748143 ) ;
#671 = CARTESIAN_POINT ( 'NONE',  ( -0.02696850393963256057, -0.04862204724409449619, -3.937007874015747841E-05 ) ) ;
#672 = ORIENTED_EDGE ( 'NONE', *, *, #153, .F. ) ;
#673 =( NAMED_UNIT ( * ) SI_UNIT ( $, .STERADIAN. ) SOLID_ANGLE_UNIT ( ) );
#674 = EDGE_CURVE ( 'NONE', #472, #647, #519, .T. ) ;
#675 = CARTESIAN_POINT ( 'NONE',  ( -0.02696850393700787885, -0.04862204724409449619, -1.968503937007873921E-05 ) ) ;
#676 = LINE ( 'NONE', #167, #252 ) ;
#677 = ORIENTED_EDGE ( 'NONE', *, *, #600, .T. ) ;
#678 = CARTESIAN_POINT ( 'NONE',  ( 0.0000000000000000000, -0.02460629921259842659, 0.03897637795275590844 ) ) ;
#679 = UNCERTAINTY_MEASURE_WITH_UNIT (LENGTH_MEASURE( 1.000000000000000082E-05 ), #558, 'distance_accuracy_value', 'NONE');
#680 = ORIENTED_EDGE ( 'NONE', *, *, #1029, .T. ) ;
#681 = DIRECTION ( 'NONE',  ( 0.0000000000000000000, 1.000000000000000000, 0.0000000000000000000 ) ) ;
#682 = LINE ( 'NONE', #266, #670 ) ;
#683 = EDGE_CURVE ( 'NONE', #936, #492, #399, .T. ) ;
#684 = CARTESIAN_POINT ( 'NONE',  ( 0.0000000000000000000, -0.02460629921259842659, 0.02755905508791787334 ) ) ;
#685 = LINE ( 'NONE', #607, #878 ) ;
#686 = ORIENTED_EDGE ( 'NONE', *, *, #474, .T. ) ;
#687 = PLANE ( 'NONE',  #796 ) ;
#688 = LINE ( 'NONE', #95, #1072 ) ;
#689 = PLANE ( 'NONE',  #781 ) ;
#690 = EDGE_LOOP ( 'NONE', ( #672, #145, #998, #155 ) ) ;
#691 = DIRECTION ( 'NONE',  ( -0.7071067811865219266, 0.7071067811865728858, 0.0000000000000000000 ) ) ;
#692 = VECTOR ( 'NONE', #604, 39.37007874015748143 ) ;
#693 = PRODUCT_DEFINITION_FORMATION_WITH_SPECIFIED_SOURCE ( 'ANY', '', #304, .NOT_KNOWN. ) ;
#694 = EDGE_LOOP ( 'NONE', ( #1011, #110, #891, #129 ) ) ;
#695 = VECTOR ( 'NONE', #192, 39.37007874015748143 ) ;
#696 = PRESENTATION_LAYER_ASSIGNMENT (  '', '', ( #953 ) ) ;
#697 = PLANE ( 'NONE',  #476 ) ;
#698 = PLANE ( 'NONE',  #461 ) ;
#699 = CARTESIAN_POINT ( 'NONE',  ( -0.008858267716535434683, -0.04862204724409449619, -1.968503937007873921E-05 ) ) ;
#700 = ORIENTED_EDGE ( 'NONE', *, *, #335, .T. ) ;
#701 =( NAMED_UNIT ( * ) SI_UNIT ( $, .STERADIAN. ) SOLID_ANGLE_UNIT ( ) );
#702 = CARTESIAN_POINT ( 'NONE',  ( 0.03248031496194224432, 0.04862204724081378715, 0.0000000000000000000 ) ) ;
#703 = CARTESIAN_POINT ( 'NONE',  ( -0.03248031496062991907, -0.04311023622047244208, -3.937007874015747841E-05 ) ) ;
#704 = LENGTH_MEASURE_WITH_UNIT ( LENGTH_MEASURE( 0.02539999999999999897 ), #216 );
#705 = VERTEX_POINT ( 'NONE', #23 ) ;
#706 = EDGE_CURVE ( 'NONE', #506, #973, #362, .T. ) ;
#707 = FACE_OUTER_BOUND ( 'NONE', #122, .T. ) ;
#708 = ORIENTED_EDGE ( 'NONE', *, *, #438, .T. ) ;
#709 = AXIS2_PLACEMENT_3D ( 'NONE', #484, #206, #566 ) ;
#710 = STYLED_ITEM ( 'NONE', ( #124 ), #766 ) ;
#711 = CIRCLE ( 'NONE', #165, 0.007874015748031495954 ) ;
#712 =( LENGTH_UNIT ( ) NAMED_UNIT ( * ) SI_UNIT ( $, .METRE. ) );
#713 = VECTOR ( 'NONE', #169, 39.37007874015748143 ) ;
#714 =( NAMED_UNIT ( * ) SI_UNIT ( $, .STERADIAN. ) SOLID_ANGLE_UNIT ( ) );
#715 = ORIENTED_EDGE ( 'NONE', *, *, #824, .T. ) ;
#716 = DIRECTION ( 'NONE',  ( 0.0000000000000000000, 0.0000000000000000000, 1.000000000000000000 ) ) ;
#717 = LINE ( 'NONE', #958, #118 ) ;
#718 = ADVANCED_FACE ( 'NONE', ( #527 ), #268, .F. ) ;
#719 = ORIENTED_EDGE ( 'NONE', *, *, #285, .F. ) ;
#720 = PRESENTATION_STYLE_ASSIGNMENT (( #956 ) ) ;
#721 = DIRECTION ( 'NONE',  ( 0.0000000000000000000, 1.000000000000000000, 0.0000000000000000000 ) ) ;
#722 = DIRECTION ( 'NONE',  ( 1.000000000000000000, 0.0000000000000000000, 0.0000000000000000000 ) ) ;
#723 = EDGE_CURVE ( 'NONE', #820, #514, #837, .T. ) ;
#724 = EDGE_LOOP ( 'NONE', ( #106, #337 ) ) ;
#725 = UNCERTAINTY_MEASURE_WITH_UNIT (LENGTH_MEASURE( 1.000000000000000082E-05 ), #12, 'distance_accuracy_value', 'NONE');
#726 = EDGE_CURVE ( 'NONE', #406, #961, #356, .T. ) ;
#727 = VECTOR ( 'NONE', #343, 39.37007874015748143 ) ;
#728 = SURFACE_STYLE_USAGE ( .BOTH. , #397 ) ;
#729 = CARTESIAN_POINT ( 'NONE',  ( -0.008858267716535434683, 0.02736220472440945017, -3.937007874015747841E-05 ) ) ;
#730 = AXIS2_PLACEMENT_3D ( 'NONE', #885, #133, #721 ) ;
#731 = ORIENTED_EDGE ( 'NONE', *, *, #1004, .F. ) ;
#732 = CARTESIAN_POINT ( 'NONE',  ( -0.008858267716535434683, 0.04862204724409449619, -3.937007874015747841E-05 ) ) ;
#733 = DIRECTION ( 'NONE',  ( -1.000000000000000000, 0.0000000000000000000, 0.0000000000000000000 ) ) ;
#734 = DIRECTION ( 'NONE',  ( 1.000000000000000000, 0.0000000000000000000, 0.0000000000000000000 ) ) ;
#735 = UNCERTAINTY_MEASURE_WITH_UNIT (LENGTH_MEASURE( 1.000000000000000082E-05 ), #398, 'distance_accuracy_value', 'NONE');
#736 = DIRECTION ( 'NONE',  ( 0.0000000000000000000, 0.0000000000000000000, -1.000000000000000000 ) ) ;
#737 = EDGE_CURVE ( 'NONE', #514, #374, #685, .T. ) ;
#738 = FACE_OUTER_BOUND ( 'NONE', #596, .T. ) ;
#739 = ORIENTED_EDGE ( 'NONE', *, *, #134, .T. ) ;
#740 = AXIS2_PLACEMENT_3D ( 'NONE', #174, #263, #602 ) ;
#741 = PRESENTATION_LAYER_ASSIGNMENT (  '', '', ( #1038 ) ) ;
#742 =( GEOMETRIC_REPRESENTATION_CONTEXT ( 3 ) GLOBAL_UNCERTAINTY_ASSIGNED_CONTEXT ( ( #312 ) ) GLOBAL_UNIT_ASSIGNED_CONTEXT ( ( #967, #377, #884 ) ) REPRESENTATION_CONTEXT ( 'NONE', 'WORKASPACE' ) );
#743 = FACE_OUTER_BOUND ( 'NONE', #314, .T. ) ;
#744 = EDGE_LOOP ( 'NONE', ( #241, #288, #181, #866, #197 ) ) ;
#745 = FACE_OUTER_BOUND ( 'NONE', #791, .T. ) ;
#746 = CARTESIAN_POINT ( 'NONE',  ( -0.008858267716535434683, 0.02736220472440945017, -3.937007874015747841E-05 ) ) ;
#747 = ORIENTED_EDGE ( 'NONE', *, *, #657, .F. ) ;
#748 = CARTESIAN_POINT ( 'NONE',  ( 0.0000000000000000000, -0.02460629921259842659, 0.03897637795275590844 ) ) ;
#749 = EDGE_CURVE ( 'NONE', #168, #472, #1021, .T. ) ;
#750 = CARTESIAN_POINT ( 'NONE',  ( -0.03248031496062991907, 0.02736220472440945017, -3.937007874015747841E-05 ) ) ;
#751 = DIRECTION ( 'NONE',  ( 0.0000000000000000000, 0.0000000000000000000, 1.000000000000000000 ) ) ;
#752 = VERTEX_POINT ( 'NONE', #671 ) ;
#753 = LINE ( 'NONE', #767, #1016 ) ;
#754 = ADVANCED_FACE ( 'NONE', ( #926 ), #999, .F. ) ;
#755 = UNCERTAINTY_MEASURE_WITH_UNIT (LENGTH_MEASURE( 1.000000000000000082E-05 ), #660, 'distance_accuracy_value', 'NONE');
#756 = ORIENTED_EDGE ( 'NONE', *, *, #486, .F. ) ;
#757 = DIRECTION ( 'NONE',  ( 0.0000000000000000000, -1.000000000000000000, 0.0000000000000000000 ) ) ;
#758 = LINE ( 'NONE', #96, #695 ) ;
#759 = VECTOR ( 'NONE', #290, 39.37007874015748143 ) ;
#760 = ORIENTED_EDGE ( 'NONE', *, *, #53, .F. ) ;
#761 = CARTESIAN_POINT ( 'NONE',  ( -0.03641732283464567399, -0.05413385826771653642, 0.01968503937007873988 ) ) ;
#762 = MECHANICAL_DESIGN_GEOMETRIC_PRESENTATION_REPRESENTATION (  '', ( #953 ), #131 ) ;
#763 = DIRECTION ( 'NONE',  ( 1.000000000000000000, 0.0000000000000000000, 0.0000000000000000000 ) ) ;
#764 = CARTESIAN_POINT ( 'NONE',  ( -0.03641732283464567399, -0.05413385826771653642, 0.0000000000000000000 ) ) ;
#765 = CARTESIAN_POINT ( 'NONE',  ( -0.007874015748031495954, -0.02460629921259842659, 0.03937007874015747977 ) ) ;
#766 = ADVANCED_BREP_SHAPE_REPRESENTATION ( 'CUI_DEVICES_CMM-2718AT-3817NC-TR', ( #529, #293 ), #742 ) ;
#767 = CARTESIAN_POINT ( 'NONE',  ( 0.03641732283464567399, 0.0000000000000000000, 0.0000000000000000000 ) ) ;
#768 = VERTEX_POINT ( 'NONE', #597 ) ;
#769 = CARTESIAN_POINT ( 'NONE',  ( -0.02696850393044618321, -0.04862204724081378715, 0.0000000000000000000 ) ) ;
#770 = EDGE_CURVE ( 'NONE', #805, #647, #91, .T. ) ;
#771 = DIRECTION ( 'NONE',  ( -1.000000000000000000, 0.0000000000000000000, 0.0000000000000000000 ) ) ;
#772 = CARTESIAN_POINT ( 'NONE',  ( 0.03248031496194224432, -0.02736220473425196933, 0.0000000000000000000 ) ) ;
#773 = ORIENTED_EDGE ( 'NONE', *, *, #92, .F. ) ;
#774 = DIRECTION ( 'NONE',  ( 0.0000000000000000000, -1.000000000000000000, 0.0000000000000000000 ) ) ;
#775 = VERTEX_POINT ( 'NONE', #253 ) ;
#776 = CARTESIAN_POINT ( 'NONE',  ( -0.02066929133858268208, 0.04862204724409449619, -3.937007874015747841E-05 ) ) ;
#777 = LINE ( 'NONE', #675, #459 ) ;
#778 = CARTESIAN_POINT ( 'NONE',  ( -0.03248031496194224432, -0.04311023621391062849, 0.0000000000000000000 ) ) ;
#779 = VERTEX_POINT ( 'NONE', #750 ) ;
#780 = VECTOR ( 'NONE', #1074, 39.37007874015748143 ) ;
#781 = AXIS2_PLACEMENT_3D ( 'NONE', #433, #661, #992 ) ;
#782 = ORIENTED_EDGE ( 'NONE', *, *, #1004, .T. ) ;
#783 = DIRECTION ( 'NONE',  ( 0.0000000000000000000, 0.0000000000000000000, 1.000000000000000000 ) ) ;
#784 = DIRECTION ( 'NONE',  ( 0.0000000000000000000, 0.0000000000000000000, 1.000000000000000000 ) ) ;
#785 = CARTESIAN_POINT ( 'NONE',  ( -0.03248031496062991907, -0.04311023622230984037, -3.937007874015747841E-05 ) ) ;
#786 = FACE_OUTER_BOUND ( 'NONE', #574, .T. ) ;
#787 = ORIENTED_EDGE ( 'NONE', *, *, #70, .T. ) ;
#788 = ADVANCED_FACE ( 'NONE', ( #743 ), #577, .F. ) ;
#789 = DIRECTION ( 'NONE',  ( 0.0000000000000000000, 1.000000000000000000, 0.0000000000000000000 ) ) ;
#790 = DIRECTION ( 'NONE',  ( 1.000000000000000000, 0.0000000000000000000, 0.0000000000000000000 ) ) ;
#791 = EDGE_LOOP ( 'NONE', ( #970, #448, #1019, #521 ) ) ;
#792 = EDGE_CURVE ( 'NONE', #779, #111, #230, .T. ) ;
#793 = LINE ( 'NONE', #466, #759 ) ;
#794 = LINE ( 'NONE', #864, #475 ) ;
#795 = ORIENTED_EDGE ( 'NONE', *, *, #454, .T. ) ;
#796 = AXIS2_PLACEMENT_3D ( 'NONE', #620, #280, #107 ) ;
#797 = VECTOR ( 'NONE', #659, 39.37007874015748143 ) ;
#798 = AXIS2_PLACEMENT_3D ( 'NONE', #1003, #348, #78 ) ;
#799 = STYLED_ITEM ( 'NONE', ( #720 ), #556 ) ;
#800 = DIRECTION ( 'NONE',  ( 0.0000000000000000000, 0.0000000000000000000, -1.000000000000000000 ) ) ;
#801 = EDGE_CURVE ( 'NONE', #444, #936, #896, .T. ) ;
#802 = ORIENTED_EDGE ( 'NONE', *, *, #1010, .T. ) ;
#803 = ORIENTED_EDGE ( 'NONE', *, *, #643, .F. ) ;
#804 = CARTESIAN_POINT ( 'NONE',  ( 0.008858267725721773872, -0.04862204724081378715, 0.0000000000000000000 ) ) ;
#805 = VERTEX_POINT ( 'NONE', #586 ) ;
#806 = SURFACE_SIDE_STYLE ('',( #205 ) ) ;
#807 = VECTOR ( 'NONE', #880, 39.37007874015748143 ) ;
#808 = LINE ( 'NONE', #395, #203 ) ;
#809 = VECTOR ( 'NONE', #894, 39.37007874015748143 ) ;
#810 = DIRECTION ( 'NONE',  ( 0.0000000000000000000, 0.0000000000000000000, -1.000000000000000000 ) ) ;
#811 = ORIENTED_EDGE ( 'NONE', *, *, #1055, .F. ) ;
#812 = CARTESIAN_POINT ( 'NONE',  ( 0.0000000000000000000, -0.02460629921259842659, 0.03937007874015747977 ) ) ;
#813 = DIRECTION ( 'NONE',  ( -1.000000000000000000, 0.0000000000000000000, 0.0000000000000000000 ) ) ;
#814 = SURFACE_STYLE_FILL_AREA ( #905 ) ;
#815 = FILL_AREA_STYLE ('',( #1058 ) ) ;
#816 = ORIENTED_EDGE ( 'NONE', *, *, #232, .F. ) ;
#817 = UNCERTAINTY_MEASURE_WITH_UNIT (LENGTH_MEASURE( 1.000000000000000082E-05 ), #571, 'distance_accuracy_value', 'NONE');
#818 = DIRECTION ( 'NONE',  ( 1.000000000000000000, 0.0000000000000000000, 0.0000000000000000000 ) ) ;
#819 =( NAMED_UNIT ( * ) SI_UNIT ( $, .STERADIAN. ) SOLID_ANGLE_UNIT ( ) );
#820 = VERTEX_POINT ( 'NONE', #331 ) ;
#821 = LINE ( 'NONE', #581, #77 ) ;
#822 = VECTOR ( 'NONE', #17, 39.37007874015748143 ) ;
#823 =( LENGTH_UNIT ( ) NAMED_UNIT ( * ) SI_UNIT ( $, .METRE. ) );
#824 = EDGE_CURVE ( 'NONE', #351, #262, #828, .T. ) ;
#825 = DIRECTION ( 'NONE',  ( 1.000000000000000000, 0.0000000000000000000, 0.0000000000000000000 ) ) ;
#826 = ORIENTED_EDGE ( 'NONE', *, *, #101, .T. ) ;
#827 = CARTESIAN_POINT ( 'NONE',  ( 0.02066929133858268208, -0.04862204724409449619, -3.937007874015747841E-05 ) ) ;
#828 = LINE ( 'NONE', #324, #437 ) ;
#829 = LINE ( 'NONE', #924, #934 ) ;
#830 = ORIENTED_EDGE ( 'NONE', *, *, #474, .F. ) ;
#831 = DIRECTION ( 'NONE',  ( 1.000000000000000000, 0.0000000000000000000, 0.0000000000000000000 ) ) ;
#832 = ORIENTED_EDGE ( 'NONE', *, *, #910, .T. ) ;
#833 = DIRECTION ( 'NONE',  ( -1.000000000000000000, 0.0000000000000000000, 0.0000000000000000000 ) ) ;
#834 = FACE_BOUND ( 'NONE', #847, .T. ) ;
#835 = CARTESIAN_POINT ( 'NONE',  ( 0.0000000000000000000, -0.05413385826771653642, 0.03937007874015747977 ) ) ;
#836 = ORIENTED_EDGE ( 'NONE', *, *, #723, .T. ) ;
#837 = LINE ( 'NONE', #935, #822 ) ;
#838 = ORIENTED_EDGE ( 'NONE', *, *, #491, .T. ) ;
#839 = FILL_AREA_STYLE ('',( #1014 ) ) ;
#840 = CARTESIAN_POINT ( 'NONE',  ( 0.008858267716535434683, 0.03799212598425197318, -3.937007874015747841E-05 ) ) ;
#841 = PLANE ( 'NONE',  #798 ) ;
#842 = VECTOR ( 'NONE', #180, 39.37007874015748143 ) ;
#843 = DIRECTION ( 'NONE',  ( 1.000000000000000000, 0.0000000000000000000, 0.0000000000000000000 ) ) ;
#844 = COLOUR_RGB ( '',0.7607843137254901578, 0.7607843137254901578, 0.0000000000000000000 ) ;
#845 = DIRECTION ( 'NONE',  ( -1.000000000000000000, 0.0000000000000000000, 0.0000000000000000000 ) ) ;
#846 = PRESENTATION_LAYER_ASSIGNMENT (  '', '', ( #439 ) ) ;
#847 = EDGE_LOOP ( 'NONE', ( #545, #902, #541, #662 ) ) ;
#848 = DIRECTION ( 'NONE',  ( 1.000000000000000000, 0.0000000000000000000, 0.0000000000000000000 ) ) ;
#849 = EDGE_CURVE ( 'NONE', #311, #985, #652, .T. ) ;
#850 = LINE ( 'NONE', #840, #591 ) ;
#851 = LINE ( 'NONE', #103, #217 ) ;
#852 = SURFACE_SIDE_STYLE ('',( #534 ) ) ;
#853 = DIRECTION ( 'NONE',  ( 0.0000000000000000000, 1.000000000000000000, 0.0000000000000000000 ) ) ;
#854 = VERTEX_POINT ( 'NONE', #71 ) ;
#855 = CARTESIAN_POINT ( 'NONE',  ( 0.0000000000000000000, -0.02460629921259842659, 0.03897637795275590844 ) ) ;
#856 = ADVANCED_FACE ( 'NONE', ( #666 ), #422, .F. ) ;
#857 = FACE_OUTER_BOUND ( 'NONE', #922, .T. ) ;
#858 = FACE_OUTER_BOUND ( 'NONE', #1023, .T. ) ;
#859 = SURFACE_STYLE_USAGE ( .BOTH. , #852 ) ;
#860 = ORIENTED_EDGE ( 'NONE', *, *, #537, .F. ) ;
#861 = DIRECTION ( 'NONE',  ( 0.0000000000000000000, -1.000000000000000000, 0.0000000000000000000 ) ) ;
#862 = DIRECTION ( 'NONE',  ( 0.0000000000000000000, 1.000000000000000000, 0.0000000000000000000 ) ) ;
#863 = ADVANCED_FACE ( 'NONE', ( #655, #170, #834, #516, #745 ), #987, .F. ) ;
#864 = CARTESIAN_POINT ( 'NONE',  ( -0.008858267716535434683, -0.03799212598425197318, 0.0000000000000000000 ) ) ;
#865 = AXIS2_PLACEMENT_3D ( 'NONE', #971, #888, #1036 ) ;
#866 = ORIENTED_EDGE ( 'NONE', *, *, #573, .F. ) ;
#867 = COLOUR_RGB ( '',0.7294117647058823151, 0.3568627450980392246, 0.02352941176470588203 ) ;
#868 = CARTESIAN_POINT ( 'NONE',  ( -0.02696850393700787885, -0.04862204724409449619, -3.937007874015747841E-05 ) ) ;
#869 = CARTESIAN_POINT ( 'NONE',  ( 0.03248031496062991907, 0.03799212598425197318, -3.937007874015747841E-05 ) ) ;
#870 = EDGE_CURVE ( 'NONE', #592, #187, #191, .T. ) ;
#871 = ORIENTED_EDGE ( 'NONE', *, *, #404, .T. ) ;
#872 = LINE ( 'NONE', #287, #346 ) ;
#873 = DIRECTION ( 'NONE',  ( 1.000000000000000000, 0.0000000000000000000, 0.0000000000000000000 ) ) ;
#874 = ORIENTED_EDGE ( 'NONE', *, *, #633, .T. ) ;
#875 = EDGE_CURVE ( 'NONE', #374, #311, #14, .T. ) ;
#876 =( LENGTH_UNIT ( ) NAMED_UNIT ( * ) SI_UNIT ( $, .METRE. ) );
#877 = ORIENTED_EDGE ( 'NONE', *, *, #246, .T. ) ;
#878 = VECTOR ( 'NONE', #691, 39.37007874015748854 ) ;
#879 = VECTOR ( 'NONE', #734, 39.37007874015748143 ) ;
#880 = DIRECTION ( 'NONE',  ( 0.0000000000000000000, 0.0000000000000000000, -1.000000000000000000 ) ) ;
#881 = VECTOR ( 'NONE', #1080, 39.37007874015748143 ) ;
#882 = FACE_OUTER_BOUND ( 'NONE', #16, .T. ) ;
#883 = ORIENTED_EDGE ( 'NONE', *, *, #610, .T. ) ;
#884 =( NAMED_UNIT ( * ) SI_UNIT ( $, .STERADIAN. ) SOLID_ANGLE_UNIT ( ) );
#885 = CARTESIAN_POINT ( 'NONE',  ( 0.008858267716535434683, 0.02736220472440945017, -3.937007874015747841E-05 ) ) ;
#886 = SURFACE_STYLE_USAGE ( .BOTH. , #1068 ) ;
#887 = EDGE_LOOP ( 'NONE', ( #530, #619, #601, #787 ) ) ;
#888 = DIRECTION ( 'NONE',  ( -0.0000000000000000000, -0.0000000000000000000, -1.000000000000000000 ) ) ;
#889 = CARTESIAN_POINT ( 'NONE',  ( 0.03248031496062991907, 0.02736220472440945017, -3.937007874015747841E-05 ) ) ;
#890 = EDGE_CURVE ( 'NONE', #973, #1007, #120, .T. ) ;
#891 = ORIENTED_EDGE ( 'NONE', *, *, #674, .F. ) ;
#892 = CARTESIAN_POINT ( 'NONE',  ( 0.0000000000000000000, -0.02460629921259842659, 0.02755905508791787334 ) ) ;
#893 = VECTOR ( 'NONE', #390, 39.37007874015748143 ) ;
#894 = DIRECTION ( 'NONE',  ( 0.0000000000000000000, 0.0000000000000000000, -1.000000000000000000 ) ) ;
#895 = VECTOR ( 'NONE', #789, 39.37007874015748143 ) ;
#896 = LINE ( 'NONE', #589, #546 ) ;
#897 = LINE ( 'NONE', #496, #1020 ) ;
#898 = PRODUCT_RELATED_PRODUCT_CATEGORY ( 'part', '', ( #304 ) ) ;
#899 = ORIENTED_EDGE ( 'NONE', *, *, #376, .F. ) ;
#900 = DIRECTION ( 'NONE',  ( 0.0000000000000000000, 0.0000000000000000000, 1.000000000000000000 ) ) ;
#901 = CARTESIAN_POINT ( 'NONE',  ( -0.03248031496062991907, -0.03523622047519685274, -3.937007874015747841E-05 ) ) ;
#902 = ORIENTED_EDGE ( 'NONE', *, *, #208, .F. ) ;
#903 = DIRECTION ( 'NONE',  ( 1.000000000000000000, 0.0000000000000000000, 0.0000000000000000000 ) ) ;
#904 = ADVANCED_FACE ( 'NONE', ( #857 ), #947, .F. ) ;
#905 = FILL_AREA_STYLE ('',( #912 ) ) ;
#906 = CARTESIAN_POINT ( 'NONE',  ( -0.03248031496062991907, 0.04862204724409449619, 0.0000000000000000000 ) ) ;
#907 = DIMENSIONAL_EXPONENTS ( 1.000000000000000000, 0.0000000000000000000, 0.0000000000000000000, 0.0000000000000000000, 0.0000000000000000000, 0.0000000000000000000, 0.0000000000000000000 ) ;
#908 = ORIENTED_EDGE ( 'NONE', *, *, #84, .F. ) ;
#909 = CARTESIAN_POINT ( 'NONE',  ( 0.03248031496062991907, -0.03799212598425197318, 0.0000000000000000000 ) ) ;
#910 = EDGE_CURVE ( 'NONE', #514, #752, #777, .T. ) ;
#911 = VECTOR ( 'NONE', #621, 39.37007874015748143 ) ;
#912 = FILL_AREA_STYLE_COLOUR ( '', #561 ) ;
#913 = DIRECTION ( 'NONE',  ( 0.0000000000000000000, -1.000000000000000000, 0.0000000000000000000 ) ) ;
#914 = AXIS2_PLACEMENT_3D ( 'NONE', #207, #282, #1037 ) ;
#915 = EDGE_LOOP ( 'NONE', ( #686, #100, #119, #637 ) ) ;
#916 = CYLINDRICAL_SURFACE ( 'NONE', #968, 0.004921259842519684971 ) ;
#917 = LINE ( 'NONE', #222, #8 ) ;
#918 = DIRECTION ( 'NONE',  ( 0.0000000000000000000, 1.000000000000000000, 0.0000000000000000000 ) ) ;
#919 = PLANE ( 'NONE',  #309 ) ;
#920 = ORIENTED_EDGE ( 'NONE', *, *, #629, .F. ) ;
#921 = CARTESIAN_POINT ( 'NONE',  ( 0.03248031496062991907, -0.02736220472440945017, -3.937007874015747841E-05 ) ) ;
#922 = EDGE_LOOP ( 'NONE', ( #715, #227, #669, #425 ) ) ;
#923 = PLANE ( 'NONE',  #44 ) ;
#924 = CARTESIAN_POINT ( 'NONE',  ( -0.02066929133858268208, -0.02736220472440945017, -3.937007874015747841E-05 ) ) ;
#925 = VERTEX_POINT ( 'NONE', #352 ) ;
#926 = FACE_OUTER_BOUND ( 'NONE', #393, .T. ) ;
#927 = ADVANCED_FACE ( 'NONE', ( #6 ), #923, .F. ) ;
#928 = ORIENTED_EDGE ( 'NONE', *, *, #445, .T. ) ;
#929 = LINE ( 'NONE', #776, #325 ) ;
#930 = CARTESIAN_POINT ( 'NONE',  ( -0.03248031496062991907, -0.04311023622047244208, -1.968503937007873921E-05 ) ) ;
#931 = AXIS2_PLACEMENT_3D ( 'NONE', #959, #623, #369 ) ;
#932 = FACE_OUTER_BOUND ( 'NONE', #1041, .T. ) ;
#933 = FILL_AREA_STYLE_COLOUR ( '', #608 ) ;
#934 = VECTOR ( 'NONE', #178, 39.37007874015748143 ) ;
#935 = CARTESIAN_POINT ( 'NONE',  ( -0.01791338582677165503, -0.04862204724409449619, 0.0000000000000000000 ) ) ;
#936 = VERTEX_POINT ( 'NONE', #548 ) ;
#937 = DIRECTION ( 'NONE',  ( -0.0000000000000000000, -0.0000000000000000000, -1.000000000000000000 ) ) ;
#938 = LINE ( 'NONE', #835, #76 ) ;
#939 = ORIENTED_EDGE ( 'NONE', *, *, #1002, .F. ) ;
#940 = VERTEX_POINT ( 'NONE', #1008 ) ;
#941 = CARTESIAN_POINT ( 'NONE',  ( 0.008858267725721773872, 0.02736220473425196933, 0.0000000000000000000 ) ) ;
#942 = ADVANCED_FACE ( 'NONE', ( #195, #460 ), #697, .T. ) ;
#943 = DIRECTION ( 'NONE',  ( 1.000000000000000000, 0.0000000000000000000, 0.0000000000000000000 ) ) ;
#944 = CARTESIAN_POINT ( 'NONE',  ( -0.03248031496194224432, -0.02736220473425196933, 0.0000000000000000000 ) ) ;
#945 = CARTESIAN_POINT ( 'NONE',  ( 0.03248031496062991907, 0.02736220472440945017, -3.937007874015747841E-05 ) ) ;
#946 = ORIENTED_EDGE ( 'NONE', *, *, #737, .T. ) ;
#947 = PLANE ( 'NONE',  #94 ) ;
#948 = FACE_OUTER_BOUND ( 'NONE', #176, .T. ) ;
#949 = MECHANICAL_DESIGN_GEOMETRIC_PRESENTATION_REPRESENTATION (  '', ( #1038 ), #233 ) ;
#950 = LINE ( 'NONE', #699, #457 ) ;
#951 = AXIS2_PLACEMENT_3D ( 'NONE', #921, #845, #257 ) ;
#952 = ORIENTED_EDGE ( 'NONE', *, *, #801, .T. ) ;
#953 = STYLED_ITEM ( 'NONE', ( #470 ), #408 ) ;
#954 = CARTESIAN_POINT ( 'NONE',  ( -0.008858267725721773872, -0.02736220473425196933, 0.0000000000000000000 ) ) ;
#955 = EDGE_LOOP ( 'NONE', ( #193, #803, #49, #760 ) ) ;
#956 = SURFACE_STYLE_USAGE ( .BOTH. , #806 ) ;
#957 = LINE ( 'NONE', #635, #893 ) ;
#958 = CARTESIAN_POINT ( 'NONE',  ( -0.03248031496062991907, -0.02736220472440945017, -1.968503937007873921E-05 ) ) ;
#959 = CARTESIAN_POINT ( 'NONE',  ( 0.03248031496062991907, -0.04862204724409449619, -3.937007874015747841E-05 ) ) ;
#960 = EDGE_CURVE ( 'NONE', #209, #303, #34, .T. ) ;
#961 = VERTEX_POINT ( 'NONE', #108 ) ;
#962 = LENGTH_MEASURE_WITH_UNIT ( LENGTH_MEASURE( 0.02539999999999999897 ), #137 );
#963 = CARTESIAN_POINT ( 'NONE',  ( 0.008858267716535434683, -0.04862204724409449619, -1.968503937007873921E-05 ) ) ;
#964 = CARTESIAN_POINT ( 'NONE',  ( -0.008858267716535434683, 0.04862204724409449619, -3.937007874015747841E-05 ) ) ;
#965 = ORIENTED_EDGE ( 'NONE', *, *, #960, .T. ) ;
#966 = VECTOR ( 'NONE', #501, 39.37007874015748143 ) ;
#967 =( CONVERSION_BASED_UNIT ( 'INCH', #552 ) LENGTH_UNIT ( ) NAMED_UNIT ( #1064 ) );
#968 = AXIS2_PLACEMENT_3D ( 'NONE', #892, #900, #152 ) ;
#969 = PLANE ( 'NONE',  #478 ) ;
#970 = ORIENTED_EDGE ( 'NONE', *, *, #749, .T. ) ;
#971 = CARTESIAN_POINT ( 'NONE',  ( 0.0000000000000000000, -0.02460629921259842659, 0.02755905511811023584 ) ) ;
#972 = ADVANCED_FACE ( 'NONE', ( #102 ), #185, .F. ) ;
#973 = VERTEX_POINT ( 'NONE', #1026 ) ;
#974 =( NAMED_UNIT ( * ) PLANE_ANGLE_UNIT ( ) SI_UNIT ( $, .RADIAN. ) );
#975 = DIMENSIONAL_EXPONENTS ( 1.000000000000000000, 0.0000000000000000000, 0.0000000000000000000, 0.0000000000000000000, 0.0000000000000000000, 0.0000000000000000000, 0.0000000000000000000 ) ;
#976 = CARTESIAN_POINT ( 'NONE',  ( 0.008858267716535434683, 0.02736220472440945017, -1.968503937007873921E-05 ) ) ;
#977 = EDGE_CURVE ( 'NONE', #111, #179, #281, .T. ) ;
#978 = CARTESIAN_POINT ( 'NONE',  ( 0.0000000000000000000, -0.02460629921259842659, 0.03937007874015747977 ) ) ;
#979 = EDGE_LOOP ( 'NONE', ( #18, #642, #989, #826 ) ) ;
#980 = VECTOR ( 'NONE', #617, 39.37007874015748143 ) ;
#981 =( GEOMETRIC_REPRESENTATION_CONTEXT ( 3 ) GLOBAL_UNCERTAINTY_ASSIGNED_CONTEXT ( ( #817 ) ) GLOBAL_UNIT_ASSIGNED_CONTEXT ( ( #571, #51, #305 ) ) REPRESENTATION_CONTEXT ( 'NONE', 'WORKASPACE' ) );
#982 = SURFACE_STYLE_USAGE ( .BOTH. , #1057 ) ;
#983 =( GEOMETRIC_REPRESENTATION_CONTEXT ( 3 ) GLOBAL_UNCERTAINTY_ASSIGNED_CONTEXT ( ( #735 ) ) GLOBAL_UNIT_ASSIGNED_CONTEXT ( ( #398, #515, #673 ) ) REPRESENTATION_CONTEXT ( 'NONE', 'WORKASPACE' ) );
#984 = CARTESIAN_POINT ( 'NONE',  ( -0.03248031496062991907, 0.03799212598425197318, -3.937007874015747841E-05 ) ) ;
#985 = VERTEX_POINT ( 'NONE', #1001 ) ;
#986 = EDGE_CURVE ( 'NONE', #333, #456, #524, .T. ) ;
#987 = PLANE ( 'NONE',  #383 ) ;
#988 = LINE ( 'NONE', #52, #420 ) ;
#989 = ORIENTED_EDGE ( 'NONE', *, *, #371, .T. ) ;
#990 = DIRECTION ( 'NONE',  ( 0.0000000000000000000, -1.000000000000000000, 0.0000000000000000000 ) ) ;
#991 =( NAMED_UNIT ( * ) PLANE_ANGLE_UNIT ( ) SI_UNIT ( $, .RADIAN. ) );
#992 = DIRECTION ( 'NONE',  ( 1.000000000000000000, 0.0000000000000000000, 0.0000000000000000000 ) ) ;
#993 = ORIENTED_EDGE ( 'NONE', *, *, #890, .T. ) ;
#994 = LINE ( 'NONE', #73, #364 ) ;
#995 = CARTESIAN_POINT ( 'NONE',  ( -0.03641732283464567399, -0.05413385826771653642, 0.0000000000000000000 ) ) ;
#996 = FACE_OUTER_BOUND ( 'NONE', #29, .T. ) ;
#997 = AXIS2_PLACEMENT_3D ( 'NONE', #748, #583, #228 ) ;
#998 = ORIENTED_EDGE ( 'NONE', *, *, #1043, .F. ) ;
#999 = PLANE ( 'NONE',  #951 ) ;
#1000 = VERTEX_POINT ( 'NONE', #260 ) ;
#1001 = CARTESIAN_POINT ( 'NONE',  ( -0.03248031496062991907, -0.02736220472440945017, -3.937007874015747841E-05 ) ) ;
#1002 = EDGE_CURVE ( 'NONE', #136, #173, #850, .T. ) ;
#1003 = CARTESIAN_POINT ( 'NONE',  ( -0.03248031496062991907, -0.04311023622047244208, -3.937007874015747841E-05 ) ) ;
#1004 = EDGE_CURVE ( 'NONE', #1059, #805, #1015, .T. ) ;
#1005 = EDGE_LOOP ( 'NONE', ( #832, #320, #430, #836 ) ) ;
#1006 = CARTESIAN_POINT ( 'NONE',  ( 0.0000000000000000000, -0.05413385826771653642, 0.0000000000000000000 ) ) ;
#1007 = VERTEX_POINT ( 'NONE', #702 ) ;
#1008 = CARTESIAN_POINT ( 'NONE',  ( -0.008858267716535434683, -0.04862204724409449619, -3.937007874015747841E-05 ) ) ;
#1009 = LINE ( 'NONE', #605, #274 ) ;
#1010 = EDGE_CURVE ( 'NONE', #64, #136, #688, .T. ) ;
#1011 = ORIENTED_EDGE ( 'NONE', *, *, #610, .F. ) ;
#1012 = DIRECTION ( 'NONE',  ( 1.000000000000000000, 0.0000000000000000000, 0.0000000000000000000 ) ) ;
#1013 = ORIENTED_EDGE ( 'NONE', *, *, #240, .T. ) ;
#1014 = FILL_AREA_STYLE_COLOUR ( '', #867 ) ;
#1015 = LINE ( 'NONE', #452, #980 ) ;
#1016 = VECTOR ( 'NONE', #4, 39.37007874015748143 ) ;
#1017 = CARTESIAN_POINT ( 'NONE',  ( -0.03248031496194224432, 0.04862204724081378715, 0.0000000000000000000 ) ) ;
#1018 = COLOUR_RGB ( '',0.7294117647058823151, 0.3568627450980392246, 0.02352941176470588203 ) ;
#1019 = ORIENTED_EDGE ( 'NONE', *, *, #166, .T. ) ;
#1020 = VECTOR ( 'NONE', #412, 39.37007874015748143 ) ;
#1021 = LINE ( 'NONE', #1006, #727 ) ;
#1022 = STYLED_ITEM ( 'NONE', ( #431 ), #415 ) ;
#1023 = EDGE_LOOP ( 'NONE', ( #479, #631, #756, #380 ) ) ;
#1024 = EDGE_CURVE ( 'NONE', #492, #936, #1040, .T. ) ;
#1025 = CARTESIAN_POINT ( 'NONE',  ( -0.03248031496062991907, 0.03799212598425197318, 0.0000000000000000000 ) ) ;
#1026 = CARTESIAN_POINT ( 'NONE',  ( 0.008858267725721773872, 0.04862204724081378715, 0.0000000000000000000 ) ) ;
#1027 = SURFACE_STYLE_FILL_AREA ( #636 ) ;
#1028 = ORIENTED_EDGE ( 'NONE', *, *, #491, .F. ) ;
#1029 = EDGE_CURVE ( 'NONE', #1048, #444, #250, .T. ) ;
#1030 = DIRECTION ( 'NONE',  ( 0.0000000000000000000, 1.000000000000000000, 0.0000000000000000000 ) ) ;
#1031 = PLANE ( 'NONE',  #200 ) ;
#1032 = APPLICATION_CONTEXT ( 'automotive_design' ) ;
#1033 = ORIENTED_EDGE ( 'NONE', *, *, #454, .F. ) ;
#1034 = FILL_AREA_STYLE_COLOUR ( '', #276 ) ;
#1035 = PRODUCT_DEFINITION_SHAPE ( 'NONE', 'NONE',  #502 ) ;
#1036 = DIRECTION ( 'NONE',  ( 1.000000000000000000, 0.0000000000000000000, 0.0000000000000000000 ) ) ;
#1037 = DIRECTION ( 'NONE',  ( 0.0000000000000000000, -1.000000000000000000, 0.0000000000000000000 ) ) ;
#1038 = STYLED_ITEM ( 'NONE', ( #471 ), #21 ) ;
#1039 = FACE_OUTER_BOUND ( 'NONE', #11, .T. ) ;
#1040 = CIRCLE ( 'NONE', #146, 0.004921259842519684971 ) ;
#1041 = EDGE_LOOP ( 'NONE', ( #739, #270, #487, #965 ) ) ;
#1042 = AXIS2_PLACEMENT_3D ( 'NONE', #729, #313, #480 ) ;
#1043 = EDGE_CURVE ( 'NONE', #456, #224, #469, .T. ) ;
#1044 = ORIENTED_EDGE ( 'NONE', *, *, #523, .T. ) ;
#1045 = FACE_OUTER_BOUND ( 'NONE', #450, .T. ) ;
#1046 = PLANE ( 'NONE',  #579 ) ;
#1047 = EDGE_CURVE ( 'NONE', #705, #64, #793, .T. ) ;
#1048 = VERTEX_POINT ( 'NONE', #394 ) ;
#1049 = CARTESIAN_POINT ( 'NONE',  ( -0.03641732283464567399, -0.05413385826771653642, 0.0000000000000000000 ) ) ;
#1050 = CARTESIAN_POINT ( 'NONE',  ( 0.03248031496062991907, 0.04862204724409449619, -1.968503937007873921E-05 ) ) ;
#1051 = CLOSED_SHELL ( 'NONE', ( #718, #584, #13, #269, #21, #157, #415, #408, #182, #754, #57, #385, #392, #123, #927, #464, #80, #360, #788, #856, #904, #520, #972, #190, #319, #863, #353, #1067, #653, #172, #942, #556, #289 ) ) ;
#1052 = ORIENTED_EDGE ( 'NONE', *, *, #875, .T. ) ;
#1053 = VECTOR ( 'NONE', #532, 39.37007874015748143 ) ;
#1054 = PLANE ( 'NONE',  #997 ) ;
#1055 = EDGE_CURVE ( 'NONE', #234, #1059, #382, .T. ) ;
#1056 = VECTOR ( 'NONE', #622, 39.37007874015748143 ) ;
#1057 = SURFACE_SIDE_STYLE ('',( #229 ) ) ;
#1058 = FILL_AREA_STYLE_COLOUR ( '', #844 ) ;
#1059 = VERTEX_POINT ( 'NONE', #644 ) ;
#1060 = EDGE_CURVE ( 'NONE', #580, #187, #957, .T. ) ;
#1061 = CARTESIAN_POINT ( 'NONE',  ( -0.02066929133858268208, 0.02736220472440945017, 0.0000000000000000000 ) ) ;
#1062 = DIRECTION ( 'NONE',  ( 0.0000000000000000000, 0.0000000000000000000, -1.000000000000000000 ) ) ;
#1063 = DIRECTION ( 'NONE',  ( 1.000000000000000000, 0.0000000000000000000, 0.0000000000000000000 ) ) ;
#1064 = DIMENSIONAL_EXPONENTS ( 1.000000000000000000, 0.0000000000000000000, 0.0000000000000000000, 0.0000000000000000000, 0.0000000000000000000, 0.0000000000000000000, 0.0000000000000000000 ) ;
#1065 = ORIENTED_EDGE ( 'NONE', *, *, #977, .F. ) ;
#1066 = LINE ( 'NONE', #1025, #895 ) ;
#1067 = ADVANCED_FACE ( 'NONE', ( #1045 ), #627, .F. ) ;
#1068 = SURFACE_SIDE_STYLE ('',( #569 ) ) ;
#1069 = EDGE_LOOP ( 'NONE', ( #1033, #32, #326, #1028 ) ) ;
#1070 = CARTESIAN_POINT ( 'NONE',  ( 0.03641732283464567399, -0.05413385826771653642, 0.01968503937007873988 ) ) ;
#1071 = DIMENSIONAL_EXPONENTS ( 1.000000000000000000, 0.0000000000000000000, 0.0000000000000000000, 0.0000000000000000000, 0.0000000000000000000, 0.0000000000000000000, 0.0000000000000000000 ) ;
#1072 = VECTOR ( 'NONE', #771, 39.37007874015748143 ) ;
#1073 = VECTOR ( 'NONE', #595, 39.37007874015748143 ) ;
#1074 = DIRECTION ( 'NONE',  ( 0.0000000000000000000, 1.000000000000000000, 0.0000000000000000000 ) ) ;
#1075 = PLANE ( 'NONE',  #508 ) ;
#1076 = ORIENTED_EDGE ( 'NONE', *, *, #683, .T. ) ;
#1077 = CARTESIAN_POINT ( 'NONE',  ( 0.03248031496062991907, 0.04862204724409449619, -3.937007874015747841E-05 ) ) ;
#1078 = DIRECTION ( 'NONE',  ( 0.0000000000000000000, 1.000000000000000000, 0.0000000000000000000 ) ) ;
#1079 = ORIENTED_EDGE ( 'NONE', *, *, #201, .T. ) ;
#1080 = DIRECTION ( 'NONE',  ( 0.0000000000000000000, 0.0000000000000000000, 1.000000000000000000 ) ) ;
ENDSEC;
END-ISO-10303-21;
