ISO-10303-21;
HEADER;
FILE_DESCRIPTION (( 'STEP AP214' ),
    '1' );
FILE_NAME ('XAL7030-152MEC.STEP',
    '2024-03-01T03:16:02',
    ( '' ),
    ( '' ),
    'SwSTEP 2.0',
    'SolidWorks 2021',
    '' );
FILE_SCHEMA (( 'AUTOMOTIVE_DESIGN' ));
ENDSEC;

DATA;
#1 = ORIENTED_EDGE ( 'NONE', *, *, #108, .F. ) ;
#2 = CARTESIAN_POINT ( 'NONE',  ( -2.600000000000000089, 3.100000000000000089, 2.250000000000000444 ) ) ;
#3 = CARTESIAN_POINT ( 'NONE',  ( -2.899999999999999911, 3.049999999999999822, -2.249999999999999556 ) ) ;
#4 = DIRECTION ( 'NONE',  ( -5.421010862427522170E-16, 0.000000000000000000, -1.000000000000000000 ) ) ;
#5 = ORIENTED_EDGE ( 'NONE', *, *, #40, .F. ) ;
#6 = ADVANCED_FACE ( 'NONE', ( #400 ), #321, .F. ) ;
#7 = EDGE_CURVE ( 'NONE', #387, #211, #1176, .T. ) ;
#8 = PLANE ( 'NONE',  #601 ) ;
#9 = PRESENTATION_STYLE_ASSIGNMENT (( #677 ) ) ;
#10 = ORIENTED_EDGE ( 'NONE', *, *, #254, .F. ) ;
#11 = EDGE_CURVE ( 'NONE', #737, #1123, #1156, .T. ) ;
#12 = LINE ( 'NONE', #476, #883 ) ;
#13 = SURFACE_SIDE_STYLE ('',( #1134 ) ) ;
#14 = SURFACE_STYLE_FILL_AREA ( #763 ) ;
#15 = DIRECTION ( 'NONE',  ( -0.000000000000000000, -0.000000000000000000, 1.000000000000000000 ) ) ;
#16 = COLOUR_RGB ( '',0.2509803921568627416, 0.2509803921568627416, 0.2509803921568627416 ) ;
#17 =( LENGTH_UNIT ( ) NAMED_UNIT ( * ) SI_UNIT ( .MILLI., .METRE. ) );
#18 = MECHANICAL_DESIGN_GEOMETRIC_PRESENTATION_REPRESENTATION (  '', ( #703 ), #223 ) ;
#19 = ORIENTED_EDGE ( 'NONE', *, *, #964, .F. ) ;
#20 = COLOUR_RGB ( '',0.2509803921568627416, 0.2509803921568627416, 0.2509803921568627416 ) ;
#21 = CARTESIAN_POINT ( 'NONE',  ( -3.449999999999999289, 3.100000000000000089, -3.749999999999999556 ) ) ;
#22 = CYLINDRICAL_SURFACE ( 'NONE', #566, 0.2999999999999994893 ) ;
#23 = DIRECTION ( 'NONE',  ( -1.000000000000000000, 0.000000000000000000, 0.000000000000000000 ) ) ;
#24 = EDGE_LOOP ( 'NONE', ( #622, #406, #5, #591 ) ) ;
#25 = FACE_OUTER_BOUND ( 'NONE', #75, .T. ) ;
#26 = ADVANCED_FACE ( 'NONE', ( #130 ), #693, .F. ) ;
#27 = DIRECTION ( 'NONE',  ( 1.000000000000000000, -0.000000000000000000, -5.421010862427522170E-16 ) ) ;
#28 = EDGE_LOOP ( 'NONE', ( #699, #44, #1, #342 ) ) ;
#29 = LINE ( 'NONE', #310, #327 ) ;
#30 = CARTESIAN_POINT ( 'NONE',  ( -1.560000000000000275, 0.1500000000000008271, -2.999999999999999556 ) ) ;
#31 = UNCERTAINTY_MEASURE_WITH_UNIT (LENGTH_MEASURE( 1.000000000000000082E-05 ), #331, 'distance_accuracy_value', 'NONE');
#32 = DIRECTION ( 'NONE',  ( -3.614007241618347908E-17, 0.000000000000000000, 1.000000000000000000 ) ) ;
#33 = EDGE_LOOP ( 'NONE', ( #334, #1201, #224, #1077 ) ) ;
#34 = AXIS2_PLACEMENT_3D ( 'NONE', #515, #423, #1179 ) ;
#35 = VECTOR ( 'NONE', #842, 1000.000000000000000 ) ;
#36 = AXIS2_PLACEMENT_3D ( 'NONE', #829, #146, #1096 ) ;
#37 = EDGE_CURVE ( 'NONE', #667, #1066, #333, .T. ) ;
#38 = CARTESIAN_POINT ( 'NONE',  ( 1.560000000000002052, 0.1500000000000008271, 3.000000000000000444 ) ) ;
#39 = DIRECTION ( 'NONE',  ( 0.000000000000000000, 0.000000000000000000, 1.000000000000000000 ) ) ;
#40 = EDGE_CURVE ( 'NONE', #503, #606, #876, .T. ) ;
#41 = UNCERTAINTY_MEASURE_WITH_UNIT (LENGTH_MEASURE( 1.000000000000000082E-05 ), #1175, 'distance_accuracy_value', 'NONE');
#42 =( LENGTH_UNIT ( ) NAMED_UNIT ( * ) SI_UNIT ( .MILLI., .METRE. ) );
#43 = EDGE_LOOP ( 'NONE', ( #849, #222, #1044, #730 ) ) ;
#44 = ORIENTED_EDGE ( 'NONE', *, *, #1004, .F. ) ;
#45 = EDGE_CURVE ( 'NONE', #814, #801, #527, .T. ) ;
#46 = SURFACE_STYLE_USAGE ( .BOTH. , #404 ) ;
#47 = VERTEX_POINT ( 'NONE', #62 ) ;
#48 = VERTEX_POINT ( 'NONE', #818 ) ;
#49 = VECTOR ( 'NONE', #884, 1000.000000000000000 ) ;
#50 = CARTESIAN_POINT ( 'NONE',  ( 0.000000000000000000, 0.1499999999999999944, 0.000000000000000000 ) ) ;
#51 = MECHANICAL_DESIGN_GEOMETRIC_PRESENTATION_REPRESENTATION (  '', ( #418 ), #630 ) ;
#52 =( NAMED_UNIT ( * ) SI_UNIT ( $, .STERADIAN. ) SOLID_ANGLE_UNIT ( ) );
#53 = VECTOR ( 'NONE', #1145, 1000.000000000000000 ) ;
#54 = SURFACE_STYLE_FILL_AREA ( #899 ) ;
#55 = CARTESIAN_POINT ( 'NONE',  ( -1.560000000000000497, 0.000000000000000000, 3.000000000000000888 ) ) ;
#56 = ORIENTED_EDGE ( 'NONE', *, *, #664, .F. ) ;
#57 = ORIENTED_EDGE ( 'NONE', *, *, #7, .F. ) ;
#58 =( LENGTH_UNIT ( ) NAMED_UNIT ( * ) SI_UNIT ( .MILLI., .METRE. ) );
#59 = CARTESIAN_POINT ( 'NONE',  ( -2.600000000000000089, 3.049999999999999822, 2.250000000000000444 ) ) ;
#60 = EDGE_CURVE ( 'NONE', #507, #503, #432, .T. ) ;
#61 = FILL_AREA_STYLE ('',( #743 ) ) ;
#62 = CARTESIAN_POINT ( 'NONE',  ( -3.160000000000000586, 0.1500000000000008271, 3.000000000000000444 ) ) ;
#63 = EDGE_LOOP ( 'NONE', ( #96, #800, #137, #1190 ) ) ;
#64 = DIRECTION ( 'NONE',  ( -1.000000000000000000, 0.000000000000000000, -2.710505431213761085E-16 ) ) ;
#65 = LINE ( 'NONE', #640, #1016 ) ;
#66 = ORIENTED_EDGE ( 'NONE', *, *, #169, .F. ) ;
#67 = CLOSED_SHELL ( 'NONE', ( #495, #6, #197, #440, #1150, #119 ) ) ;
#68 = DIRECTION ( 'NONE',  ( -1.000000000000000000, -0.000000000000000000, -0.000000000000000000 ) ) ;
#69 = FILL_AREA_STYLE_COLOUR ( '', #482 ) ;
#70 = DIRECTION ( 'NONE',  ( 0.000000000000000000, 1.000000000000000000, 0.000000000000000000 ) ) ;
#71 = COLOUR_RGB ( '',0.2509803921568627416, 0.2509803921568627416, 0.2509803921568627416 ) ;
#72 = SURFACE_SIDE_STYLE ('',( #995 ) ) ;
#73 = STYLED_ITEM ( 'NONE', ( #1157 ), #1136 ) ;
#74 = FILL_AREA_STYLE ('',( #736 ) ) ;
#75 = EDGE_LOOP ( 'NONE', ( #1109, #1063, #584, #1160 ) ) ;
#76 = EDGE_CURVE ( 'NONE', #949, #91, #1142, .T. ) ;
#77 = DIRECTION ( 'NONE',  ( -1.000000000000000000, -0.000000000000000000, -0.000000000000000000 ) ) ;
#78 = PRESENTATION_STYLE_ASSIGNMENT (( #233 ) ) ;
#79 = ORIENTED_EDGE ( 'NONE', *, *, #789, .T. ) ;
#80 = CARTESIAN_POINT ( 'NONE',  ( -3.160000000000000586, 0.1500000000000008271, 3.000000000000000444 ) ) ;
#81 =( NAMED_UNIT ( * ) SI_UNIT ( $, .STERADIAN. ) SOLID_ANGLE_UNIT ( ) );
#82 = PRESENTATION_STYLE_ASSIGNMENT (( #1104 ) ) ;
#83 = ORIENTED_EDGE ( 'NONE', *, *, #76, .T. ) ;
#84 = DIRECTION ( 'NONE',  ( -0.000000000000000000, -0.000000000000000000, 1.000000000000000000 ) ) ;
#85 = UNCERTAINTY_MEASURE_WITH_UNIT (LENGTH_MEASURE( 1.000000000000000082E-05 ), #1055, 'distance_accuracy_value', 'NONE');
#86 = PRESENTATION_STYLE_ASSIGNMENT (( #676 ) ) ;
#87 = CLOSED_SHELL ( 'NONE', ( #144, #848, #697, #921, #549, #530 ) ) ;
#88 = PLANE ( 'NONE',  #728 ) ;
#89 = VECTOR ( 'NONE', #1008, 1000.000000000000000 ) ;
#90 = VECTOR ( 'NONE', #375, 1000.000000000000000 ) ;
#91 = VERTEX_POINT ( 'NONE', #956 ) ;
#92 = PRESENTATION_LAYER_ASSIGNMENT (  '', '', ( #73 ) ) ;
#93 = DIRECTION ( 'NONE',  ( -0.000000000000000000, -1.000000000000000000, -0.000000000000000000 ) ) ;
#94 = FACE_OUTER_BOUND ( 'NONE', #744, .T. ) ;
#95 = EDGE_CURVE ( 'NONE', #470, #853, #868, .T. ) ;
#96 = ORIENTED_EDGE ( 'NONE', *, *, #1043, .T. ) ;
#97 = CARTESIAN_POINT ( 'NONE',  ( -2.600000000000000089, 3.049999999999999822, 2.250000000000000444 ) ) ;
#98 = DIRECTION ( 'NONE',  ( 0.000000000000000000, 0.000000000000000000, -1.000000000000000000 ) ) ;
#99 = FACE_OUTER_BOUND ( 'NONE', #508, .T. ) ;
#100 = ORIENTED_EDGE ( 'NONE', *, *, #215, .T. ) ;
#101 = CARTESIAN_POINT ( 'NONE',  ( -3.449999999999999289, 3.100000000000000089, -3.449999999999999734 ) ) ;
#102 = FACE_OUTER_BOUND ( 'NONE', #28, .T. ) ;
#103 = VECTOR ( 'NONE', #726, 1000.000000000000000 ) ;
#104 = ORIENTED_EDGE ( 'NONE', *, *, #1003, .T. ) ;
#105 = PRESENTATION_LAYER_ASSIGNMENT (  '', '', ( #502 ) ) ;
#106 = CARTESIAN_POINT ( 'NONE',  ( -1.560000000000000275, 0.1500000000000008271, -2.999999999999999556 ) ) ;
#107 =( NAMED_UNIT ( * ) PLANE_ANGLE_UNIT ( ) SI_UNIT ( $, .RADIAN. ) );
#108 = EDGE_CURVE ( 'NONE', #1213, #47, #987, .T. ) ;
#109 = CARTESIAN_POINT ( 'NONE',  ( 3.450000000000000622, 3.100000000000000089, -3.749999999999999556 ) ) ;
#110 = DIRECTION ( 'NONE',  ( 0.000000000000000000, 0.000000000000000000, 1.000000000000000000 ) ) ;
#111 = ORIENTED_EDGE ( 'NONE', *, *, #1003, .F. ) ;
#112 = LINE ( 'NONE', #790, #371 ) ;
#113 = UNCERTAINTY_MEASURE_WITH_UNIT (LENGTH_MEASURE( 1.000000000000000082E-05 ), #1161, 'distance_accuracy_value', 'NONE');
#114 = SURFACE_STYLE_FILL_AREA ( #512 ) ;
#115 = ORIENTED_EDGE ( 'NONE', *, *, #602, .T. ) ;
#116 = DIRECTION ( 'NONE',  ( 0.000000000000000000, 0.000000000000000000, -1.000000000000000000 ) ) ;
#117 =( NAMED_UNIT ( * ) SI_UNIT ( $, .STERADIAN. ) SOLID_ANGLE_UNIT ( ) );
#118 = MECHANICAL_DESIGN_GEOMETRIC_PRESENTATION_REPRESENTATION (  '', ( #319 ), #1149 ) ;
#119 = ADVANCED_FACE ( 'NONE', ( #216 ), #124, .F. ) ;
#120 = EDGE_LOOP ( 'NONE', ( #186, #57, #1091, #474 ) ) ;
#121 = CARTESIAN_POINT ( 'NONE',  ( -3.449999999999999289, 0.1500000000000008271, 3.449999999999999734 ) ) ;
#122 = COLOUR_RGB ( '',0.2509803921568627416, 0.2509803921568627416, 0.2509803921568627416 ) ;
#123 = PRESENTATION_STYLE_ASSIGNMENT (( #493 ) ) ;
#124 = PLANE ( 'NONE',  #1095 ) ;
#125 = ORIENTED_EDGE ( 'NONE', *, *, #615, .T. ) ;
#126 = EDGE_CURVE ( 'NONE', #903, #1030, #590, .T. ) ;
#127 = ORIENTED_EDGE ( 'NONE', *, *, #95, .F. ) ;
#128 = DIRECTION ( 'NONE',  ( 0.000000000000000000, -1.000000000000000000, 0.000000000000000000 ) ) ;
#129 = CARTESIAN_POINT ( 'NONE',  ( 0.000000000000000000, 0.000000000000000000, 0.000000000000000000 ) ) ;
#130 = FACE_OUTER_BOUND ( 'NONE', #513, .T. ) ;
#131 = ORIENTED_EDGE ( 'NONE', *, *, #873, .T. ) ;
#132 = DIRECTION ( 'NONE',  ( 0.000000000000000000, -1.000000000000000000, 0.000000000000000000 ) ) ;
#133 = LINE ( 'NONE', #561, #443 ) ;
#134 = PLANE ( 'NONE',  #34 ) ;
#135 = DIRECTION ( 'NONE',  ( 3.252606517456513302E-16, -0.000000000000000000, 1.000000000000000000 ) ) ;
#136 = DIRECTION ( 'NONE',  ( 0.000000000000000000, 1.000000000000000000, 0.000000000000000000 ) ) ;
#137 = ORIENTED_EDGE ( 'NONE', *, *, #1047, .F. ) ;
#138 = ORIENTED_EDGE ( 'NONE', *, *, #964, .T. ) ;
#139 = VECTOR ( 'NONE', #1090, 1000.000000000000000 ) ;
#140 = AXIS2_PLACEMENT_3D ( 'NONE', #385, #23, #577 ) ;
#141 = DIRECTION ( 'NONE',  ( 1.000000000000000000, 0.000000000000000000, 0.000000000000000000 ) ) ;
#142 = VECTOR ( 'NONE', #836, 1000.000000000000000 ) ;
#143 = DIRECTION ( 'NONE',  ( 0.000000000000000000, -0.000000000000000000, -1.000000000000000000 ) ) ;
#144 = ADVANCED_FACE ( 'NONE', ( #320 ), #1166, .F. ) ;
#145 = VECTOR ( 'NONE', #1028, 1000.000000000000000 ) ;
#146 = DIRECTION ( 'NONE',  ( 0.000000000000000000, -1.000000000000000000, 0.000000000000000000 ) ) ;
#147 = PRESENTATION_LAYER_ASSIGNMENT (  '', '', ( #469 ) ) ;
#148 =( NAMED_UNIT ( * ) SI_UNIT ( $, .STERADIAN. ) SOLID_ANGLE_UNIT ( ) );
#149 = PRESENTATION_STYLE_ASSIGNMENT (( #627 ) ) ;
#150 = DIRECTION ( 'NONE',  ( 1.000000000000000000, -0.000000000000000000, 0.000000000000000000 ) ) ;
#151 = ORIENTED_EDGE ( 'NONE', *, *, #569, .F. ) ;
#152 = PLANE ( 'NONE',  #287 ) ;
#153 = CARTESIAN_POINT ( 'NONE',  ( 1.560000000000000275, 0.000000000000000000, -3.000000000000000000 ) ) ;
#154 = FILL_AREA_STYLE ('',( #537 ) ) ;
#155 = DIRECTION ( 'NONE',  ( 0.000000000000000000, 0.000000000000000000, -1.000000000000000000 ) ) ;
#156 = EDGE_LOOP ( 'NONE', ( #548, #636, #761, #623 ) ) ;
#157 = CARTESIAN_POINT ( 'NONE',  ( 3.450000000000000622, 3.100000000000000089, 3.449999999999999734 ) ) ;
#158 =( NAMED_UNIT ( * ) PLANE_ANGLE_UNIT ( ) SI_UNIT ( $, .RADIAN. ) );
#159 = DIRECTION ( 'NONE',  ( -1.000000000000000000, 0.000000000000000000, 0.000000000000000000 ) ) ;
#160 = PLANE ( 'NONE',  #365 ) ;
#161 = ADVANCED_FACE ( 'NONE', ( #1082 ), #706, .T. ) ;
#162 = ORIENTED_EDGE ( 'NONE', *, *, #672, .T. ) ;
#163 =( GEOMETRIC_REPRESENTATION_CONTEXT ( 3 ) GLOBAL_UNCERTAINTY_ASSIGNED_CONTEXT ( ( #573 ) ) GLOBAL_UNIT_ASSIGNED_CONTEXT ( ( #1206, #359, #1113 ) ) REPRESENTATION_CONTEXT ( 'NONE', 'WORKASPACE' ) );
#164 = FILL_AREA_STYLE_COLOUR ( '', #902 ) ;
#165 = STYLED_ITEM ( 'NONE', ( #281 ), #599 ) ;
#166 = PLANE ( 'NONE',  #267 ) ;
#167 = AXIS2_PLACEMENT_3D ( 'NONE', #580, #958, #505 ) ;
#168 = VERTEX_POINT ( 'NONE', #1057 ) ;
#169 = EDGE_CURVE ( 'NONE', #1066, #604, #613, .T. ) ;
#170 = LINE ( 'NONE', #3, #1130 ) ;
#171 = CARTESIAN_POINT ( 'NONE',  ( -3.449999999999999289, 0.1500000000000008271, 3.749999999999999556 ) ) ;
#172 = MANIFOLD_SOLID_BREP ( 'Boss-Extrude3[2]', #67 ) ;
#173 = LINE ( 'NONE', #553, #749 ) ;
#174 = ORIENTED_EDGE ( 'NONE', *, *, #1047, .T. ) ;
#175 = CARTESIAN_POINT ( 'NONE',  ( -3.449999999999999289, -10.60660171779821326, -3.749999999999999556 ) ) ;
#176 = LINE ( 'NONE', #466, #846 ) ;
#177 = VERTEX_POINT ( 'NONE', #925 ) ;
#178 = DIRECTION ( 'NONE',  ( 0.000000000000000000, 0.000000000000000000, -1.000000000000000000 ) ) ;
#179 = VECTOR ( 'NONE', #229, 1000.000000000000000 ) ;
#180 = DIRECTION ( 'NONE',  ( -0.000000000000000000, -0.000000000000000000, 1.000000000000000000 ) ) ;
#181 = CIRCLE ( 'NONE', #878, 0.2999999999999994893 ) ;
#182 = EDGE_CURVE ( 'NONE', #211, #890, #1065, .T. ) ;
#183 = COLOUR_RGB ( '',0.7921568627450980005, 0.8196078431372548767, 0.9333333333333333481 ) ;
#184 = VECTOR ( 'NONE', #923, 1000.000000000000000 ) ;
#185 =( GEOMETRIC_REPRESENTATION_CONTEXT ( 3 ) GLOBAL_UNCERTAINTY_ASSIGNED_CONTEXT ( ( #778 ) ) GLOBAL_UNIT_ASSIGNED_CONTEXT ( ( #969, #779, #299 ) ) REPRESENTATION_CONTEXT ( 'NONE', 'WORKASPACE' ) );
#186 = ORIENTED_EDGE ( 'NONE', *, *, #182, .F. ) ;
#187 = VECTOR ( 'NONE', #850, 1000.000000000000000 ) ;
#188 = SURFACE_STYLE_USAGE ( .BOTH. , #374 ) ;
#189 = LINE ( 'NONE', #379, #90 ) ;
#190 = SURFACE_SIDE_STYLE ('',( #1137 ) ) ;
#191 = ORIENTED_EDGE ( 'NONE', *, *, #672, .F. ) ;
#192 = PLANE ( 'NONE',  #787 ) ;
#193 = CARTESIAN_POINT ( 'NONE',  ( 3.160000000000000586, 0.1500000000000008271, -3.000000000000000444 ) ) ;
#194 = SURFACE_SIDE_STYLE ('',( #209 ) ) ;
#195 = UNCERTAINTY_MEASURE_WITH_UNIT (LENGTH_MEASURE( 1.000000000000000082E-05 ), #444, 'distance_accuracy_value', 'NONE');
#196 = ORIENTED_EDGE ( 'NONE', *, *, #1172, .F. ) ;
#197 = ADVANCED_FACE ( 'NONE', ( #352 ), #160, .F. ) ;
#198 = PLANE ( 'NONE',  #167 ) ;
#199 = SURFACE_STYLE_USAGE ( .BOTH. , #194 ) ;
#200 = VECTOR ( 'NONE', #1199, 1000.000000000000000 ) ;
#201 =( GEOMETRIC_REPRESENTATION_CONTEXT ( 3 ) GLOBAL_UNCERTAINTY_ASSIGNED_CONTEXT ( ( #195 ) ) GLOBAL_UNIT_ASSIGNED_CONTEXT ( ( #444, #329, #52 ) ) REPRESENTATION_CONTEXT ( 'NONE', 'WORKASPACE' ) );
#202 = CYLINDRICAL_SURFACE ( 'NONE', #344, 0.2999999999999999334 ) ;
#203 = DIRECTION ( 'NONE',  ( 1.000000000000000000, 0.000000000000000000, 0.000000000000000000 ) ) ;
#204 = ORIENTED_EDGE ( 'NONE', *, *, #897, .T. ) ;
#205 = MECHANICAL_DESIGN_GEOMETRIC_PRESENTATION_REPRESENTATION (  '', ( #938 ), #687 ) ;
#206 = VECTOR ( 'NONE', #243, 1000.000000000000000 ) ;
#207 = DIRECTION ( 'NONE',  ( -0.000000000000000000, -1.000000000000000000, -0.000000000000000000 ) ) ;
#208 = VECTOR ( 'NONE', #84, 1000.000000000000000 ) ;
#209 = SURFACE_STYLE_FILL_AREA ( #1046 ) ;
#210 = CARTESIAN_POINT ( 'NONE',  ( 1.560000000000002052, 0.1500000000000008271, 3.000000000000000444 ) ) ;
#211 = VERTEX_POINT ( 'NONE', #917 ) ;
#212 = UNCERTAINTY_MEASURE_WITH_UNIT (LENGTH_MEASURE( 1.000000000000000082E-05 ), #947, 'distance_accuracy_value', 'NONE');
#213 = FILL_AREA_STYLE_COLOUR ( '', #183 ) ;
#214 = LINE ( 'NONE', #1141, #420 ) ;
#215 = EDGE_CURVE ( 'NONE', #604, #364, #547, .T. ) ;
#216 = FACE_OUTER_BOUND ( 'NONE', #296, .T. ) ;
#217 = DIRECTION ( 'NONE',  ( 0.000000000000000000, 0.000000000000000000, -1.000000000000000000 ) ) ;
#218 = ORIENTED_EDGE ( 'NONE', *, *, #791, .T. ) ;
#219 = ADVANCED_FACE ( 'NONE', ( #264 ), #647, .F. ) ;
#220 = PRESENTATION_LAYER_ASSIGNMENT (  '', '', ( #765 ) ) ;
#221 = DIRECTION ( 'NONE',  ( -0.000000000000000000, -0.000000000000000000, 1.000000000000000000 ) ) ;
#222 = ORIENTED_EDGE ( 'NONE', *, *, #886, .T. ) ;
#223 =( GEOMETRIC_REPRESENTATION_CONTEXT ( 3 ) GLOBAL_UNCERTAINTY_ASSIGNED_CONTEXT ( ( #412 ) ) GLOBAL_UNIT_ASSIGNED_CONTEXT ( ( #17, #733, #447 ) ) REPRESENTATION_CONTEXT ( 'NONE', 'WORKASPACE' ) );
#224 = ORIENTED_EDGE ( 'NONE', *, *, #126, .F. ) ;
#225 = DIRECTION ( 'NONE',  ( 1.000000000000000000, 0.000000000000000000, 0.000000000000000000 ) ) ;
#226 = PRESENTATION_LAYER_ASSIGNMENT (  '', '', ( #486 ) ) ;
#227 = DIRECTION ( 'NONE',  ( 0.000000000000000000, 1.000000000000000000, 0.000000000000000000 ) ) ;
#228 = DIRECTION ( 'NONE',  ( 0.000000000000000000, 0.000000000000000000, 1.000000000000000000 ) ) ;
#229 = DIRECTION ( 'NONE',  ( -0.000000000000000000, -1.000000000000000000, -0.000000000000000000 ) ) ;
#230 = DIRECTION ( 'NONE',  ( 2.710505431213760592E-16, -0.000000000000000000, 1.000000000000000000 ) ) ;
#231 = ORIENTED_EDGE ( 'NONE', *, *, #7, .T. ) ;
#232 = DIRECTION ( 'NONE',  ( 1.000000000000000000, 0.000000000000000000, -0.000000000000000000 ) ) ;
#233 = SURFACE_STYLE_USAGE ( .BOTH. , #712 ) ;
#234 = ORIENTED_EDGE ( 'NONE', *, *, #401, .F. ) ;
#235 = ORIENTED_EDGE ( 'NONE', *, *, #1093, .T. ) ;
#236 = EDGE_CURVE ( 'NONE', #177, #1143, #238, .T. ) ;
#237 = DIRECTION ( 'NONE',  ( 1.000000000000000000, 0.000000000000000000, 0.000000000000000000 ) ) ;
#238 = LINE ( 'NONE', #1212, #480 ) ;
#239 = ORIENTED_EDGE ( 'NONE', *, *, #1010, .T. ) ;
#240 = VERTEX_POINT ( 'NONE', #748 ) ;
#241 = AXIS2_PLACEMENT_3D ( 'NONE', #614, #230, #720 ) ;
#242 = VECTOR ( 'NONE', #1097, 1000.000000000000000 ) ;
#243 = DIRECTION ( 'NONE',  ( -0.000000000000000000, -0.000000000000000000, 1.000000000000000000 ) ) ;
#244 = COLOUR_RGB ( '',1.000000000000000000, 1.000000000000000000, 1.000000000000000000 ) ;
#245 = VECTOR ( 'NONE', #422, 1000.000000000000000 ) ;
#246 = AXIS2_PLACEMENT_3D ( 'NONE', #648, #824, #225 ) ;
#247 = LINE ( 'NONE', #634, #936 ) ;
#248 = SURFACE_SIDE_STYLE ('',( #316 ) ) ;
#249 =( LENGTH_UNIT ( ) NAMED_UNIT ( * ) SI_UNIT ( .MILLI., .METRE. ) );
#250 = EDGE_LOOP ( 'NONE', ( #284, #439, #558, #111 ) ) ;
#251 = FACE_OUTER_BOUND ( 'NONE', #776, .T. ) ;
#252 = CARTESIAN_POINT ( 'NONE',  ( 0.000000000000000000, 3.049999999999999822, 0.000000000000000000 ) ) ;
#253 =( NAMED_UNIT ( * ) SI_UNIT ( $, .STERADIAN. ) SOLID_ANGLE_UNIT ( ) );
#254 = EDGE_CURVE ( 'NONE', #373, #628, #256, .T. ) ;
#255 = LINE ( 'NONE', #816, #543 ) ;
#256 = LINE ( 'NONE', #272, #1169 ) ;
#257 =( NAMED_UNIT ( * ) PLANE_ANGLE_UNIT ( ) SI_UNIT ( $, .RADIAN. ) );
#258 = EDGE_LOOP ( 'NONE', ( #980, #757, #381, #278, #419, #710, #353, #455 ) ) ;
#259 = LINE ( 'NONE', #528, #971 ) ;
#260 = CYLINDRICAL_SURFACE ( 'NONE', #918, 0.2999999999999994893 ) ;
#261 = SURFACE_SIDE_STYLE ('',( #54 ) ) ;
#262 = CARTESIAN_POINT ( 'NONE',  ( -2.899999999999999911, 3.100000000000000089, 2.250000000000000444 ) ) ;
#263 = EDGE_CURVE ( 'NONE', #667, #491, #657, .T. ) ;
#264 = FACE_OUTER_BOUND ( 'NONE', #43, .T. ) ;
#265 = ORIENTED_EDGE ( 'NONE', *, *, #664, .T. ) ;
#266 = VECTOR ( 'NONE', #910, 1000.000000000000000 ) ;
#267 = AXIS2_PLACEMENT_3D ( 'NONE', #59, #1187, #155 ) ;
#268 = MECHANICAL_DESIGN_GEOMETRIC_PRESENTATION_REPRESENTATION (  '', ( #652 ), #1054 ) ;
#269 = LINE ( 'NONE', #1135, #348 ) ;
#270 = CARTESIAN_POINT ( 'NONE',  ( -2.600000000000000089, 3.049999999999999822, 2.250000000000000444 ) ) ;
#271 = CIRCLE ( 'NONE', #882, 0.2999999999999994893 ) ;
#272 = CARTESIAN_POINT ( 'NONE',  ( 3.750000000000000444, 0.1500000000000008271, 3.449999999999999734 ) ) ;
#273 = ORIENTED_EDGE ( 'NONE', *, *, #811, .T. ) ;
#274 = CARTESIAN_POINT ( 'NONE',  ( -3.750000000000000000, 0.1500000000000008271, 3.449999999999999734 ) ) ;
#275 = UNCERTAINTY_MEASURE_WITH_UNIT (LENGTH_MEASURE( 1.000000000000000082E-05 ), #58, 'distance_accuracy_value', 'NONE');
#276 = LINE ( 'NONE', #855, #145 ) ;
#277 = CARTESIAN_POINT ( 'NONE',  ( 3.750000000000000444, 0.1500000000000008271, -3.449999999999999734 ) ) ;
#278 = ORIENTED_EDGE ( 'NONE', *, *, #946, .T. ) ;
#279 = EDGE_CURVE ( 'NONE', #168, #470, #173, .T. ) ;
#280 = CARTESIAN_POINT ( 'NONE',  ( 3.160000000000000586, 0.1500000000000008271, -3.000000000000000444 ) ) ;
#281 = PRESENTATION_STYLE_ASSIGNMENT (( #291 ) ) ;
#282 = PLANE ( 'NONE',  #688 ) ;
#283 =( LENGTH_UNIT ( ) NAMED_UNIT ( * ) SI_UNIT ( .MILLI., .METRE. ) );
#284 = ORIENTED_EDGE ( 'NONE', *, *, #873, .F. ) ;
#285 = DIRECTION ( 'NONE',  ( 0.000000000000000000, 0.000000000000000000, -1.000000000000000000 ) ) ;
#286 = SURFACE_SIDE_STYLE ('',( #14 ) ) ;
#287 = AXIS2_PLACEMENT_3D ( 'NONE', #328, #1106, #232 ) ;
#288 = AXIS2_PLACEMENT_3D ( 'NONE', #290, #753, #456 ) ;
#289 = ORIENTED_EDGE ( 'NONE', *, *, #430, .F. ) ;
#290 = CARTESIAN_POINT ( 'NONE',  ( -2.899999999999999911, 3.049999999999999822, 2.250000000000000444 ) ) ;
#291 = SURFACE_STYLE_USAGE ( .BOTH. , #13 ) ;
#292 = FILL_AREA_STYLE_COLOUR ( '', #1151 ) ;
#293 = EDGE_CURVE ( 'NONE', #949, #903, #928, .T. ) ;
#294 = ORIENTED_EDGE ( 'NONE', *, *, #254, .T. ) ;
#295 = DIRECTION ( 'NONE',  ( 0.000000000000000000, 1.000000000000000000, -0.000000000000000000 ) ) ;
#296 = EDGE_LOOP ( 'NONE', ( #1168, #887, #191, #56 ) ) ;
#297 = UNCERTAINTY_MEASURE_WITH_UNIT (LENGTH_MEASURE( 1.000000000000000082E-05 ), #428, 'distance_accuracy_value', 'NONE');
#298 =( NAMED_UNIT ( * ) SI_UNIT ( $, .STERADIAN. ) SOLID_ANGLE_UNIT ( ) );
#299 =( NAMED_UNIT ( * ) SI_UNIT ( $, .STERADIAN. ) SOLID_ANGLE_UNIT ( ) );
#300 = STYLED_ITEM ( 'NONE', ( #619 ), #475 ) ;
#301 = DIRECTION ( 'NONE',  ( -1.000000000000000000, -0.000000000000000000, -0.000000000000000000 ) ) ;
#302 = CARTESIAN_POINT ( 'NONE',  ( -3.449999999999999289, -10.60660171779821326, -3.749999999999999556 ) ) ;
#303 = ORIENTED_EDGE ( 'NONE', *, *, #11, .F. ) ;
#304 = VECTOR ( 'NONE', #1071, 1000.000000000000000 ) ;
#305 = SURFACE_STYLE_FILL_AREA ( #888 ) ;
#306 = VECTOR ( 'NONE', #840, 1000.000000000000000 ) ;
#307 = FACE_OUTER_BOUND ( 'NONE', #427, .T. ) ;
#308 = CARTESIAN_POINT ( 'NONE',  ( -2.600000000000000089, 3.100000000000000089, 2.250000000000000444 ) ) ;
#309 = ORIENTED_EDGE ( 'NONE', *, *, #982, .F. ) ;
#310 = CARTESIAN_POINT ( 'NONE',  ( -1.560000000000000497, 0.1500000000000008271, 3.000000000000000888 ) ) ;
#311 = PLANE ( 'NONE',  #1072 ) ;
#312 = EDGE_CURVE ( 'NONE', #628, #177, #337, .T. ) ;
#313 = DIRECTION ( 'NONE',  ( -1.000000000000000000, -0.000000000000000000, -0.000000000000000000 ) ) ;
#314 = ORIENTED_EDGE ( 'NONE', *, *, #649, .F. ) ;
#315 = DIRECTION ( 'NONE',  ( 0.000000000000000000, -0.000000000000000000, -1.000000000000000000 ) ) ;
#316 = SURFACE_STYLE_FILL_AREA ( #403 ) ;
#317 = LINE ( 'NONE', #701, #919 ) ;
#318 = FILL_AREA_STYLE ('',( #69 ) ) ;
#319 = STYLED_ITEM ( 'NONE', ( #689 ), #161 ) ;
#320 = FACE_OUTER_BOUND ( 'NONE', #156, .T. ) ;
#321 = PLANE ( 'NONE',  #241 ) ;
#322 = AXIS2_PLACEMENT_3D ( 'NONE', #270, #656, #351 ) ;
#323 = STYLED_ITEM ( 'NONE', ( #1174 ), #585 ) ;
#324 = UNCERTAINTY_MEASURE_WITH_UNIT (LENGTH_MEASURE( 1.000000000000000082E-05 ), #572, 'distance_accuracy_value', 'NONE');
#325 = EDGE_LOOP ( 'NONE', ( #844, #19, #231, #273 ) ) ;
#326 = CIRCLE ( 'NONE', #1019, 0.2999999999999994893 ) ;
#327 = VECTOR ( 'NONE', #395, 1000.000000000000000 ) ;
#328 = CARTESIAN_POINT ( 'NONE',  ( -3.449999999999999289, -10.60660171779821326, 3.749999999999999556 ) ) ;
#329 =( NAMED_UNIT ( * ) PLANE_ANGLE_UNIT ( ) SI_UNIT ( $, .RADIAN. ) );
#330 = SURFACE_STYLE_USAGE ( .BOTH. , #248 ) ;
#331 =( LENGTH_UNIT ( ) NAMED_UNIT ( * ) SI_UNIT ( .MILLI., .METRE. ) );
#332 = ADVANCED_FACE ( 'NONE', ( #735 ), #1108, .T. ) ;
#333 = LINE ( 'NONE', #38, #1216 ) ;
#334 = ORIENTED_EDGE ( 'NONE', *, *, #574, .F. ) ;
#335 = DIRECTION ( 'NONE',  ( 0.000000000000000000, 1.000000000000000000, 0.000000000000000000 ) ) ;
#336 =( NAMED_UNIT ( * ) PLANE_ANGLE_UNIT ( ) SI_UNIT ( $, .RADIAN. ) );
#337 = LINE ( 'NONE', #719, #266 ) ;
#338 = ORIENTED_EDGE ( 'NONE', *, *, #293, .F. ) ;
#339 = ORIENTED_EDGE ( 'NONE', *, *, #279, .F. ) ;
#340 = LINE ( 'NONE', #724, #242 ) ;
#341 = COLOUR_RGB ( '',1.000000000000000000, 1.000000000000000000, 1.000000000000000000 ) ;
#342 = ORIENTED_EDGE ( 'NONE', *, *, #649, .T. ) ;
#343 = COLOUR_RGB ( '',0.2509803921568627416, 0.2509803921568627416, 0.2509803921568627416 ) ;
#344 = AXIS2_PLACEMENT_3D ( 'NONE', #582, #955, #110 ) ;
#345 = EDGE_CURVE ( 'NONE', #930, #814, #993, .T. ) ;
#346 = CARTESIAN_POINT ( 'NONE',  ( -2.899999999999999911, 3.100000000000000089, 2.250000000000000444 ) ) ;
#347 = PLANE ( 'NONE',  #725 ) ;
#348 = VECTOR ( 'NONE', #759, 1000.000000000000000 ) ;
#349 = CARTESIAN_POINT ( 'NONE',  ( -3.160000000000000586, 0.1500000000000008271, -2.999999999999999556 ) ) ;
#350 = CIRCLE ( 'NONE', #445, 0.2999999999999999334 ) ;
#351 = DIRECTION ( 'NONE',  ( 0.000000000000000000, 0.000000000000000000, -1.000000000000000000 ) ) ;
#352 = FACE_OUTER_BOUND ( 'NONE', #771, .T. ) ;
#353 = ORIENTED_EDGE ( 'NONE', *, *, #525, .T. ) ;
#354 = FACE_OUTER_BOUND ( 'NONE', #714, .T. ) ;
#355 = FILL_AREA_STYLE_COLOUR ( '', #343 ) ;
#356 = EDGE_CURVE ( 'NONE', #461, #606, #255, .T. ) ;
#357 = CARTESIAN_POINT ( 'NONE',  ( 3.160000000000000586, 0.000000000000000000, -3.000000000000000444 ) ) ;
#358 = SURFACE_STYLE_USAGE ( .BOTH. , #1217 ) ;
#359 =( NAMED_UNIT ( * ) PLANE_ANGLE_UNIT ( ) SI_UNIT ( $, .RADIAN. ) );
#360 = ORIENTED_EDGE ( 'NONE', *, *, #721, .T. ) ;
#361 = DIRECTION ( 'NONE',  ( 0.000000000000000000, 0.000000000000000000, -1.000000000000000000 ) ) ;
#362 = ADVANCED_FACE ( 'NONE', ( #1205 ), #1023, .F. ) ;
#363 = DIRECTION ( 'NONE',  ( 0.000000000000000000, 0.000000000000000000, -1.000000000000000000 ) ) ;
#364 = VERTEX_POINT ( 'NONE', #837 ) ;
#365 = AXIS2_PLACEMENT_3D ( 'NONE', #1011, #906, #838 ) ;
#366 = CARTESIAN_POINT ( 'NONE',  ( 1.560000000000002052, 0.1500000000000008271, 3.000000000000000444 ) ) ;
#367 =( GEOMETRIC_REPRESENTATION_CONTEXT ( 3 ) GLOBAL_UNCERTAINTY_ASSIGNED_CONTEXT ( ( #516 ) ) GLOBAL_UNIT_ASSIGNED_CONTEXT ( ( #924, #742, #81 ) ) REPRESENTATION_CONTEXT ( 'NONE', 'WORKASPACE' ) );
#368 = CARTESIAN_POINT ( 'NONE',  ( -2.600000000000000089, 3.049999999999999822, -2.249999999999999556 ) ) ;
#369 = PRESENTATION_LAYER_ASSIGNMENT (  '', '', ( #671 ) ) ;
#370 = EDGE_CURVE ( 'NONE', #364, #1119, #65, .T. ) ;
#371 = VECTOR ( 'NONE', #576, 1000.000000000000000 ) ;
#372 = EDGE_CURVE ( 'NONE', #869, #461, #437, .T. ) ;
#373 = VERTEX_POINT ( 'NONE', #277 ) ;
#374 = SURFACE_SIDE_STYLE ('',( #669 ) ) ;
#375 = DIRECTION ( 'NONE',  ( 0.000000000000000000, 1.000000000000000000, 0.000000000000000000 ) ) ;
#376 = FILL_AREA_STYLE ('',( #292 ) ) ;
#377 = VERTEX_POINT ( 'NONE', #756 ) ;
#378 =( LENGTH_UNIT ( ) NAMED_UNIT ( * ) SI_UNIT ( .MILLI., .METRE. ) );
#379 = CARTESIAN_POINT ( 'NONE',  ( -3.750000000000000000, -10.60660171779821326, -3.449999999999999734 ) ) ;
#380 = CARTESIAN_POINT ( 'NONE',  ( -1.560000000000000497, 0.000000000000000000, 3.000000000000000888 ) ) ;
#381 = ORIENTED_EDGE ( 'NONE', *, *, #40, .T. ) ;
#382 = LINE ( 'NONE', #675, #1117 ) ;
#383 = EDGE_CURVE ( 'NONE', #1067, #737, #459, .T. ) ;
#384 = VECTOR ( 'NONE', #159, 1000.000000000000000 ) ;
#385 = CARTESIAN_POINT ( 'NONE',  ( -2.899999999999999911, 3.049999999999999822, 2.250000000000000444 ) ) ;
#386 = MECHANICAL_DESIGN_GEOMETRIC_PRESENTATION_REPRESENTATION (  '', ( #953 ), #1040 ) ;
#387 = VERTEX_POINT ( 'NONE', #821 ) ;
#388 = FILL_AREA_STYLE_COLOUR ( '', #71 ) ;
#389 = ADVANCED_FACE ( 'NONE', ( #1009 ), #166, .T. ) ;
#390 = CARTESIAN_POINT ( 'NONE',  ( 3.160000000000002363, 0.1500000000000008271, 2.999999999999999556 ) ) ;
#391 = ORIENTED_EDGE ( 'NONE', *, *, #747, .T. ) ;
#392 = PLANE ( 'NONE',  #826 ) ;
#393 = LINE ( 'NONE', #490, #1098 ) ;
#394 = ORIENTED_EDGE ( 'NONE', *, *, #747, .F. ) ;
#395 = DIRECTION ( 'NONE',  ( 3.614007241618347908E-17, 0.000000000000000000, -1.000000000000000000 ) ) ;
#396 = CARTESIAN_POINT ( 'NONE',  ( -2.600000000000000089, 3.049999999999999822, -2.249999999999999556 ) ) ;
#397 = CARTESIAN_POINT ( 'NONE',  ( -1.560000000000000275, 0.000000000000000000, -2.999999999999999556 ) ) ;
#398 = VECTOR ( 'NONE', #803, 1000.000000000000000 ) ;
#399 =( NAMED_UNIT ( * ) PLANE_ANGLE_UNIT ( ) SI_UNIT ( $, .RADIAN. ) );
#400 = FACE_OUTER_BOUND ( 'NONE', #891, .T. ) ;
#401 = EDGE_CURVE ( 'NONE', #47, #168, #340, .T. ) ;
#402 = CARTESIAN_POINT ( 'NONE',  ( 3.750000000000000444, 3.100000000000000089, -3.449999999999999734 ) ) ;
#403 = FILL_AREA_STYLE ('',( #213 ) ) ;
#404 = SURFACE_SIDE_STYLE ('',( #425 ) ) ;
#405 = DIRECTION ( 'NONE',  ( 0.000000000000000000, 0.000000000000000000, -1.000000000000000000 ) ) ;
#406 = ORIENTED_EDGE ( 'NONE', *, *, #356, .T. ) ;
#407 =( NAMED_UNIT ( * ) PLANE_ANGLE_UNIT ( ) SI_UNIT ( $, .RADIAN. ) );
#408 = FILL_AREA_STYLE_COLOUR ( '', #1114 ) ;
#409 = ORIENTED_EDGE ( 'NONE', *, *, #108, .T. ) ;
#410 = ORIENTED_EDGE ( 'NONE', *, *, #1026, .T. ) ;
#411 = EDGE_CURVE ( 'NONE', #795, #1067, #247, .T. ) ;
#412 = UNCERTAINTY_MEASURE_WITH_UNIT (LENGTH_MEASURE( 1.000000000000000082E-05 ), #17, 'distance_accuracy_value', 'NONE');
#413 = SURFACE_STYLE_FILL_AREA ( #448 ) ;
#414 = STYLED_ITEM ( 'NONE', ( #454 ), #219 ) ;
#415 =( NAMED_UNIT ( * ) SI_UNIT ( $, .STERADIAN. ) SOLID_ANGLE_UNIT ( ) );
#416 = VERTEX_POINT ( 'NONE', #483 ) ;
#417 = MECHANICAL_DESIGN_GEOMETRIC_PRESENTATION_REPRESENTATION (  '', ( #300 ), #201 ) ;
#418 = STYLED_ITEM ( 'NONE', ( #978 ), #612 ) ;
#419 = ORIENTED_EDGE ( 'NONE', *, *, #911, .T. ) ;
#420 = VECTOR ( 'NONE', #227, 1000.000000000000000 ) ;
#421 =( GEOMETRIC_REPRESENTATION_CONTEXT ( 3 ) GLOBAL_UNCERTAINTY_ASSIGNED_CONTEXT ( ( #113 ) ) GLOBAL_UNIT_ASSIGNED_CONTEXT ( ( #1161, #1053, #298 ) ) REPRESENTATION_CONTEXT ( 'NONE', 'WORKASPACE' ) );
#422 = DIRECTION ( 'NONE',  ( -0.000000000000000000, -1.000000000000000000, -0.000000000000000000 ) ) ;
#423 = DIRECTION ( 'NONE',  ( -1.000000000000000000, 0.000000000000000000, 2.891205793294678326E-16 ) ) ;
#424 = FACE_OUTER_BOUND ( 'NONE', #764, .T. ) ;
#425 = SURFACE_STYLE_FILL_AREA ( #900 ) ;
#426 = ORIENTED_EDGE ( 'NONE', *, *, #356, .F. ) ;
#427 = EDGE_LOOP ( 'NONE', ( #434, #314, #945, #700 ) ) ;
#428 =( LENGTH_UNIT ( ) NAMED_UNIT ( * ) SI_UNIT ( .MILLI., .METRE. ) );
#429 = DIRECTION ( 'NONE',  ( 0.000000000000000000, 1.000000000000000000, 0.000000000000000000 ) ) ;
#430 = EDGE_CURVE ( 'NONE', #853, #377, #557, .T. ) ;
#431 = DIRECTION ( 'NONE',  ( -0.000000000000000000, 1.000000000000000000, -0.000000000000000000 ) ) ;
#432 = LINE ( 'NONE', #1048, #934 ) ;
#433 = ADVANCED_FACE ( 'NONE', ( #760 ), #473, .T. ) ;
#434 = ORIENTED_EDGE ( 'NONE', *, *, #430, .T. ) ;
#435 = PLANE ( 'NONE',  #754 ) ;
#436 =( LENGTH_UNIT ( ) NAMED_UNIT ( * ) SI_UNIT ( .MILLI., .METRE. ) );
#437 = LINE ( 'NONE', #171, #384 ) ;
#438 = AXIS2_PLACEMENT_3D ( 'NONE', #302, #698, #517 ) ;
#439 = ORIENTED_EDGE ( 'NONE', *, *, #312, .T. ) ;
#440 = ADVANCED_FACE ( 'NONE', ( #99 ), #88, .F. ) ;
#441 = AXIS2_PLACEMENT_3D ( 'NONE', #847, #863, #361 ) ;
#442 = CARTESIAN_POINT ( 'NONE',  ( -2.899999999999999911, 3.049999999999999822, 2.250000000000000444 ) ) ;
#443 = VECTOR ( 'NONE', #931, 1000.000000000000000 ) ;
#444 =( LENGTH_UNIT ( ) NAMED_UNIT ( * ) SI_UNIT ( .MILLI., .METRE. ) );
#445 = AXIS2_PLACEMENT_3D ( 'NONE', #121, #207, #39 ) ;
#446 = PLANE ( 'NONE',  #36 ) ;
#447 =( NAMED_UNIT ( * ) SI_UNIT ( $, .STERADIAN. ) SOLID_ANGLE_UNIT ( ) );
#448 = FILL_AREA_STYLE ('',( #1088 ) ) ;
#449 = DIRECTION ( 'NONE',  ( 0.000000000000000000, 0.000000000000000000, -1.000000000000000000 ) ) ;
#450 = ORIENTED_EDGE ( 'NONE', *, *, #1010, .F. ) ;
#451 = CARTESIAN_POINT ( 'NONE',  ( -2.899999999999999911, 3.100000000000000089, -2.249999999999999556 ) ) ;
#452 = SURFACE_STYLE_FILL_AREA ( #154 ) ;
#453 = CARTESIAN_POINT ( 'NONE',  ( -3.449999999999999289, -10.60660171779821326, 3.449999999999999734 ) ) ;
#454 = PRESENTATION_STYLE_ASSIGNMENT (( #832 ) ) ;
#455 = ORIENTED_EDGE ( 'NONE', *, *, #1172, .T. ) ;
#456 = DIRECTION ( 'NONE',  ( -0.000000000000000000, 0.000000000000000000, 1.000000000000000000 ) ) ;
#457 = CARTESIAN_POINT ( 'NONE',  ( -3.750000000000000000, -10.60660171779821326, 3.449999999999999734 ) ) ;
#458 = EDGE_CURVE ( 'NONE', #1083, #503, #467, .T. ) ;
#459 = LINE ( 'NONE', #262, #35 ) ;
#460 = FILL_AREA_STYLE_COLOUR ( '', #881 ) ;
#461 = VERTEX_POINT ( 'NONE', #1033 ) ;
#462 = CLOSED_SHELL ( 'NONE', ( #389, #475, #433, #1136, #633, #219 ) ) ;
#463 = PLANE ( 'NONE',  #941 ) ;
#464 = AXIS2_PLACEMENT_3D ( 'NONE', #625, #228, #1194 ) ;
#465 = PRESENTATION_LAYER_ASSIGNMENT (  '', '', ( #418 ) ) ;
#466 = CARTESIAN_POINT ( 'NONE',  ( -2.899999999999999911, 3.049999999999999822, 2.250000000000000444 ) ) ;
#467 = LINE ( 'NONE', #1122, #1070 ) ;
#468 = MECHANICAL_DESIGN_GEOMETRIC_PRESENTATION_REPRESENTATION (  '', ( #486 ), #185 ) ;
#469 = STYLED_ITEM ( 'NONE', ( #1214 ), #1124 ) ;
#470 = VERTEX_POINT ( 'NONE', #380 ) ;
#471 = CARTESIAN_POINT ( 'NONE',  ( -2.899999999999999911, 3.100000000000000089, 2.250000000000000444 ) ) ;
#472 = FILL_AREA_STYLE_COLOUR ( '', #1219 ) ;
#473 = PLANE ( 'NONE',  #140 ) ;
#474 = ORIENTED_EDGE ( 'NONE', *, *, #684, .F. ) ;
#475 = ADVANCED_FACE ( 'NONE', ( #909 ), #1000, .T. ) ;
#476 = CARTESIAN_POINT ( 'NONE',  ( -2.899999999999999911, 3.049999999999999822, -2.249999999999999556 ) ) ;
#477 =( NAMED_UNIT ( * ) PLANE_ANGLE_UNIT ( ) SI_UNIT ( $, .RADIAN. ) );
#478 = ORIENTED_EDGE ( 'NONE', *, *, #312, .F. ) ;
#479 = EDGE_CURVE ( 'NONE', #750, #795, #611, .T. ) ;
#480 = VECTOR ( 'NONE', #363, 1000.000000000000000 ) ;
#481 = CARTESIAN_POINT ( 'NONE',  ( -3.160000000000000586, 0.000000000000000000, 3.000000000000000444 ) ) ;
#482 = COLOUR_RGB ( '',1.000000000000000000, 1.000000000000000000, 1.000000000000000000 ) ;
#483 = CARTESIAN_POINT ( 'NONE',  ( 3.160000000000002363, 0.1500000000000008271, 2.999999999999999556 ) ) ;
#484 = PRESENTATION_LAYER_ASSIGNMENT (  '', '', ( #165 ) ) ;
#485 = UNCERTAINTY_MEASURE_WITH_UNIT (LENGTH_MEASURE( 1.000000000000000082E-05 ), #608, 'distance_accuracy_value', 'NONE');
#486 = STYLED_ITEM ( 'NONE', ( #879 ), #861 ) ;
#487 =( NAMED_UNIT ( * ) SI_UNIT ( $, .STERADIAN. ) SOLID_ANGLE_UNIT ( ) );
#488 = ORIENTED_EDGE ( 'NONE', *, *, #293, .T. ) ;
#489 = FILL_AREA_STYLE_COLOUR ( '', #20 ) ;
#490 = CARTESIAN_POINT ( 'NONE',  ( 3.160000000000002363, 0.1500000000000008271, 2.999999999999999556 ) ) ;
#491 = VERTEX_POINT ( 'NONE', #153 ) ;
#492 = FACE_OUTER_BOUND ( 'NONE', #1058, .T. ) ;
#493 = SURFACE_STYLE_USAGE ( .BOTH. , #976 ) ;
#494 = UNCERTAINTY_MEASURE_WITH_UNIT (LENGTH_MEASURE( 1.000000000000000082E-05 ), #867, 'distance_accuracy_value', 'NONE');
#495 = ADVANCED_FACE ( 'NONE', ( #977 ), #134, .F. ) ;
#496 = EDGE_LOOP ( 'NONE', ( #781, #339, #234, #1051 ) ) ;
#497 = DIRECTION ( 'NONE',  ( 0.000000000000000000, -1.000000000000000000, 0.000000000000000000 ) ) ;
#498 = PRESENTATION_LAYER_ASSIGNMENT (  '', '', ( #1035 ) ) ;
#499 = COLOUR_RGB ( '',0.2509803921568627416, 0.2509803921568627416, 0.2509803921568627416 ) ;
#500 = CARTESIAN_POINT ( 'NONE',  ( -2.899999999999999911, 3.100000000000000089, 2.250000000000000444 ) ) ;
#501 = ORIENTED_EDGE ( 'NONE', *, *, #37, .F. ) ;
#502 = STYLED_ITEM ( 'NONE', ( #123 ), #797 ) ;
#503 = VERTEX_POINT ( 'NONE', #529 ) ;
#504 =( NAMED_UNIT ( * ) SI_UNIT ( $, .STERADIAN. ) SOLID_ANGLE_UNIT ( ) );
#505 = DIRECTION ( 'NONE',  ( 1.000000000000000000, 0.000000000000000000, -0.000000000000000000 ) ) ;
#506 = DIRECTION ( 'NONE',  ( 0.000000000000000000, -0.000000000000000000, 1.000000000000000000 ) ) ;
#507 = VERTEX_POINT ( 'NONE', #717 ) ;
#508 = EDGE_LOOP ( 'NONE', ( #100, #1036, #151, #662 ) ) ;
#509 = ADVANCED_FACE ( 'NONE', ( #1007 ), #347, .F. ) ;
#510 = CARTESIAN_POINT ( 'NONE',  ( -2.899999999999999911, 3.100000000000000089, -2.249999999999999556 ) ) ;
#511 = DIRECTION ( 'NONE',  ( 0.000000000000000000, -0.000000000000000000, -1.000000000000000000 ) ) ;
#512 = FILL_AREA_STYLE ('',( #959 ) ) ;
#513 = EDGE_LOOP ( 'NONE', ( #895, #894, #579, #115 ) ) ;
#514 = DIRECTION ( 'NONE',  ( 0.000000000000000000, -0.000000000000000000, 1.000000000000000000 ) ) ;
#515 = CARTESIAN_POINT ( 'NONE',  ( 3.160000000000002363, 0.1500000000000008271, 2.999999999999999556 ) ) ;
#516 = UNCERTAINTY_MEASURE_WITH_UNIT (LENGTH_MEASURE( 1.000000000000000082E-05 ), #924, 'distance_accuracy_value', 'NONE');
#517 = DIRECTION ( 'NONE',  ( -1.000000000000000000, 0.000000000000000000, -0.000000000000000000 ) ) ;
#518 = DIRECTION ( 'NONE',  ( -1.000000000000000000, 0.000000000000000000, -0.000000000000000000 ) ) ;
#519 = APPLICATION_CONTEXT ( 'automotive_design' ) ;
#520 = ORIENTED_EDGE ( 'NONE', *, *, #811, .F. ) ;
#521 = CARTESIAN_POINT ( 'NONE',  ( 3.450000000000000622, -10.60660171779821326, -3.449999999999999734 ) ) ;
#522 = PRESENTATION_LAYER_ASSIGNMENT (  '', '', ( #1133 ) ) ;
#523 = CARTESIAN_POINT ( 'NONE',  ( -2.600000000000000089, 3.049999999999999822, -2.249999999999999556 ) ) ;
#524 = FACE_OUTER_BOUND ( 'NONE', #839, .T. ) ;
#525 = EDGE_CURVE ( 'NONE', #1143, #807, #181, .T. ) ;
#526 =( NAMED_UNIT ( * ) PLANE_ANGLE_UNIT ( ) SI_UNIT ( $, .RADIAN. ) );
#527 = LINE ( 'NONE', #907, #723 ) ;
#528 = CARTESIAN_POINT ( 'NONE',  ( -2.899999999999999911, 3.049999999999999822, 2.250000000000000444 ) ) ;
#529 = CARTESIAN_POINT ( 'NONE',  ( -3.750000000000000000, 3.100000000000000089, 3.449999999999999734 ) ) ;
#530 = ADVANCED_FACE ( 'NONE', ( #638 ), #809, .T. ) ;
#531 = UNCERTAINTY_MEASURE_WITH_UNIT (LENGTH_MEASURE( 1.000000000000000082E-05 ), #42, 'distance_accuracy_value', 'NONE');
#532 = ADVANCED_FACE ( 'NONE', ( #524 ), #260, .T. ) ;
#533 = CARTESIAN_POINT ( 'NONE',  ( 0.000000000000000000, 3.100000000000000089, 0.000000000000000000 ) ) ;
#534 = APPLICATION_PROTOCOL_DEFINITION ( 'draft international standard', 'automotive_design', 1998, #519 ) ;
#535 = ORIENTED_EDGE ( 'NONE', *, *, #345, .F. ) ;
#536 = LINE ( 'NONE', #346, #206 ) ;
#537 = FILL_AREA_STYLE_COLOUR ( '', #244 ) ;
#538 = FILL_AREA_STYLE_COLOUR ( '', #651 ) ;
#539 = CARTESIAN_POINT ( 'NONE',  ( -2.600000000000000089, 3.049999999999999822, 2.250000000000000444 ) ) ;
#540 = PRODUCT_CONTEXT ( 'NONE', #851, 'mechanical' ) ;
#541 = MECHANICAL_DESIGN_GEOMETRIC_PRESENTATION_REPRESENTATION (  '', ( #414 ), #163 ) ;
#542 = ORIENTED_EDGE ( 'NONE', *, *, #370, .T. ) ;
#543 = VECTOR ( 'NONE', #429, 1000.000000000000000 ) ;
#544 = FILL_AREA_STYLE_COLOUR ( '', #122 ) ;
#545 =( GEOMETRIC_REPRESENTATION_CONTEXT ( 3 ) GLOBAL_UNCERTAINTY_ASSIGNED_CONTEXT ( ( #85 ) ) GLOBAL_UNIT_ASSIGNED_CONTEXT ( ( #1055, #784, #117 ) ) REPRESENTATION_CONTEXT ( 'NONE', 'WORKASPACE' ) );
#546 = SURFACE_STYLE_FILL_AREA ( #916 ) ;
#547 = LINE ( 'NONE', #635, #200 ) ;
#548 = ORIENTED_EDGE ( 'NONE', *, *, #95, .T. ) ;
#549 = ADVANCED_FACE ( 'NONE', ( #1158 ), #311, .F. ) ;
#550 = PLANE ( 'NONE',  #288 ) ;
#551 =( NAMED_UNIT ( * ) SI_UNIT ( $, .STERADIAN. ) SOLID_ANGLE_UNIT ( ) );
#552 = ADVANCED_FACE ( 'NONE', ( #696 ), #202, .T. ) ;
#553 = CARTESIAN_POINT ( 'NONE',  ( -1.560000000000000497, 0.1500000000000008271, 3.000000000000000888 ) ) ;
#554 = ORIENTED_EDGE ( 'NONE', *, *, #45, .T. ) ;
#555 = FACE_OUTER_BOUND ( 'NONE', #616, .T. ) ;
#556 = DIRECTION ( 'NONE',  ( 1.000000000000000000, -0.000000000000000000, 0.000000000000000000 ) ) ;
#557 = LINE ( 'NONE', #1042, #822 ) ;
#558 = ORIENTED_EDGE ( 'NONE', *, *, #911, .F. ) ;
#559 = AXIS2_PLACEMENT_3D ( 'NONE', #1062, #594, #518 ) ;
#560 = COLOUR_RGB ( '',0.7921568627450980005, 0.8196078431372548767, 0.9333333333333333481 ) ;
#561 = CARTESIAN_POINT ( 'NONE',  ( -2.600000000000000089, 3.049999999999999822, 2.250000000000000444 ) ) ;
#562 = MECHANICAL_DESIGN_GEOMETRIC_PRESENTATION_REPRESENTATION (  '', ( #785 ), #751 ) ;
#563 = MECHANICAL_DESIGN_GEOMETRIC_PRESENTATION_REPRESENTATION (  '', ( #323 ), #705 ) ;
#564 = LINE ( 'NONE', #769, #304 ) ;
#565 = PRODUCT_RELATED_PRODUCT_CATEGORY ( 'part', '', ( #1087 ) ) ;
#566 = AXIS2_PLACEMENT_3D ( 'NONE', #1153, #1164, #871 ) ;
#567 = UNCERTAINTY_MEASURE_WITH_UNIT (LENGTH_MEASURE( 1.000000000000000082E-05 ), #378, 'distance_accuracy_value', 'NONE');
#568 = PRODUCT_DEFINITION_FORMATION_WITH_SPECIFIED_SOURCE ( 'ANY', '', #1087, .NOT_KNOWN. ) ;
#569 = EDGE_CURVE ( 'NONE', #1066, #416, #393, .T. ) ;
#570 = ORIENTED_EDGE ( 'NONE', *, *, #704, .T. ) ;
#571 = CARTESIAN_POINT ( 'NONE',  ( -2.600000000000000089, 3.100000000000000089, 2.250000000000000444 ) ) ;
#572 =( LENGTH_UNIT ( ) NAMED_UNIT ( * ) SI_UNIT ( .MILLI., .METRE. ) );
#573 = UNCERTAINTY_MEASURE_WITH_UNIT (LENGTH_MEASURE( 1.000000000000000082E-05 ), #1206, 'distance_accuracy_value', 'NONE');
#574 = EDGE_CURVE ( 'NONE', #1184, #988, #780, .T. ) ;
#575 = ORIENTED_EDGE ( 'NONE', *, *, #721, .F. ) ;
#576 = DIRECTION ( 'NONE',  ( -1.000000000000000000, -0.000000000000000000, -0.000000000000000000 ) ) ;
#577 = DIRECTION ( 'NONE',  ( 0.000000000000000000, 0.000000000000000000, 1.000000000000000000 ) ) ;
#578 = UNCERTAINTY_MEASURE_WITH_UNIT (LENGTH_MEASURE( 1.000000000000000082E-05 ), #695, 'distance_accuracy_value', 'NONE');
#579 = ORIENTED_EDGE ( 'NONE', *, *, #1115, .F. ) ;
#580 = CARTESIAN_POINT ( 'NONE',  ( -3.160000000000000586, 0.1500000000000008271, -2.999999999999999556 ) ) ;
#581 = AXIS2_PLACEMENT_3D ( 'NONE', #1085, #637, #808 ) ;
#582 = CARTESIAN_POINT ( 'NONE',  ( -3.449999999999999289, -10.60660171779821326, -3.449999999999999734 ) ) ;
#583 = MECHANICAL_DESIGN_GEOMETRIC_PRESENTATION_REPRESENTATION (  '', ( #1133 ), #770 ) ;
#584 = ORIENTED_EDGE ( 'NONE', *, *, #684, .T. ) ;
#585 = MANIFOLD_SOLID_BREP ( 'Cut-Extrude1', #915 ) ;
#586 = CARTESIAN_POINT ( 'NONE',  ( -2.600000000000000089, 3.100000000000000089, -2.249999999999999556 ) ) ;
#587 = LINE ( 'NONE', #396, #768 ) ;
#588 = EDGE_CURVE ( 'NONE', #373, #1143, #905, .T. ) ;
#589 = PLANE ( 'NONE',  #786 ) ;
#590 = LINE ( 'NONE', #500, #49 ) ;
#591 = ORIENTED_EDGE ( 'NONE', *, *, #60, .F. ) ;
#592 = CARTESIAN_POINT ( 'NONE',  ( -2.899999999999999911, 3.049999999999999822, -2.249999999999999556 ) ) ;
#593 = SURFACE_SIDE_STYLE ('',( #692 ) ) ;
#594 = DIRECTION ( 'NONE',  ( 0.000000000000000000, 0.000000000000000000, -1.000000000000000000 ) ) ;
#595 = UNCERTAINTY_MEASURE_WITH_UNIT (LENGTH_MEASURE( 1.000000000000000082E-05 ), #626, 'distance_accuracy_value', 'NONE');
#596 = ORIENTED_EDGE ( 'NONE', *, *, #588, .T. ) ;
#597 = APPLICATION_PROTOCOL_DEFINITION ( 'draft international standard', 'automotive_design', 1998, #851 ) ;
#598 = CARTESIAN_POINT ( 'NONE',  ( 3.450000000000000622, 0.1500000000000008271, -3.749999999999999556 ) ) ;
#599 = MANIFOLD_SOLID_BREP ( 'Boss-Extrude3[1]', #87 ) ;
#600 = AXIS2_PLACEMENT_3D ( 'NONE', #453, #70, #830 ) ;
#601 = AXIS2_PLACEMENT_3D ( 'NONE', #932, #556, #98 ) ;
#602 = EDGE_CURVE ( 'NONE', #715, #1184, #587, .T. ) ;
#603 = SURFACE_STYLE_USAGE ( .BOTH. , #793 ) ;
#604 = VERTEX_POINT ( 'NONE', #1163 ) ;
#605 = VECTOR ( 'NONE', #93, 1000.000000000000000 ) ;
#606 = VERTEX_POINT ( 'NONE', #783 ) ;
#607 = SURFACE_STYLE_FILL_AREA ( #74 ) ;
#608 =( LENGTH_UNIT ( ) NAMED_UNIT ( * ) SI_UNIT ( .MILLI., .METRE. ) );
#609 = DIRECTION ( 'NONE',  ( -0.000000000000000000, 1.000000000000000000, -0.000000000000000000 ) ) ;
#610 = SURFACE_STYLE_FILL_AREA ( #798 ) ;
#611 = LINE ( 'NONE', #984, #398 ) ;
#612 = MANIFOLD_SOLID_BREP ( 'Boss-Extrude2', #462 ) ;
#613 = LINE ( 'NONE', #210, #179 ) ;
#614 = CARTESIAN_POINT ( 'NONE',  ( 3.160000000000000586, 0.1500000000000008271, -3.000000000000000444 ) ) ;
#615 = EDGE_CURVE ( 'NONE', #801, #807, #904, .T. ) ;
#616 = EDGE_LOOP ( 'NONE', ( #825, #338, #1183, #410 ) ) ;
#617 = CARTESIAN_POINT ( 'NONE',  ( 0.000000000000000000, 0.1500000000000008271, 0.000000000000000000 ) ) ;
#618 = CARTESIAN_POINT ( 'NONE',  ( -2.899999999999999911, 3.100000000000000089, 2.250000000000000444 ) ) ;
#619 = PRESENTATION_STYLE_ASSIGNMENT (( #1101 ) ) ;
#620 = LINE ( 'NONE', #985, #1037 ) ;
#621 = DIRECTION ( 'NONE',  ( 3.614007241618347908E-17, 0.000000000000000000, -1.000000000000000000 ) ) ;
#622 = ORIENTED_EDGE ( 'NONE', *, *, #1165, .F. ) ;
#623 = ORIENTED_EDGE ( 'NONE', *, *, #279, .T. ) ;
#624 = SURFACE_STYLE_USAGE ( .BOTH. , #1202 ) ;
#625 = CARTESIAN_POINT ( 'NONE',  ( -2.899999999999999911, 3.049999999999999822, 2.250000000000000444 ) ) ;
#626 =( LENGTH_UNIT ( ) NAMED_UNIT ( * ) SI_UNIT ( .MILLI., .METRE. ) );
#627 = SURFACE_STYLE_USAGE ( .BOTH. , #1089 ) ;
#628 = VERTEX_POINT ( 'NONE', #1186 ) ;
#629 = COLOUR_RGB ( '',0.2509803921568627416, 0.2509803921568627416, 0.2509803921568627416 ) ;
#630 =( GEOMETRIC_REPRESENTATION_CONTEXT ( 3 ) GLOBAL_UNCERTAINTY_ASSIGNED_CONTEXT ( ( #275 ) ) GLOBAL_UNIT_ASSIGNED_CONTEXT ( ( #58, #158, #1209 ) ) REPRESENTATION_CONTEXT ( 'NONE', 'WORKASPACE' ) );
#631 = ORIENTED_EDGE ( 'NONE', *, *, #401, .T. ) ;
#632 =( GEOMETRIC_REPRESENTATION_CONTEXT ( 3 ) GLOBAL_UNCERTAINTY_ASSIGNED_CONTEXT ( ( #567 ) ) GLOBAL_UNIT_ASSIGNED_CONTEXT ( ( #378, #854, #1110 ) ) REPRESENTATION_CONTEXT ( 'NONE', 'WORKASPACE' ) );
#633 = ADVANCED_FACE ( 'NONE', ( #639 ), #446, .T. ) ;
#634 = CARTESIAN_POINT ( 'NONE',  ( -2.899999999999999911, 3.100000000000000089, 2.250000000000000444 ) ) ;
#635 = CARTESIAN_POINT ( 'NONE',  ( 3.160000000000002363, 0.000000000000000000, 2.999999999999999556 ) ) ;
#636 = ORIENTED_EDGE ( 'NONE', *, *, #835, .F. ) ;
#637 = DIRECTION ( 'NONE',  ( -0.000000000000000000, -1.000000000000000000, -0.000000000000000000 ) ) ;
#638 = FACE_OUTER_BOUND ( 'NONE', #833, .T. ) ;
#639 = FACE_OUTER_BOUND ( 'NONE', #120, .T. ) ;
#640 = CARTESIAN_POINT ( 'NONE',  ( 3.160000000000002363, 0.000000000000000000, 2.999999999999999556 ) ) ;
#641 = SURFACE_SIDE_STYLE ('',( #413 ) ) ;
#642 = DIRECTION ( 'NONE',  ( 0.000000000000000000, -0.000000000000000000, -1.000000000000000000 ) ) ;
#643 = EDGE_LOOP ( 'NONE', ( #174, #998, #79, #83 ) ) ;
#644 = DIRECTION ( 'NONE',  ( 0.000000000000000000, 1.000000000000000000, 0.000000000000000000 ) ) ;
#645 = SURFACE_SIDE_STYLE ('',( #1203 ) ) ;
#646 = CARTESIAN_POINT ( 'NONE',  ( 1.560000000000000275, 0.1500000000000008271, -3.000000000000000000 ) ) ;
#647 = PLANE ( 'NONE',  #1015 ) ;
#648 = CARTESIAN_POINT ( 'NONE',  ( 0.000000000000000000, 0.000000000000000000, 0.000000000000000000 ) ) ;
#649 = EDGE_CURVE ( 'NONE', #1213, #377, #1014, .T. ) ;
#650 = EDGE_LOOP ( 'NONE', ( #535, #391, #942, #912 ) ) ;
#651 = COLOUR_RGB ( '',1.000000000000000000, 1.000000000000000000, 1.000000000000000000 ) ;
#652 = STYLED_ITEM ( 'NONE', ( #1146 ), #552 ) ;
#653 = DIRECTION ( 'NONE',  ( 0.000000000000000000, 1.000000000000000000, 0.000000000000000000 ) ) ;
#654 = VECTOR ( 'NONE', #68, 1000.000000000000000 ) ;
#655 = MECHANICAL_DESIGN_GEOMETRIC_PRESENTATION_REPRESENTATION (  '', ( #73 ), #421 ) ;
#656 = DIRECTION ( 'NONE',  ( 1.000000000000000000, 0.000000000000000000, 0.000000000000000000 ) ) ;
#657 = LINE ( 'NONE', #1024, #103 ) ;
#658 = EDGE_LOOP ( 'NONE', ( #989, #554, #570, #294, #131, #690, #1207, #239 ) ) ;
#659 = LINE ( 'NONE', #2, #709 ) ;
#660 = DIRECTION ( 'NONE',  ( 0.000000000000000000, 0.000000000000000000, 1.000000000000000000 ) ) ;
#661 = PRESENTATION_STYLE_ASSIGNMENT (( #358 ) ) ;
#662 = ORIENTED_EDGE ( 'NONE', *, *, #169, .T. ) ;
#663 = LINE ( 'NONE', #175, #1154 ) ;
#664 = EDGE_CURVE ( 'NONE', #1119, #491, #1204, .T. ) ;
#665 = DIRECTION ( 'NONE',  ( -0.000000000000000000, -0.000000000000000000, 1.000000000000000000 ) ) ;
#666 = DIRECTION ( 'NONE',  ( -0.000000000000000000, -0.000000000000000000, 1.000000000000000000 ) ) ;
#667 = VERTEX_POINT ( 'NONE', #646 ) ;
#668 = MECHANICAL_DESIGN_GEOMETRIC_PRESENTATION_REPRESENTATION (  '', ( #765 ), #1068 ) ;
#669 = SURFACE_STYLE_FILL_AREA ( #1208 ) ;
#670 = MECHANICAL_DESIGN_GEOMETRIC_PRESENTATION_REPRESENTATION (  '', ( #845 ), #970 ) ;
#671 = STYLED_ITEM ( 'NONE', ( #990 ), #951 ) ;
#672 = EDGE_CURVE ( 'NONE', #491, #604, #620, .T. ) ;
#673 = VECTOR ( 'NONE', #178, 1000.000000000000000 ) ;
#674 = ORIENTED_EDGE ( 'NONE', *, *, #411, .F. ) ;
#675 = CARTESIAN_POINT ( 'NONE',  ( -2.899999999999999911, 3.049999999999999822, -2.249999999999999556 ) ) ;
#676 = SURFACE_STYLE_USAGE ( .BOTH. , #286 ) ;
#677 = SURFACE_STYLE_USAGE ( .BOTH. , #190 ) ;
#678 = ADVANCED_FACE ( 'NONE', ( #424 ), #810, .T. ) ;
#679 = ORIENTED_EDGE ( 'NONE', *, *, #615, .F. ) ;
#680 =( NAMED_UNIT ( * ) SI_UNIT ( $, .STERADIAN. ) SOLID_ANGLE_UNIT ( ) );
#681 = CARTESIAN_POINT ( 'NONE',  ( -3.449999999999999289, 0.1500000000000008271, -3.749999999999999556 ) ) ;
#682 = CARTESIAN_POINT ( 'NONE',  ( -2.899999999999999911, 3.049999999999999822, 2.250000000000000444 ) ) ;
#683 = ORIENTED_EDGE ( 'NONE', *, *, #741, .F. ) ;
#684 = EDGE_CURVE ( 'NONE', #890, #750, #170, .T. ) ;
#685 = SURFACE_SIDE_STYLE ('',( #305 ) ) ;
#686 = STYLED_ITEM ( 'NONE', ( #661 ), #389 ) ;
#687 =( GEOMETRIC_REPRESENTATION_CONTEXT ( 3 ) GLOBAL_UNCERTAINTY_ASSIGNED_CONTEXT ( ( #961 ) ) GLOBAL_UNIT_ASSIGNED_CONTEXT ( ( #436, #1081, #253 ) ) REPRESENTATION_CONTEXT ( 'NONE', 'WORKASPACE' ) );
#688 = AXIS2_PLACEMENT_3D ( 'NONE', #457, #841, #1032 ) ;
#689 = PRESENTATION_STYLE_ASSIGNMENT (( #46 ) ) ;
#690 = ORIENTED_EDGE ( 'NONE', *, *, #372, .T. ) ;
#691 =( NAMED_UNIT ( * ) PLANE_ANGLE_UNIT ( ) SI_UNIT ( $, .RADIAN. ) );
#692 = SURFACE_STYLE_FILL_AREA ( #866 ) ;
#693 = PLANE ( 'NONE',  #559 ) ;
#694 = ORIENTED_EDGE ( 'NONE', *, *, #946, .F. ) ;
#695 =( LENGTH_UNIT ( ) NAMED_UNIT ( * ) SI_UNIT ( .MILLI., .METRE. ) );
#696 = FACE_OUTER_BOUND ( 'NONE', #650, .T. ) ;
#697 = ADVANCED_FACE ( 'NONE', ( #102 ), #8, .F. ) ;
#698 = DIRECTION ( 'NONE',  ( 0.000000000000000000, 0.000000000000000000, -1.000000000000000000 ) ) ;
#699 = ORIENTED_EDGE ( 'NONE', *, *, #741, .T. ) ;
#700 = ORIENTED_EDGE ( 'NONE', *, *, #835, .T. ) ;
#701 = CARTESIAN_POINT ( 'NONE',  ( -3.160000000000000586, 0.1500000000000008271, -2.999999999999999556 ) ) ;
#702 = VECTOR ( 'NONE', #203, 1000.000000000000000 ) ;
#703 = STYLED_ITEM ( 'NONE', ( #149 ), #332 ) ;
#704 = EDGE_CURVE ( 'NONE', #801, #373, #271, .T. ) ;
#705 =( GEOMETRIC_REPRESENTATION_CONTEXT ( 3 ) GLOBAL_UNCERTAINTY_ASSIGNED_CONTEXT ( ( #31 ) ) GLOBAL_UNIT_ASSIGNED_CONTEXT ( ( #331, #336, #148 ) ) REPRESENTATION_CONTEXT ( 'NONE', 'WORKASPACE' ) );
#706 = PLANE ( 'NONE',  #438 ) ;
#707 = CARTESIAN_POINT ( 'NONE',  ( -2.899999999999999911, 3.049999999999999822, 2.250000000000000444 ) ) ;
#708 = PRESENTATION_LAYER_ASSIGNMENT (  '', '', ( #953 ) ) ;
#709 = VECTOR ( 'NONE', #285, 1000.000000000000000 ) ;
#710 = ORIENTED_EDGE ( 'NONE', *, *, #236, .T. ) ;
#711 = DIRECTION ( 'NONE',  ( 0.000000000000000000, 1.000000000000000000, -0.000000000000000000 ) ) ;
#712 = SURFACE_SIDE_STYLE ('',( #452 ) ) ;
#713 = FILL_AREA_STYLE_COLOUR ( '', #16 ) ;
#714 = EDGE_LOOP ( 'NONE', ( #996, #104, #694, #426 ) ) ;
#715 = VERTEX_POINT ( 'NONE', #368 ) ;
#716 = DIRECTION ( 'NONE',  ( 0.000000000000000000, 0.000000000000000000, 1.000000000000000000 ) ) ;
#717 = CARTESIAN_POINT ( 'NONE',  ( -3.750000000000000000, 0.1500000000000008271, 3.449999999999999734 ) ) ;
#718 = PRESENTATION_STYLE_ASSIGNMENT (( #1180 ) ) ;
#719 = CARTESIAN_POINT ( 'NONE',  ( 3.750000000000000444, -10.60660171779821326, 3.449999999999999734 ) ) ;
#720 = DIRECTION ( 'NONE',  ( 1.000000000000000000, 0.000000000000000000, -2.710505431213760592E-16 ) ) ;
#721 = EDGE_CURVE ( 'NONE', #240, #1119, #1121, .T. ) ;
#722 =( NAMED_UNIT ( * ) SI_UNIT ( $, .STERADIAN. ) SOLID_ANGLE_UNIT ( ) );
#723 = VECTOR ( 'NONE', #150, 1000.000000000000000 ) ;
#724 = CARTESIAN_POINT ( 'NONE',  ( -3.160000000000000586, 0.1500000000000008271, 3.000000000000000444 ) ) ;
#725 = AXIS2_PLACEMENT_3D ( 'NONE', #252, #128, #511 ) ;
#726 = DIRECTION ( 'NONE',  ( -0.000000000000000000, -1.000000000000000000, -0.000000000000000000 ) ) ;
#727 = SURFACE_SIDE_STYLE ('',( #607 ) ) ;
#728 = AXIS2_PLACEMENT_3D ( 'NONE', #390, #4, #773 ) ;
#729 = MECHANICAL_DESIGN_GEOMETRIC_PRESENTATION_REPRESENTATION (  '', ( #165 ), #1018 ) ;
#730 = ORIENTED_EDGE ( 'NONE', *, *, #383, .T. ) ;
#731 = COLOUR_RGB ( '',0.7921568627450980005, 0.8196078431372548767, 0.9333333333333333481 ) ;
#732 = CARTESIAN_POINT ( 'NONE',  ( 3.450000000000001066, 0.1500000000000008271, 3.749999999999999556 ) ) ;
#733 =( NAMED_UNIT ( * ) PLANE_ANGLE_UNIT ( ) SI_UNIT ( $, .RADIAN. ) );
#734 = DIRECTION ( 'NONE',  ( 0.000000000000000000, 1.000000000000000000, 0.000000000000000000 ) ) ;
#735 = FACE_OUTER_BOUND ( 'NONE', #24, .T. ) ;
#736 = FILL_AREA_STYLE_COLOUR ( '', #731 ) ;
#737 = VERTEX_POINT ( 'NONE', #1125 ) ;
#738 = CARTESIAN_POINT ( 'NONE',  ( -3.750000000000000000, 0.1500000000000008271, -3.449999999999999734 ) ) ;
#739 = SURFACE_STYLE_USAGE ( .BOTH. , #645 ) ;
#740 = FILL_AREA_STYLE_COLOUR ( '', #499 ) ;
#741 = EDGE_CURVE ( 'NONE', #377, #806, #1041, .T. ) ;
#742 =( NAMED_UNIT ( * ) PLANE_ANGLE_UNIT ( ) SI_UNIT ( $, .RADIAN. ) );
#743 = FILL_AREA_STYLE_COLOUR ( '', #341 ) ;
#744 = EDGE_LOOP ( 'NONE', ( #450, #1177, #1148, #394 ) ) ;
#745 = CARTESIAN_POINT ( 'NONE',  ( 3.450000000000000622, 0.1500000000000008271, -3.449999999999999734 ) ) ;
#746 = DIRECTION ( 'NONE',  ( -0.000000000000000000, -1.000000000000000000, -0.000000000000000000 ) ) ;
#747 = EDGE_CURVE ( 'NONE', #930, #1083, #189, .T. ) ;
#748 = CARTESIAN_POINT ( 'NONE',  ( 3.160000000000000586, 0.1500000000000008271, -3.000000000000000444 ) ) ;
#749 = VECTOR ( 'NONE', #1182, 1000.000000000000000 ) ;
#750 = VERTEX_POINT ( 'NONE', #1111 ) ;
#751 =( GEOMETRIC_REPRESENTATION_CONTEXT ( 3 ) GLOBAL_UNCERTAINTY_ASSIGNED_CONTEXT ( ( #1138 ) ) GLOBAL_UNIT_ASSIGNED_CONTEXT ( ( #283, #477, #1029 ) ) REPRESENTATION_CONTEXT ( 'NONE', 'WORKASPACE' ) );
#752 = PRESENTATION_LAYER_ASSIGNMENT (  '', '', ( #938 ) ) ;
#753 = DIRECTION ( 'NONE',  ( -1.000000000000000000, 0.000000000000000000, -0.000000000000000000 ) ) ;
#754 = AXIS2_PLACEMENT_3D ( 'NONE', #815, #1192, #141 ) ;
#755 = DIRECTION ( 'NONE',  ( -0.000000000000000000, -1.000000000000000000, -0.000000000000000000 ) ) ;
#756 = CARTESIAN_POINT ( 'NONE',  ( -3.160000000000000586, 0.000000000000000000, -2.999999999999999556 ) ) ;
#757 = ORIENTED_EDGE ( 'NONE', *, *, #458, .T. ) ;
#758 = FACE_OUTER_BOUND ( 'NONE', #258, .T. ) ;
#759 = DIRECTION ( 'NONE',  ( 1.000000000000000000, 0.000000000000000000, 2.710505431213761085E-16 ) ) ;
#760 = FACE_OUTER_BOUND ( 'NONE', #1116, .T. ) ;
#761 = ORIENTED_EDGE ( 'NONE', *, *, #1210, .F. ) ;
#762 = EDGE_CURVE ( 'NONE', #806, #470, #269, .T. ) ;
#763 = FILL_AREA_STYLE ('',( #472 ) ) ;
#764 = EDGE_LOOP ( 'NONE', ( #10, #596, #1049, #478 ) ) ;
#765 = STYLED_ITEM ( 'NONE', ( #979 ), #172 ) ;
#766 = PRESENTATION_LAYER_ASSIGNMENT (  '', '', ( #300 ) ) ;
#767 = LINE ( 'NONE', #1031, #208 ) ;
#768 = VECTOR ( 'NONE', #609, 1000.000000000000000 ) ;
#769 = CARTESIAN_POINT ( 'NONE',  ( -2.600000000000000089, 3.049999999999999822, -2.249999999999999556 ) ) ;
#770 =( GEOMETRIC_REPRESENTATION_CONTEXT ( 3 ) GLOBAL_UNCERTAINTY_ASSIGNED_CONTEXT ( ( #872 ) ) GLOBAL_UNIT_ASSIGNED_CONTEXT ( ( #249, #257, #929 ) ) REPRESENTATION_CONTEXT ( 'NONE', 'WORKASPACE' ) );
#771 = EDGE_LOOP ( 'NONE', ( #162, #66, #501, #1159 ) ) ;
#772 = FACE_OUTER_BOUND ( 'NONE', #250, .T. ) ;
#773 = DIRECTION ( 'NONE',  ( -1.000000000000000000, 0.000000000000000000, 5.421010862427522170E-16 ) ) ;
#774 = ADVANCED_FACE ( 'NONE', ( #94 ), #282, .T. ) ;
#775 = DIRECTION ( 'NONE',  ( 0.000000000000000000, 1.000000000000000000, 0.000000000000000000 ) ) ;
#776 = EDGE_LOOP ( 'NONE', ( #813, #309, #819, #488 ) ) ;
#777 = EDGE_CURVE ( 'NONE', #416, #240, #276, .T. ) ;
#778 = UNCERTAINTY_MEASURE_WITH_UNIT (LENGTH_MEASURE( 1.000000000000000082E-05 ), #969, 'distance_accuracy_value', 'NONE');
#779 =( NAMED_UNIT ( * ) PLANE_ANGLE_UNIT ( ) SI_UNIT ( $, .RADIAN. ) );
#780 = LINE ( 'NONE', #1147, #860 ) ;
#781 = ORIENTED_EDGE ( 'NONE', *, *, #762, .T. ) ;
#782 = CARTESIAN_POINT ( 'NONE',  ( -3.160000000000000586, 0.1500000000000008271, -2.999999999999999556 ) ) ;
#783 = CARTESIAN_POINT ( 'NONE',  ( -3.449999999999999289, 3.100000000000000089, 3.750000000000000000 ) ) ;
#784 =( NAMED_UNIT ( * ) PLANE_ANGLE_UNIT ( ) SI_UNIT ( $, .RADIAN. ) );
#785 = STYLED_ITEM ( 'NONE', ( #9 ), #433 ) ;
#786 = AXIS2_PLACEMENT_3D ( 'NONE', #50, #820, #514 ) ;
#787 = AXIS2_PLACEMENT_3D ( 'NONE', #870, #1144, #1059 ) ;
#788 = ORIENTED_EDGE ( 'NONE', *, *, #762, .F. ) ;
#789 = EDGE_CURVE ( 'NONE', #48, #949, #176, .T. ) ;
#790 = CARTESIAN_POINT ( 'NONE',  ( -3.449999999999999289, 3.100000000000000089, -3.749999999999999556 ) ) ;
#791 = EDGE_CURVE ( 'NONE', #890, #1123, #564, .T. ) ;
#792 = SURFACE_STYLE_USAGE ( .BOTH. , #593 ) ;
#793 = SURFACE_SIDE_STYLE ('',( #114 ) ) ;
#794 = DIRECTION ( 'NONE',  ( 0.000000000000000000, 1.000000000000000000, -0.000000000000000000 ) ) ;
#795 = VERTEX_POINT ( 'NONE', #510 ) ;
#796 = SURFACE_STYLE_USAGE ( .BOTH. , #685 ) ;
#797 = ADVANCED_FACE ( 'NONE', ( #772 ), #22, .T. ) ;
#798 = FILL_AREA_STYLE ('',( #388 ) ) ;
#799 =( NAMED_UNIT ( * ) PLANE_ANGLE_UNIT ( ) SI_UNIT ( $, .RADIAN. ) );
#800 = ORIENTED_EDGE ( 'NONE', *, *, #602, .F. ) ;
#801 = VERTEX_POINT ( 'NONE', #598 ) ;
#802 =( NAMED_UNIT ( * ) PLANE_ANGLE_UNIT ( ) SI_UNIT ( $, .RADIAN. ) );
#803 = DIRECTION ( 'NONE',  ( 0.000000000000000000, 1.000000000000000000, 0.000000000000000000 ) ) ;
#804 = VECTOR ( 'NONE', #431, 1000.000000000000000 ) ;
#805 = PRESENTATION_LAYER_ASSIGNMENT (  '', '', ( #686 ) ) ;
#806 = VERTEX_POINT ( 'NONE', #1061 ) ;
#807 = VERTEX_POINT ( 'NONE', #109 ) ;
#808 = DIRECTION ( 'NONE',  ( -4.336808689942024836E-15, 0.000000000000000000, 1.000000000000000000 ) ) ;
#809 = PLANE ( 'NONE',  #1128 ) ;
#810 = PLANE ( 'NONE',  #441 ) ;
#811 = EDGE_CURVE ( 'NONE', #211, #737, #214, .T. ) ;
#812 = CARTESIAN_POINT ( 'NONE',  ( -2.899999999999999911, 3.049999999999999822, 2.250000000000000444 ) ) ;
#813 = ORIENTED_EDGE ( 'NONE', *, *, #126, .T. ) ;
#814 = VERTEX_POINT ( 'NONE', #681 ) ;
#815 = CARTESIAN_POINT ( 'NONE',  ( -2.899999999999999911, 3.049999999999999822, 2.250000000000000444 ) ) ;
#816 = CARTESIAN_POINT ( 'NONE',  ( -3.449999999999999289, -10.60660171779821326, 3.750000000000000000 ) ) ;
#817 = FILL_AREA_STYLE ('',( #823 ) ) ;
#818 = CARTESIAN_POINT ( 'NONE',  ( -2.899999999999999911, 3.049999999999999822, -2.249999999999999556 ) ) ;
#819 = ORIENTED_EDGE ( 'NONE', *, *, #76, .F. ) ;
#820 = DIRECTION ( 'NONE',  ( 0.000000000000000000, 1.000000000000000000, 0.000000000000000000 ) ) ;
#821 = CARTESIAN_POINT ( 'NONE',  ( -2.899999999999999911, 3.049999999999999822, 2.250000000000000444 ) ) ;
#822 = VECTOR ( 'NONE', #1126, 1000.000000000000000 ) ;
#823 = FILL_AREA_STYLE_COLOUR ( '', #629 ) ;
#824 = DIRECTION ( 'NONE',  ( 0.000000000000000000, 0.000000000000000000, 1.000000000000000000 ) ) ;
#825 = ORIENTED_EDGE ( 'NONE', *, *, #937, .T. ) ;
#826 = AXIS2_PLACEMENT_3D ( 'NONE', #592, #962, #859 ) ;
#827 = EDGE_CURVE ( 'NONE', #1129, #1213, #317, .T. ) ;
#828 = FACE_OUTER_BOUND ( 'NONE', #496, .T. ) ;
#829 = CARTESIAN_POINT ( 'NONE',  ( 0.000000000000000000, 3.049999999999999822, 0.000000000000000000 ) ) ;
#830 = DIRECTION ( 'NONE',  ( 0.000000000000000000, 0.000000000000000000, 1.000000000000000000 ) ) ;
#831 = SURFACE_STYLE_USAGE ( .BOTH. , #641 ) ;
#832 = SURFACE_STYLE_USAGE ( .BOTH. , #72 ) ;
#833 = EDGE_LOOP ( 'NONE', ( #127, #788, #683, #289 ) ) ;
#834 = CARTESIAN_POINT ( 'NONE',  ( -2.600000000000000089, 3.100000000000000089, -2.249999999999999556 ) ) ;
#835 = EDGE_CURVE ( 'NONE', #1129, #853, #1050, .T. ) ;
#836 = DIRECTION ( 'NONE',  ( -0.000000000000000000, -1.000000000000000000, -0.000000000000000000 ) ) ;
#837 = CARTESIAN_POINT ( 'NONE',  ( 3.160000000000002363, 0.000000000000000000, 2.999999999999999556 ) ) ;
#838 = DIRECTION ( 'NONE',  ( -3.252606517456513302E-16, 0.000000000000000000, -1.000000000000000000 ) ) ;
#839 = EDGE_LOOP ( 'NONE', ( #1099, #125, #1105, #960 ) ) ;
#840 = DIRECTION ( 'NONE',  ( 0.000000000000000000, 0.000000000000000000, -1.000000000000000000 ) ) ;
#841 = DIRECTION ( 'NONE',  ( -1.000000000000000000, 0.000000000000000000, 0.000000000000000000 ) ) ;
#842 = DIRECTION ( 'NONE',  ( 1.000000000000000000, 0.000000000000000000, 0.000000000000000000 ) ) ;
#843 = AXIS2_PLACEMENT_3D ( 'NONE', #966, #794, #405 ) ;
#844 = ORIENTED_EDGE ( 'NONE', *, *, #383, .F. ) ;
#845 = STYLED_ITEM ( 'NONE', ( #718 ), #678 ) ;
#846 = VECTOR ( 'NONE', #180, 1000.000000000000000 ) ;
#847 = CARTESIAN_POINT ( 'NONE',  ( 3.750000000000000444, -10.60660171779821326, 3.449999999999999734 ) ) ;
#848 = ADVANCED_FACE ( 'NONE', ( #307 ), #198, .F. ) ;
#849 = ORIENTED_EDGE ( 'NONE', *, *, #11, .T. ) ;
#850 = DIRECTION ( 'NONE',  ( -1.000000000000000000, 0.000000000000000000, 2.710505431213760592E-16 ) ) ;
#851 = APPLICATION_CONTEXT ( 'automotive_design' ) ;
#852 =( NAMED_UNIT ( * ) SI_UNIT ( $, .STERADIAN. ) SOLID_ANGLE_UNIT ( ) );
#853 = VERTEX_POINT ( 'NONE', #397 ) ;
#854 =( NAMED_UNIT ( * ) PLANE_ANGLE_UNIT ( ) SI_UNIT ( $, .RADIAN. ) );
#855 = CARTESIAN_POINT ( 'NONE',  ( 3.160000000000002363, 0.1500000000000008271, 2.999999999999999556 ) ) ;
#856 = ORIENTED_EDGE ( 'NONE', *, *, #569, .T. ) ;
#857 = VECTOR ( 'NONE', #621, 1000.000000000000000 ) ;
#858 = AXIS2_PLACEMENT_3D ( 'NONE', #1112, #746, #1197 ) ;
#859 = DIRECTION ( 'NONE',  ( -1.000000000000000000, 0.000000000000000000, -0.000000000000000000 ) ) ;
#860 = VECTOR ( 'NONE', #301, 1000.000000000000000 ) ;
#861 = ADVANCED_FACE ( 'NONE', ( #954 ), #589, .F. ) ;
#862 = CIRCLE ( 'NONE', #581, 0.2999999999999994893 ) ;
#863 = DIRECTION ( 'NONE',  ( 1.000000000000000000, -0.000000000000000000, 0.000000000000000000 ) ) ;
#864 = EDGE_LOOP ( 'NONE', ( #542, #575, #1167, #204 ) ) ;
#865 =( NAMED_UNIT ( * ) SI_UNIT ( $, .STERADIAN. ) SOLID_ANGLE_UNIT ( ) );
#866 = FILL_AREA_STYLE ('',( #489 ) ) ;
#867 =( LENGTH_UNIT ( ) NAMED_UNIT ( * ) SI_UNIT ( .MILLI., .METRE. ) );
#868 = LINE ( 'NONE', #55, #857 ) ;
#869 = VERTEX_POINT ( 'NONE', #732 ) ;
#870 = CARTESIAN_POINT ( 'NONE',  ( 0.000000000000000000, 0.1500000000000008271, 0.000000000000000000 ) ) ;
#871 = DIRECTION ( 'NONE',  ( 0.000000000000000000, 0.000000000000000000, 1.000000000000000000 ) ) ;
#872 = UNCERTAINTY_MEASURE_WITH_UNIT (LENGTH_MEASURE( 1.000000000000000082E-05 ), #249, 'distance_accuracy_value', 'NONE');
#873 = EDGE_CURVE ( 'NONE', #628, #869, #862, .T. ) ;
#874 =( NAMED_UNIT ( * ) PLANE_ANGLE_UNIT ( ) SI_UNIT ( $, .RADIAN. ) );
#875 = ORIENTED_EDGE ( 'NONE', *, *, #182, .T. ) ;
#876 = CIRCLE ( 'NONE', #843, 0.2999999999999999334 ) ;
#877 = FILL_AREA_STYLE_COLOUR ( '', #972 ) ;
#878 = AXIS2_PLACEMENT_3D ( 'NONE', #893, #711, #1080 ) ;
#879 = PRESENTATION_STYLE_ASSIGNMENT (( #792 ) ) ;
#880 = PRESENTATION_LAYER_ASSIGNMENT (  '', '', ( #652 ) ) ;
#881 = COLOUR_RGB ( '',0.7921568627450980005, 0.8196078431372548767, 0.9333333333333333481 ) ;
#882 = AXIS2_PLACEMENT_3D ( 'NONE', #745, #948, #660 ) ;
#883 = VECTOR ( 'NONE', #77, 1000.000000000000000 ) ;
#884 = DIRECTION ( 'NONE',  ( 1.000000000000000000, 0.000000000000000000, 0.000000000000000000 ) ) ;
#885 = VERTEX_POINT ( 'NONE', #908 ) ;
#886 = EDGE_CURVE ( 'NONE', #1123, #795, #896, .T. ) ;
#887 = ORIENTED_EDGE ( 'NONE', *, *, #215, .F. ) ;
#888 = FILL_AREA_STYLE ('',( #877 ) ) ;
#889 = DIRECTION ( 'NONE',  ( -1.000000000000000000, 0.000000000000000000, -3.614007241618347908E-17 ) ) ;
#890 = VERTEX_POINT ( 'NONE', #523 ) ;
#891 = EDGE_LOOP ( 'NONE', ( #265, #957, #974, #360 ) ) ;
#892 = SURFACE_STYLE_FILL_AREA ( #1079 ) ;
#893 = CARTESIAN_POINT ( 'NONE',  ( 3.450000000000000622, 3.100000000000000089, -3.449999999999999734 ) ) ;
#894 = ORIENTED_EDGE ( 'NONE', *, *, #1026, .F. ) ;
#895 = ORIENTED_EDGE ( 'NONE', *, *, #574, .T. ) ;
#896 = LINE ( 'NONE', #1178, #654 ) ;
#897 = EDGE_CURVE ( 'NONE', #416, #364, #1013, .T. ) ;
#898 = MECHANICAL_DESIGN_GEOMETRIC_PRESENTATION_REPRESENTATION (  '', ( #686 ), #367 ) ;
#899 = FILL_AREA_STYLE ('',( #740 ) ) ;
#900 = FILL_AREA_STYLE ('',( #713 ) ) ;
#901 = DIRECTION ( 'NONE',  ( 3.252606517456513302E-16, -0.000000000000000000, 1.000000000000000000 ) ) ;
#902 = COLOUR_RGB ( '',0.2509803921568627416, 0.2509803921568627416, 0.2509803921568627416 ) ;
#903 = VERTEX_POINT ( 'NONE', #618 ) ;
#904 = LINE ( 'NONE', #1002, #89 ) ;
#905 = LINE ( 'NONE', #1188, #1170 ) ;
#906 = DIRECTION ( 'NONE',  ( 1.000000000000000000, 0.000000000000000000, -3.252606517456513302E-16 ) ) ;
#907 = CARTESIAN_POINT ( 'NONE',  ( -3.449999999999999289, 0.1500000000000008271, -3.749999999999999556 ) ) ;
#908 = CARTESIAN_POINT ( 'NONE',  ( 3.450000000000000622, 3.100000000000000089, 3.749999999999999556 ) ) ;
#909 = FACE_OUTER_BOUND ( 'NONE', #325, .T. ) ;
#910 = DIRECTION ( 'NONE',  ( 0.000000000000000000, 1.000000000000000000, 0.000000000000000000 ) ) ;
#911 = EDGE_CURVE ( 'NONE', #885, #177, #326, .T. ) ;
#912 = ORIENTED_EDGE ( 'NONE', *, *, #1075, .F. ) ;
#913 = DIRECTION ( 'NONE',  ( 2.710505431213761085E-16, 0.000000000000000000, -1.000000000000000000 ) ) ;
#914 = SURFACE_SIDE_STYLE ('',( #1073 ) ) ;
#915 = CLOSED_SHELL ( 'NONE', ( #552, #161, #532, #678, #797, #951, #332, #774, #1124, #861, #362, #933, #1102, #26, #509 ) ) ;
#916 = FILL_AREA_STYLE ('',( #538 ) ) ;
#917 = CARTESIAN_POINT ( 'NONE',  ( -2.600000000000000089, 3.049999999999999822, 2.250000000000000444 ) ) ;
#918 = AXIS2_PLACEMENT_3D ( 'NONE', #521, #1162, #999 ) ;
#919 = VECTOR ( 'NONE', #313, 1000.000000000000000 ) ;
#920 = EDGE_LOOP ( 'NONE', ( #1012, #1084, #196, #679 ) ) ;
#921 = ADVANCED_FACE ( 'NONE', ( #828 ), #1094, .F. ) ;
#922 = LINE ( 'NONE', #1027, #1131 ) ;
#923 = DIRECTION ( 'NONE',  ( -1.000000000000000000, 0.000000000000000000, 2.710505431213760592E-16 ) ) ;
#924 =( LENGTH_UNIT ( ) NAMED_UNIT ( * ) SI_UNIT ( .MILLI., .METRE. ) );
#925 = CARTESIAN_POINT ( 'NONE',  ( 3.750000000000000444, 3.100000000000000089, 3.449999999999999734 ) ) ;
#926 = ORIENTED_EDGE ( 'NONE', *, *, #37, .T. ) ;
#927 = FACE_BOUND ( 'NONE', #33, .T. ) ;
#928 = LINE ( 'NONE', #812, #804 ) ;
#929 =( NAMED_UNIT ( * ) SI_UNIT ( $, .STERADIAN. ) SOLID_ANGLE_UNIT ( ) );
#930 = VERTEX_POINT ( 'NONE', #738 ) ;
#931 = DIRECTION ( 'NONE',  ( -0.000000000000000000, 1.000000000000000000, -0.000000000000000000 ) ) ;
#932 = CARTESIAN_POINT ( 'NONE',  ( -3.160000000000000586, 0.1500000000000008271, 3.000000000000000444 ) ) ;
#933 = ADVANCED_FACE ( 'NONE', ( #251 ), #435, .F. ) ;
#934 = VECTOR ( 'NONE', #775, 1000.000000000000000 ) ;
#935 = EDGE_LOOP ( 'NONE', ( #1020, #975, #409, #631 ) ) ;
#936 = VECTOR ( 'NONE', #15, 1000.000000000000000 ) ;
#937 = EDGE_CURVE ( 'NONE', #988, #903, #536, .T. ) ;
#938 = STYLED_ITEM ( 'NONE', ( #78 ), #633 ) ;
#939 = DIRECTION ( 'NONE',  ( 0.000000000000000000, 1.000000000000000000, 0.000000000000000000 ) ) ;
#940 = MECHANICAL_DESIGN_GEOMETRIC_PRESENTATION_REPRESENTATION (  '', ( #671 ), #1074 ) ;
#941 = AXIS2_PLACEMENT_3D ( 'NONE', #1140, #497, #315 ) ;
#942 = ORIENTED_EDGE ( 'NONE', *, *, #1191, .F. ) ;
#943 = LINE ( 'NONE', #274, #673 ) ;
#944 =( NAMED_UNIT ( * ) PLANE_ANGLE_UNIT ( ) SI_UNIT ( $, .RADIAN. ) );
#945 = ORIENTED_EDGE ( 'NONE', *, *, #827, .F. ) ;
#946 = EDGE_CURVE ( 'NONE', #606, #885, #1185, .T. ) ;
#947 =( LENGTH_UNIT ( ) NAMED_UNIT ( * ) SI_UNIT ( .MILLI., .METRE. ) );
#948 = DIRECTION ( 'NONE',  ( -0.000000000000000000, -1.000000000000000000, -0.000000000000000000 ) ) ;
#949 = VERTEX_POINT ( 'NONE', #442 ) ;
#950 = PRESENTATION_LAYER_ASSIGNMENT (  '', '', ( #785 ) ) ;
#951 = ADVANCED_FACE ( 'NONE', ( #354 ), #152, .T. ) ;
#952 = COLOUR_RGB ( '',0.7921568627450980005, 0.8196078431372548767, 0.9333333333333333481 ) ;
#953 = STYLED_ITEM ( 'NONE', ( #86 ), #774 ) ;
#954 = FACE_OUTER_BOUND ( 'NONE', #658, .T. ) ;
#955 = DIRECTION ( 'NONE',  ( 0.000000000000000000, 1.000000000000000000, 0.000000000000000000 ) ) ;
#956 = CARTESIAN_POINT ( 'NONE',  ( -2.600000000000000089, 3.049999999999999822, 2.250000000000000444 ) ) ;
#957 = ORIENTED_EDGE ( 'NONE', *, *, #263, .F. ) ;
#958 = DIRECTION ( 'NONE',  ( 0.000000000000000000, 0.000000000000000000, 1.000000000000000000 ) ) ;
#959 = FILL_AREA_STYLE_COLOUR ( '', #560 ) ;
#960 = ORIENTED_EDGE ( 'NONE', *, *, #588, .F. ) ;
#961 = UNCERTAINTY_MEASURE_WITH_UNIT (LENGTH_MEASURE( 1.000000000000000082E-05 ), #436, 'distance_accuracy_value', 'NONE');
#962 = DIRECTION ( 'NONE',  ( 0.000000000000000000, 0.000000000000000000, -1.000000000000000000 ) ) ;
#963 = PRODUCT_DEFINITION_CONTEXT ( 'detailed design', #519, 'design' ) ;
#964 = EDGE_CURVE ( 'NONE', #387, #1067, #259, .T. ) ;
#965 = CARTESIAN_POINT ( 'NONE',  ( -1.560000000000000497, 0.1500000000000008271, 3.000000000000000888 ) ) ;
#966 = CARTESIAN_POINT ( 'NONE',  ( -3.449999999999999289, 3.100000000000000089, 3.449999999999999734 ) ) ;
#967 = AXIS2_PLACEMENT_3D ( 'NONE', #965, #889, #32 ) ;
#968 =( GEOMETRIC_REPRESENTATION_CONTEXT ( 3 ) GLOBAL_UNCERTAINTY_ASSIGNED_CONTEXT ( ( #485 ) ) GLOBAL_UNIT_ASSIGNED_CONTEXT ( ( #608, #407, #504 ) ) REPRESENTATION_CONTEXT ( 'NONE', 'WORKASPACE' ) );
#969 =( LENGTH_UNIT ( ) NAMED_UNIT ( * ) SI_UNIT ( .MILLI., .METRE. ) );
#970 =( GEOMETRIC_REPRESENTATION_CONTEXT ( 3 ) GLOBAL_UNCERTAINTY_ASSIGNED_CONTEXT ( ( #595 ) ) GLOBAL_UNIT_ASSIGNED_CONTEXT ( ( #626, #526, #852 ) ) REPRESENTATION_CONTEXT ( 'NONE', 'WORKASPACE' ) );
#971 = VECTOR ( 'NONE', #644, 1000.000000000000000 ) ;
#972 = COLOUR_RGB ( '',1.000000000000000000, 1.000000000000000000, 1.000000000000000000 ) ;
#973 = CARTESIAN_POINT ( 'NONE',  ( -3.160000000000000586, 0.1500000000000008271, 3.000000000000000444 ) ) ;
#974 = ORIENTED_EDGE ( 'NONE', *, *, #1060, .F. ) ;
#975 = ORIENTED_EDGE ( 'NONE', *, *, #827, .T. ) ;
#976 = SURFACE_SIDE_STYLE ('',( #610 ) ) ;
#977 = FACE_OUTER_BOUND ( 'NONE', #864, .T. ) ;
#978 = PRESENTATION_STYLE_ASSIGNMENT (( #330 ) ) ;
#979 = PRESENTATION_STYLE_ASSIGNMENT (( #603 ) ) ;
#980 = ORIENTED_EDGE ( 'NONE', *, *, #1191, .T. ) ;
#981 = EDGE_LOOP ( 'NONE', ( #303, #520, #875, #218 ) ) ;
#982 = EDGE_CURVE ( 'NONE', #91, #1030, #133, .T. ) ;
#983 = CARTESIAN_POINT ( 'NONE',  ( -3.160000000000000586, 0.1500000000000008271, 3.000000000000000444 ) ) ;
#984 = CARTESIAN_POINT ( 'NONE',  ( -2.899999999999999911, 3.049999999999999822, -2.249999999999999556 ) ) ;
#985 = CARTESIAN_POINT ( 'NONE',  ( 1.560000000000002052, 0.000000000000000000, 3.000000000000000444 ) ) ;
#986 = PRODUCT_DEFINITION_SHAPE ( 'NONE', 'NONE',  #1181 ) ;
#987 = LINE ( 'NONE', #973, #1052 ) ;
#988 = VERTEX_POINT ( 'NONE', #451 ) ;
#989 = ORIENTED_EDGE ( 'NONE', *, *, #345, .T. ) ;
#990 = PRESENTATION_STYLE_ASSIGNMENT (( #624 ) ) ;
#991 = DIRECTION ( 'NONE',  ( 0.000000000000000000, -1.000000000000000000, 0.000000000000000000 ) ) ;
#992 = PRESENTATION_LAYER_ASSIGNMENT (  '', '', ( #319 ) ) ;
#993 = CIRCLE ( 'NONE', #858, 0.2999999999999999334 ) ;
#994 = PRESENTATION_LAYER_ASSIGNMENT (  '', '', ( #323 ) ) ;
#995 = SURFACE_STYLE_FILL_AREA ( #61 ) ;
#996 = ORIENTED_EDGE ( 'NONE', *, *, #372, .F. ) ;
#997 = VECTOR ( 'NONE', #755, 1000.000000000000000 ) ;
#998 = ORIENTED_EDGE ( 'NONE', *, *, #1115, .T. ) ;
#999 = DIRECTION ( 'NONE',  ( 0.000000000000000000, 0.000000000000000000, 1.000000000000000000 ) ) ;
#1000 = PLANE ( 'NONE',  #464 ) ;
#1001 = FILL_AREA_STYLE ('',( #460 ) ) ;
#1002 = CARTESIAN_POINT ( 'NONE',  ( 3.450000000000000622, -10.60660171779821326, -3.749999999999999556 ) ) ;
#1003 = EDGE_CURVE ( 'NONE', #869, #885, #922, .T. ) ;
#1004 = EDGE_CURVE ( 'NONE', #47, #806, #1118, .T. ) ;
#1005 = ORIENTED_EDGE ( 'NONE', *, *, #1060, .T. ) ;
#1006 = CARTESIAN_POINT ( 'NONE',  ( 3.160000000000002363, 0.1500000000000008271, 2.999999999999999556 ) ) ;
#1007 = FACE_OUTER_BOUND ( 'NONE', #643, .T. ) ;
#1008 = DIRECTION ( 'NONE',  ( 0.000000000000000000, 1.000000000000000000, 0.000000000000000000 ) ) ;
#1009 = FACE_OUTER_BOUND ( 'NONE', #981, .T. ) ;
#1010 = EDGE_CURVE ( 'NONE', #507, #930, #943, .T. ) ;
#1011 = CARTESIAN_POINT ( 'NONE',  ( 1.560000000000002052, 0.1500000000000008271, 3.000000000000000444 ) ) ;
#1012 = ORIENTED_EDGE ( 'NONE', *, *, #45, .F. ) ;
#1013 = LINE ( 'NONE', #1006, #245 ) ;
#1014 = LINE ( 'NONE', #349, #142 ) ;
#1015 = AXIS2_PLACEMENT_3D ( 'NONE', #533, #1017, #642 ) ;
#1016 = VECTOR ( 'NONE', #1211, 1000.000000000000000 ) ;
#1017 = DIRECTION ( 'NONE',  ( 0.000000000000000000, -1.000000000000000000, 0.000000000000000000 ) ) ;
#1018 =( GEOMETRIC_REPRESENTATION_CONTEXT ( 3 ) GLOBAL_UNCERTAINTY_ASSIGNED_CONTEXT ( ( #212 ) ) GLOBAL_UNIT_ASSIGNED_CONTEXT ( ( #947, #107, #865 ) ) REPRESENTATION_CONTEXT ( 'NONE', 'WORKASPACE' ) );
#1019 = AXIS2_PLACEMENT_3D ( 'NONE', #157, #335, #716 ) ;
#1020 = ORIENTED_EDGE ( 'NONE', *, *, #1210, .T. ) ;
#1021 =( GEOMETRIC_REPRESENTATION_CONTEXT ( 3 ) GLOBAL_UNCERTAINTY_ASSIGNED_CONTEXT ( ( #578 ) ) GLOBAL_UNIT_ASSIGNED_CONTEXT ( ( #695, #691, #680 ) ) REPRESENTATION_CONTEXT ( 'NONE', 'WORKASPACE' ) );
#1022 = CARTESIAN_POINT ( 'NONE',  ( -3.750000000000000000, 3.100000000000000089, -3.449999999999999734 ) ) ;
#1023 = PLANE ( 'NONE',  #322 ) ;
#1024 = CARTESIAN_POINT ( 'NONE',  ( 1.560000000000000275, 0.1500000000000008271, -3.000000000000000000 ) ) ;
#1025 = ORIENTED_EDGE ( 'NONE', *, *, #777, .T. ) ;
#1026 = EDGE_CURVE ( 'NONE', #48, #988, #382, .T. ) ;
#1027 = CARTESIAN_POINT ( 'NONE',  ( 3.450000000000000622, -10.60660171779821326, 3.749999999999999556 ) ) ;
#1028 = DIRECTION ( 'NONE',  ( -2.891205793294678326E-16, 0.000000000000000000, -1.000000000000000000 ) ) ;
#1029 =( NAMED_UNIT ( * ) SI_UNIT ( $, .STERADIAN. ) SOLID_ANGLE_UNIT ( ) );
#1030 = VERTEX_POINT ( 'NONE', #571 ) ;
#1031 = CARTESIAN_POINT ( 'NONE',  ( -2.899999999999999911, 3.049999999999999822, 2.250000000000000444 ) ) ;
#1032 = DIRECTION ( 'NONE',  ( 0.000000000000000000, 0.000000000000000000, 1.000000000000000000 ) ) ;
#1033 = CARTESIAN_POINT ( 'NONE',  ( -3.449999999999999289, 0.1500000000000008271, 3.750000000000000000 ) ) ;
#1034 = PRESENTATION_LAYER_ASSIGNMENT (  '', '', ( #414 ) ) ;
#1035 = STYLED_ITEM ( 'NONE', ( #1078 ), #532 ) ;
#1036 = ORIENTED_EDGE ( 'NONE', *, *, #897, .F. ) ;
#1037 = VECTOR ( 'NONE', #135, 1000.000000000000000 ) ;
#1038 = AXIS2_PLACEMENT_3D ( 'NONE', #983, #913, #64 ) ;
#1039 = DIRECTION ( 'NONE',  ( -0.000000000000000000, 1.000000000000000000, -0.000000000000000000 ) ) ;
#1040 =( GEOMETRIC_REPRESENTATION_CONTEXT ( 3 ) GLOBAL_UNCERTAINTY_ASSIGNED_CONTEXT ( ( #324 ) ) GLOBAL_UNIT_ASSIGNED_CONTEXT ( ( #572, #944, #551 ) ) REPRESENTATION_CONTEXT ( 'NONE', 'WORKASPACE' ) );
#1041 = LINE ( 'NONE', #481, #1171 ) ;
#1042 = CARTESIAN_POINT ( 'NONE',  ( -3.160000000000000586, 0.000000000000000000, -2.999999999999999556 ) ) ;
#1043 = EDGE_CURVE ( 'NONE', #1030, #1184, #659, .T. ) ;
#1044 = ORIENTED_EDGE ( 'NONE', *, *, #411, .T. ) ;
#1045 = CARTESIAN_POINT ( 'NONE',  ( 3.160000000000000586, 0.000000000000000000, -3.000000000000000444 ) ) ;
#1046 = FILL_AREA_STYLE ('',( #408 ) ) ;
#1047 = EDGE_CURVE ( 'NONE', #91, #715, #1132, .T. ) ;
#1048 = CARTESIAN_POINT ( 'NONE',  ( -3.750000000000000000, -10.60660171779821326, 3.449999999999999734 ) ) ;
#1049 = ORIENTED_EDGE ( 'NONE', *, *, #236, .F. ) ;
#1050 = LINE ( 'NONE', #30, #53 ) ;
#1051 = ORIENTED_EDGE ( 'NONE', *, *, #1004, .T. ) ;
#1052 = VECTOR ( 'NONE', #221, 1000.000000000000000 ) ;
#1053 =( NAMED_UNIT ( * ) PLANE_ANGLE_UNIT ( ) SI_UNIT ( $, .RADIAN. ) );
#1054 =( GEOMETRIC_REPRESENTATION_CONTEXT ( 3 ) GLOBAL_UNCERTAINTY_ASSIGNED_CONTEXT ( ( #494 ) ) GLOBAL_UNIT_ASSIGNED_CONTEXT ( ( #867, #799, #487 ) ) REPRESENTATION_CONTEXT ( 'NONE', 'WORKASPACE' ) );
#1055 =( LENGTH_UNIT ( ) NAMED_UNIT ( * ) SI_UNIT ( .MILLI., .METRE. ) );
#1056 = CIRCLE ( 'NONE', #1173, 0.2999999999999999334 ) ;
#1057 = CARTESIAN_POINT ( 'NONE',  ( -1.560000000000000497, 0.1500000000000008271, 3.000000000000000888 ) ) ;
#1058 = EDGE_LOOP ( 'NONE', ( #1025, #1005, #926, #856 ) ) ;
#1059 = DIRECTION ( 'NONE',  ( 0.000000000000000000, -0.000000000000000000, 1.000000000000000000 ) ) ;
#1060 = EDGE_CURVE ( 'NONE', #240, #667, #1120, .T. ) ;
#1061 = CARTESIAN_POINT ( 'NONE',  ( -3.160000000000000586, 0.000000000000000000, 3.000000000000000444 ) ) ;
#1062 = CARTESIAN_POINT ( 'NONE',  ( -2.899999999999999911, 3.049999999999999822, -2.249999999999999556 ) ) ;
#1063 = ORIENTED_EDGE ( 'NONE', *, *, #791, .F. ) ;
#1064 = DIRECTION ( 'NONE',  ( 0.000000000000000000, -0.000000000000000000, -1.000000000000000000 ) ) ;
#1065 = LINE ( 'NONE', #539, #1092 ) ;
#1066 = VERTEX_POINT ( 'NONE', #366 ) ;
#1067 = VERTEX_POINT ( 'NONE', #471 ) ;
#1068 =( GEOMETRIC_REPRESENTATION_CONTEXT ( 3 ) GLOBAL_UNCERTAINTY_ASSIGNED_CONTEXT ( ( #41 ) ) GLOBAL_UNIT_ASSIGNED_CONTEXT ( ( #1175, #399, #1155 ) ) REPRESENTATION_CONTEXT ( 'NONE', 'WORKASPACE' ) );
#1069 = SHAPE_DEFINITION_REPRESENTATION ( #986, #1193 ) ;
#1070 = VECTOR ( 'NONE', #666, 1000.000000000000000 ) ;
#1071 = DIRECTION ( 'NONE',  ( 0.000000000000000000, 1.000000000000000000, 0.000000000000000000 ) ) ;
#1072 = AXIS2_PLACEMENT_3D ( 'NONE', #617, #132, #1064 ) ;
#1073 = SURFACE_STYLE_FILL_AREA ( #318 ) ;
#1074 =( GEOMETRIC_REPRESENTATION_CONTEXT ( 3 ) GLOBAL_UNCERTAINTY_ASSIGNED_CONTEXT ( ( #297 ) ) GLOBAL_UNIT_ASSIGNED_CONTEXT ( ( #428, #802, #722 ) ) REPRESENTATION_CONTEXT ( 'NONE', 'WORKASPACE' ) );
#1075 = EDGE_CURVE ( 'NONE', #814, #1139, #663, .T. ) ;
#1076 = ORIENTED_EDGE ( 'NONE', *, *, #479, .F. ) ;
#1077 = ORIENTED_EDGE ( 'NONE', *, *, #937, .F. ) ;
#1078 = PRESENTATION_STYLE_ASSIGNMENT (( #739 ) ) ;
#1079 = FILL_AREA_STYLE ('',( #164 ) ) ;
#1080 = DIRECTION ( 'NONE',  ( 0.000000000000000000, 0.000000000000000000, -1.000000000000000000 ) ) ;
#1081 =( NAMED_UNIT ( * ) PLANE_ANGLE_UNIT ( ) SI_UNIT ( $, .RADIAN. ) );
#1082 = FACE_OUTER_BOUND ( 'NONE', #920, .T. ) ;
#1083 = VERTEX_POINT ( 'NONE', #1022 ) ;
#1084 = ORIENTED_EDGE ( 'NONE', *, *, #1075, .T. ) ;
#1085 = CARTESIAN_POINT ( 'NONE',  ( 3.450000000000000622, 0.1500000000000008271, 3.449999999999999734 ) ) ;
#1086 = CARTESIAN_POINT ( 'NONE',  ( 0.000000000000000000, 0.000000000000000000, 0.000000000000000000 ) ) ;
#1087 = PRODUCT ( 'XAL7030-152MEC', 'XAL7030-152MEC', '', ( #540 ) ) ;
#1088 = FILL_AREA_STYLE_COLOUR ( '', #952 ) ;
#1089 = SURFACE_SIDE_STYLE ('',( #1103 ) ) ;
#1090 = DIRECTION ( 'NONE',  ( 1.000000000000000000, 0.000000000000000000, 0.000000000000000000 ) ) ;
#1091 = ORIENTED_EDGE ( 'NONE', *, *, #1093, .F. ) ;
#1092 = VECTOR ( 'NONE', #449, 1000.000000000000000 ) ;
#1093 = EDGE_CURVE ( 'NONE', #750, #387, #767, .T. ) ;
#1094 = PLANE ( 'NONE',  #1038 ) ;
#1095 = AXIS2_PLACEMENT_3D ( 'NONE', #129, #136, #506 ) ;
#1096 = DIRECTION ( 'NONE',  ( 0.000000000000000000, -0.000000000000000000, -1.000000000000000000 ) ) ;
#1097 = DIRECTION ( 'NONE',  ( 1.000000000000000000, 0.000000000000000000, 2.710505431213761085E-16 ) ) ;
#1098 = VECTOR ( 'NONE', #27, 1000.000000000000000 ) ;
#1099 = ORIENTED_EDGE ( 'NONE', *, *, #704, .F. ) ;
#1100 = CARTESIAN_POINT ( 'NONE',  ( -3.449999999999999289, 3.100000000000000089, 3.749999999999999556 ) ) ;
#1101 = SURFACE_STYLE_USAGE ( .BOTH. , #914 ) ;
#1102 = ADVANCED_FACE ( 'NONE', ( #555 ), #550, .F. ) ;
#1103 = SURFACE_STYLE_FILL_AREA ( #817 ) ;
#1104 = SURFACE_STYLE_USAGE ( .BOTH. , #727 ) ;
#1105 = ORIENTED_EDGE ( 'NONE', *, *, #525, .F. ) ;
#1106 = DIRECTION ( 'NONE',  ( 0.000000000000000000, 0.000000000000000000, 1.000000000000000000 ) ) ;
#1107 = FILL_AREA_STYLE ('',( #355 ) ) ;
#1108 = CYLINDRICAL_SURFACE ( 'NONE', #600, 0.2999999999999999334 ) ;
#1109 = ORIENTED_EDGE ( 'NONE', *, *, #886, .F. ) ;
#1110 =( NAMED_UNIT ( * ) SI_UNIT ( $, .STERADIAN. ) SOLID_ANGLE_UNIT ( ) );
#1111 = CARTESIAN_POINT ( 'NONE',  ( -2.899999999999999911, 3.049999999999999822, -2.249999999999999556 ) ) ;
#1112 = CARTESIAN_POINT ( 'NONE',  ( -3.449999999999999289, 0.1500000000000008271, -3.449999999999999734 ) ) ;
#1113 =( NAMED_UNIT ( * ) SI_UNIT ( $, .STERADIAN. ) SOLID_ANGLE_UNIT ( ) );
#1114 = COLOUR_RGB ( '',0.2509803921568627416, 0.2509803921568627416, 0.2509803921568627416 ) ;
#1115 = EDGE_CURVE ( 'NONE', #715, #48, #12, .T. ) ;
#1116 = EDGE_LOOP ( 'NONE', ( #674, #1076, #235, #138 ) ) ;
#1117 = VECTOR ( 'NONE', #1039, 1000.000000000000000 ) ;
#1118 = LINE ( 'NONE', #80, #605 ) ;
#1119 = VERTEX_POINT ( 'NONE', #1045 ) ;
#1120 = LINE ( 'NONE', #280, #187 ) ;
#1121 = LINE ( 'NONE', #193, #997 ) ;
#1122 = CARTESIAN_POINT ( 'NONE',  ( -3.750000000000000000, 3.100000000000000089, 3.449999999999999734 ) ) ;
#1123 = VERTEX_POINT ( 'NONE', #834 ) ;
#1124 = ADVANCED_FACE ( 'NONE', ( #927, #758 ), #463, .F. ) ;
#1125 = CARTESIAN_POINT ( 'NONE',  ( -2.600000000000000089, 3.100000000000000089, 2.250000000000000444 ) ) ;
#1126 = DIRECTION ( 'NONE',  ( -1.000000000000000000, -0.000000000000000000, -0.000000000000000000 ) ) ;
#1127 = VECTOR ( 'NONE', #217, 1000.000000000000000 ) ;
#1128 = AXIS2_PLACEMENT_3D ( 'NONE', #1086, #991, #143 ) ;
#1129 = VERTEX_POINT ( 'NONE', #106 ) ;
#1130 = VECTOR ( 'NONE', #1215, 1000.000000000000000 ) ;
#1131 = VECTOR ( 'NONE', #939, 1000.000000000000000 ) ;
#1132 = LINE ( 'NONE', #97, #306 ) ;
#1133 = STYLED_ITEM ( 'NONE', ( #82 ), #1193 ) ;
#1134 = SURFACE_STYLE_FILL_AREA ( #1001 ) ;
#1135 = CARTESIAN_POINT ( 'NONE',  ( -3.160000000000000586, 0.000000000000000000, 3.000000000000000444 ) ) ;
#1136 = ADVANCED_FACE ( 'NONE', ( #25 ), #392, .T. ) ;
#1137 = SURFACE_STYLE_FILL_AREA ( #376 ) ;
#1138 = UNCERTAINTY_MEASURE_WITH_UNIT (LENGTH_MEASURE( 1.000000000000000082E-05 ), #283, 'distance_accuracy_value', 'NONE');
#1139 = VERTEX_POINT ( 'NONE', #21 ) ;
#1140 = CARTESIAN_POINT ( 'NONE',  ( -3.449999999999999289, 3.100000000000000089, -3.449999999999999734 ) ) ;
#1141 = CARTESIAN_POINT ( 'NONE',  ( -2.600000000000000089, 3.049999999999999822, 2.250000000000000444 ) ) ;
#1142 = LINE ( 'NONE', #682, #702 ) ;
#1143 = VERTEX_POINT ( 'NONE', #402 ) ;
#1144 = DIRECTION ( 'NONE',  ( 0.000000000000000000, 1.000000000000000000, 0.000000000000000000 ) ) ;
#1145 = DIRECTION ( 'NONE',  ( -0.000000000000000000, -1.000000000000000000, -0.000000000000000000 ) ) ;
#1146 = PRESENTATION_STYLE_ASSIGNMENT (( #199 ) ) ;
#1147 = CARTESIAN_POINT ( 'NONE',  ( -2.899999999999999911, 3.100000000000000089, -2.249999999999999556 ) ) ;
#1148 = ORIENTED_EDGE ( 'NONE', *, *, #458, .F. ) ;
#1149 =( GEOMETRIC_REPRESENTATION_CONTEXT ( 3 ) GLOBAL_UNCERTAINTY_ASSIGNED_CONTEXT ( ( #531 ) ) GLOBAL_UNIT_ASSIGNED_CONTEXT ( ( #42, #874, #415 ) ) REPRESENTATION_CONTEXT ( 'NONE', 'WORKASPACE' ) );
#1150 = ADVANCED_FACE ( 'NONE', ( #492 ), #192, .T. ) ;
#1151 = COLOUR_RGB ( '',1.000000000000000000, 1.000000000000000000, 1.000000000000000000 ) ;
#1152 = MECHANICAL_DESIGN_GEOMETRIC_PRESENTATION_REPRESENTATION (  '', ( #502 ), #545 ) ;
#1153 = CARTESIAN_POINT ( 'NONE',  ( 3.450000000000000622, -10.60660171779821326, 3.449999999999999734 ) ) ;
#1154 = VECTOR ( 'NONE', #653, 1000.000000000000000 ) ;
#1155 =( NAMED_UNIT ( * ) SI_UNIT ( $, .STERADIAN. ) SOLID_ANGLE_UNIT ( ) );
#1156 = LINE ( 'NONE', #308, #1127 ) ;
#1157 = PRESENTATION_STYLE_ASSIGNMENT (( #796 ) ) ;
#1158 = FACE_OUTER_BOUND ( 'NONE', #935, .T. ) ;
#1159 = ORIENTED_EDGE ( 'NONE', *, *, #263, .T. ) ;
#1160 = ORIENTED_EDGE ( 'NONE', *, *, #479, .T. ) ;
#1161 =( LENGTH_UNIT ( ) NAMED_UNIT ( * ) SI_UNIT ( .MILLI., .METRE. ) );
#1162 = DIRECTION ( 'NONE',  ( 0.000000000000000000, 1.000000000000000000, 0.000000000000000000 ) ) ;
#1163 = CARTESIAN_POINT ( 'NONE',  ( 1.560000000000002052, 0.000000000000000000, 3.000000000000000444 ) ) ;
#1164 = DIRECTION ( 'NONE',  ( 0.000000000000000000, 1.000000000000000000, 0.000000000000000000 ) ) ;
#1165 = EDGE_CURVE ( 'NONE', #461, #507, #350, .T. ) ;
#1166 = PLANE ( 'NONE',  #967 ) ;
#1167 = ORIENTED_EDGE ( 'NONE', *, *, #777, .F. ) ;
#1168 = ORIENTED_EDGE ( 'NONE', *, *, #370, .F. ) ;
#1169 = VECTOR ( 'NONE', #1189, 1000.000000000000000 ) ;
#1170 = VECTOR ( 'NONE', #734, 1000.000000000000000 ) ;
#1171 = VECTOR ( 'NONE', #665, 1000.000000000000000 ) ;
#1172 = EDGE_CURVE ( 'NONE', #807, #1139, #112, .T. ) ;
#1173 = AXIS2_PLACEMENT_3D ( 'NONE', #101, #295, #116 ) ;
#1174 = PRESENTATION_STYLE_ASSIGNMENT (( #831 ) ) ;
#1175 =( LENGTH_UNIT ( ) NAMED_UNIT ( * ) SI_UNIT ( .MILLI., .METRE. ) );
#1176 = LINE ( 'NONE', #707, #139 ) ;
#1177 = ORIENTED_EDGE ( 'NONE', *, *, #60, .T. ) ;
#1178 = CARTESIAN_POINT ( 'NONE',  ( -2.899999999999999911, 3.100000000000000089, -2.249999999999999556 ) ) ;
#1179 = DIRECTION ( 'NONE',  ( 2.891205793294678326E-16, 0.000000000000000000, 1.000000000000000000 ) ) ;
#1180 = SURFACE_STYLE_USAGE ( .BOTH. , #261 ) ;
#1181 = PRODUCT_DEFINITION ( 'UNKNOWN', '', #568, #963 ) ;
#1182 = DIRECTION ( 'NONE',  ( -0.000000000000000000, -1.000000000000000000, -0.000000000000000000 ) ) ;
#1183 = ORIENTED_EDGE ( 'NONE', *, *, #789, .F. ) ;
#1184 = VERTEX_POINT ( 'NONE', #586 ) ;
#1185 = LINE ( 'NONE', #1100, #1198 ) ;
#1186 = CARTESIAN_POINT ( 'NONE',  ( 3.750000000000000444, 0.1500000000000008271, 3.449999999999999734 ) ) ;
#1187 = DIRECTION ( 'NONE',  ( 1.000000000000000000, -0.000000000000000000, 0.000000000000000000 ) ) ;
#1188 = CARTESIAN_POINT ( 'NONE',  ( 3.750000000000000444, -10.60660171779821326, -3.449999999999999734 ) ) ;
#1189 = DIRECTION ( 'NONE',  ( -0.000000000000000000, 0.000000000000000000, 1.000000000000000000 ) ) ;
#1190 = ORIENTED_EDGE ( 'NONE', *, *, #982, .T. ) ;
#1191 = EDGE_CURVE ( 'NONE', #1139, #1083, #1056, .T. ) ;
#1192 = DIRECTION ( 'NONE',  ( -0.000000000000000000, 0.000000000000000000, 1.000000000000000000 ) ) ;
#1193 = ADVANCED_BREP_SHAPE_REPRESENTATION ( 'XAL7030-152MEC', ( #585, #612, #599, #172, #246 ), #1021 ) ;
#1194 = DIRECTION ( 'NONE',  ( 1.000000000000000000, 0.000000000000000000, -0.000000000000000000 ) ) ;
#1195 = MECHANICAL_DESIGN_GEOMETRIC_PRESENTATION_REPRESENTATION (  '', ( #1035 ), #968 ) ;
#1196 = PRESENTATION_LAYER_ASSIGNMENT (  '', '', ( #845 ) ) ;
#1197 = DIRECTION ( 'NONE',  ( 0.000000000000000000, 0.000000000000000000, 1.000000000000000000 ) ) ;
#1198 = VECTOR ( 'NONE', #237, 1000.000000000000000 ) ;
#1199 = DIRECTION ( 'NONE',  ( 1.000000000000000000, -0.000000000000000000, -5.421010862427522170E-16 ) ) ;
#1200 = MECHANICAL_DESIGN_GEOMETRIC_PRESENTATION_REPRESENTATION (  '', ( #469 ), #632 ) ;
#1201 = ORIENTED_EDGE ( 'NONE', *, *, #1043, .F. ) ;
#1202 = SURFACE_SIDE_STYLE ('',( #892 ) ) ;
#1203 = SURFACE_STYLE_FILL_AREA ( #1107 ) ;
#1204 = LINE ( 'NONE', #357, #184 ) ;
#1205 = FACE_OUTER_BOUND ( 'NONE', #63, .T. ) ;
#1206 =( LENGTH_UNIT ( ) NAMED_UNIT ( * ) SI_UNIT ( .MILLI., .METRE. ) );
#1207 = ORIENTED_EDGE ( 'NONE', *, *, #1165, .T. ) ;
#1208 = FILL_AREA_STYLE ('',( #544 ) ) ;
#1209 =( NAMED_UNIT ( * ) SI_UNIT ( $, .STERADIAN. ) SOLID_ANGLE_UNIT ( ) );
#1210 = EDGE_CURVE ( 'NONE', #168, #1129, #29, .T. ) ;
#1211 = DIRECTION ( 'NONE',  ( -2.891205793294678326E-16, 0.000000000000000000, -1.000000000000000000 ) ) ;
#1212 = CARTESIAN_POINT ( 'NONE',  ( 3.750000000000000444, 3.100000000000000089, 3.449999999999999734 ) ) ;
#1213 = VERTEX_POINT ( 'NONE', #782 ) ;
#1214 = PRESENTATION_STYLE_ASSIGNMENT (( #188 ) ) ;
#1215 = DIRECTION ( 'NONE',  ( -1.000000000000000000, -0.000000000000000000, -0.000000000000000000 ) ) ;
#1216 = VECTOR ( 'NONE', #901, 1000.000000000000000 ) ;
#1217 = SURFACE_SIDE_STYLE ('',( #546 ) ) ;
#1218 = PRESENTATION_LAYER_ASSIGNMENT (  '', '', ( #703 ) ) ;
#1219 = COLOUR_RGB ( '',0.2509803921568627416, 0.2509803921568627416, 0.2509803921568627416 ) ;
ENDSEC;
END-ISO-10303-21;
